<?xml version="1.0" standalone="no"?>
<!DOCTYPE svg PUBLIC "-//W3C//DTD SVG 1.1//EN" "http://www.w3.org/Graphics/SVG/1.1/DTD/svg11.dtd" >
<svg>
<metadata>
Created by FontForge 20120731 at Mon Dec  1 01:02:07 2014
 By Orthosie Webhosting
Copyright (c) 2011 Linotype Corp., www.linotype.com. All rights reserved. This font software may not be reproduced, modified, disclosed or transferred without the express written approval of Linotype Corp. Francker is a trademark of Linotype Corp. registered in the U.S. Patent and Trademark Office and may be registered in certain other jurisdictions in the name of Linotype Corp. or its licensee Linotype GmbH. This typeface is original artwork of Anders Francker. The design may be protected in certain jurisdictions.
</metadata>
<defs>
<font id="FranckerW1GCondensedExtraLight" horiz-adv-x="502" >
  <font-face 
    font-family="FranckerW1GCondensedExtraLight"
    font-weight="250"
    font-stretch="condensed"
    units-per-em="1000"
    panose-1="2 11 2 6 4 7 4 4 2 3"
    ascent="750"
    descent="-250"
    x-height="499"
    cap-height="680"
    bbox="-114 -331 1205 961"
    underline-thickness="50"
    underline-position="125"
    unicode-range="U+000D-FB04"
  />
<missing-glyph horiz-adv-x="500" 
d="M46 46h407v587h-407v-587zM0 680h500v-680h-500v680z" />
    <glyph glyph-name="IJ" unicode="IJ" horiz-adv-x="670" 
d="M136 0h-58v680h58v-680zM592 227q0 -55 -2.5 -87t-12.5 -64.5t-29.5 -49t-53 -27t-83.5 -10.5t-95.5 5t-65.5 10l-21 5v47q64 -13 162 -13q36 0 56.5 1.5t38.5 9t26 18t14 33.5t7.5 49.5t1.5 72.5v453h57v-453z" />
    <glyph glyph-name="ij" unicode="ij" horiz-adv-x="409" 
d="M120 0h-56v499h56v-499zM120 602h-56v124h56v-124zM346 -60q0 -39 -1 -57.5t-7 -46.5t-19 -41t-37.5 -23t-61.5 -10q-34 0 -65.5 5t-46.5 11l-14 5v39q41 -11 103 -11q24 0 39.5 2t26 10t16 14.5t8 25.5t3 32.5t0.5 44.5v559h56v-559zM346 602h-56v124h56v-124z" />
    <glyph glyph-name="napostrophe" unicode="&#x22;n" horiz-adv-x="595" 
d="M532 0h-57v333q0 24 -1.5 42t-6.5 32t-9 23t-14 15t-17 9t-23 5t-26.5 2h-32.5q-36 0 -68.5 -2.5t-47.5 -4.5l-15 -3v-451h-56v490q72 20 187 20q51 0 79.5 -4.5t56.5 -21.5t39.5 -53.5t11.5 -97.5v-333zM116 601l-50 -111h-47l45 111h-3v125h55v-125z" />
    <glyph glyph-name="f_f" unicode="ff" horiz-adv-x="769" 
d="M386 676q-44 11 -112 11q-26 0 -41.5 -1t-27.5 -8t-17 -12t-8 -24t-3.5 -33.5t-0.5 -49.5v-60h173v-50h-173v-449h-57v449h-99v50h99v60q0 28 0.5 41.5t3 36.5t7 34.5t14.5 26.5t24 22t35.5 12t49.5 5q36 0 69.5 -5.5t48.5 -10.5l15 -5v-40zM771 676q-44 11 -112 11
q-26 0 -41.5 -1t-27.5 -8t-17 -12t-8 -24t-3.5 -33.5t-0.5 -49.5v-60h173v-50h-173v-449h-57v449h-99v50h99v60q0 28 0.5 41.5t3 36.5t7 34.5t14.5 26.5t24 22t35.5 12t49.5 5q36 0 69 -5.5t49 -10.5l15 -5v-40z" />
    <glyph glyph-name="fi" unicode="fi" horiz-adv-x="569" 
d="M386 676q-44 11 -112 11q-26 0 -41.5 -1t-27.5 -8t-17 -12t-8 -24t-3.5 -33.5t-0.5 -49.5v-60h173v-50h-173v-449h-57v449h-99v50h99v60q0 28 0.5 41.5t3 36.5t7 34.5t14.5 26.5t24 22t35.5 12t49.5 5q36 0 69.5 -5.5t48.5 -10.5l15 -5v-40zM505 0h-56v499h56v-499z
M505 602h-56v124h56v-124z" />
    <glyph glyph-name="fl" unicode="fl" horiz-adv-x="569" 
d="M386 676q-44 11 -112 11q-26 0 -41.5 -1t-27.5 -8t-17 -12t-8 -24t-3.5 -33.5t-0.5 -49.5v-60h173v-50h-173v-449h-57v449h-99v50h99v60q0 28 0.5 41.5t3 36.5t7 34.5t14.5 26.5t24 22t35.5 12t49.5 5q36 0 69.5 -5.5t48.5 -10.5l15 -5v-40zM505 0h-56v726h56v-726z" />
    <glyph glyph-name="f_f_i" unicode="ffi" horiz-adv-x="953" 
d="M386 676q-44 11 -112 11q-26 0 -41.5 -1t-27.5 -8t-17 -12t-8 -24t-3.5 -33.5t-0.5 -49.5v-60h173v-50h-173v-449h-57v449h-99v50h99v60q0 28 0.5 41.5t3 36.5t7 34.5t14.5 26.5t24 22t35.5 12t49.5 5q36 0 69.5 -5.5t48.5 -10.5l15 -5v-40zM771 676q-44 11 -112 11
q-26 0 -41.5 -1t-27.5 -8t-17 -12t-8 -24t-3.5 -33.5t-0.5 -49.5v-60h173v-50h-173v-449h-57v449h-99v50h99v60q0 28 0.5 41.5t3 36.5t7 34.5t14.5 26.5t24 22t35.5 12t49.5 5q36 0 69 -5.5t49 -10.5l15 -5v-40zM889 0h-56v499h56v-499zM889 602h-56v124h56v-124z" />
    <glyph glyph-name="f_f_l" unicode="ffl" horiz-adv-x="953" 
d="M386 676q-44 11 -112 11q-26 0 -41.5 -1t-27.5 -8t-17 -12t-8 -24t-3.5 -33.5t-0.5 -49.5v-60h173v-50h-173v-449h-57v449h-99v50h99v60q0 28 0.5 41.5t3 36.5t7 34.5t14.5 26.5t24 22t35.5 12t49.5 5q36 0 69.5 -5.5t48.5 -10.5l15 -5v-40zM771 676q-44 11 -112 11
q-26 0 -41.5 -1t-27.5 -8t-17 -12t-8 -24t-3.5 -33.5t-0.5 -49.5v-60h173v-50h-173v-449h-57v449h-99v50h99v60q0 28 0.5 41.5t3 36.5t7 34.5t14.5 26.5t24 22t35.5 12t49.5 5q36 0 69 -5.5t49 -10.5l15 -5v-40zM889 0h-56v726h56v-726z" />
    <glyph glyph-name=".notdef" horiz-adv-x="500" 
d="M46 46h407v587h-407v-587zM0 680h500v-680h-500v680z" />
    <glyph glyph-name=".null" horiz-adv-x="0" 
 />
    <glyph glyph-name="nonmarkingreturn" horiz-adv-x="333" 
 />
    <glyph glyph-name="CR" unicode="&#xd;" horiz-adv-x="266" 
 />
    <glyph glyph-name="space" unicode=" " horiz-adv-x="266" 
 />
    <glyph glyph-name="exclam" unicode="!" horiz-adv-x="213" 
d="M134 227h-56v453h56v-453zM135 0h-57v124h57v-124z" />
    <glyph glyph-name="quotedbl" unicode="&#x22;" horiz-adv-x="337" 
d="M117 490h-53v236h53v-236zM273 490h-53v236h53v-236z" />
    <glyph glyph-name="numbersign" unicode="#" horiz-adv-x="628" 
d="M581 443h-111l-32 -205h103v-48h-111l-30 -190h-53l30 190h-174l-29 -190h-54l30 190h-103v48h110l33 205h-103v47h110l31 190h53l-30 -190h174l29 190h54l-31 -190h104v-47zM417 443h-174l-32 -205h174z" />
    <glyph glyph-name="dollar" unicode="$" horiz-adv-x="570" 
d="M313 -136h-56v126q-48 1 -91 6t-62 9l-19 4v44q70 -12 186 -12q35 0 50.5 0.5t38.5 2.5t32 7.5t21.5 15t16 24.5t7 36t3.5 50q0 87 -11 108.5t-70 33.5l-143 27q-38 7 -63.5 19.5t-38.5 24.5t-19.5 36.5t-7.5 41.5t-1 54q0 53 12 87.5t37 51.5t52.5 23.5t69.5 7.5v125h56
v-126q44 -1 84 -6t58 -9l18 -5v-44q-68 12 -174 12q-31 0 -45 -0.5t-35.5 -2.5t-29.5 -6.5t-19.5 -12.5t-15.5 -21t-7 -31t-3 -43q0 -74 11.5 -93t69.5 -30l143 -28q27 -5 47.5 -13t34.5 -16t23 -23t14 -25.5t7 -33.5t2.5 -37.5t0.5 -45.5q0 -61 -11 -99t-37 -57t-56 -25
t-80 -7v-125z" />
    <glyph glyph-name="percent" unicode="%" horiz-adv-x="885" 
d="M643 680l-353 -680h-48l354 680h47zM320 464q0 -52 -1.5 -82.5t-7 -57t-14 -38.5t-26 -21t-38.5 -11t-56 -2t-55 2t-37.5 11t-25.5 20.5t-14 38.5t-7 57t-1 83q0 64 3.5 101t10.5 64t24.5 38t39.5 15.5t62 4.5q51 0 76 -5.5t42 -31t21 -66t4 -120.5zM275 463v4v59.5
t-2.5 44t-4 32t-8.5 20.5t-11 13.5t-17 6.5t-22 3h-30h-4h-30t-22 -3t-17.5 -6t-11 -13.5t-8 -21t-4 -32.5t-2.5 -44v-59v-4v-56.5t2 -41t3 -31t8 -19.5t11 -13.5t17.5 -5.5t22.5 -3h31h4h31t22.5 3t17.5 5.5t11 13.5t8 19.5t3 31t2 41v56.5zM850 218q0 -52 -1.5 -82.5
t-7 -57t-14 -38.5t-26 -21t-38.5 -11t-56 -2t-55 2t-37.5 11t-25.5 20.5t-14 38.5t-7 57t-1 83q0 64 3.5 101t10.5 64t24.5 38t39.5 15.5t62 4.5q51 0 76 -5.5t42 -31t21 -66t4 -120.5zM805 217v4v59.5t-2.5 44t-4 32t-8.5 20.5t-11 13.5t-17 6.5t-22 3h-30h-4h-30t-22 -3
t-17.5 -6t-11 -13.5t-8 -21t-4 -32.5t-2.5 -44v-59v-4v-56.5t2 -41t3 -31t8 -19.5t11 -13.5t17.5 -5.5t22.5 -3h31h4h31t22.5 3t17.5 5.5t11 13.5t8 19.5t3 31t2 41v56.5z" />
    <glyph glyph-name="ampersand" unicode="&#x26;" horiz-adv-x="658" 
d="M630 321h-97v-312q-89 -20 -237 -20q-46 0 -73.5 1.5t-58 8t-47 19.5t-31.5 35t-21 56t-6 81q0 44 6.5 76.5t16.5 47t19.5 23t16.5 9.5l6 1v1q-2 0 -6.5 1t-14.5 8.5t-18 21t-14.5 42.5t-6.5 69q0 47 6 81t20.5 56t30.5 35.5t43 19.5t51 8t62 2q58 0 111 -5t78 -11l24 -5
v-45q-77 12 -195 12q-32 0 -46 -0.5t-36.5 -2t-31 -5t-22 -11t-18 -18t-10.5 -26t-7.5 -36.5t-1.5 -49q0 -30 2 -49.5t10.5 -33t16 -20t27.5 -10t34.5 -4t47.5 -0.5h216v99h57v-99h97v-52zM476 53v268h-216q-35 0 -49.5 -0.5t-35.5 -4.5t-28.5 -11.5t-16 -22.5t-11 -37
t-2.5 -55q0 -28 1.5 -49t7.5 -36.5t10.5 -26t18.5 -18t23 -11t32 -5t38 -2t48 -0.5q50 0 95 3t65 5z" />
    <glyph glyph-name="quotesingle" unicode="'" horiz-adv-x="181" 
d="M117 490h-53v236h53v-236z" />
    <glyph glyph-name="parenleft" unicode="(" horiz-adv-x="356" 
d="M308 -217q-46 -21 -119 -21q-84 0 -102.5 97t-18.5 386q0 290 19.5 391t101.5 101q32 0 62 -5.5t43 -10.5l14 -5v-42q-39 10 -98 10q-20 0 -29 -2t-21.5 -14.5t-17 -38.5t-10 -75t-7 -123.5t-1.5 -185.5q0 -163 3 -249t15.5 -127t25 -47.5t42.5 -6.5q26 0 50.5 2.5
t35.5 4.5l12 2v-41z" />
    <glyph glyph-name="parenright" unicode=")" horiz-adv-x="356" 
d="M288 245q0 -289 -18.5 -386t-102.5 -97q-32 0 -62 5t-44 11l-14 5v41q39 -9 99 -9q30 0 42.5 6.5t25 47.5t15.5 127t3 249q0 111 -1.5 185.5t-7 123.5t-10 75t-17 38.5t-21.5 14.5t-29 2q-27 0 -51.5 -2.5t-36.5 -5.5l-11 -2v42q47 21 120 21q22 0 38.5 -6t29 -23
t21.5 -35t15 -53.5t9.5 -66.5t5 -86t2 -101t0.5 -121z" />
    <glyph glyph-name="asterisk" unicode="*" horiz-adv-x="485" 
d="M445 543l-165 -57l103 -155l-40 -33l-101 156l-100 -156l-40 33l103 155l-166 57l15 52l164 -62l-2 193h52l-1 -192l164 61z" />
    <glyph glyph-name="plus" unicode="+" horiz-adv-x="527" 
d="M479 269h-189v-223h-53v223h-190v51h190v224h53v-224h189v-51z" />
    <glyph glyph-name="comma" unicode="," horiz-adv-x="184" 
d="M120 0l-51 -113h-49l47 113h-3v127h56v-127z" />
    <glyph glyph-name="hyphen" unicode="-" horiz-adv-x="363" 
d="M316 268h-269v53h269v-53z" />
    <glyph glyph-name="period" unicode="." horiz-adv-x="184" 
d="M120 0h-56v127h56v-127z" />
    <glyph glyph-name="slash" unicode="/" horiz-adv-x="350" 
d="M339 703l-269 -739h-59l270 739h58z" />
    <glyph glyph-name="zero" unicode="0" horiz-adv-x="570" 
d="M511 333q0 -85 -2 -134.5t-11.5 -92.5t-22.5 -62.5t-41 -34t-60.5 -17.5t-88.5 -3t-88.5 3t-60.5 17.5t-41 34t-22.5 62.5t-11.5 92.5t-2 134.5q0 86 2.5 140t12.5 97t23.5 64.5t41.5 36t60 18t86 3.5t86 -3.5t60 -18t41.5 -36t23.5 -64.5t12.5 -97t2.5 -140zM453 329v9
q0 62 -0.5 99.5t-4.5 73.5t-6.5 54t-14 35t-19 22.5t-30 10.5t-37.5 5h-51h-9h-51t-37.5 -5t-30 -10.5t-19.5 -22t-14.5 -35t-6.5 -54.5t-4.5 -74t-0.5 -99v-9v-95t4 -70t5.5 -52t13.5 -32.5t19 -22t30 -9.5t39 -5h53h9h53.5t38.5 5.5t30 9t19 22t13.5 32.5t5 52.5t3.5 69.5
v95z" />
    <glyph glyph-name="one" unicode="1" horiz-adv-x="570" 
d="M351 0h-57v619l-183 -91v56l184 96h56v-680z" />
    <glyph glyph-name="two" unicode="2" horiz-adv-x="570" 
d="M487 0h-411v52l291 322q39 44 46.5 61.5t7.5 54.5q0 32 -4 55.5t-8.5 39.5t-17 26.5t-22 16t-30.5 8t-35 3t-43 0.5q-48 0 -93 -3t-66 -6l-20 -3v44q77 21 198 21q38 0 62.5 -2.5t53 -14t44.5 -32.5t27 -59.5t11 -93.5q0 -48 -9 -71t-53 -72l-265 -294h336v-53z" />
    <glyph glyph-name="three" unicode="3" horiz-adv-x="570" 
d="M486 190q0 -55 -11 -93.5t-27 -59.5t-45.5 -32t-54.5 -13.5t-65 -2.5q-55 0 -106 5t-74 10l-23 5v45q73 -13 184 -13q38 0 55 0.5t41 5t33 13t19.5 25.5t13.5 42.5t3 62.5q0 39 -6 64t-13.5 38.5t-26.5 20t-33.5 7.5t-47.5 1h-165v52h165q39 0 55.5 2t35.5 12.5t25.5 35
t6.5 67.5q0 37 -3.5 63t-14.5 42t-20.5 25t-32.5 13.5t-39 5t-50 0.5q-48 0 -93 -3t-66 -6l-20 -3v44q77 21 198 21q38 0 62.5 -2.5t53 -14t44.5 -32.5t27 -59.5t11 -93.5q0 -40 -7 -69t-17.5 -42.5t-21 -21t-17.5 -8.5l-7 -1v-1q3 0 8 -1t18 -9.5t22.5 -23t17.5 -47
t8 -76.5z" />
    <glyph glyph-name="four" unicode="4" horiz-adv-x="570" 
d="M525 219h-95v-219h-57v219h-327v52l305 409h79v-408h95v-53zM373 272v352l-263 -352h263z" />
    <glyph glyph-name="five" unicode="5" horiz-adv-x="570" 
d="M490 204q0 -51 -4 -86.5t-16 -59.5t-25.5 -38t-40 -21t-51.5 -8.5t-68 -1.5q-56 0 -107 5t-74 10l-24 5v45q73 -13 186 -13q45 0 64 0.5t43.5 6t31.5 14t15.5 28t10 45.5t1.5 69q0 45 -3.5 68t-19 34.5t-30.5 13t-55 1.5h-238v359h363v-52h-306v-255h181q24 0 36 -0.5
t31.5 -2.5t29 -6t23.5 -12t20.5 -20.5t13.5 -30t9.5 -42t2.5 -55.5z" />
    <glyph glyph-name="six" unicode="6" horiz-adv-x="570" 
d="M511 204q0 -50 -6 -86.5t-21 -60t-31.5 -37.5t-46 -20.5t-54.5 -8.5t-67 -2q-56 0 -88.5 3t-60.5 17.5t-41 34t-22.5 62.5t-11.5 92.5t-2 134.5t3 140t12.5 97t22.5 64.5t38.5 36.5t54 17.5t75.5 3.5q56 0 107 -5t74 -11l24 -5v-44q-73 12 -186 12q-34 0 -48.5 -0.5
t-37 -3.5t-30.5 -8.5t-20.5 -18t-15.5 -28.5t-8 -43t-6 -60t-1 -80q64 7 168 7q52 0 81 -1.5t58.5 -8.5t43 -19t25 -35.5t15 -55.5t3.5 -80zM453 204q0 31 -0.5 49.5t-4.5 36.5t-6.5 27t-14.5 17.5t-19.5 11t-31 5t-39 2.5h-52.5q-46 0 -88 -1.5t-61 -3.5l-19 -1v-14v-97
t4 -71t5.5 -53.5t13.5 -33.5t19.5 -22t31 -9.5t40 -5.5h54.5q40 0 57.5 0.5t42 5.5t33.5 14.5t19.5 28t13 46t2.5 68.5z" />
    <glyph glyph-name="seven" unicode="7" horiz-adv-x="570" 
d="M495 626l-268 -626h-65l270 626h-357v54h420v-54z" />
    <glyph glyph-name="eight" unicode="8" horiz-adv-x="570" 
d="M511 190q0 -56 -11 -94t-27.5 -59t-48.5 -32t-61 -13.5t-78 -2.5q-34 0 -56.5 1t-49 5.5t-42.5 13t-32.5 23t-25.5 35.5t-14.5 52t-5.5 71q0 44 7.5 76.5t18.5 47t22.5 23t18.5 9.5l8 1v1q-3 0 -7.5 1t-16.5 8.5t-21.5 21t-17 42.5t-7.5 69q0 56 11 94t27 59t47.5 32.5
t60 14t75.5 2.5q39 0 64 -2t53.5 -8t45 -19.5t31 -35.5t21 -56t6.5 -81q0 -40 -7 -69t-17 -42.5t-20 -21t-17 -8.5l-7 -1v-1q3 0 8 -1t17.5 -9.5t22 -23t17.5 -47t8 -76.5zM450 490q0 28 -2 49.5t-8.5 37t-12 26t-18.5 17.5t-22 11t-29.5 5.5t-33 2t-39.5 0.5
q-35 0 -51 -0.5t-39.5 -5t-33.5 -13.5t-21 -25.5t-14.5 -42t-3.5 -62.5q0 -26 3 -44t7 -31.5t16 -21.5t20.5 -12.5t31 -6.5t37.5 -2.5t48 -0.5h43.5t34.5 1.5t29.5 4.5t21 9t17 14t10.5 21t7.5 29.5t1.5 39.5zM453 190q0 34 -2.5 56.5t-13 37.5t-19.5 22.5t-33.5 11.5
t-42 4.5t-57.5 0.5h-44t-35.5 -2t-30 -5t-21.5 -9.5t-17.5 -16t-10.5 -23.5t-7.5 -33t-1.5 -44q0 -28 1.5 -49t7.5 -37t11 -26.5t18.5 -17.5t22 -11t30 -5.5t34.5 -2t43 -0.5t43.5 0.5t34.5 2t30 5.5t22 11t18 17.5t11 26.5t7.5 37t1.5 49z" />
    <glyph glyph-name="nine" unicode="9" horiz-adv-x="570" 
d="M511 333q0 -71 -2 -117.5t-6.5 -86.5t-15.5 -62.5t-24.5 -39.5t-37.5 -24.5t-50.5 -10.5t-68.5 -3q-56 0 -107.5 5t-74.5 10l-24 5v44q72 -12 187 -12h40.5t32.5 2t27.5 4.5t20.5 9t17 14.5t11.5 22.5t9 30.5t4 41t3 52.5t0.5 65.5q-64 -6 -168 -6q-52 0 -81 1.5
t-58.5 8.5t-43 19t-25 35.5t-15 55t-3.5 80.5q0 60 10.5 100.5t27 63t48 34t61 14.5t79.5 3q54 0 86 -3.5t60 -18t41.5 -36t23.5 -64.5t12.5 -97t2.5 -140zM453 334q0 62 -0.5 101t-5 75t-7 55t-14.5 35.5t-20 22.5t-31 10.5t-38.5 5t-51.5 0.5q-30 0 -44 -0.5t-35.5 -2.5
t-30 -6t-21.5 -11.5t-17.5 -19t-10.5 -29t-7.5 -40t-1.5 -53.5q0 -30 0.5 -49.5t5 -36.5t7.5 -26.5t15 -17.5t20 -11t30.5 -5.5t38 -2.5h51.5q46 0 88 1.5t61 2.5z" />
    <glyph glyph-name="colon" unicode=":" horiz-adv-x="184" 
d="M120 372h-56v127h56v-127zM120 0h-56v127h56v-127z" />
    <glyph glyph-name="semicolon" unicode=";" horiz-adv-x="184" 
d="M120 372h-56v127h56v-127zM120 0l-51 -113h-49l47 113h-3v127h56v-127z" />
    <glyph glyph-name="less" unicode="&#x3c;" horiz-adv-x="527" 
d="M479 42l-432 227v51l432 227v-57l-368 -196l368 -195v-57z" />
    <glyph glyph-name="equal" unicode="=" horiz-adv-x="527" 
d="M479 352h-432v52h432v-52zM479 186h-432v51h432v-51z" />
    <glyph glyph-name="greater" unicode="&#x3e;" horiz-adv-x="527" 
d="M479 269l-432 -227v57l369 195l-369 196v57l432 -227v-51z" />
    <glyph glyph-name="question" unicode="?" horiz-adv-x="474" 
d="M425 517q0 -98 -15 -126.5t-79 -48.5l-73 -22v-93h-55v129l115 34q38 11 45.5 31.5t7.5 95.5q0 32 -2 53t-11.5 35t-17 21.5t-30 11t-38.5 4t-54 0.5q-46 0 -88.5 -3t-62.5 -6l-20 -3v41q74 21 190 21q49 0 78 -4.5t57 -21.5t40.5 -53.5t12.5 -95.5zM259 0h-56v124h56
v-124z" />
    <glyph glyph-name="at" unicode="@" horiz-adv-x="853" 
d="M803 268q0 -125 -12 -161q-15 -47 -73 -63q-55 -15 -259 -15h-46q-37 0 -55.5 1t-47 8.5t-42.5 22.5t-25 44t-11 72q0 41 9 68.5t21 41.5t38 21t44.5 8t56.5 1h141v37q0 37 -5.5 60t-13 36t-28 19t-36 7t-52.5 1q-40 0 -77.5 -3.5t-55.5 -6.5l-17 -3v39q65 19 169 19
q44 0 70 -4.5t51.5 -20.5t36.5 -51t11 -92v-277q37 2 53 2.5t39 5.5t29.5 6.5t18 15t12.5 21.5t4.5 34t3.5 44.5v61.5q0 70 -2 118t-9.5 90t-16.5 67.5t-29.5 46.5t-41 31t-58.5 16.5t-75 8t-97 1.5t-97 -1.5t-74.5 -8t-58.5 -16.5t-41 -31t-29 -46.5t-16.5 -67.5t-9.5 -90
t-2 -118q0 -71 1 -114t7.5 -86t14 -65.5t27 -44t39.5 -30t58.5 -16t77.5 -8.5t103 -1q99 0 189 3.5t131 7.5l40 4v-38q-138 -21 -360 -21q-91 0 -146.5 4.5t-101.5 22t-68.5 41.5t-37.5 75t-18.5 109t-3.5 157t5 162.5t22 114t40.5 77t69.5 43.5t99.5 22t139.5 5t140 -5
t100 -22t69.5 -43.5t40.5 -77t22 -114t5 -162.5zM542 76v197h-141q-42 0 -58.5 -1.5t-33 -10.5t-20.5 -28t-4 -56q0 -25 2.5 -43t11.5 -29t16 -17t25.5 -9t31.5 -3.5t41 -0.5z" />
    <glyph glyph-name="A" unicode="A" horiz-adv-x="596" 
d="M585 0h-62l-79 219h-292l-80 -219h-61l249 680h76zM425 272l-127 351l-127 -351h254z" />
    <glyph glyph-name="B" unicode="B" horiz-adv-x="591" 
d="M531 190q0 -40 -5.5 -70.5t-13.5 -50.5t-24 -33.5t-28.5 -20.5t-37.5 -10.5t-40 -4t-46 -0.5h-258v680h251q28 0 42.5 -0.5t39.5 -4t38 -10.5t30.5 -20.5t26 -33.5t15 -50.5t6.5 -70.5t-6 -69t-14.5 -42.5t-17.5 -21t-15 -8.5l-6 -1v-1q3 0 7 -1t15 -9.5t19 -23t15 -47
t7 -76.5zM469 490q0 34 -3 57.5t-12 39t-17 23.5t-28.5 12t-35 4.5t-46.5 0.5h-191v-254h195q34 0 48.5 0.5t34.5 4t27 10t15.5 20t10.5 33t2 49.5zM474 190q0 33 -2.5 55t-11 37t-16 22.5t-28.5 11.5t-35.5 4.5t-49.5 0.5h-195v-268h198q31 0 45 0.5t34.5 4.5t28.5 12
t17 23.5t12 39t3 57.5z" />
    <glyph glyph-name="C" unicode="C" horiz-adv-x="533" 
d="M503 9q-84 -20 -218 -20q-35 0 -61.5 2.5t-48.5 7t-37.5 16t-27.5 23t-19 34t-12 43.5t-7 57.5t-3 70t-1 86.5q0 82 2.5 133.5t11 96t22 67.5t39 39.5t58 21.5t81.5 5q58 0 112 -5t78 -11l25 -5v-46q-74 12 -196 12h-43.5t-35.5 -2.5t-29.5 -5.5t-21.5 -12t-18 -18.5
t-11.5 -28t-9 -39t-4 -52.5t-3 -66.5t-0.5 -83.5v-78t2.5 -61.5t3.5 -49t8 -35.5t10.5 -26.5t17.5 -17t22 -11.5t30.5 -4.5t37 -2.5h47.5q55 0 104.5 3.5t71.5 6.5l23 3v-47z" />
    <glyph glyph-name="D" unicode="D" horiz-adv-x="620" 
d="M552 329q0 -76 -2 -123t-10 -87.5t-20 -60.5t-35.5 -35t-52.5 -19t-75 -4h-279v680h270q55 0 87.5 -8t57.5 -27t36.5 -61t17 -100.5t5.5 -154.5zM494 329q0 58 -1 98.5t-5.5 73t-7.5 53t-14 35.5t-18.5 21.5t-26.5 10.5t-32 4.5t-42 0.5h-211v-571h219q29 0 41.5 0.5
t31.5 4t25.5 9.5t16.5 20.5t12.5 32.5t6.5 49t4.5 67.5t0.5 90.5z" />
    <glyph glyph-name="E" unicode="E" horiz-adv-x="550" 
d="M503 0h-425v680h419v-53h-361v-254h332v-52h-332v-268h367v-53z" />
    <glyph glyph-name="F" unicode="F" horiz-adv-x="528" 
d="M497 627h-361v-258h332v-51h-332v-318h-58v680h419v-53z" />
    <glyph glyph-name="G" unicode="G" horiz-adv-x="614" 
d="M542 9q-91 -20 -237 -20q-59 0 -94.5 3.5t-64.5 18.5t-42.5 34t-22.5 62.5t-11 90.5t-2 131q0 85 2.5 137t12 96.5t24 66.5t42.5 38t63 20.5t90 4.5q64 0 122.5 -5t85.5 -10l26 -5v-46q-83 12 -216 12h-61.5t-46 -5t-36 -10.5t-22.5 -23.5t-16.5 -36t-7.5 -56t-5 -75.5
v-102.5v-78t2.5 -61.5t3.5 -49t8 -36t10.5 -27t17.5 -17t22 -11.5t31 -4.5t37.5 -2.5h47.5q49 0 94 3t65 5l20 3v268h-176v52h234v-364z" />
    <glyph glyph-name="H" unicode="H" horiz-adv-x="620" 
d="M542 0h-58v320h-348v-320h-58v680h58v-306h348v306h58v-680z" />
    <glyph glyph-name="I" unicode="I" horiz-adv-x="214" 
d="M136 0h-58v680h58v-680z" />
    <glyph glyph-name="J" unicode="J" horiz-adv-x="468" 
d="M390 227q0 -55 -2.5 -87t-12.5 -64.5t-29.5 -49t-53 -27t-83.5 -10.5t-95.5 5t-65.5 10l-21 5v47q64 -13 162 -13q36 0 56.5 1.5t38.5 9t26 18t14 33.5t7.5 49.5t1.5 72.5v453h57v-453z" />
    <glyph glyph-name="K" unicode="K" horiz-adv-x="583" 
d="M564 0h-72l-241 320h-115v-320h-58v680h58v-306h115l231 306h72l-253 -333z" />
    <glyph glyph-name="L" unicode="L" horiz-adv-x="520" 
d="M493 0h-415v680h58v-625h357v-55z" />
    <glyph glyph-name="M" unicode="M" horiz-adv-x="751" 
d="M673 0h-57v613l-204 -613h-74l-203 613v-613h-57v680h92l205 -617l206 617h92v-680z" />
    <glyph glyph-name="N" unicode="N" horiz-adv-x="634" 
d="M556 0h-85l-336 617v-617h-57v680h85l336 -616v616h57v-680z" />
    <glyph glyph-name="O" unicode="O" horiz-adv-x="620" 
d="M552 333q0 -86 -2 -134t-11.5 -92.5t-23 -63t-43.5 -33.5t-66 -18t-97 -3q-45 0 -75 1.5t-57 9t-43 16t-29.5 29.5t-19.5 42.5t-10.5 61t-5.5 80t-1 104.5q0 87 2.5 140t13 97t25 65t44.5 35.5t64 18t92 3.5q43 0 72 -2t56 -9t43 -17t30.5 -30t21.5 -44t12 -64t6.5 -84
t1.5 -109zM494 329v9v81t-3 64.5t-4.5 51t-9 38t-11.5 27.5t-18 17.5t-22 11.5t-30 5.5t-36.5 2.5h-45.5h-8h-46t-36.5 -2.5t-30.5 -5.5t-22 -11.5t-18 -17.5t-11.5 -27.5t-9 -38t-4.5 -51t-3 -64.5v-81v-9v-78t2.5 -61.5t3 -49t8 -35.5t10.5 -27t17.5 -16.5t22.5 -11
t31 -4.5t38 -3h48h8h48t38 3t31 4.5t22 11.5t17.5 16.5t10.5 26.5t7.5 35.5t3 49.5t2.5 61v78z" />
    <glyph glyph-name="P" unicode="P" horiz-adv-x="570" 
d="M531 485q0 -40 -5 -70.5t-11.5 -51t-22 -34t-27.5 -20.5t-38 -10.5t-42.5 -4t-51.5 -0.5h-197v-294h-58v680h251q26 0 39 -0.5t34.5 -2t32.5 -5t27.5 -10t24.5 -16t18 -24t14.5 -34t8 -45.5t3.5 -58zM474 485q0 37 -1.5 60t-10 39.5t-15.5 24.5t-28.5 12.5t-37.5 5
t-54 0.5h-191v-279h195q38 0 54 0.5t37 5t27 11.5t14 23.5t9.5 38.5t1.5 58z" />
    <glyph glyph-name="Q" unicode="Q" horiz-adv-x="620" 
d="M552 333q0 -76 -1.5 -121t-8 -87.5t-17.5 -63.5t-31.5 -38t-47.5 -23.5t-69 -8.5l102 -183h-69l-100 181h-1q-45 0 -75 1.5t-57 9t-43 16t-29.5 29.5t-19.5 42.5t-10.5 61t-5.5 80t-1 104.5q0 87 2.5 140t13 97t25 65t44.5 35.5t64 18t92 3.5q43 0 72 -2t56 -9t43 -17
t30.5 -30t21.5 -44t12 -64t6.5 -84t1.5 -109zM494 329v9v81t-3 64.5t-4.5 51t-9 38t-11.5 27.5t-18 17.5t-22 11.5t-30 5.5t-36.5 2.5h-45.5h-8h-46t-36.5 -2.5t-30.5 -5.5t-22 -11.5t-18 -17.5t-11.5 -27.5t-9 -38t-4.5 -51t-3 -64.5v-81v-9v-78t2.5 -61.5t3 -49t8 -35.5
t10.5 -27t17.5 -16.5t22.5 -11t31 -4.5t38 -3h48h8h48t38 3t31 4.5t22 11.5t17.5 16.5t10.5 26.5t7.5 35.5t3 49.5t2.5 61v78z" />
    <glyph glyph-name="R" unicode="R" horiz-adv-x="599" 
d="M547 0h-63l-134 308h-214v-308h-58v680h251q34 0 50 -0.5t42 -4t38.5 -10.5t29 -20.5t24 -33.5t13 -50.5t5.5 -70.5q0 -100 -28 -137t-91 -43zM474 490q0 35 -1.5 57.5t-10 38.5t-15.5 24t-28.5 12t-37.5 4.5t-54 0.5h-191v-266h195h41.5t31.5 2t26 5t18 9.5t13.5 15
t7 23t5 32t0.5 42.5z" />
    <glyph glyph-name="S" unicode="S" horiz-adv-x="524" 
d="M485 177q0 -44 -5.5 -75.5t-19.5 -52t-29.5 -33t-44 -18.5t-54 -7.5t-67.5 -1.5q-61 0 -116.5 5t-80.5 10l-24 5v45q76 -12 202 -12h43.5t35.5 1t31 4t23 7t19 11t13 17t10 23.5t4 31t2 40.5q0 87 -12.5 108t-80.5 33l-146 27q-35 6 -60 14.5t-40 22t-24 25t-13 33.5
t-4.5 36.5t-0.5 45.5q0 58 13.5 93t44 51.5t62.5 21t87 4.5q56 0 108 -5t76 -11l24 -5v-45q-75 12 -189 12h-44.5t-35.5 -1.5t-30.5 -4.5t-21.5 -8.5t-17.5 -14t-10.5 -20.5t-7.5 -28.5t-1.5 -38.5q0 -73 12.5 -91.5t80.5 -31.5l148 -27q30 -6 52 -14t37.5 -16t25.5 -23
t15 -25.5t7.5 -33.5t3 -37.5t0.5 -45.5z" />
    <glyph glyph-name="T" unicode="T" horiz-adv-x="528" 
d="M501 626h-208v-626h-58v626h-208v54h474v-54z" />
    <glyph glyph-name="U" unicode="U" horiz-adv-x="620" 
d="M542 227q0 -56 -2.5 -89.5t-11.5 -63t-23.5 -44t-42 -25t-63 -13.5t-90.5 -3t-90 3t-62.5 13.5t-41.5 25t-23 44t-11.5 63t-2.5 89.5v453h58v-453v-50t2.5 -39.5t3.5 -31.5t8.5 -23t10.5 -17t17 -11t21.5 -7.5t29 -3t35.5 -1.5h45h45t36 1.5t30 3t21.5 7.5t17 11t11 17
t8.5 23t3.5 31.5t2.5 39.5v50v453h58v-453z" />
    <glyph glyph-name="V" unicode="V" horiz-adv-x="568" 
d="M556 680l-232 -680h-81l-232 680h61l211 -621l213 621h60z" />
    <glyph glyph-name="W" unicode="W" horiz-adv-x="834" 
d="M816 680l-165 -680h-85l-149 616l-149 -616h-85l-163 680h57l150 -620l149 620h82l150 -620l149 620h59z" />
    <glyph glyph-name="X" unicode="X" horiz-adv-x="578" 
d="M559 0h-69l-201 318l-202 -318h-67l221 347l-212 333h67l193 -304l193 304h68l-212 -333z" />
    <glyph glyph-name="Y" unicode="Y" horiz-adv-x="541" 
d="M530 680l-228 -373h-3v-307h-57v307h-3l-228 373h66l193 -317l194 317h66z" />
    <glyph glyph-name="Z" unicode="Z" horiz-adv-x="531" 
d="M492 0h-448v55l366 571h-361v54h428v-54l-366 -571h381v-55z" />
    <glyph glyph-name="bracketleft" unicode="[" horiz-adv-x="356" 
d="M308 -227h-230v953h230v-53h-174v-847h174v-53z" />
    <glyph glyph-name="backslash" unicode="\" horiz-adv-x="350" 
d="M339 -36h-58l-270 739h59z" />
    <glyph glyph-name="bracketright" unicode="]" horiz-adv-x="356" 
d="M277 -227h-230v53h175v847h-175v53h230v-953z" />
    <glyph glyph-name="asciicircum" unicode="^" horiz-adv-x="527" 
d="M438 340h-52l-123 281l-122 -281h-53l149 340h53z" />
    <glyph glyph-name="underscore" unicode="_" horiz-adv-x="449" 
d="M451 -133h-452v51h452v-51z" />
    <glyph glyph-name="grave" unicode="`" horiz-adv-x="836" 
d="M468 602h-59l-90 146h60z" />
    <glyph glyph-name="a" unicode="a" 
d="M438 9q-74 -20 -192 -20q-28 0 -42 0.5t-38.5 3.5t-37 8.5t-29 16.5t-25 27.5t-14.5 41.5t-6 58q0 31 5 55t11.5 40t21 26.5t25.5 16t34 8t37.5 3t43.5 0.5h149v39q0 28 -3 48t-6.5 34t-14 23t-18.5 14t-27 7t-32 2.5t-41 0.5q-43 0 -83 -3t-58 -7l-18 -3v41
q70 20 179 20q31 0 51 -1.5t42.5 -7.5t36.5 -17.5t26 -30.5t17.5 -49t5.5 -71v-324zM381 46v201h-149q-26 0 -37.5 -0.5t-28.5 -2t-23 -5.5t-14.5 -11t-11 -18.5t-4.5 -27t-2 -37.5q0 -27 2.5 -45.5t11.5 -30.5t16.5 -18.5t27 -9.5t33.5 -3.5t44 -0.5q37 0 71 2.5t49 4.5z
" />
    <glyph glyph-name="b" unicode="b" 
d="M448 245q0 -60 -2 -96.5t-9.5 -68.5t-19.5 -47t-35 -26.5t-52 -14.5t-75 -3q-52 0 -99.5 5t-69.5 10l-22 5v717h56v-224q62 8 135 8q44 0 72 -3t51.5 -14.5t35.5 -28t20.5 -48t11 -71t2.5 -100.5zM391 241v9v69.5t-4 52t-6 38.5t-12 24.5t-16 15.5t-25.5 7.5t-32.5 3.5
h-44q-36 0 -69 -2t-48 -4l-14 -2v-406q50 -8 131 -8h45.5t33 3.5t26 6.5t16.5 15.5t11.5 23t4.5 37t3 49.5v67z" />
    <glyph glyph-name="c" unicode="c" horiz-adv-x="445" 
d="M409 9q-68 -20 -178 -20q-37 0 -63.5 4.5t-46 11t-31.5 23t-19.5 32.5t-11 48t-4.5 59.5t-1 77.5q0 69 3 108.5t12.5 74t29.5 50t50.5 24t79.5 8.5q48 0 91.5 -5t63.5 -10l19 -5v-41q-60 12 -154 12h-44t-32.5 -3.5t-25.5 -7.5t-16 -16.5t-11.5 -25t-5 -39t-3.5 -52.5
v-72v-56t1.5 -44t2 -36t6 -25.5t8 -19.5t13.5 -11.5t17.5 -8.5t24.5 -3t29.5 -2h38.5q42 0 81.5 2.5t57.5 5.5l18 3v-41z" />
    <glyph glyph-name="d" unicode="d" 
d="M438 9q-74 -20 -192 -20q-46 0 -75 3t-52 14.5t-34.5 26.5t-19 47t-9.5 68t-2 97q0 74 4.5 117.5t15 75.5t34 46t54.5 20t84 6q32 0 66 -2t52 -4l17 -2v224h57v-717zM381 47v406q-48 8 -130 8h-44t-32.5 -3.5t-25.5 -7.5t-16 -15.5t-12 -24.5t-6 -38.5t-4 -52v-69.5v-9
v-67.5t3 -49t4.5 -36.5t11.5 -23t16 -16t26 -6.5t33.5 -3.5h45.5q36 0 68.5 2t46.5 4z" />
    <glyph glyph-name="e" unicode="e" 
d="M448 233h-337v-65.5t3.5 -47.5t5 -35.5t12 -22.5t17 -15.5t28 -6t36 -3.5h49.5q46 0 88 3.5t62 6.5l19 3v-41q-73 -20 -189 -20q-45 0 -73 3t-51 14.5t-34 26.5t-18.5 47t-9.5 68t-2 97q0 62 2.5 100.5t10.5 71t20 48.5t36 27.5t53 14.5t75 3t75 -3t53 -14.5t36 -27.5
t20 -48.5t10.5 -71t2.5 -100.5v-12zM391 280q0 36 -0.5 60t-4.5 45t-6 32.5t-12.5 21.5t-17 13.5t-25.5 6.5t-31.5 3h-42.5h-43t-32 -3t-25.5 -6.5t-16.5 -13.5t-12.5 -21.5t-6 -32.5t-4 -44.5t-0.5 -60.5h280z" />
    <glyph glyph-name="f" unicode="f" horiz-adv-x="385" 
d="M386 676q-44 11 -112 11q-26 0 -41.5 -1t-27.5 -8t-17 -12t-8 -24t-3.5 -33.5t-0.5 -49.5v-60h173v-50h-173v-449h-57v449h-99v50h99v60q0 28 0.5 41.5t3 36.5t7 34.5t14.5 26.5t24 22t35.5 12t49.5 5q36 0 69.5 -5.5t48.5 -10.5l15 -5v-40z" />
    <glyph glyph-name="g" unicode="g" 
d="M438 -60q0 -61 -11 -98t-37 -54t-53.5 -21.5t-77.5 -4.5q-48 0 -93 5t-66 11l-20 5v40q62 -12 159 -12q35 0 50 0.5t36 4.5t28 11.5t15.5 22t10.5 36t2 54.5v84q-62 -8 -135 -8q-45 0 -74 3t-52 14t-35 25.5t-19.5 44.5t-9.5 64.5t-2 90.5q0 58 2.5 95t11 67t20.5 46
t35.5 27t51 14t71.5 3q52 0 100 -5t70 -10l22 -5v-550zM381 75v376q-49 10 -130 10q-39 0 -55.5 -0.5t-37 -7.5t-26 -16.5t-13 -34.5t-8 -55t-0.5 -84v-9v-80t7 -51.5t12 -33.5t25.5 -15.5t37.5 -7.5h58q36 0 68.5 2t46.5 4z" />
    <glyph glyph-name="h" unicode="h" 
d="M438 0h-57v333q0 24 -1.5 42t-6.5 32t-9 23t-14 15t-17 9t-23 5t-26.5 2h-32.5q-36 0 -68.5 -2.5t-47.5 -4.5l-15 -3v-451h-56v726h56v-224q50 8 131 8q51 0 79.5 -4.5t56.5 -21.5t39.5 -53.5t11.5 -97.5v-333z" />
    <glyph glyph-name="i" unicode="i" horiz-adv-x="184" 
d="M120 0h-56v499h56v-499zM120 602h-56v124h56v-124z" />
    <glyph glyph-name="j" unicode="j" horiz-adv-x="274" 
d="M210 -60q0 -39 -1 -57.5t-7 -46.5t-19 -41t-37.5 -23t-61.5 -10q-34 0 -65.5 5t-46.5 11l-14 5v39q41 -11 103 -11q24 0 39.5 2t26 10t16 14.5t8 25.5t3 32.5t0.5 44.5v559h56v-559zM210 602h-56v124h56v-124z" />
    <glyph glyph-name="k" unicode="k" horiz-adv-x="467" 
d="M448 0h-69l-174 229h-85v-229h-56v726h56v-447h85l167 220h68l-185 -245z" />
    <glyph glyph-name="l" unicode="l" horiz-adv-x="184" 
d="M120 0h-56v726h56v-726z" />
    <glyph glyph-name="m" unicode="m" horiz-adv-x="769" 
d="M705 0h-56v333q0 32 -3 54t-11 36t-15 22t-24 11.5t-28.5 4t-36.5 0.5q-32 0 -66.5 -3.5t-52.5 -7.5l-18 -4q18 -24 18 -113v-333h-55v333q0 47 -6.5 74t-25 38.5t-34.5 13.5t-52 2q-33 0 -62.5 -2.5t-42.5 -4.5l-14 -3v-451h-56v490q68 20 175 20q42 0 72 -5.5t39 -10.5
l10 -6q65 22 171 22q45 0 71.5 -4.5t53 -21.5t38 -54t11.5 -97v-333z" />
    <glyph glyph-name="n" unicode="n" 
d="M438 0h-57v333q0 24 -1.5 42t-6.5 32t-9 23t-14 15t-17 9t-23 5t-26.5 2h-32.5q-36 0 -68.5 -2.5t-47.5 -4.5l-15 -3v-451h-56v490q72 20 187 20q51 0 79.5 -4.5t56.5 -21.5t39.5 -53.5t11.5 -97.5v-333z" />
    <glyph glyph-name="o" unicode="o" 
d="M448 245q0 -61 -2 -97t-9.5 -68t-19 -47t-35.5 -26.5t-53.5 -14.5t-77.5 -3t-77.5 3t-53.5 14.5t-35.5 26.5t-19.5 47t-9.5 68t-1.5 97q0 62 2.5 100.5t10.5 71t20 48.5t36 27.5t53 14.5t75 3t75 -3t53 -14.5t36 -27.5t20 -48.5t10.5 -71t2.5 -100.5zM391 241v9v69.5
t-3.5 52t-5.5 38.5t-12 24.5t-16 15.5t-25 7.5t-31.5 3.5h-42.5h-8h-42.5t-31.5 -3.5t-25 -7.5t-16 -15.5t-12 -24.5t-5.5 -38.5t-3.5 -52v-69.5v-9v-67.5t3 -49t4.5 -36.5t11 -23t15.5 -16t25 -6.5t32.5 -3.5h44.5h8h44t32.5 3.5t25 6.5t15.5 15.5t11.5 23.5t4.5 37t3 49
v67z" />
    <glyph glyph-name="p" unicode="p" 
d="M448 245q0 -60 -2 -96.5t-9.5 -68.5t-19.5 -47t-35 -26.5t-52 -14.5t-75 -3q-32 0 -66 2t-51 4l-18 2v-224h-56v717q74 20 191 20q44 0 72 -3t51.5 -14.5t35.5 -28t20.5 -48t11 -71t2.5 -100.5zM391 241v9v69.5t-4 52t-6 38.5t-12 24.5t-16 15.5t-25.5 7.5t-32.5 3.5h-44
q-36 0 -68.5 -2.5t-47.5 -4.5l-15 -3v-405q49 -7 131 -7h45.5t33 3.5t26 6.5t16.5 15.5t11.5 23t4.5 37t3 49.5v67z" />
    <glyph glyph-name="q" unicode="q" 
d="M438 -227h-57v224q-62 -8 -135 -8q-46 0 -75 3t-52 14.5t-34.5 26.5t-19 47t-9.5 68t-2 97q0 74 4.5 117.5t15 75.5t34 46t54.5 20t84 6q52 0 100 -5t70 -10l22 -5v-717zM381 46v405q-49 10 -130 10h-44t-32.5 -3.5t-25.5 -7.5t-16 -15.5t-12 -24.5t-6 -38.5t-4 -52
v-69.5v-9v-67.5t3 -49t4.5 -36.5t11.5 -23t16 -16t26 -6.5t33.5 -3.5h45.5q36 0 68.5 1.5t46.5 3.5z" />
    <glyph glyph-name="r" unicode="r" horiz-adv-x="360" 
d="M348 449q-47 12 -120 12q-30 0 -57 -2.5t-39 -4.5l-12 -3v-451h-56v490q55 20 142 20q39 0 74.5 -5t51.5 -10l16 -5v-41z" />
    <glyph glyph-name="s" unicode="s" horiz-adv-x="455" 
d="M412 132q0 -49 -10.5 -78t-37 -43t-55 -18t-79.5 -4q-50 0 -95.5 5t-66.5 10l-21 5v40q64 -12 163 -12q34 0 49 0.5t36 3t29 8t17 16.5t11.5 27t2.5 40q0 58 -9.5 72.5t-59.5 22.5l-119 17q-43 6 -68 18t-35.5 33t-12.5 37t-2 49q0 34 9.5 58.5t23.5 38t37.5 21t45.5 9.5
t53 2q46 0 88 -5t62 -10l19 -5v-40q-58 12 -148 12q-36 0 -52 -0.5t-36 -4.5t-27 -12.5t-12.5 -24t-5.5 -39.5q0 -51 9.5 -64t60.5 -22l118 -18q35 -6 57.5 -16t35 -20.5t18 -30.5t6.5 -34t1 -44z" />
    <glyph glyph-name="t" unicode="t" horiz-adv-x="405" 
d="M386 9q-52 -20 -133 -20q-33 0 -56.5 5t-38 18.5t-23 25.5t-12 37t-4 41t-0.5 50v283h-99v50h99v170h57v-170h173v-50h-173v-283q0 -29 0.5 -41.5t2 -30t5.5 -24t10 -15t17.5 -10.5t26 -4t36.5 -2q30 0 58 2.5t41 5.5l13 3v-41z" />
    <glyph glyph-name="u" unicode="u" 
d="M438 9q-72 -20 -187 -20q-54 0 -83.5 4.5t-56 21.5t-37 53.5t-10.5 97.5v333h56v-333q0 -32 2 -53.5t10 -36t15 -22t26 -11t32.5 -4t45.5 -0.5q36 0 68.5 2t46.5 4l15 2v452h57v-490z" />
    <glyph glyph-name="v" unicode="v" horiz-adv-x="451" 
d="M436 499l-171 -499h-78l-172 499h57l154 -445l152 445h58z" />
    <glyph glyph-name="w" unicode="w" horiz-adv-x="715" 
d="M692 499l-136 -499h-79l-119 439l-120 -439h-79l-136 499h55l121 -443l121 443h76l121 -444l120 444h55z" />
    <glyph glyph-name="x" unicode="x" horiz-adv-x="458" 
d="M439 0h-66l-144 227l-144 -227h-65l162 254l-156 245h64l139 -218l139 218h64l-156 -245z" />
    <glyph glyph-name="y" unicode="y" horiz-adv-x="458" 
d="M443 499l-199 -576q-14 -40 -19.5 -55.5t-16 -40t-17.5 -32t-19.5 -18t-26.5 -13t-34 -2.5q-36 0 -69 5t-48 11l-15 5v40q43 -12 112 -12q42 0 55.5 16.5t43.5 104.5l24 68h-21l-172 499h58l153 -445l154 445h57z" />
    <glyph glyph-name="z" unicode="z" horiz-adv-x="454" 
d="M411 0h-364v49l283 400h-276v50h342v-49l-283 -400h298v-50z" />
    <glyph glyph-name="braceleft" unicode="{" horiz-adv-x="440" 
d="M393 -217q-46 -21 -120 -21q-44 0 -68.5 26t-38 102t-13.5 219q0 41 -6 65.5t-21 34.5t-26.5 12t-37.5 2h-39v53h39q26 0 37.5 2t26.5 12t21 34.5t6 65.5q0 141 15 219t39.5 103t65.5 25q33 0 63 -5.5t44 -10.5l13 -5v-42q-39 10 -99 10q-17 0 -25 -1.5t-20 -10
t-17.5 -28t-12 -53t-8.5 -88t-2 -131.5q0 -34 -6 -59t-14.5 -36t-16.5 -18t-14 -7l-6 -1v-2q2 0 6 -0.5t14 -7.5t17.5 -18.5t13.5 -36.5t6 -59q0 -92 4 -152t9 -92.5t18 -47.5t22.5 -17.5t31.5 -2.5q27 0 51.5 2.5t36.5 4.5l11 2v-41z" />
    <glyph glyph-name="bar" unicode="|" horiz-adv-x="212" 
d="M134 -227h-56v953h56v-953z" />
    <glyph glyph-name="braceright" unicode="}" horiz-adv-x="440" 
d="M417 223h-39q-25 0 -37 -2t-27 -12t-21 -34.5t-6 -65.5q0 -143 -13.5 -219t-38 -102t-68.5 -26q-32 0 -62 5t-44 11l-14 5v41q39 -9 99 -9q22 0 31.5 2.5t23 17.5t18.5 47.5t9 92.5t4 152q0 34 6 59t14 36.5t16.5 18.5t14.5 7l6 1v2q-2 0 -6 0.5t-14 7.5t-17.5 18
t-13.5 36t-6 59q0 92 -4.5 152.5t-10 92.5t-18.5 47t-22.5 17.5t-30.5 2.5q-27 0 -51.5 -2.5t-36.5 -5.5l-11 -2v42q47 21 120 21q41 0 65.5 -25t39.5 -103t15 -219q0 -41 6 -65.5t21 -34.5t27 -12t37 -2h39v-53z" />
    <glyph glyph-name="asciitilde" unicode="~" horiz-adv-x="527" 
d="M479 299q-5 -7 -13.5 -17t-37 -26.5t-58.5 -16.5q-33 0 -106.5 30t-107.5 30q-30 0 -57 -15.5t-39 -31.5l-13 -16v54q5 7 13.5 17t37 27t58.5 17q34 0 107.5 -30.5t106.5 -30.5q30 0 57.5 16t39.5 32l12 16v-55z" />
    <glyph glyph-name="uni00A0" unicode="&#xa0;" horiz-adv-x="266" 
 />
    <glyph glyph-name="exclamdown" unicode="&#xa1;" horiz-adv-x="213" 
d="M135 374h-57v125h57v-125zM134 -181h-55v453h55v-453z" />
    <glyph glyph-name="cent" unicode="&#xa2;" horiz-adv-x="570" 
d="M313 -136h-56v126q-32 1 -54.5 6t-39.5 13t-27.5 24.5t-17 32.5t-9.5 47t-4 58t-1 74q0 66 2.5 104t11 72t25.5 50.5t44.5 26t69.5 11.5v126h56v-126q39 -2 74 -6.5t51 -8.5l15 -4v-41q-60 12 -154 12h-44t-32.5 -3.5t-25.5 -7.5t-16 -16.5t-11.5 -25t-5 -39t-3.5 -52.5
v-72v-56t1.5 -44t2 -35.5t6.5 -25.5t8.5 -19.5t13.5 -12t17 -8.5t24 -3t30 -2h38q43 0 82 2.5t57 5.5l18 3v-41q-56 -16 -146 -19v-126z" />
    <glyph glyph-name="sterling" unicode="&#xa3;" horiz-adv-x="570" 
d="M511 0h-452v54h64v265h-64v52h64v82q0 54 2.5 86.5t12 65.5t27.5 49.5t49 27t77 10.5t88 -5t61 -11l19 -5v-46q-58 13 -148 13q-39 0 -60 -3.5t-37 -12.5t-22.5 -32t-9 -52.5t-2.5 -84.5v-82h253v-52h-253v-265h331v-54z" />
    <glyph glyph-name="currency" unicode="&#xa4;" horiz-adv-x="570" 
d="M519 562l-82 -93q40 -56 40 -129q0 -71 -41 -130l83 -92l-34 -38l-84 93q-49 -44 -116 -44q-66 0 -116 44l-84 -93l-34 38l84 93q-40 56 -40 129q0 74 39 129l-83 93l34 38l84 -93q52 44 116 44q65 0 116 -44l84 93zM426 340q0 65 -41.5 112t-99.5 47t-99.5 -47
t-41.5 -112t41.5 -112t99.5 -47t99.5 47t41.5 112z" />
    <glyph glyph-name="yen" unicode="&#xa5;" horiz-adv-x="570" 
d="M481 156h-168v-156h-56v156h-167v48h167v77h-167v48h151l-197 351h63l178 -317l179 317h63l-198 -351h152v-48h-168v-77h168v-48z" />
    <glyph glyph-name="brokenbar" unicode="&#xa6;" horiz-adv-x="212" 
d="M134 327h-56v399h56v-399zM134 -227h-56v400h56v-400z" />
    <glyph glyph-name="section" unicode="&#xa7;" horiz-adv-x="570" 
d="M462 -72q0 -46 -7.5 -77t-19.5 -48.5t-35.5 -26.5t-46 -11.5t-61.5 -2.5q-47 0 -89.5 5t-62.5 11l-19 5v40q59 -12 150 -12q31 0 44.5 0.5t33 4t27 10.5t16 20t11 33t2.5 49q0 67 -9 88t-52 30l-140 26q-59 11 -87.5 51t-28.5 131q0 148 49 190q-13 15 -19.5 37t-7.5 39
t-1 51q0 56 12 91t37 50.5t49.5 20t63.5 4.5q44 0 84.5 -5.5t58.5 -10.5l19 -5v-41q-56 12 -141 12q-30 0 -43 -0.5t-31 -4t-25 -10t-15 -19.5t-10.5 -33t-2.5 -49q0 -30 0.5 -43t3.5 -29.5t9.5 -23t18.5 -12.5t31 -10l138 -27q60 -11 88 -50.5t28 -130.5q0 -148 -48 -189
q13 -15 19.5 -37.5t7.5 -39.5t1 -51zM218 404q-29 6 -52 17q-21 -77 -21 -167q0 -72 15 -98t54 -33l138 -27q34 -8 52 -17q21 75 21 166q0 73 -14.5 98t-53.5 33z" />
    <glyph glyph-name="dieresis" unicode="&#xa8;" horiz-adv-x="836" 
d="M369 602h-54v113h54v-113zM521 602h-54v113h54v-113z" />
    <glyph glyph-name="copyright" unicode="&#xa9;" horiz-adv-x="719" 
d="M677 333q0 -62 -1.5 -102.5t-7.5 -79t-15 -61t-27 -43t-39 -30t-56 -17t-74.5 -9.5t-96.5 -2q-58 0 -97 2t-74.5 9.5t-56.5 17t-39 30t-27 43t-15 61t-7.5 79t-1.5 102.5q0 84 4 137.5t18.5 96.5t34.5 65.5t58.5 37t84 18.5t118.5 4t118 -4t84 -18.5t58.5 -37t34 -65.5
t18.5 -96.5t4 -137.5zM632 333q0 60 -1.5 100.5t-8 75.5t-13 56t-24 38t-33.5 25t-48.5 13t-62.5 6t-81 1q-52 0 -81.5 -1t-62.5 -6t-49 -13t-33.5 -25t-24 -38t-13 -56.5t-8 -75.5t-1.5 -100q0 -61 0.5 -96t6 -71.5t11 -54t22.5 -36t32.5 -24.5t49 -12t65 -6.5t86.5 -0.5
t86.5 0.5t65 6.5t49 12t32 24.5t22 36t11 54t6 71.5t0.5 96zM476 135q-55 -13 -137 -13q-34 0 -55.5 3t-37.5 13.5t-24 22.5t-13 39.5t-6 55t-1 77.5q0 145 23 185.5t112 40.5q36 0 70 -3.5t49 -7.5l16 -3v-37q-50 9 -124 9h-31.5t-23 -3t-18.5 -6.5t-12.5 -13.5t-9 -21.5
t-4 -33t-3 -45.5t-0.5 -61v-71.5t5 -46.5t9 -30.5t19.5 -14t27.5 -6.5h43q33 0 64.5 2t46.5 4l15 3v-38z" />
    <glyph glyph-name="ordfeminine" unicode="&#xaa;" horiz-adv-x="313" 
d="M279 270h-245v40h245v-40zM274 374q-47 -12 -120 -12q-31 0 -46.5 2t-36 10.5t-29.5 30t-9 57.5q0 34 7 54t25.5 28.5t33.5 10t47 1.5h85v19q0 51 -15.5 62t-65.5 11q-26 0 -51 -2t-37 -4l-13 -3v34q45 14 113 14q59 0 85.5 -20t26.5 -92v-201zM231 405v113h-85
q-46 0 -58 -8t-12 -48q0 -23 3.5 -36t15.5 -18.5t22.5 -6.5t36.5 -1z" />
    <glyph glyph-name="guillemotleft" unicode="&#xab;" horiz-adv-x="450" 
d="M222 22h-60l-139 228l139 227h60l-138 -227zM426 22h-60l-139 228l139 227h60l-138 -227z" />
    <glyph glyph-name="logicalnot" unicode="&#xac;" horiz-adv-x="527" 
d="M479 186h-53v166h-379v52h432v-218z" />
    <glyph glyph-name="uni00AD" unicode="&#xad;" horiz-adv-x="363" 
d="M316 268h-269v53h269v-53z" />
    <glyph glyph-name="registered" unicode="&#xae;" horiz-adv-x="445" 
d="M420 471q0 -51 -2 -81.5t-10 -57.5t-19.5 -39.5t-36 -21.5t-53.5 -11.5t-77 -2.5t-77 2.5t-53 11.5t-35.5 21.5t-19.5 39.5t-10 57.5t-2 81.5q0 77 6.5 118t30 65.5t58.5 31t102 6.5q54 0 85.5 -4.5t56 -16.5t35.5 -38t16 -63t5 -99zM378 471q0 49 -1 75.5t-8.5 49.5
t-14 32t-28.5 15.5t-41.5 7t-62.5 0.5q-32 0 -48 -0.5t-36 -3t-28 -6.5t-18.5 -14t-13.5 -21t-6.5 -32.5t-4 -44t-0.5 -58.5v-57t3 -41.5t5 -32t12.5 -20t18 -13.5t28.5 -5.5t37 -3.5h51h51.5t37.5 3.5t28.5 5.5t18 13.5t12.5 20t5 32t3 41.5v57zM320 340h-42l-50 114h-65
v-114h-39v268h102q24 0 35 -1.5t24.5 -8t18.5 -23.5t5 -45q0 -38 -10 -54t-31 -20zM271 530q0 30 -7.5 36t-38.5 6h-62v-82h64q30 0 37 5.5t7 34.5z" />
    <glyph glyph-name="macron" unicode="&#xaf;" horiz-adv-x="836" 
d="M534 602h-231v51h231v-51z" />
    <glyph glyph-name="degree" unicode="&#xb0;" horiz-adv-x="360" 
d="M311 544q0 -60 -38.5 -102.5t-93.5 -42.5q-54 0 -93 42.5t-39 102.5t39 102.5t93 42.5q55 0 93.5 -42.5t38.5 -102.5zM264 544q0 40 -25 67.5t-60 27.5q-34 0 -58.5 -28t-24.5 -67t24.5 -67t58.5 -28q35 0 60 27.5t25 67.5z" />
    <glyph glyph-name="plusminus" unicode="&#xb1;" horiz-adv-x="527" 
d="M479 319h-189v-183h-53v183h-190v52h190v183h53v-183h189v-52zM479 36h-432v52h432v-52z" />
    <glyph glyph-name="twosuperior" unicode="&#xb2;" horiz-adv-x="356" 
d="M305 425h-259v38l178 197q22 25 26.5 35.5t4.5 31.5q0 32 -4.5 50t-19 26t-27 9.5t-41.5 1.5t-57.5 -2t-41.5 -4l-14 -3v35q50 14 125 14q30 0 48.5 -3.5t38.5 -15t29 -38.5t9 -70q0 -27 -7.5 -44.5t-32.5 -45.5l-154 -171h199v-41z" />
    <glyph glyph-name="threesuperior" unicode="&#xb3;" horiz-adv-x="356" 
d="M305 546q0 -43 -9 -70t-29 -38.5t-39 -15t-51 -3.5q-34 0 -66 3.5t-47 7.5l-15 3v35q50 -9 116 -9q32 0 45.5 1.5t27.5 9.5t18 25.5t4 50.5q0 27 -3.5 42.5t-14.5 22.5t-20.5 8t-32.5 1h-105v40h105q21 0 30.5 1t20 7t14 20t3.5 39q0 32 -4.5 50t-19 26t-27 9.5
t-41.5 1.5q-28 0 -56 -2t-42 -4l-14 -3v35q50 14 124 14q31 0 49 -3.5t38 -15t29 -38.5t9 -70q0 -38 -9 -59.5t-17 -23.5l-9 -3v-1h1q1 0 3.5 -1t5 -2.5t6 -5t6.5 -8t6 -11.5t5 -16t3.5 -22t1.5 -28z" />
    <glyph glyph-name="acute" unicode="&#xb4;" horiz-adv-x="836" 
d="M517 748l-91 -146h-58l89 146h60z" />
    <glyph glyph-name="mu" unicode="&#xb5;" 
d="M438 9q-72 -20 -187 -20q-36 0 -68.5 2t-47.5 4l-15 2v-224h-56v726h56v-452q50 -8 131 -8q36 0 68.5 2t46.5 4l15 2v452h57v-490z" />
    <glyph glyph-name="paragraph" unicode="&#xb6;" horiz-adv-x="673" 
d="M626 -227h-54v900h-203v-900h-54v499h-93h-37.5t-31.5 1.5t-28 4.5t-21.5 8.5t-19 14t-14 21t-11 28.5t-6.5 38t-5 49.5t-1 61.5t1 61.5t5 49.5t6.5 38t11 28.5t14 21t19 14t21.5 8.5t28 4.5t31.5 1.5h37.5h404v-953zM315 324v349h-93h-50t-32 -7t-22.5 -14.5t-10.5 -31
t-6 -47.5v-74v-74.5t6 -48t10.5 -31t22.5 -14.5t32 -7h50h93z" />
    <glyph glyph-name="periodcentered" unicode="&#xb7;" horiz-adv-x="266" 
d="M161 231h-56v128h56v-128z" />
    <glyph glyph-name="cedilla" unicode="&#xb8;" horiz-adv-x="836" 
d="M528 -142q0 -49 -18 -63.5t-73 -14.5q-25 0 -47.5 5t-33.5 11l-10 5v32q31 -10 80 -10q34 0 41 4.5t7 30.5q0 25 -3.5 29t-25.5 4h-60v109h51v-63h19q20 0 29.5 -1.5t22 -8.5t17 -23.5t4.5 -45.5z" />
    <glyph glyph-name="onesuperior" unicode="&#xb9;" horiz-adv-x="356" 
d="M222 425h-44v374l-111 -55v43l116 60h39v-422z" />
    <glyph glyph-name="ordmasculine" unicode="&#xba;" horiz-adv-x="313" 
d="M279 270h-245v40h245v-40zM281 522q0 -106 -20 -133t-104 -27t-104 27t-20 133q0 108 21 136.5t103 28.5t103 -28.5t21 -136.5zM237 519v5q0 40 -2 60.5t-4.5 35.5t-13.5 19.5t-21.5 6t-36.5 1.5h-5q-32 0 -43.5 -1.5t-22 -14.5t-11.5 -35t-1 -72v-5v-50t3.5 -32.5
t6.5 -21t14.5 -9.5t21 -5h32.5h5h32.5t21 5t14.5 9.5t6.5 21t3.5 32.5v50z" />
    <glyph glyph-name="guillemotright" unicode="&#xbb;" horiz-adv-x="450" 
d="M222 250l-138 -228h-61l139 228l-139 227h61zM426 250l-138 -228h-61l139 228l-139 227h61z" />
    <glyph glyph-name="onequarter" unicode="&#xbc;" horiz-adv-x="885" 
d="M643 680l-353 -680h-48l354 680h47zM222 258h-44v374l-111 -55v43l116 60h39v-422zM858 133h-58v-133h-43v133h-198v38l187 251h54v-247h58v-42zM757 175v195l-147 -195h147z" />
    <glyph glyph-name="onehalf" unicode="&#xbd;" horiz-adv-x="885" 
d="M643 680l-353 -680h-48l354 680h47zM222 258h-44v374l-111 -55v43l116 60h39v-422zM835 0h-259v38l178 197q22 25 26.5 35.5t4.5 31.5q0 32 -4.5 50t-19 26t-27 9.5t-41.5 1.5t-57.5 -2.5t-41.5 -4.5l-14 -2v35q50 14 125 14q30 0 48.5 -3.5t38.5 -15t29 -38.5t9 -70
q0 -27 -7.5 -44.5t-32.5 -45.5l-154 -171h199v-41z" />
    <glyph glyph-name="threequarters" unicode="&#xbe;" horiz-adv-x="885" 
d="M643 680l-353 -680h-48l354 680h47zM305 379q0 -43 -9 -70t-29 -38.5t-39 -15t-51 -3.5q-34 0 -66 3.5t-47 6.5l-15 4v35q50 -9 116 -9q32 0 45.5 1.5t27.5 9.5t18 25.5t4 50.5q0 27 -3.5 42.5t-14.5 22.5t-20.5 8t-32.5 1h-105v40h105q21 0 30.5 1t20 7t14 20t3.5 39
q0 32 -4.5 50t-19 26t-27 9.5t-41.5 1.5q-28 0 -56 -2.5t-42 -4.5l-14 -2v35q50 14 124 14q31 0 49 -3.5t38 -15t29 -38.5t9 -70q0 -38 -9 -59.5t-17 -24.5l-9 -2v-1h1q1 0 3.5 -1t5 -2.5t6 -5t6.5 -8t6 -11.5t5 -16t3.5 -22t1.5 -28zM858 133h-58v-133h-43v133h-198v38
l187 251h54v-247h58v-42zM757 175v195l-147 -195h147z" />
    <glyph glyph-name="questiondown" unicode="&#xbf;" horiz-adv-x="474" 
d="M271 374h-56v125h56v-125zM425 -173q-72 -20 -188 -20q-39 0 -63.5 2.5t-51.5 12t-41.5 28t-24 51.5t-9.5 80q0 98 15.5 127.5t79.5 48.5l74 22v93h54v-129l-115 -34q-37 -11 -44.5 -31.5t-7.5 -96.5q0 -24 1 -41t6 -30.5t9 -22t16 -14.5t19.5 -9t27 -5t32.5 -2h41
q46 0 88.5 3t62.5 6l19 3v-42z" />
    <glyph glyph-name="Agrave" unicode="&#xc0;" horiz-adv-x="596" 
d="M585 0h-62l-79 219h-292l-80 -219h-61l249 680h76zM425 272l-127 351l-127 -351h254zM348 775h-59l-90 146h60z" />
    <glyph glyph-name="Aacute" unicode="&#xc1;" horiz-adv-x="596" 
d="M585 0h-62l-79 219h-292l-80 -219h-61l249 680h76zM425 272l-127 351l-127 -351h254zM397 921l-91 -146h-58l89 146h60z" />
    <glyph glyph-name="Acircumflex" unicode="&#xc2;" horiz-adv-x="596" 
d="M585 0h-62l-79 219h-292l-80 -219h-61l249 680h76zM425 272l-127 351l-127 -351h254zM419 775h-58l-63 100l-63 -100h-58l89 146h64z" />
    <glyph glyph-name="Atilde" unicode="&#xc3;" horiz-adv-x="596" 
d="M585 0h-62l-79 219h-292l-80 -219h-61l249 680h76zM425 272l-127 351l-127 -351h254zM432 902q0 -131 -75 -131q-14 0 -30 9t-24 17.5l-24 25.5q-27 33 -40 33q-8 0 -12.5 -4t-9 -23t-4.5 -54h-49q0 132 75 132q14 0 30 -9t24 -17.5l24 -25.5q28 -34 40 -34q8 0 12.5 4
t9 23t4.5 54h49z" />
    <glyph glyph-name="Adieresis" unicode="&#xc4;" horiz-adv-x="596" 
d="M585 0h-62l-79 219h-292l-80 -219h-61l249 680h76zM425 272l-127 351l-127 -351h254zM249 775h-54v113h54v-113zM401 775h-54v113h54v-113z" />
    <glyph glyph-name="Aring" unicode="&#xc5;" horiz-adv-x="596" 
d="M585 0h-62l-79 219h-292l-80 -219h-61l249 680h76zM425 272l-127 351l-127 -351h254zM399 857q0 -55 -17.5 -70.5t-83.5 -15.5t-83.5 15.5t-17.5 70.5q0 58 18.5 74.5t82.5 16.5t82.5 -16.5t18.5 -74.5zM348 857q0 37 -6.5 43.5t-43.5 6.5q-38 0 -44 -6.5t-6 -43.5
q0 -35 6 -40.5t44 -5.5q37 0 43.5 6t6.5 40z" />
    <glyph glyph-name="AE" unicode="&#xc6;" horiz-adv-x="845" 
d="M797 0h-383v219h-251l-90 -219h-62l278 680h502v-53h-319v-254h292v-52h-292v-268h325v-53zM414 272v355h-86l-144 -355h230z" />
    <glyph glyph-name="Ccedilla" unicode="&#xc7;" horiz-adv-x="533" 
d="M399 -142q0 -49 -18 -63.5t-74 -14.5q-24 0 -47 5t-34 11l-10 5v32q32 -10 81 -10q34 0 41 4.5t7 30.5q0 25 -3.5 29t-25.5 4h-61v99q-34 1 -58.5 4.5t-44.5 13t-33.5 20.5t-23 33t-14.5 43t-8 59t-4 73.5t-1 92.5q0 82 2.5 133.5t11 96t22 67.5t39 39.5t58 21.5t81.5 5
q58 0 112 -5t78 -11l25 -5v-46q-74 12 -196 12h-43.5t-35.5 -2.5t-29.5 -5.5t-21.5 -12t-18 -18.5t-11.5 -28t-9 -39t-4 -52.5t-3 -66.5t-0.5 -83.5v-78t2.5 -61.5t3.5 -49t8 -35.5t10.5 -26.5t17.5 -17t22 -11.5t30.5 -4.5t37 -2.5h47.5q55 0 104.5 3.5t71.5 6.5l23 3v-47
q-76 -18 -196 -20v-52h19q20 0 29.5 -1.5t22 -8.5t17 -23.5t4.5 -45.5z" />
    <glyph glyph-name="Egrave" unicode="&#xc8;" horiz-adv-x="550" 
d="M503 0h-425v680h419v-53h-361v-254h332v-52h-332v-268h367v-53zM339 775h-59l-90 146h60z" />
    <glyph glyph-name="Eacute" unicode="&#xc9;" horiz-adv-x="550" 
d="M503 0h-425v680h419v-53h-361v-254h332v-52h-332v-268h367v-53zM388 921l-91 -146h-58l89 146h60z" />
    <glyph glyph-name="Ecircumflex" unicode="&#xca;" horiz-adv-x="550" 
d="M503 0h-425v680h419v-53h-361v-254h332v-52h-332v-268h367v-53zM410 775h-58l-63 100l-63 -100h-58l89 146h64z" />
    <glyph glyph-name="Edieresis" unicode="&#xcb;" horiz-adv-x="550" 
d="M503 0h-425v680h419v-53h-361v-254h332v-52h-332v-268h367v-53zM240 775h-54v113h54v-113zM392 775h-54v113h54v-113z" />
    <glyph glyph-name="Igrave" unicode="&#xcc;" horiz-adv-x="214" 
d="M136 0h-58v680h58v-680zM157 775h-59l-90 146h60z" />
    <glyph glyph-name="Iacute" unicode="&#xcd;" horiz-adv-x="214" 
d="M136 0h-58v680h58v-680zM206 921l-91 -146h-58l89 146h60z" />
    <glyph glyph-name="Icircumflex" unicode="&#xce;" horiz-adv-x="214" 
d="M136 0h-58v680h58v-680zM228 775h-58l-63 100l-63 -100h-58l89 146h64z" />
    <glyph glyph-name="Idieresis" unicode="&#xcf;" horiz-adv-x="214" 
d="M136 0h-58v680h58v-680zM58 775h-54v113h54v-113zM210 775h-54v113h54v-113z" />
    <glyph glyph-name="Eth" unicode="&#xd0;" horiz-adv-x="636" 
d="M569 329q0 -76 -2 -123t-10 -87.5t-20 -60.5t-35.5 -35t-53 -19t-75.5 -4h-278v319h-90v49h90v312h270q55 0 87.5 -8t57.5 -27t36.5 -61t17 -100.5t5.5 -154.5zM511 329q0 58 -1 98.5t-5.5 73t-7.5 53t-14 35.5t-18.5 21.5t-26.5 10.5t-32 4.5t-42 0.5h-212v-258h172v-49
h-172v-264h220q29 0 41.5 0.5t31.5 4t25.5 9.5t16.5 20.5t12.5 32.5t6.5 49t4.5 67.5t0.5 90.5z" />
    <glyph glyph-name="Ntilde" unicode="&#xd1;" horiz-adv-x="634" 
d="M556 0h-85l-336 617v-617h-57v680h85l336 -616v616h57v-680zM451 902q0 -131 -75 -131q-14 0 -30 9t-24 17.5l-24 25.5q-28 33 -40 33q-8 0 -12.5 -4t-9 -23t-4.5 -54h-49q0 132 75 132q14 0 30 -9t24 -17.5l24 -25.5q28 -34 40 -34q8 0 12.5 4t9 23t4.5 54h49z" />
    <glyph glyph-name="Ograve" unicode="&#xd2;" horiz-adv-x="620" 
d="M552 333q0 -86 -2 -134t-11.5 -92.5t-23 -63t-43.5 -33.5t-66 -18t-97 -3q-45 0 -75 1.5t-57 9t-43 16t-29.5 29.5t-19.5 42.5t-10.5 61t-5.5 80t-1 104.5q0 87 2.5 140t13 97t25 65t44.5 35.5t64 18t92 3.5q43 0 72 -2t56 -9t43 -17t30.5 -30t21.5 -44t12 -64t6.5 -84
t1.5 -109zM494 329v9v81t-3 64.5t-4.5 51t-9 38t-11.5 27.5t-18 17.5t-22 11.5t-30 5.5t-36.5 2.5h-45.5h-8h-46t-36.5 -2.5t-30.5 -5.5t-22 -11.5t-18 -17.5t-11.5 -27.5t-9 -38t-4.5 -51t-3 -64.5v-81v-9v-78t2.5 -61.5t3 -49t8 -35.5t10.5 -27t17.5 -16.5t22.5 -11
t31 -4.5t38 -3h48h8h48t38 3t31 4.5t22 11.5t17.5 16.5t10.5 26.5t7.5 35.5t3 49.5t2.5 61v78zM359 775h-59l-90 146h60z" />
    <glyph glyph-name="Oacute" unicode="&#xd3;" horiz-adv-x="620" 
d="M552 333q0 -86 -2 -134t-11.5 -92.5t-23 -63t-43.5 -33.5t-66 -18t-97 -3q-45 0 -75 1.5t-57 9t-43 16t-29.5 29.5t-19.5 42.5t-10.5 61t-5.5 80t-1 104.5q0 87 2.5 140t13 97t25 65t44.5 35.5t64 18t92 3.5q43 0 72 -2t56 -9t43 -17t30.5 -30t21.5 -44t12 -64t6.5 -84
t1.5 -109zM494 329v9v81t-3 64.5t-4.5 51t-9 38t-11.5 27.5t-18 17.5t-22 11.5t-30 5.5t-36.5 2.5h-45.5h-8h-46t-36.5 -2.5t-30.5 -5.5t-22 -11.5t-18 -17.5t-11.5 -27.5t-9 -38t-4.5 -51t-3 -64.5v-81v-9v-78t2.5 -61.5t3 -49t8 -35.5t10.5 -27t17.5 -16.5t22.5 -11
t31 -4.5t38 -3h48h8h48t38 3t31 4.5t22 11.5t17.5 16.5t10.5 26.5t7.5 35.5t3 49.5t2.5 61v78zM408 921l-91 -146h-58l89 146h60z" />
    <glyph glyph-name="Ocircumflex" unicode="&#xd4;" horiz-adv-x="620" 
d="M552 333q0 -86 -2 -134t-11.5 -92.5t-23 -63t-43.5 -33.5t-66 -18t-97 -3q-45 0 -75 1.5t-57 9t-43 16t-29.5 29.5t-19.5 42.5t-10.5 61t-5.5 80t-1 104.5q0 87 2.5 140t13 97t25 65t44.5 35.5t64 18t92 3.5q43 0 72 -2t56 -9t43 -17t30.5 -30t21.5 -44t12 -64t6.5 -84
t1.5 -109zM494 329v9v81t-3 64.5t-4.5 51t-9 38t-11.5 27.5t-18 17.5t-22 11.5t-30 5.5t-36.5 2.5h-45.5h-8h-46t-36.5 -2.5t-30.5 -5.5t-22 -11.5t-18 -17.5t-11.5 -27.5t-9 -38t-4.5 -51t-3 -64.5v-81v-9v-78t2.5 -61.5t3 -49t8 -35.5t10.5 -27t17.5 -16.5t22.5 -11
t31 -4.5t38 -3h48h8h48t38 3t31 4.5t22 11.5t17.5 16.5t10.5 26.5t7.5 35.5t3 49.5t2.5 61v78zM430 775h-58l-63 100l-63 -100h-58l89 146h64z" />
    <glyph glyph-name="Otilde" unicode="&#xd5;" horiz-adv-x="620" 
d="M552 333q0 -86 -2 -134t-11.5 -92.5t-23 -63t-43.5 -33.5t-66 -18t-97 -3q-45 0 -75 1.5t-57 9t-43 16t-29.5 29.5t-19.5 42.5t-10.5 61t-5.5 80t-1 104.5q0 87 2.5 140t13 97t25 65t44.5 35.5t64 18t92 3.5q43 0 72 -2t56 -9t43 -17t30.5 -30t21.5 -44t12 -64t6.5 -84
t1.5 -109zM494 329v9v81t-3 64.5t-4.5 51t-9 38t-11.5 27.5t-18 17.5t-22 11.5t-30 5.5t-36.5 2.5h-45.5h-8h-46t-36.5 -2.5t-30.5 -5.5t-22 -11.5t-18 -17.5t-11.5 -27.5t-9 -38t-4.5 -51t-3 -64.5v-81v-9v-78t2.5 -61.5t3 -49t8 -35.5t10.5 -27t17.5 -16.5t22.5 -11
t31 -4.5t38 -3h48h8h48t38 3t31 4.5t22 11.5t17.5 16.5t10.5 26.5t7.5 35.5t3 49.5t2.5 61v78zM443 902q0 -131 -75 -131q-14 0 -30 9t-24 17.5l-24 25.5q-28 33 -40 33q-8 0 -12.5 -4t-9 -23t-4.5 -54h-49q0 132 75 132q14 0 30 -9t24 -17.5l24 -25.5q28 -34 40 -34
q8 0 12.5 4t9 23t4.5 54h49z" />
    <glyph glyph-name="Odieresis" unicode="&#xd6;" horiz-adv-x="620" 
d="M552 333q0 -86 -2 -134t-11.5 -92.5t-23 -63t-43.5 -33.5t-66 -18t-97 -3q-45 0 -75 1.5t-57 9t-43 16t-29.5 29.5t-19.5 42.5t-10.5 61t-5.5 80t-1 104.5q0 87 2.5 140t13 97t25 65t44.5 35.5t64 18t92 3.5q43 0 72 -2t56 -9t43 -17t30.5 -30t21.5 -44t12 -64t6.5 -84
t1.5 -109zM494 329v9v81t-3 64.5t-4.5 51t-9 38t-11.5 27.5t-18 17.5t-22 11.5t-30 5.5t-36.5 2.5h-45.5h-8h-46t-36.5 -2.5t-30.5 -5.5t-22 -11.5t-18 -17.5t-11.5 -27.5t-9 -38t-4.5 -51t-3 -64.5v-81v-9v-78t2.5 -61.5t3 -49t8 -35.5t10.5 -27t17.5 -16.5t22.5 -11
t31 -4.5t38 -3h48h8h48t38 3t31 4.5t22 11.5t17.5 16.5t10.5 26.5t7.5 35.5t3 49.5t2.5 61v78zM260 775h-54v113h54v-113zM412 775h-54v113h54v-113z" />
    <glyph glyph-name="multiply" unicode="&#xd7;" horiz-adv-x="527" 
d="M437 141l-35 -39l-139 154l-139 -154l-34 39l139 153l-139 155l34 38l139 -154l139 154l35 -38l-139 -155z" />
    <glyph glyph-name="Oslash" unicode="&#xd8;" horiz-adv-x="620" 
d="M552 333q0 -86 -2 -134t-11.5 -92.5t-23 -63t-43.5 -33.5t-66 -18t-97 -3q-102 0 -147 14l-37 -71h-55l49 95q-32 30 -41.5 95.5t-9.5 210.5q0 87 2.5 140t13 97t25 65t44.5 35.5t64 18t92 3.5q101 0 147 -17l38 74h56l-52 -100q32 -32 43 -102t11 -214zM494 329v9
q0 210 -25 256l-282 -543q27 -8 119 -8h8h48t38 3t31 4.5t22 11.5t17.5 16.5t10.5 26.5t7.5 35.5t3 49.5t2.5 61v78zM125 329q0 -119 3.5 -170t18.5 -77l284 545q-27 10 -117 10h-8h-46t-36.5 -2.5t-30.5 -5.5t-22 -11.5t-18 -17.5t-11.5 -27.5t-9 -38t-4.5 -51t-3 -64.5
v-81v-9z" />
    <glyph glyph-name="Ugrave" unicode="&#xd9;" horiz-adv-x="620" 
d="M542 227q0 -56 -2.5 -89.5t-11.5 -63t-23.5 -44t-42 -25t-63 -13.5t-90.5 -3t-90 3t-62.5 13.5t-41.5 25t-23 44t-11.5 63t-2.5 89.5v453h58v-453v-50t2.5 -39.5t3.5 -31.5t8.5 -23t10.5 -17t17 -11t21.5 -7.5t29 -3t35.5 -1.5h45h45t36 1.5t30 3t21.5 7.5t17 11t11 17
t8.5 23t3.5 31.5t2.5 39.5v50v453h58v-453zM359 775h-59l-90 146h60z" />
    <glyph glyph-name="Uacute" unicode="&#xda;" horiz-adv-x="620" 
d="M542 227q0 -56 -2.5 -89.5t-11.5 -63t-23.5 -44t-42 -25t-63 -13.5t-90.5 -3t-90 3t-62.5 13.5t-41.5 25t-23 44t-11.5 63t-2.5 89.5v453h58v-453v-50t2.5 -39.5t3.5 -31.5t8.5 -23t10.5 -17t17 -11t21.5 -7.5t29 -3t35.5 -1.5h45h45t36 1.5t30 3t21.5 7.5t17 11t11 17
t8.5 23t3.5 31.5t2.5 39.5v50v453h58v-453zM408 921l-91 -146h-58l89 146h60z" />
    <glyph glyph-name="Ucircumflex" unicode="&#xdb;" horiz-adv-x="620" 
d="M542 227q0 -56 -2.5 -89.5t-11.5 -63t-23.5 -44t-42 -25t-63 -13.5t-90.5 -3t-90 3t-62.5 13.5t-41.5 25t-23 44t-11.5 63t-2.5 89.5v453h58v-453v-50t2.5 -39.5t3.5 -31.5t8.5 -23t10.5 -17t17 -11t21.5 -7.5t29 -3t35.5 -1.5h45h45t36 1.5t30 3t21.5 7.5t17 11t11 17
t8.5 23t3.5 31.5t2.5 39.5v50v453h58v-453zM430 775h-58l-63 100l-63 -100h-58l89 146h64z" />
    <glyph glyph-name="Udieresis" unicode="&#xdc;" horiz-adv-x="620" 
d="M542 227q0 -56 -2.5 -89.5t-11.5 -63t-23.5 -44t-42 -25t-63 -13.5t-90.5 -3t-90 3t-62.5 13.5t-41.5 25t-23 44t-11.5 63t-2.5 89.5v453h58v-453v-50t2.5 -39.5t3.5 -31.5t8.5 -23t10.5 -17t17 -11t21.5 -7.5t29 -3t35.5 -1.5h45h45t36 1.5t30 3t21.5 7.5t17 11t11 17
t8.5 23t3.5 31.5t2.5 39.5v50v453h58v-453zM260 775h-54v113h54v-113zM412 775h-54v113h54v-113z" />
    <glyph glyph-name="Yacute" unicode="&#xdd;" horiz-adv-x="541" 
d="M530 680l-228 -373h-3v-307h-57v307h-3l-228 373h66l193 -317l194 317h66zM369 921l-91 -146h-58l89 146h60z" />
    <glyph glyph-name="Thorn" unicode="&#xde;" horiz-adv-x="570" 
d="M531 345q0 -40 -5 -70.5t-11.5 -51t-22 -34t-27.5 -20.5t-38 -10.5t-42.5 -4t-51.5 -0.5h-197v-154h-58v680h58v-140h193q26 0 39 -0.5t34.5 -2t32.5 -5t27.5 -10t24.5 -16t18 -24t14.5 -34t8 -45.5t3.5 -58zM474 345q0 37 -1.5 60t-10 39.5t-15.5 24.5t-28.5 12.5
t-37.5 5t-54 0.5h-191v-280h195h33.5t27.5 1t24 2.5t18 5.5t14.5 8.5t10 12.5t8 17.5t4 23.5t3 29.5t0.5 37.5z" />
    <glyph glyph-name="germandbls" unicode="&#xdf;" horiz-adv-x="514" 
d="M460 200q0 -73 -9.5 -117t-31.5 -64t-44 -25t-61 -5q-40 0 -76.5 5t-53.5 10l-16 5v40q48 -12 124 -12q29 0 41 0.5t28 5.5t21.5 14t11.5 28.5t7.5 46t1.5 68.5t-1 68t-7 45t-10.5 28t-19.5 14t-26.5 5.5t-38.5 0.5h-111v49h103q28 0 39.5 0.5t26 5t18.5 10.5t9 22.5
t5.5 36.5t0.5 55q0 37 -2.5 62.5t-12 42t-17 25t-28 13t-34.5 5t-46 0.5q-27 0 -39 -0.5t-30 -2.5t-25 -7t-16.5 -14t-12.5 -23t-5.5 -33.5t-2.5 -47.5v-560h-56v559q0 62 10.5 98.5t37.5 53.5t57 21.5t86 4.5q50 0 79 -5t58.5 -23.5t42.5 -60t13 -108.5q0 -68 -10 -106.5
t-20 -43.5l-9 -4v-1q6 0 14.5 -5t22.5 -51.5t14 -128.5z" />
    <glyph glyph-name="agrave" unicode="&#xe0;" 
d="M438 9q-74 -20 -192 -20q-28 0 -42 0.5t-38.5 3.5t-37 8.5t-29 16.5t-25 27.5t-14.5 41.5t-6 58q0 31 5 55t11.5 40t21 26.5t25.5 16t34 8t37.5 3t43.5 0.5h149v39q0 28 -3 48t-6.5 34t-14 23t-18.5 14t-27 7t-32 2.5t-41 0.5q-43 0 -83 -3t-58 -7l-18 -3v41
q70 20 179 20q31 0 51 -1.5t42.5 -7.5t36.5 -17.5t26 -30.5t17.5 -49t5.5 -71v-324zM381 46v201h-149q-26 0 -37.5 -0.5t-28.5 -2t-23 -5.5t-14.5 -11t-11 -18.5t-4.5 -27t-2 -37.5q0 -27 2.5 -45.5t11.5 -30.5t16.5 -18.5t27 -9.5t33.5 -3.5t44 -0.5q37 0 71 2.5t49 4.5z
M301 602h-59l-90 146h60z" />
    <glyph glyph-name="aacute" unicode="&#xe1;" 
d="M438 9q-74 -20 -192 -20q-28 0 -42 0.5t-38.5 3.5t-37 8.5t-29 16.5t-25 27.5t-14.5 41.5t-6 58q0 31 5 55t11.5 40t21 26.5t25.5 16t34 8t37.5 3t43.5 0.5h149v39q0 28 -3 48t-6.5 34t-14 23t-18.5 14t-27 7t-32 2.5t-41 0.5q-43 0 -83 -3t-58 -7l-18 -3v41
q70 20 179 20q31 0 51 -1.5t42.5 -7.5t36.5 -17.5t26 -30.5t17.5 -49t5.5 -71v-324zM381 46v201h-149q-26 0 -37.5 -0.5t-28.5 -2t-23 -5.5t-14.5 -11t-11 -18.5t-4.5 -27t-2 -37.5q0 -27 2.5 -45.5t11.5 -30.5t16.5 -18.5t27 -9.5t33.5 -3.5t44 -0.5q37 0 71 2.5t49 4.5z
M350 748l-91 -146h-58l89 146h60z" />
    <glyph glyph-name="acircumflex" unicode="&#xe2;" 
d="M438 9q-74 -20 -192 -20q-28 0 -42 0.5t-38.5 3.5t-37 8.5t-29 16.5t-25 27.5t-14.5 41.5t-6 58q0 31 5 55t11.5 40t21 26.5t25.5 16t34 8t37.5 3t43.5 0.5h149v39q0 28 -3 48t-6.5 34t-14 23t-18.5 14t-27 7t-32 2.5t-41 0.5q-43 0 -83 -3t-58 -7l-18 -3v41
q70 20 179 20q31 0 51 -1.5t42.5 -7.5t36.5 -17.5t26 -30.5t17.5 -49t5.5 -71v-324zM381 46v201h-149q-26 0 -37.5 -0.5t-28.5 -2t-23 -5.5t-14.5 -11t-11 -18.5t-4.5 -27t-2 -37.5q0 -27 2.5 -45.5t11.5 -30.5t16.5 -18.5t27 -9.5t33.5 -3.5t44 -0.5q37 0 71 2.5t49 4.5z
M372 602h-58l-63 100l-63 -100h-58l89 146h64z" />
    <glyph glyph-name="atilde" unicode="&#xe3;" 
d="M438 9q-74 -20 -192 -20q-28 0 -42 0.5t-38.5 3.5t-37 8.5t-29 16.5t-25 27.5t-14.5 41.5t-6 58q0 31 5 55t11.5 40t21 26.5t25.5 16t34 8t37.5 3t43.5 0.5h149v39q0 28 -3 48t-6.5 34t-14 23t-18.5 14t-27 7t-32 2.5t-41 0.5q-43 0 -83 -3t-58 -7l-18 -3v41
q70 20 179 20q31 0 51 -1.5t42.5 -7.5t36.5 -17.5t26 -30.5t17.5 -49t5.5 -71v-324zM381 46v201h-149q-26 0 -37.5 -0.5t-28.5 -2t-23 -5.5t-14.5 -11t-11 -18.5t-4.5 -27t-2 -37.5q0 -27 2.5 -45.5t11.5 -30.5t16.5 -18.5t27 -9.5t33.5 -3.5t44 -0.5q37 0 71 2.5t49 4.5z
M385 729q0 -131 -75 -131q-14 0 -30 9t-24 17.5l-24 25.5q-27 33 -40 33q-8 0 -12.5 -4t-9 -23t-4.5 -54h-49q0 132 75 132q14 0 30 -9t24 -17.5l24 -25.5q28 -34 40 -34q8 0 12.5 4t9 23t4.5 54h49z" />
    <glyph glyph-name="adieresis" unicode="&#xe4;" 
d="M438 9q-74 -20 -192 -20q-28 0 -42 0.5t-38.5 3.5t-37 8.5t-29 16.5t-25 27.5t-14.5 41.5t-6 58q0 31 5 55t11.5 40t21 26.5t25.5 16t34 8t37.5 3t43.5 0.5h149v39q0 28 -3 48t-6.5 34t-14 23t-18.5 14t-27 7t-32 2.5t-41 0.5q-43 0 -83 -3t-58 -7l-18 -3v41
q70 20 179 20q31 0 51 -1.5t42.5 -7.5t36.5 -17.5t26 -30.5t17.5 -49t5.5 -71v-324zM381 46v201h-149q-26 0 -37.5 -0.5t-28.5 -2t-23 -5.5t-14.5 -11t-11 -18.5t-4.5 -27t-2 -37.5q0 -27 2.5 -45.5t11.5 -30.5t16.5 -18.5t27 -9.5t33.5 -3.5t44 -0.5q37 0 71 2.5t49 4.5z
M202 602h-54v113h54v-113zM354 602h-54v113h54v-113z" />
    <glyph glyph-name="aring" unicode="&#xe5;" 
d="M438 9q-74 -20 -192 -20q-28 0 -42 0.5t-38.5 3.5t-37 8.5t-29 16.5t-25 27.5t-14.5 41.5t-6 58q0 31 5 55t11.5 40t21 26.5t25.5 16t34 8t37.5 3t43.5 0.5h149v39q0 28 -3 48t-6.5 34t-14 23t-18.5 14t-27 7t-32 2.5t-41 0.5q-43 0 -83 -3t-58 -7l-18 -3v41
q70 20 179 20q31 0 51 -1.5t42.5 -7.5t36.5 -17.5t26 -30.5t17.5 -49t5.5 -71v-324zM381 46v201h-149q-26 0 -37.5 -0.5t-28.5 -2t-23 -5.5t-14.5 -11t-11 -18.5t-4.5 -27t-2 -37.5q0 -27 2.5 -45.5t11.5 -30.5t16.5 -18.5t27 -9.5t33.5 -3.5t44 -0.5q37 0 71 2.5t49 4.5z
M352 684q0 -55 -17.5 -70.5t-83.5 -15.5t-83.5 15.5t-17.5 70.5q0 58 18.5 74.5t82.5 16.5t82.5 -16.5t18.5 -74.5zM301 684q0 37 -6.5 43.5t-43.5 6.5t-43.5 -6t-6.5 -44q0 -34 6.5 -40t43.5 -6t43.5 6t6.5 40z" />
    <glyph glyph-name="ae" unicode="&#xe6;" horiz-adv-x="795" 
d="M742 233h-321v-65t3.5 -48t5 -35.5t12 -22.5t17 -15t26.5 -6.5t34 -3.5h46q43 0 83.5 3.5t59.5 6.5l18 3v-41q-70 -20 -182 -20q-64 0 -98.5 9.5t-51.5 36.5q-21 -29 -56.5 -37.5t-99.5 -8.5q-25 0 -38.5 0.5t-36 3.5t-35 8.5t-29 16.5t-25 27.5t-14.5 41.5t-6 58
q0 31 5 55t11.5 39.5t21 26.5t25.5 16.5t32.5 8t35 3t39.5 0.5h141v39q0 32 -3 54.5t-12 36.5t-16.5 22t-27 11.5t-33 4t-43.5 0.5q-41 0 -78.5 -3t-54.5 -7l-17 -3v41q66 20 171 20q54 0 88.5 -9.5t54.5 -40.5q19 29 55 39.5t104 10.5q52 0 82.5 -6t53.5 -20t33.5 -46
t15 -76t4.5 -117v-12zM365 166v81h-141q-27 0 -39 -0.5t-28.5 -3.5t-22.5 -9t-12.5 -17.5t-8.5 -28.5t-2 -43q0 -32 6 -52.5t13.5 -32t27 -16.5t34 -6t46.5 -1q30 0 43 0.5t31.5 4t25.5 11.5t15 22.5t10 36t2 54.5zM686 280q0 48 -1 77t-8.5 51t-13 31.5t-25 15.5t-34.5 6.5
t-51 0.5h-39t-30 -2.5t-24 -6.5t-16 -13.5t-12 -21.5t-6 -33t-4.5 -45t-0.5 -60h265z" />
    <glyph glyph-name="ccedilla" unicode="&#xe7;" horiz-adv-x="445" 
d="M345 -142q0 -49 -18 -63.5t-73 -14.5q-25 0 -47.5 5t-32.5 11l-11 5v32q31 -10 80 -10q34 0 41 4.5t7 30.5q0 25 -3.5 29t-25.5 4h-60v99q-36 2 -60.5 7.5t-41 20.5t-25.5 31t-14 49t-6 63t-1 84q0 69 3 108.5t12.5 74t29.5 50t50.5 24t79.5 8.5q48 0 91.5 -5t63.5 -10
l19 -5v-41q-60 12 -154 12h-44t-32.5 -3.5t-25.5 -7.5t-16 -16.5t-11.5 -25t-5 -39t-3.5 -52.5v-72v-56t1.5 -44t2 -36t6 -25.5t8 -19.5t13.5 -11.5t17.5 -8.5t24.5 -3t29.5 -2h38.5q42 0 81.5 2.5t57.5 5.5l18 3v-41q-60 -17 -156 -20v-52h19q20 0 29.5 -1.5t22 -8.5
t17 -23.5t4.5 -45.5z" />
    <glyph glyph-name="egrave" unicode="&#xe8;" 
d="M448 233h-337v-65.5t3.5 -47.5t5 -35.5t12 -22.5t17 -15.5t28 -6t36 -3.5h49.5q46 0 88 3.5t62 6.5l19 3v-41q-73 -20 -189 -20q-45 0 -73 3t-51 14.5t-34 26.5t-18.5 47t-9.5 68t-2 97q0 62 2.5 100.5t10.5 71t20 48.5t36 27.5t53 14.5t75 3t75 -3t53 -14.5t36 -27.5
t20 -48.5t10.5 -71t2.5 -100.5v-12zM391 280q0 36 -0.5 60t-4.5 45t-6 32.5t-12.5 21.5t-17 13.5t-25.5 6.5t-31.5 3h-42.5h-43t-32 -3t-25.5 -6.5t-16.5 -13.5t-12.5 -21.5t-6 -32.5t-4 -44.5t-0.5 -60.5h280zM301 602h-59l-90 146h60z" />
    <glyph glyph-name="eacute" unicode="&#xe9;" 
d="M448 233h-337v-65.5t3.5 -47.5t5 -35.5t12 -22.5t17 -15.5t28 -6t36 -3.5h49.5q46 0 88 3.5t62 6.5l19 3v-41q-73 -20 -189 -20q-45 0 -73 3t-51 14.5t-34 26.5t-18.5 47t-9.5 68t-2 97q0 62 2.5 100.5t10.5 71t20 48.5t36 27.5t53 14.5t75 3t75 -3t53 -14.5t36 -27.5
t20 -48.5t10.5 -71t2.5 -100.5v-12zM391 280q0 36 -0.5 60t-4.5 45t-6 32.5t-12.5 21.5t-17 13.5t-25.5 6.5t-31.5 3h-42.5h-43t-32 -3t-25.5 -6.5t-16.5 -13.5t-12.5 -21.5t-6 -32.5t-4 -44.5t-0.5 -60.5h280zM350 748l-91 -146h-58l89 146h60z" />
    <glyph glyph-name="ecircumflex" unicode="&#xea;" 
d="M448 233h-337v-65.5t3.5 -47.5t5 -35.5t12 -22.5t17 -15.5t28 -6t36 -3.5h49.5q46 0 88 3.5t62 6.5l19 3v-41q-73 -20 -189 -20q-45 0 -73 3t-51 14.5t-34 26.5t-18.5 47t-9.5 68t-2 97q0 62 2.5 100.5t10.5 71t20 48.5t36 27.5t53 14.5t75 3t75 -3t53 -14.5t36 -27.5
t20 -48.5t10.5 -71t2.5 -100.5v-12zM391 280q0 36 -0.5 60t-4.5 45t-6 32.5t-12.5 21.5t-17 13.5t-25.5 6.5t-31.5 3h-42.5h-43t-32 -3t-25.5 -6.5t-16.5 -13.5t-12.5 -21.5t-6 -32.5t-4 -44.5t-0.5 -60.5h280zM372 602h-58l-63 100l-63 -100h-58l89 146h64z" />
    <glyph glyph-name="edieresis" unicode="&#xeb;" 
d="M448 233h-337v-65.5t3.5 -47.5t5 -35.5t12 -22.5t17 -15.5t28 -6t36 -3.5h49.5q46 0 88 3.5t62 6.5l19 3v-41q-73 -20 -189 -20q-45 0 -73 3t-51 14.5t-34 26.5t-18.5 47t-9.5 68t-2 97q0 62 2.5 100.5t10.5 71t20 48.5t36 27.5t53 14.5t75 3t75 -3t53 -14.5t36 -27.5
t20 -48.5t10.5 -71t2.5 -100.5v-12zM391 280q0 36 -0.5 60t-4.5 45t-6 32.5t-12.5 21.5t-17 13.5t-25.5 6.5t-31.5 3h-42.5h-43t-32 -3t-25.5 -6.5t-16.5 -13.5t-12.5 -21.5t-6 -32.5t-4 -44.5t-0.5 -60.5h280zM202 602h-54v113h54v-113zM354 602h-54v113h54v-113z" />
    <glyph glyph-name="igrave" unicode="&#xec;" horiz-adv-x="184" 
d="M120 0h-56v499h56v-499zM142 602h-59l-90 146h60z" />
    <glyph glyph-name="iacute" unicode="&#xed;" horiz-adv-x="184" 
d="M120 0h-56v499h56v-499zM191 748l-91 -146h-58l89 146h60z" />
    <glyph glyph-name="icircumflex" unicode="&#xee;" horiz-adv-x="184" 
d="M120 0h-56v499h56v-499zM213 602h-58l-63 100l-63 -100h-58l89 146h64z" />
    <glyph glyph-name="idieresis" unicode="&#xef;" horiz-adv-x="184" 
d="M120 0h-56v499h56v-499zM43 602h-54v113h54v-113zM195 602h-54v113h54v-113z" />
    <glyph glyph-name="eth" unicode="&#xf0;" horiz-adv-x="503" 
d="M500 606l-100 -22q48 -154 48 -353q0 -56 -2 -90.5t-10 -64.5t-20 -45t-36 -25.5t-53 -13.5t-76 -3t-76.5 3t-53 14t-35.5 25.5t-20 44.5t-10 64t-2 91q0 58 2.5 95t11 67t21 46t36.5 27t52.5 14t73.5 3q33 0 62.5 -2.5t42.5 -4.5l12 -3q-7 58 -19 100l-104 -22v48l90 20
q-9 28 -20.5 55t-18.5 40l-6 12h47q23 -31 48 -97l115 25v-48zM391 231q0 41 -0.5 67t-4 49.5t-5.5 36.5t-12 24t-16 15t-25 7t-31.5 3h-41.5h-8h-41.5t-31.5 -3t-25 -7t-16 -15t-12 -24t-5.5 -36.5t-4 -49.5t-0.5 -67v-81.5t6.5 -52.5t11 -34.5t25 -15.5t36.5 -8h57h8h44
t32.5 3.5t25 6t15.5 14.5t11.5 22.5t4.5 35t3 46.5v64z" />
    <glyph glyph-name="ntilde" unicode="&#xf1;" 
d="M438 0h-57v333q0 24 -1.5 42t-6.5 32t-9 23t-14 15t-17 9t-23 5t-26.5 2h-32.5q-36 0 -68.5 -2.5t-47.5 -4.5l-15 -3v-451h-56v490q72 20 187 20q51 0 79.5 -4.5t56.5 -21.5t39.5 -53.5t11.5 -97.5v-333zM385 729q0 -131 -75 -131q-14 0 -30 9t-24 17.5l-24 25.5
q-27 33 -40 33q-8 0 -12.5 -4t-9 -23t-4.5 -54h-49q0 132 75 132q14 0 30 -9t24 -17.5l24 -25.5q28 -34 40 -34q8 0 12.5 4t9 23t4.5 54h49z" />
    <glyph glyph-name="ograve" unicode="&#xf2;" 
d="M448 245q0 -61 -2 -97t-9.5 -68t-19 -47t-35.5 -26.5t-53.5 -14.5t-77.5 -3t-77.5 3t-53.5 14.5t-35.5 26.5t-19.5 47t-9.5 68t-1.5 97q0 62 2.5 100.5t10.5 71t20 48.5t36 27.5t53 14.5t75 3t75 -3t53 -14.5t36 -27.5t20 -48.5t10.5 -71t2.5 -100.5zM391 241v9v69.5
t-3.5 52t-5.5 38.5t-12 24.5t-16 15.5t-25 7.5t-31.5 3.5h-42.5h-8h-42.5t-31.5 -3.5t-25 -7.5t-16 -15.5t-12 -24.5t-5.5 -38.5t-3.5 -52v-69.5v-9v-67.5t3 -49t4.5 -36.5t11 -23t15.5 -16t25 -6.5t32.5 -3.5h44.5h8h44t32.5 3.5t25 6.5t15.5 15.5t11.5 23.5t4.5 37t3 49
v67zM301 602h-59l-90 146h60z" />
    <glyph glyph-name="oacute" unicode="&#xf3;" 
d="M448 245q0 -61 -2 -97t-9.5 -68t-19 -47t-35.5 -26.5t-53.5 -14.5t-77.5 -3t-77.5 3t-53.5 14.5t-35.5 26.5t-19.5 47t-9.5 68t-1.5 97q0 62 2.5 100.5t10.5 71t20 48.5t36 27.5t53 14.5t75 3t75 -3t53 -14.5t36 -27.5t20 -48.5t10.5 -71t2.5 -100.5zM391 241v9v69.5
t-3.5 52t-5.5 38.5t-12 24.5t-16 15.5t-25 7.5t-31.5 3.5h-42.5h-8h-42.5t-31.5 -3.5t-25 -7.5t-16 -15.5t-12 -24.5t-5.5 -38.5t-3.5 -52v-69.5v-9v-67.5t3 -49t4.5 -36.5t11 -23t15.5 -16t25 -6.5t32.5 -3.5h44.5h8h44t32.5 3.5t25 6.5t15.5 15.5t11.5 23.5t4.5 37t3 49
v67zM350 748l-91 -146h-58l89 146h60z" />
    <glyph glyph-name="ocircumflex" unicode="&#xf4;" 
d="M448 245q0 -61 -2 -97t-9.5 -68t-19 -47t-35.5 -26.5t-53.5 -14.5t-77.5 -3t-77.5 3t-53.5 14.5t-35.5 26.5t-19.5 47t-9.5 68t-1.5 97q0 62 2.5 100.5t10.5 71t20 48.5t36 27.5t53 14.5t75 3t75 -3t53 -14.5t36 -27.5t20 -48.5t10.5 -71t2.5 -100.5zM391 241v9v69.5
t-3.5 52t-5.5 38.5t-12 24.5t-16 15.5t-25 7.5t-31.5 3.5h-42.5h-8h-42.5t-31.5 -3.5t-25 -7.5t-16 -15.5t-12 -24.5t-5.5 -38.5t-3.5 -52v-69.5v-9v-67.5t3 -49t4.5 -36.5t11 -23t15.5 -16t25 -6.5t32.5 -3.5h44.5h8h44t32.5 3.5t25 6.5t15.5 15.5t11.5 23.5t4.5 37t3 49
v67zM372 602h-58l-63 100l-63 -100h-58l89 146h64z" />
    <glyph glyph-name="otilde" unicode="&#xf5;" 
d="M448 245q0 -61 -2 -97t-9.5 -68t-19 -47t-35.5 -26.5t-53.5 -14.5t-77.5 -3t-77.5 3t-53.5 14.5t-35.5 26.5t-19.5 47t-9.5 68t-1.5 97q0 62 2.5 100.5t10.5 71t20 48.5t36 27.5t53 14.5t75 3t75 -3t53 -14.5t36 -27.5t20 -48.5t10.5 -71t2.5 -100.5zM391 241v9v69.5
t-3.5 52t-5.5 38.5t-12 24.5t-16 15.5t-25 7.5t-31.5 3.5h-42.5h-8h-42.5t-31.5 -3.5t-25 -7.5t-16 -15.5t-12 -24.5t-5.5 -38.5t-3.5 -52v-69.5v-9v-67.5t3 -49t4.5 -36.5t11 -23t15.5 -16t25 -6.5t32.5 -3.5h44.5h8h44t32.5 3.5t25 6.5t15.5 15.5t11.5 23.5t4.5 37t3 49
v67zM385 729q0 -131 -75 -131q-14 0 -30 9t-24 17.5l-24 25.5q-27 33 -40 33q-8 0 -12.5 -4t-9 -23t-4.5 -54h-49q0 132 75 132q14 0 30 -9t24 -17.5l24 -25.5q28 -34 40 -34q8 0 12.5 4t9 23t4.5 54h49z" />
    <glyph glyph-name="odieresis" unicode="&#xf6;" 
d="M448 245q0 -61 -2 -97t-9.5 -68t-19 -47t-35.5 -26.5t-53.5 -14.5t-77.5 -3t-77.5 3t-53.5 14.5t-35.5 26.5t-19.5 47t-9.5 68t-1.5 97q0 62 2.5 100.5t10.5 71t20 48.5t36 27.5t53 14.5t75 3t75 -3t53 -14.5t36 -27.5t20 -48.5t10.5 -71t2.5 -100.5zM391 241v9v69.5
t-3.5 52t-5.5 38.5t-12 24.5t-16 15.5t-25 7.5t-31.5 3.5h-42.5h-8h-42.5t-31.5 -3.5t-25 -7.5t-16 -15.5t-12 -24.5t-5.5 -38.5t-3.5 -52v-69.5v-9v-67.5t3 -49t4.5 -36.5t11 -23t15.5 -16t25 -6.5t32.5 -3.5h44.5h8h44t32.5 3.5t25 6.5t15.5 15.5t11.5 23.5t4.5 37t3 49
v67zM202 602h-54v113h54v-113zM354 602h-54v113h54v-113z" />
    <glyph glyph-name="divide" unicode="&#xf7;" horiz-adv-x="527" 
d="M479 269h-432v51h432v-51zM290 417h-53v127h53v-127zM290 46h-53v127h53v-127z" />
    <glyph glyph-name="oslash" unicode="&#xf8;" 
d="M448 245q0 -61 -2 -97t-9.5 -68t-19 -47t-35.5 -26.5t-53.5 -14.5t-77.5 -3q-69 0 -109 9l-35 -66h-51l44 85q-29 22 -37.5 71t-8.5 157q0 62 2.5 100.5t10.5 71t20 48.5t36 27.5t53 14.5t75 3q68 0 107 -10l36 67h51l-46 -87q29 -24 39 -76.5t10 -158.5zM391 241v9
q0 148 -18 180l-208 -387q20 -4 82 -4h8h44t32.5 3.5t25 6.5t15.5 15.5t11.5 23.5t4.5 37t3 49v67zM111 241q0 -86 2.5 -121t13.5 -53l207 389q-19 5 -79 5h-8h-42.5t-31.5 -3.5t-25 -7.5t-16 -15.5t-12 -24.5t-5.5 -38.5t-3.5 -52v-69.5v-9z" />
    <glyph glyph-name="ugrave" unicode="&#xf9;" 
d="M438 9q-72 -20 -187 -20q-54 0 -83.5 4.5t-56 21.5t-37 53.5t-10.5 97.5v333h56v-333q0 -32 2 -53.5t10 -36t15 -22t26 -11t32.5 -4t45.5 -0.5q36 0 68.5 2t46.5 4l15 2v452h57v-490zM301 602h-59l-90 146h60z" />
    <glyph glyph-name="uacute" unicode="&#xfa;" 
d="M438 9q-72 -20 -187 -20q-54 0 -83.5 4.5t-56 21.5t-37 53.5t-10.5 97.5v333h56v-333q0 -32 2 -53.5t10 -36t15 -22t26 -11t32.5 -4t45.5 -0.5q36 0 68.5 2t46.5 4l15 2v452h57v-490zM350 748l-91 -146h-58l89 146h60z" />
    <glyph glyph-name="ucircumflex" unicode="&#xfb;" 
d="M438 9q-72 -20 -187 -20q-54 0 -83.5 4.5t-56 21.5t-37 53.5t-10.5 97.5v333h56v-333q0 -32 2 -53.5t10 -36t15 -22t26 -11t32.5 -4t45.5 -0.5q36 0 68.5 2t46.5 4l15 2v452h57v-490zM372 602h-58l-63 100l-63 -100h-58l89 146h64z" />
    <glyph glyph-name="udieresis" unicode="&#xfc;" 
d="M438 9q-72 -20 -187 -20q-54 0 -83.5 4.5t-56 21.5t-37 53.5t-10.5 97.5v333h56v-333q0 -32 2 -53.5t10 -36t15 -22t26 -11t32.5 -4t45.5 -0.5q36 0 68.5 2t46.5 4l15 2v452h57v-490zM202 602h-54v113h54v-113zM354 602h-54v113h54v-113z" />
    <glyph glyph-name="yacute" unicode="&#xfd;" horiz-adv-x="458" 
d="M443 499l-199 -576q-14 -40 -19.5 -55.5t-16 -40t-17.5 -32t-19.5 -18t-26.5 -13t-34 -2.5q-36 0 -69 5t-48 11l-15 5v40q43 -12 112 -12q42 0 55.5 16.5t43.5 104.5l24 68h-21l-172 499h58l153 -445l154 445h57zM331 748l-91 -146h-58l89 146h60z" />
    <glyph glyph-name="thorn" unicode="&#xfe;" 
d="M448 245q0 -60 -2 -96.5t-9.5 -68.5t-19.5 -47t-35 -26.5t-52 -14.5t-75 -3q-32 0 -66 2t-51 4l-18 2v-224h-56v953h56v-224q62 8 135 8q44 0 72 -3t51.5 -14.5t35.5 -28t20.5 -48t11 -71t2.5 -100.5zM391 241v9v69.5t-4 52t-6 38.5t-12 24.5t-16 15.5t-25.5 7.5
t-32.5 3.5h-44q-36 0 -69 -2t-48 -4l-14 -2v-407q49 -7 131 -7h45.5t33 3.5t26 6.5t16.5 15.5t11.5 23t4.5 37t3 49.5v67z" />
    <glyph glyph-name="ydieresis" unicode="&#xff;" horiz-adv-x="458" 
d="M443 499l-199 -576q-14 -40 -19.5 -55.5t-16 -40t-17.5 -32t-19.5 -18t-26.5 -13t-34 -2.5q-36 0 -69 5t-48 11l-15 5v40q43 -12 112 -12q42 0 55.5 16.5t43.5 104.5l24 68h-21l-172 499h58l153 -445l154 445h57zM183 602h-54v113h54v-113zM335 602h-54v113h54v-113z" />
    <glyph glyph-name="Amacron" unicode="&#x100;" horiz-adv-x="596" 
d="M585 0h-62l-79 219h-292l-80 -219h-61l249 680h76zM425 272l-127 351l-127 -351h254zM414 775h-231v51h231v-51z" />
    <glyph glyph-name="amacron" unicode="&#x101;" 
d="M438 9q-74 -20 -192 -20q-28 0 -42 0.5t-38.5 3.5t-37 8.5t-29 16.5t-25 27.5t-14.5 41.5t-6 58q0 31 5 55t11.5 40t21 26.5t25.5 16t34 8t37.5 3t43.5 0.5h149v39q0 28 -3 48t-6.5 34t-14 23t-18.5 14t-27 7t-32 2.5t-41 0.5q-43 0 -83 -3t-58 -7l-18 -3v41
q70 20 179 20q31 0 51 -1.5t42.5 -7.5t36.5 -17.5t26 -30.5t17.5 -49t5.5 -71v-324zM381 46v201h-149q-26 0 -37.5 -0.5t-28.5 -2t-23 -5.5t-14.5 -11t-11 -18.5t-4.5 -27t-2 -37.5q0 -27 2.5 -45.5t11.5 -30.5t16.5 -18.5t27 -9.5t33.5 -3.5t44 -0.5q37 0 71 2.5t49 4.5z
M367 602h-231v51h231v-51z" />
    <glyph glyph-name="Abreve" unicode="&#x102;" horiz-adv-x="596" 
d="M585 0h-62l-79 219h-292l-80 -219h-61l249 680h76zM425 272l-127 351l-127 -351h254zM409 921q0 -29 -0.5 -42t-2 -33t-6 -28.5t-12 -20t-20 -15.5t-29.5 -7.5t-41 -3.5t-41 3.5t-29.5 7.5t-20 15.5t-12 20t-6 28.5t-2 33t-0.5 42h47q0 -73 9.5 -87.5t54.5 -14.5
t54.5 14.5t9.5 87.5h47z" />
    <glyph glyph-name="abreve" unicode="&#x103;" 
d="M438 9q-74 -20 -192 -20q-28 0 -42 0.5t-38.5 3.5t-37 8.5t-29 16.5t-25 27.5t-14.5 41.5t-6 58q0 31 5 55t11.5 40t21 26.5t25.5 16t34 8t37.5 3t43.5 0.5h149v39q0 28 -3 48t-6.5 34t-14 23t-18.5 14t-27 7t-32 2.5t-41 0.5q-43 0 -83 -3t-58 -7l-18 -3v41
q70 20 179 20q31 0 51 -1.5t42.5 -7.5t36.5 -17.5t26 -30.5t17.5 -49t5.5 -71v-324zM381 46v201h-149q-26 0 -37.5 -0.5t-28.5 -2t-23 -5.5t-14.5 -11t-11 -18.5t-4.5 -27t-2 -37.5q0 -27 2.5 -45.5t11.5 -30.5t16.5 -18.5t27 -9.5t33.5 -3.5t44 -0.5q37 0 71 2.5t49 4.5z
M362 748q0 -29 -0.5 -42t-2 -33t-6 -28.5t-12 -20t-20 -15.5t-29.5 -7.5t-41 -3.5t-41 3.5t-29.5 7.5t-20 15.5t-12 20t-6 28.5t-2 33t-0.5 42h47q0 -73 9.5 -87.5t54.5 -14.5t54.5 14.5t9.5 87.5h47z" />
    <glyph glyph-name="Aogonek" unicode="&#x104;" horiz-adv-x="596" 
d="M617 -186q-27 -20 -73 -20q-77 0 -77 86q0 39 16 69t31 41l16 10h-7l-79 219h-292l-80 -219h-61l249 680h76l249 -680h-3q-7 -4 -17 -11.5t-27 -36.5t-17 -65q0 -29 8.5 -39.5t31.5 -10.5q15 0 29 2.5t20 4.5l7 3v-33zM425 272l-127 351l-127 -351h254z" />
    <glyph glyph-name="aogonek" unicode="&#x105;" 
d="M425 -186q-27 -20 -73 -20q-77 0 -77 86q0 71 50 113q-46 -4 -79 -4q-28 0 -42 0.5t-38.5 3.5t-37 8.5t-29 16.5t-25 27.5t-14.5 41.5t-6 58q0 31 5 55t11.5 40t21 26.5t25.5 16t34 8t37.5 3t43.5 0.5h149v39q0 28 -3 48t-6.5 34t-14 23t-18.5 14t-27 7t-32 2.5t-41 0.5
q-43 0 -83 -3t-58 -7l-18 -3v41q70 20 179 20q31 0 51 -1.5t42.5 -7.5t36.5 -17.5t26 -30.5t17.5 -49t5.5 -71v-324q-20 -5 -50 -9q-59 -39 -59 -113q0 -29 8.5 -39.5t31.5 -10.5q14 0 28 2.5t21 4.5l7 3v-33zM381 46v201h-149q-26 0 -37.5 -0.5t-28.5 -2t-23 -5.5
t-14.5 -11t-11 -18.5t-4.5 -27t-2 -37.5q0 -27 2.5 -45.5t11.5 -30.5t16.5 -18.5t27 -9.5t33.5 -3.5t44 -0.5q37 0 71 2.5t49 4.5z" />
    <glyph glyph-name="Cacute" unicode="&#x106;" horiz-adv-x="533" 
d="M503 9q-84 -20 -218 -20q-35 0 -61.5 2.5t-48.5 7t-37.5 16t-27.5 23t-19 34t-12 43.5t-7 57.5t-3 70t-1 86.5q0 82 2.5 133.5t11 96t22 67.5t39 39.5t58 21.5t81.5 5q58 0 112 -5t78 -11l25 -5v-46q-74 12 -196 12h-43.5t-35.5 -2.5t-29.5 -5.5t-21.5 -12t-18 -18.5
t-11.5 -28t-9 -39t-4 -52.5t-3 -66.5t-0.5 -83.5v-78t2.5 -61.5t3.5 -49t8 -35.5t10.5 -26.5t17.5 -17t22 -11.5t30.5 -4.5t37 -2.5h47.5q55 0 104.5 3.5t71.5 6.5l23 3v-47zM388 921l-91 -146h-58l89 146h60z" />
    <glyph glyph-name="cacute" unicode="&#x107;" horiz-adv-x="445" 
d="M409 9q-68 -20 -178 -20q-37 0 -63.5 4.5t-46 11t-31.5 23t-19.5 32.5t-11 48t-4.5 59.5t-1 77.5q0 69 3 108.5t12.5 74t29.5 50t50.5 24t79.5 8.5q48 0 91.5 -5t63.5 -10l19 -5v-41q-60 12 -154 12h-44t-32.5 -3.5t-25.5 -7.5t-16 -16.5t-11.5 -25t-5 -39t-3.5 -52.5
v-72v-56t1.5 -44t2 -36t6 -25.5t8 -19.5t13.5 -11.5t17.5 -8.5t24.5 -3t29.5 -2h38.5q42 0 81.5 2.5t57.5 5.5l18 3v-41zM334 748l-91 -146h-58l89 146h60z" />
    <glyph glyph-name="Ccircumflex" unicode="&#x108;" horiz-adv-x="533" 
d="M503 9q-84 -20 -218 -20q-35 0 -61.5 2.5t-48.5 7t-37.5 16t-27.5 23t-19 34t-12 43.5t-7 57.5t-3 70t-1 86.5q0 82 2.5 133.5t11 96t22 67.5t39 39.5t58 21.5t81.5 5q58 0 112 -5t78 -11l25 -5v-46q-74 12 -196 12h-43.5t-35.5 -2.5t-29.5 -5.5t-21.5 -12t-18 -18.5
t-11.5 -28t-9 -39t-4 -52.5t-3 -66.5t-0.5 -83.5v-78t2.5 -61.5t3.5 -49t8 -35.5t10.5 -26.5t17.5 -17t22 -11.5t30.5 -4.5t37 -2.5h47.5q55 0 104.5 3.5t71.5 6.5l23 3v-47zM410 775h-58l-63 100l-63 -100h-58l89 146h64z" />
    <glyph glyph-name="ccircumflex" unicode="&#x109;" horiz-adv-x="445" 
d="M409 9q-68 -20 -178 -20q-37 0 -63.5 4.5t-46 11t-31.5 23t-19.5 32.5t-11 48t-4.5 59.5t-1 77.5q0 69 3 108.5t12.5 74t29.5 50t50.5 24t79.5 8.5q48 0 91.5 -5t63.5 -10l19 -5v-41q-60 12 -154 12h-44t-32.5 -3.5t-25.5 -7.5t-16 -16.5t-11.5 -25t-5 -39t-3.5 -52.5
v-72v-56t1.5 -44t2 -36t6 -25.5t8 -19.5t13.5 -11.5t17.5 -8.5t24.5 -3t29.5 -2h38.5q42 0 81.5 2.5t57.5 5.5l18 3v-41zM356 602h-58l-63 100l-63 -100h-58l89 146h64z" />
    <glyph glyph-name="Cdotaccent" unicode="&#x10a;" horiz-adv-x="533" 
d="M503 9q-84 -20 -218 -20q-35 0 -61.5 2.5t-48.5 7t-37.5 16t-27.5 23t-19 34t-12 43.5t-7 57.5t-3 70t-1 86.5q0 82 2.5 133.5t11 96t22 67.5t39 39.5t58 21.5t81.5 5q58 0 112 -5t78 -11l25 -5v-46q-74 12 -196 12h-43.5t-35.5 -2.5t-29.5 -5.5t-21.5 -12t-18 -18.5
t-11.5 -28t-9 -39t-4 -52.5t-3 -66.5t-0.5 -83.5v-78t2.5 -61.5t3.5 -49t8 -35.5t10.5 -26.5t17.5 -17t22 -11.5t30.5 -4.5t37 -2.5h47.5q55 0 104.5 3.5t71.5 6.5l23 3v-47zM317 775h-57v124h57v-124z" />
    <glyph glyph-name="cdotaccent" unicode="&#x10b;" horiz-adv-x="445" 
d="M409 9q-68 -20 -178 -20q-37 0 -63.5 4.5t-46 11t-31.5 23t-19.5 32.5t-11 48t-4.5 59.5t-1 77.5q0 69 3 108.5t12.5 74t29.5 50t50.5 24t79.5 8.5q48 0 91.5 -5t63.5 -10l19 -5v-41q-60 12 -154 12h-44t-32.5 -3.5t-25.5 -7.5t-16 -16.5t-11.5 -25t-5 -39t-3.5 -52.5
v-72v-56t1.5 -44t2 -36t6 -25.5t8 -19.5t13.5 -11.5t17.5 -8.5t24.5 -3t29.5 -2h38.5q42 0 81.5 2.5t57.5 5.5l18 3v-41zM263 602h-57v124h57v-124z" />
    <glyph glyph-name="Ccaron" unicode="&#x10c;" horiz-adv-x="533" 
d="M503 9q-84 -20 -218 -20q-35 0 -61.5 2.5t-48.5 7t-37.5 16t-27.5 23t-19 34t-12 43.5t-7 57.5t-3 70t-1 86.5q0 82 2.5 133.5t11 96t22 67.5t39 39.5t58 21.5t81.5 5q58 0 112 -5t78 -11l25 -5v-46q-74 12 -196 12h-43.5t-35.5 -2.5t-29.5 -5.5t-21.5 -12t-18 -18.5
t-11.5 -28t-9 -39t-4 -52.5t-3 -66.5t-0.5 -83.5v-78t2.5 -61.5t3.5 -49t8 -35.5t10.5 -26.5t17.5 -17t22 -11.5t30.5 -4.5t37 -2.5h47.5q55 0 104.5 3.5t71.5 6.5l23 3v-47zM410 921l-89 -146h-64l-89 146h58l63 -101l63 101h58z" />
    <glyph glyph-name="ccaron" unicode="&#x10d;" horiz-adv-x="445" 
d="M409 9q-68 -20 -178 -20q-37 0 -63.5 4.5t-46 11t-31.5 23t-19.5 32.5t-11 48t-4.5 59.5t-1 77.5q0 69 3 108.5t12.5 74t29.5 50t50.5 24t79.5 8.5q48 0 91.5 -5t63.5 -10l19 -5v-41q-60 12 -154 12h-44t-32.5 -3.5t-25.5 -7.5t-16 -16.5t-11.5 -25t-5 -39t-3.5 -52.5
v-72v-56t1.5 -44t2 -36t6 -25.5t8 -19.5t13.5 -11.5t17.5 -8.5t24.5 -3t29.5 -2h38.5q42 0 81.5 2.5t57.5 5.5l18 3v-41zM356 748l-89 -146h-64l-89 146h58l63 -101l63 101h58z" />
    <glyph glyph-name="Dcaron" unicode="&#x10e;" horiz-adv-x="620" 
d="M552 329q0 -76 -2 -123t-10 -87.5t-20 -60.5t-35.5 -35t-52.5 -19t-75 -4h-279v680h270q55 0 87.5 -8t57.5 -27t36.5 -61t17 -100.5t5.5 -154.5zM494 329q0 58 -1 98.5t-5.5 73t-7.5 53t-14 35.5t-18.5 21.5t-26.5 10.5t-32 4.5t-42 0.5h-211v-571h219q29 0 41.5 0.5
t31.5 4t25.5 9.5t16.5 20.5t12.5 32.5t6.5 49t4.5 67.5t0.5 90.5zM430 921l-89 -146h-64l-89 146h58l63 -101l63 101h58z" />
    <glyph glyph-name="dcaron" unicode="&#x10f;" horiz-adv-x="600" 
d="M438 9q-74 -20 -192 -20q-46 0 -75 3t-52 14.5t-34.5 26.5t-19 47t-9.5 68t-2 97q0 74 4.5 117.5t15 75.5t34 46t54.5 20t84 6q32 0 66 -2t52 -4l17 -2v224h57v-717zM381 47v406q-48 8 -130 8h-44t-32.5 -3.5t-25.5 -7.5t-16 -15.5t-12 -24.5t-6 -38.5t-4 -52v-69.5v-9
v-67.5t3 -49t4.5 -36.5t11.5 -23t16 -16t26 -6.5t33.5 -3.5h45.5q36 0 68.5 2t46.5 4zM596 605l-49 -107h-45l43 107h-3v121h54v-121z" />
    <glyph glyph-name="Dcroat" unicode="&#x110;" horiz-adv-x="636" 
d="M569 329q0 -76 -2 -123t-10 -87.5t-20 -60.5t-35.5 -35t-53 -19t-75.5 -4h-278v319h-90v49h90v312h270q55 0 87.5 -8t57.5 -27t36.5 -61t17 -100.5t5.5 -154.5zM511 329q0 58 -1 98.5t-5.5 73t-7.5 53t-14 35.5t-18.5 21.5t-26.5 10.5t-32 4.5t-42 0.5h-212v-258h172v-49
h-172v-264h220q29 0 41.5 0.5t31.5 4t25.5 9.5t16.5 20.5t12.5 32.5t6.5 49t4.5 67.5t0.5 90.5z" />
    <glyph glyph-name="dcroat" unicode="&#x111;" horiz-adv-x="528" 
d="M438 9q-74 -20 -192 -20q-46 0 -75 3t-52 14.5t-34.5 26.5t-19 47t-9.5 68t-2 97q0 74 4.5 117.5t15 75.5t34 46t54.5 20t84 6q32 0 66 -2t52 -4l17 -2v85h-139v48h139v91h57v-91h85v-48h-85v-578zM381 47v406q-48 8 -130 8h-44t-32.5 -3.5t-25.5 -7.5t-16 -15.5
t-12 -24.5t-6 -38.5t-4 -52v-69.5v-9v-67.5t3 -49t4.5 -36.5t11.5 -23t16 -16t26 -6.5t33.5 -3.5h45.5q36 0 68.5 2t46.5 4z" />
    <glyph glyph-name="Emacron" unicode="&#x112;" horiz-adv-x="550" 
d="M503 0h-425v680h419v-53h-361v-254h332v-52h-332v-268h367v-53zM405 775h-231v51h231v-51z" />
    <glyph glyph-name="emacron" unicode="&#x113;" 
d="M448 233h-337v-65.5t3.5 -47.5t5 -35.5t12 -22.5t17 -15.5t28 -6t36 -3.5h49.5q46 0 88 3.5t62 6.5l19 3v-41q-73 -20 -189 -20q-45 0 -73 3t-51 14.5t-34 26.5t-18.5 47t-9.5 68t-2 97q0 62 2.5 100.5t10.5 71t20 48.5t36 27.5t53 14.5t75 3t75 -3t53 -14.5t36 -27.5
t20 -48.5t10.5 -71t2.5 -100.5v-12zM391 280q0 36 -0.5 60t-4.5 45t-6 32.5t-12.5 21.5t-17 13.5t-25.5 6.5t-31.5 3h-42.5h-43t-32 -3t-25.5 -6.5t-16.5 -13.5t-12.5 -21.5t-6 -32.5t-4 -44.5t-0.5 -60.5h280zM367 602h-231v51h231v-51z" />
    <glyph glyph-name="Ebreve" unicode="&#x114;" horiz-adv-x="550" 
d="M503 0h-425v680h419v-53h-361v-254h332v-52h-332v-268h367v-53zM400 921q0 -29 -0.5 -42t-2 -33t-6 -28.5t-12 -20t-20 -15.5t-29.5 -7.5t-41 -3.5t-41 3.5t-29.5 7.5t-20 15.5t-12 20t-6 28.5t-2 33t-0.5 42h47q0 -73 9.5 -87.5t54.5 -14.5t54.5 14.5t9.5 87.5h47z" />
    <glyph glyph-name="ebreve" unicode="&#x115;" 
d="M448 233h-337v-65.5t3.5 -47.5t5 -35.5t12 -22.5t17 -15.5t28 -6t36 -3.5h49.5q46 0 88 3.5t62 6.5l19 3v-41q-73 -20 -189 -20q-45 0 -73 3t-51 14.5t-34 26.5t-18.5 47t-9.5 68t-2 97q0 62 2.5 100.5t10.5 71t20 48.5t36 27.5t53 14.5t75 3t75 -3t53 -14.5t36 -27.5
t20 -48.5t10.5 -71t2.5 -100.5v-12zM391 280q0 36 -0.5 60t-4.5 45t-6 32.5t-12.5 21.5t-17 13.5t-25.5 6.5t-31.5 3h-42.5h-43t-32 -3t-25.5 -6.5t-16.5 -13.5t-12.5 -21.5t-6 -32.5t-4 -44.5t-0.5 -60.5h280zM362 748q0 -29 -0.5 -42t-2 -33t-6 -28.5t-12 -20t-20 -15.5
t-29.5 -7.5t-41 -3.5t-41 3.5t-29.5 7.5t-20 15.5t-12 20t-6 28.5t-2 33t-0.5 42h47q0 -73 9.5 -87.5t54.5 -14.5t54.5 14.5t9.5 87.5h47z" />
    <glyph glyph-name="Edotaccent" unicode="&#x116;" horiz-adv-x="550" 
d="M503 0h-425v680h419v-53h-361v-254h332v-52h-332v-268h367v-53zM317 775h-57v124h57v-124z" />
    <glyph glyph-name="edotaccent" unicode="&#x117;" 
d="M448 233h-337v-65.5t3.5 -47.5t5 -35.5t12 -22.5t17 -15.5t28 -6t36 -3.5h49.5q46 0 88 3.5t62 6.5l19 3v-41q-73 -20 -189 -20q-45 0 -73 3t-51 14.5t-34 26.5t-18.5 47t-9.5 68t-2 97q0 62 2.5 100.5t10.5 71t20 48.5t36 27.5t53 14.5t75 3t75 -3t53 -14.5t36 -27.5
t20 -48.5t10.5 -71t2.5 -100.5v-12zM391 280q0 36 -0.5 60t-4.5 45t-6 32.5t-12.5 21.5t-17 13.5t-25.5 6.5t-31.5 3h-42.5h-43t-32 -3t-25.5 -6.5t-16.5 -13.5t-12.5 -21.5t-6 -32.5t-4 -44.5t-0.5 -60.5h280zM279 602h-57v124h57v-124z" />
    <glyph glyph-name="Eogonek" unicode="&#x118;" horiz-adv-x="550" 
d="M488 -186q-27 -20 -73 -20q-77 0 -77 86q0 24 6.5 45.5t15.5 34.5t18 22.5t16 13.5l6 4h-322v680h419v-53h-361v-254h332v-52h-332v-268h367v-53h-50q-7 -4 -17 -11.5t-27 -36.5t-17 -65q0 -29 8.5 -39.5t31.5 -10.5q14 0 28 2.5t21 4.5l7 3v-33z" />
    <glyph glyph-name="eogonek" unicode="&#x119;" 
d="M419 -186q-27 -20 -72 -20q-78 0 -78 86q0 70 51 113q-48 -4 -78 -4q-45 0 -73 3t-51 14.5t-34 26.5t-18.5 47t-9.5 68t-2 97q0 62 2.5 100.5t10.5 71t20 48.5t36 27.5t53 14.5t75 3t75 -3t53 -14.5t36 -27.5t20 -48.5t10.5 -71t2.5 -100.5v-12h-337v-65.5t3.5 -47.5
t5 -35.5t12 -22.5t17 -15.5t28 -6t36 -3.5h49.5q46 0 88 3.5t62 6.5l19 3v-41q-19 -4 -46 -9q-7 -4 -17.5 -11.5t-27.5 -36.5t-17 -65q0 -29 8.5 -39.5t31.5 -10.5q15 0 29 2.5t20 4.5l7 3v-33zM391 280q0 36 -0.5 60t-4.5 45t-6 32.5t-12.5 21.5t-17 13.5t-25.5 6.5
t-31.5 3h-42.5h-43t-32 -3t-25.5 -6.5t-16.5 -13.5t-12.5 -21.5t-6 -32.5t-4 -44.5t-0.5 -60.5h280z" />
    <glyph glyph-name="Ecaron" unicode="&#x11a;" horiz-adv-x="550" 
d="M503 0h-425v680h419v-53h-361v-254h332v-52h-332v-268h367v-53zM410 921l-89 -146h-64l-89 146h58l63 -101l63 101h58z" />
    <glyph glyph-name="ecaron" unicode="&#x11b;" 
d="M448 233h-337v-65.5t3.5 -47.5t5 -35.5t12 -22.5t17 -15.5t28 -6t36 -3.5h49.5q46 0 88 3.5t62 6.5l19 3v-41q-73 -20 -189 -20q-45 0 -73 3t-51 14.5t-34 26.5t-18.5 47t-9.5 68t-2 97q0 62 2.5 100.5t10.5 71t20 48.5t36 27.5t53 14.5t75 3t75 -3t53 -14.5t36 -27.5
t20 -48.5t10.5 -71t2.5 -100.5v-12zM391 280q0 36 -0.5 60t-4.5 45t-6 32.5t-12.5 21.5t-17 13.5t-25.5 6.5t-31.5 3h-42.5h-43t-32 -3t-25.5 -6.5t-16.5 -13.5t-12.5 -21.5t-6 -32.5t-4 -44.5t-0.5 -60.5h280zM372 748l-89 -146h-64l-89 146h58l63 -101l63 101h58z" />
    <glyph glyph-name="Gcircumflex" unicode="&#x11c;" horiz-adv-x="614" 
d="M542 9q-91 -20 -237 -20q-59 0 -94.5 3.5t-64.5 18.5t-42.5 34t-22.5 62.5t-11 90.5t-2 131q0 85 2.5 137t12 96.5t24 66.5t42.5 38t63 20.5t90 4.5q64 0 122.5 -5t85.5 -10l26 -5v-46q-83 12 -216 12h-61.5t-46 -5t-36 -10.5t-22.5 -23.5t-16.5 -36t-7.5 -56t-5 -75.5
v-102.5v-78t2.5 -61.5t3.5 -49t8 -36t10.5 -27t17.5 -17t22 -11.5t31 -4.5t37.5 -2.5h47.5q49 0 94 3t65 5l20 3v268h-176v52h234v-364zM430 775h-58l-63 100l-63 -100h-58l89 146h64z" />
    <glyph glyph-name="gcircumflex" unicode="&#x11d;" 
d="M438 -60q0 -61 -11 -98t-37 -54t-53.5 -21.5t-77.5 -4.5q-48 0 -93 5t-66 11l-20 5v40q62 -12 159 -12q35 0 50 0.5t36 4.5t28 11.5t15.5 22t10.5 36t2 54.5v84q-62 -8 -135 -8q-45 0 -74 3t-52 14t-35 25.5t-19.5 44.5t-9.5 64.5t-2 90.5q0 58 2.5 95t11 67t20.5 46
t35.5 27t51 14t71.5 3q52 0 100 -5t70 -10l22 -5v-550zM381 75v376q-49 10 -130 10q-39 0 -55.5 -0.5t-37 -7.5t-26 -16.5t-13 -34.5t-8 -55t-0.5 -84v-9v-80t7 -51.5t12 -33.5t25.5 -15.5t37.5 -7.5h58q36 0 68.5 2t46.5 4zM372 602h-58l-63 100l-63 -100h-58l89 146h64z
" />
    <glyph glyph-name="Gbreve" unicode="&#x11e;" horiz-adv-x="614" 
d="M542 9q-91 -20 -237 -20q-59 0 -94.5 3.5t-64.5 18.5t-42.5 34t-22.5 62.5t-11 90.5t-2 131q0 85 2.5 137t12 96.5t24 66.5t42.5 38t63 20.5t90 4.5q64 0 122.5 -5t85.5 -10l26 -5v-46q-83 12 -216 12h-61.5t-46 -5t-36 -10.5t-22.5 -23.5t-16.5 -36t-7.5 -56t-5 -75.5
v-102.5v-78t2.5 -61.5t3.5 -49t8 -36t10.5 -27t17.5 -17t22 -11.5t31 -4.5t37.5 -2.5h47.5q49 0 94 3t65 5l20 3v268h-176v52h234v-364zM420 921q0 -29 -0.5 -42t-2 -33t-6 -28.5t-12 -20t-20 -15.5t-29.5 -7.5t-41 -3.5t-41 3.5t-29.5 7.5t-20 15.5t-12 20t-6 28.5t-2 33
t-0.5 42h47q0 -73 9.5 -87.5t54.5 -14.5t54.5 14.5t9.5 87.5h47z" />
    <glyph glyph-name="gbreve" unicode="&#x11f;" 
d="M438 -60q0 -61 -11 -98t-37 -54t-53.5 -21.5t-77.5 -4.5q-48 0 -93 5t-66 11l-20 5v40q62 -12 159 -12q35 0 50 0.5t36 4.5t28 11.5t15.5 22t10.5 36t2 54.5v84q-62 -8 -135 -8q-45 0 -74 3t-52 14t-35 25.5t-19.5 44.5t-9.5 64.5t-2 90.5q0 58 2.5 95t11 67t20.5 46
t35.5 27t51 14t71.5 3q52 0 100 -5t70 -10l22 -5v-550zM381 75v376q-49 10 -130 10q-39 0 -55.5 -0.5t-37 -7.5t-26 -16.5t-13 -34.5t-8 -55t-0.5 -84v-9v-80t7 -51.5t12 -33.5t25.5 -15.5t37.5 -7.5h58q36 0 68.5 2t46.5 4zM362 748q0 -29 -0.5 -42t-2 -33t-6 -28.5
t-12 -20t-20 -15.5t-29.5 -7.5t-41 -3.5t-41 3.5t-29.5 7.5t-20 15.5t-12 20t-6 28.5t-2 33t-0.5 42h47q0 -73 9.5 -87.5t54.5 -14.5t54.5 14.5t9.5 87.5h47z" />
    <glyph glyph-name="Gdotaccent" unicode="&#x120;" horiz-adv-x="614" 
d="M542 9q-91 -20 -237 -20q-59 0 -94.5 3.5t-64.5 18.5t-42.5 34t-22.5 62.5t-11 90.5t-2 131q0 85 2.5 137t12 96.5t24 66.5t42.5 38t63 20.5t90 4.5q64 0 122.5 -5t85.5 -10l26 -5v-46q-83 12 -216 12h-61.5t-46 -5t-36 -10.5t-22.5 -23.5t-16.5 -36t-7.5 -56t-5 -75.5
v-102.5v-78t2.5 -61.5t3.5 -49t8 -36t10.5 -27t17.5 -17t22 -11.5t31 -4.5t37.5 -2.5h47.5q49 0 94 3t65 5l20 3v268h-176v52h234v-364zM337 775h-57v124h57v-124z" />
    <glyph glyph-name="gdotaccent" unicode="&#x121;" 
d="M438 -60q0 -61 -11 -98t-37 -54t-53.5 -21.5t-77.5 -4.5q-48 0 -93 5t-66 11l-20 5v40q62 -12 159 -12q35 0 50 0.5t36 4.5t28 11.5t15.5 22t10.5 36t2 54.5v84q-62 -8 -135 -8q-45 0 -74 3t-52 14t-35 25.5t-19.5 44.5t-9.5 64.5t-2 90.5q0 58 2.5 95t11 67t20.5 46
t35.5 27t51 14t71.5 3q52 0 100 -5t70 -10l22 -5v-550zM381 75v376q-49 10 -130 10q-39 0 -55.5 -0.5t-37 -7.5t-26 -16.5t-13 -34.5t-8 -55t-0.5 -84v-9v-80t7 -51.5t12 -33.5t25.5 -15.5t37.5 -7.5h58q36 0 68.5 2t46.5 4zM279 602h-57v124h57v-124z" />
    <glyph glyph-name="Gcommaaccent" unicode="&#x122;" horiz-adv-x="614" 
d="M542 9q-91 -20 -237 -20q-59 0 -94.5 3.5t-64.5 18.5t-42.5 34t-22.5 62.5t-11 90.5t-2 131q0 85 2.5 137t12 96.5t24 66.5t42.5 38t63 20.5t90 4.5q64 0 122.5 -5t85.5 -10l26 -5v-46q-83 12 -216 12h-61.5t-46 -5t-36 -10.5t-22.5 -23.5t-16.5 -36t-7.5 -56t-5 -75.5
v-102.5v-78t2.5 -61.5t3.5 -49t8 -36t10.5 -27t17.5 -17t22 -11.5t31 -4.5t37.5 -2.5h47.5q49 0 94 3t65 5l20 3v268h-176v52h234v-364zM336 -224l-49 -107h-45l43 107h-3v121h54v-121z" />
    <glyph glyph-name="gcommaaccent" unicode="&#x123;" 
d="M318 830l-44 -107h3v-121h-53v121l48 107h46zM438 -60q0 -61 -11 -98t-37 -54t-53.5 -21.5t-77.5 -4.5q-48 0 -93 5t-66 11l-20 5v40q62 -12 159 -12q35 0 50 0.5t36 4.5t28 11.5t15.5 22t10.5 36t2 54.5v84q-62 -8 -135 -8q-45 0 -74 3t-52 14t-35 25.5t-19.5 44.5
t-9.5 64.5t-2 90.5q0 58 2.5 95t11 67t20.5 46t35.5 27t51 14t71.5 3q52 0 100 -5t70 -10l22 -5v-550zM381 75v376q-49 10 -130 10q-39 0 -55.5 -0.5t-37 -7.5t-26 -16.5t-13 -34.5t-8 -55t-0.5 -84v-9v-80t7 -51.5t12 -33.5t25.5 -15.5t37.5 -7.5h58q36 0 68.5 2t46.5 4z
" />
    <glyph glyph-name="Hcircumflex" unicode="&#x124;" horiz-adv-x="620" 
d="M542 0h-58v320h-348v-320h-58v680h58v-306h348v306h58v-680zM430 775h-58l-63 100l-63 -100h-58l89 146h64z" />
    <glyph glyph-name="hcircumflex" unicode="&#x125;" 
d="M438 0h-57v333q0 24 -1.5 42t-6.5 32t-9 23t-14 15t-17 9t-23 5t-26.5 2h-32.5q-36 0 -68.5 -2.5t-47.5 -4.5l-15 -3v-451h-56v726h56v-224q50 8 131 8q51 0 79.5 -4.5t56.5 -21.5t39.5 -53.5t11.5 -97.5v-333zM372 815h-58l-63 100l-63 -100h-58l89 146h64z" />
    <glyph glyph-name="Hbar" unicode="&#x126;" horiz-adv-x="652" 
d="M558 0h-57v320h-349v-320h-57v490h-90v50h90v140h57v-140h349v140h57v-140h89v-50h-89v-490zM152 374h349v116h-349v-116z" />
    <glyph glyph-name="hbar" unicode="&#x127;" horiz-adv-x="528" 
d="M464 0h-57v333q0 24 -1.5 42t-6.5 32t-9 23t-14 15t-17 9t-23 5t-26.5 2h-32.5q-36 0 -68.5 -2.5t-47.5 -4.5l-15 -3v-451h-56v587h-85v48h85v91h56v-91h139v-48h-139v-85q50 8 131 8q51 0 79.5 -4.5t56.5 -21.5t39.5 -53.5t11.5 -97.5v-333z" />
    <glyph glyph-name="Itilde" unicode="&#x128;" horiz-adv-x="214" 
d="M136 0h-58v680h58v-680zM241 902q0 -131 -75 -131q-14 0 -30 9t-24 17.5l-24 25.5q-28 33 -40 33q-8 0 -12.5 -4t-9 -23t-4.5 -54h-49q0 132 75 132q14 0 30 -9t24 -17.5l24 -25.5q28 -34 40 -34q8 0 12.5 4t9 23t4.5 54h49z" />
    <glyph glyph-name="itilde" unicode="&#x129;" horiz-adv-x="184" 
d="M120 0h-56v499h56v-499zM226 729q0 -131 -75 -131q-14 0 -30 9t-24 17.5l-24 25.5q-28 33 -40 33q-8 0 -12.5 -4t-9 -23t-4.5 -54h-49q0 132 75 132q14 0 30 -9t24 -17.5l24 -25.5q28 -34 40 -34q8 0 12.5 4t9 23t4.5 54h49z" />
    <glyph glyph-name="Imacron" unicode="&#x12a;" horiz-adv-x="214" 
d="M136 0h-58v680h58v-680zM223 775h-231v51h231v-51z" />
    <glyph glyph-name="imacron" unicode="&#x12b;" horiz-adv-x="184" 
d="M120 0h-56v499h56v-499zM208 602h-231v51h231v-51z" />
    <glyph glyph-name="Ibreve" unicode="&#x12c;" horiz-adv-x="214" 
d="M136 0h-58v680h58v-680zM218 921q0 -29 -0.5 -42t-2 -33t-6 -28.5t-12 -20t-20 -15.5t-29.5 -7.5t-41 -3.5t-41 3.5t-29.5 7.5t-20 15.5t-12 20t-6 28.5t-2 33t-0.5 42h47q0 -73 9.5 -87.5t54.5 -14.5t54.5 14.5t9.5 87.5h47z" />
    <glyph glyph-name="ibreve" unicode="&#x12d;" horiz-adv-x="184" 
d="M120 0h-56v499h56v-499zM203 748q0 -29 -0.5 -42t-2 -33t-6 -28.5t-12 -20t-20 -15.5t-29.5 -7.5t-41 -3.5t-41 3.5t-29.5 7.5t-20 15.5t-12 20t-6 28.5t-2 33t-0.5 42h47q0 -73 9.5 -87.5t54.5 -14.5t54.5 14.5t9.5 87.5h47z" />
    <glyph glyph-name="Iogonek" unicode="&#x12e;" horiz-adv-x="214" 
d="M169 -186q-27 -20 -72 -20q-77 0 -77 86q0 24 6.5 45.5t15.5 34.5t18 22.5t16 13.5l6 4h-4v680h58v-680h-1q-7 -4 -17.5 -11.5t-27.5 -36.5t-17 -65q0 -29 9 -39.5t31 -10.5q15 0 29 2.5t20 4.5l7 3v-33z" />
    <glyph glyph-name="iogonek" unicode="&#x12f;" horiz-adv-x="184" 
d="M154 -186q-27 -20 -72 -20q-77 0 -77 86q0 24 6.5 45.5t15.5 34.5t18 22.5t15 13.5l7 4h-3v499h56v-499q-7 -4 -17 -11.5t-27 -36.5t-17 -65q0 -29 8.5 -39.5t30.5 -10.5q15 0 29 2.5t21 4.5l6 3v-33zM120 602h-56v124h56v-124z" />
    <glyph glyph-name="Idotaccent" unicode="&#x130;" horiz-adv-x="214" 
d="M136 0h-58v680h58v-680zM135 775h-57v124h57v-124z" />
    <glyph glyph-name="dotlessi" unicode="&#x131;" horiz-adv-x="184" 
d="M120 0h-56v499h56v-499z" />
    <glyph glyph-name="Jcircumflex" unicode="&#x134;" horiz-adv-x="468" 
d="M390 227q0 -55 -2.5 -87t-12.5 -64.5t-29.5 -49t-53 -27t-83.5 -10.5t-95.5 5t-65.5 10l-21 5v47q64 -13 162 -13q36 0 56.5 1.5t38.5 9t26 18t14 33.5t7.5 49.5t1.5 72.5v453h57v-453zM482 775h-58l-63 100l-63 -100h-58l89 146h64z" />
    <glyph glyph-name="jcircumflex" unicode="&#x135;" horiz-adv-x="274" 
d="M210 -60q0 -39 -1 -57.5t-7 -46.5t-19 -41t-37.5 -23t-61.5 -10q-34 0 -65.5 5t-46.5 11l-14 5v39q41 -11 103 -11q24 0 39.5 2t26 10t16 14.5t8 25.5t3 32.5t0.5 44.5v559h56v-559zM303 602h-58l-63 100l-63 -100h-58l89 146h64z" />
    <glyph glyph-name="Kcommaaccent" unicode="&#x136;" horiz-adv-x="583" 
d="M564 0h-72l-241 320h-115v-320h-58v680h58v-306h115l231 306h72l-253 -333zM336 -224l-49 -107h-45l43 107h-3v121h54v-121z" />
    <glyph glyph-name="kcommaaccent" unicode="&#x137;" horiz-adv-x="467" 
d="M448 0h-69l-174 229h-85v-229h-56v726h56v-447h85l167 220h68l-185 -245zM278 -224l-49 -107h-45l43 107h-3v121h54v-121z" />
    <glyph glyph-name="kgreenlandic" unicode="&#x138;" horiz-adv-x="467" 
d="M448 0h-69l-174 229h-85v-229h-56v499h56v-220h85l167 220h68l-185 -245z" />
    <glyph glyph-name="Lacute" unicode="&#x139;" horiz-adv-x="520" 
d="M493 0h-415v680h58v-625h357v-55zM206 921l-91 -146h-58l89 146h60z" />
    <glyph glyph-name="lacute" unicode="&#x13a;" horiz-adv-x="184" 
d="M120 0h-56v726h56v-726zM191 961l-91 -146h-58l89 146h60z" />
    <glyph glyph-name="Lcommaaccent" unicode="&#x13b;" horiz-adv-x="520" 
d="M493 0h-415v680h58v-625h357v-55zM312 -224l-49 -107h-45l43 107h-3v121h54v-121z" />
    <glyph glyph-name="lcommaaccent" unicode="&#x13c;" horiz-adv-x="184" 
d="M120 0h-56v726h56v-726zM119 -224l-49 -107h-45l43 107h-3v121h54v-121z" />
    <glyph glyph-name="Lcaron" unicode="&#x13d;" horiz-adv-x="520" 
d="M493 0h-415v680h58v-625h357v-55zM322 559l-49 -107h-45l43 107h-3v121h54v-121z" />
    <glyph glyph-name="lcaron" unicode="&#x13e;" horiz-adv-x="283" 
d="M120 0h-56v726h56v-726zM279 605l-49 -107h-45l43 107h-3v121h54v-121z" />
    <glyph glyph-name="Ldot" unicode="&#x13f;" horiz-adv-x="520" 
d="M395 290h-56v122h56v-122zM493 0h-415v680h58v-625h357v-55z" />
    <glyph glyph-name="ldot" unicode="&#x140;" horiz-adv-x="250" 
d="M244 290h-55v122h55v-122zM120 0h-56v726h56v-726z" />
    <glyph glyph-name="Lslash" unicode="&#x141;" horiz-adv-x="539" 
d="M512 0h-415v284l-92 -40v55l92 40v341h57v-317l220 96v-55l-220 -96v-253h358v-55z" />
    <glyph glyph-name="lslash" unicode="&#x142;" horiz-adv-x="250" 
d="M150 0h-55v335l-90 -37v53l90 37v338h55v-315l94 39v-52l-94 -39v-359z" />
    <glyph glyph-name="Nacute" unicode="&#x143;" horiz-adv-x="634" 
d="M556 0h-85l-336 617v-617h-57v680h85l336 -616v616h57v-680zM416 921l-91 -146h-58l89 146h60z" />
    <glyph glyph-name="nacute" unicode="&#x144;" 
d="M438 0h-57v333q0 24 -1.5 42t-6.5 32t-9 23t-14 15t-17 9t-23 5t-26.5 2h-32.5q-36 0 -68.5 -2.5t-47.5 -4.5l-15 -3v-451h-56v490q72 20 187 20q51 0 79.5 -4.5t56.5 -21.5t39.5 -53.5t11.5 -97.5v-333zM350 748l-91 -146h-58l89 146h60z" />
    <glyph glyph-name="Ncommaaccent" unicode="&#x145;" horiz-adv-x="634" 
d="M556 0h-85l-336 617v-617h-57v680h85l336 -616v616h57v-680zM344 -224l-49 -107h-45l43 107h-3v121h54v-121z" />
    <glyph glyph-name="ncommaaccent" unicode="&#x146;" 
d="M438 0h-57v333q0 24 -1.5 42t-6.5 32t-9 23t-14 15t-17 9t-23 5t-26.5 2h-32.5q-36 0 -68.5 -2.5t-47.5 -4.5l-15 -3v-451h-56v490q72 20 187 20q51 0 79.5 -4.5t56.5 -21.5t39.5 -53.5t11.5 -97.5v-333zM278 -224l-49 -107h-45l43 107h-3v121h54v-121z" />
    <glyph glyph-name="Ncaron" unicode="&#x147;" horiz-adv-x="634" 
d="M556 0h-85l-336 617v-617h-57v680h85l336 -616v616h57v-680zM438 921l-89 -146h-64l-89 146h58l63 -101l63 101h58z" />
    <glyph glyph-name="ncaron" unicode="&#x148;" 
d="M438 0h-57v333q0 24 -1.5 42t-6.5 32t-9 23t-14 15t-17 9t-23 5t-26.5 2h-32.5q-36 0 -68.5 -2.5t-47.5 -4.5l-15 -3v-451h-56v490q72 20 187 20q51 0 79.5 -4.5t56.5 -21.5t39.5 -53.5t11.5 -97.5v-333zM372 748l-89 -146h-64l-89 146h58l63 -101l63 101h58z" />
    <glyph glyph-name="Eng" unicode="&#x14a;" horiz-adv-x="634" 
d="M556 -60q0 -39 -1 -57.5t-7.5 -46.5t-19 -41t-37.5 -23t-62 -10q-34 0 -65.5 5t-45.5 11l-15 5v39q42 -11 104 -11q65 0 78.5 23.5t13.5 105.5v60h-28l-336 617v-617h-57v680h85l336 -616v616h57v-740z" />
    <glyph glyph-name="eng" unicode="&#x14b;" 
d="M438 -60q0 -39 -1 -57.5t-7.5 -46.5t-19 -41t-37.5 -23t-62 -10q-34 0 -65.5 5t-45.5 11l-15 5v39q42 -11 104 -11q65 0 78.5 23.5t13.5 105.5v393q0 24 -1.5 42t-6.5 32t-9 23t-14 15t-17 9t-23 5t-26.5 2h-32.5q-36 0 -68.5 -2.5t-47.5 -4.5l-15 -3v-451h-56v490
q72 20 187 20q51 0 79.5 -4.5t56.5 -21.5t39.5 -53.5t11.5 -97.5v-393z" />
    <glyph glyph-name="Omacron" unicode="&#x14c;" horiz-adv-x="620" 
d="M552 333q0 -86 -2 -134t-11.5 -92.5t-23 -63t-43.5 -33.5t-66 -18t-97 -3q-45 0 -75 1.5t-57 9t-43 16t-29.5 29.5t-19.5 42.5t-10.5 61t-5.5 80t-1 104.5q0 87 2.5 140t13 97t25 65t44.5 35.5t64 18t92 3.5q43 0 72 -2t56 -9t43 -17t30.5 -30t21.5 -44t12 -64t6.5 -84
t1.5 -109zM494 329v9v81t-3 64.5t-4.5 51t-9 38t-11.5 27.5t-18 17.5t-22 11.5t-30 5.5t-36.5 2.5h-45.5h-8h-46t-36.5 -2.5t-30.5 -5.5t-22 -11.5t-18 -17.5t-11.5 -27.5t-9 -38t-4.5 -51t-3 -64.5v-81v-9v-78t2.5 -61.5t3 -49t8 -35.5t10.5 -27t17.5 -16.5t22.5 -11
t31 -4.5t38 -3h48h8h48t38 3t31 4.5t22 11.5t17.5 16.5t10.5 26.5t7.5 35.5t3 49.5t2.5 61v78zM425 775h-231v51h231v-51z" />
    <glyph glyph-name="omacron" unicode="&#x14d;" 
d="M448 245q0 -61 -2 -97t-9.5 -68t-19 -47t-35.5 -26.5t-53.5 -14.5t-77.5 -3t-77.5 3t-53.5 14.5t-35.5 26.5t-19.5 47t-9.5 68t-1.5 97q0 62 2.5 100.5t10.5 71t20 48.5t36 27.5t53 14.5t75 3t75 -3t53 -14.5t36 -27.5t20 -48.5t10.5 -71t2.5 -100.5zM391 241v9v69.5
t-3.5 52t-5.5 38.5t-12 24.5t-16 15.5t-25 7.5t-31.5 3.5h-42.5h-8h-42.5t-31.5 -3.5t-25 -7.5t-16 -15.5t-12 -24.5t-5.5 -38.5t-3.5 -52v-69.5v-9v-67.5t3 -49t4.5 -36.5t11 -23t15.5 -16t25 -6.5t32.5 -3.5h44.5h8h44t32.5 3.5t25 6.5t15.5 15.5t11.5 23.5t4.5 37t3 49
v67zM367 602h-231v51h231v-51z" />
    <glyph glyph-name="Obreve" unicode="&#x14e;" horiz-adv-x="620" 
d="M552 333q0 -86 -2 -134t-11.5 -92.5t-23 -63t-43.5 -33.5t-66 -18t-97 -3q-45 0 -75 1.5t-57 9t-43 16t-29.5 29.5t-19.5 42.5t-10.5 61t-5.5 80t-1 104.5q0 87 2.5 140t13 97t25 65t44.5 35.5t64 18t92 3.5q43 0 72 -2t56 -9t43 -17t30.5 -30t21.5 -44t12 -64t6.5 -84
t1.5 -109zM494 329v9v81t-3 64.5t-4.5 51t-9 38t-11.5 27.5t-18 17.5t-22 11.5t-30 5.5t-36.5 2.5h-45.5h-8h-46t-36.5 -2.5t-30.5 -5.5t-22 -11.5t-18 -17.5t-11.5 -27.5t-9 -38t-4.5 -51t-3 -64.5v-81v-9v-78t2.5 -61.5t3 -49t8 -35.5t10.5 -27t17.5 -16.5t22.5 -11
t31 -4.5t38 -3h48h8h48t38 3t31 4.5t22 11.5t17.5 16.5t10.5 26.5t7.5 35.5t3 49.5t2.5 61v78zM420 921q0 -29 -0.5 -42t-2 -33t-6 -28.5t-12 -20t-20 -15.5t-29.5 -7.5t-41 -3.5t-41 3.5t-29.5 7.5t-20 15.5t-12 20t-6 28.5t-2 33t-0.5 42h47q0 -73 9.5 -87.5t54.5 -14.5
t54.5 14.5t9.5 87.5h47z" />
    <glyph glyph-name="obreve" unicode="&#x14f;" 
d="M448 245q0 -61 -2 -97t-9.5 -68t-19 -47t-35.5 -26.5t-53.5 -14.5t-77.5 -3t-77.5 3t-53.5 14.5t-35.5 26.5t-19.5 47t-9.5 68t-1.5 97q0 62 2.5 100.5t10.5 71t20 48.5t36 27.5t53 14.5t75 3t75 -3t53 -14.5t36 -27.5t20 -48.5t10.5 -71t2.5 -100.5zM391 241v9v69.5
t-3.5 52t-5.5 38.5t-12 24.5t-16 15.5t-25 7.5t-31.5 3.5h-42.5h-8h-42.5t-31.5 -3.5t-25 -7.5t-16 -15.5t-12 -24.5t-5.5 -38.5t-3.5 -52v-69.5v-9v-67.5t3 -49t4.5 -36.5t11 -23t15.5 -16t25 -6.5t32.5 -3.5h44.5h8h44t32.5 3.5t25 6.5t15.5 15.5t11.5 23.5t4.5 37t3 49
v67zM362 748q0 -29 -0.5 -42t-2 -33t-6 -28.5t-12 -20t-20 -15.5t-29.5 -7.5t-41 -3.5t-41 3.5t-29.5 7.5t-20 15.5t-12 20t-6 28.5t-2 33t-0.5 42h47q0 -73 9.5 -87.5t54.5 -14.5t54.5 14.5t9.5 87.5h47z" />
    <glyph glyph-name="Ohungarumlaut" unicode="&#x150;" horiz-adv-x="620" 
d="M552 333q0 -86 -2 -134t-11.5 -92.5t-23 -63t-43.5 -33.5t-66 -18t-97 -3q-45 0 -75 1.5t-57 9t-43 16t-29.5 29.5t-19.5 42.5t-10.5 61t-5.5 80t-1 104.5q0 87 2.5 140t13 97t25 65t44.5 35.5t64 18t92 3.5q43 0 72 -2t56 -9t43 -17t30.5 -30t21.5 -44t12 -64t6.5 -84
t1.5 -109zM494 329v9v81t-3 64.5t-4.5 51t-9 38t-11.5 27.5t-18 17.5t-22 11.5t-30 5.5t-36.5 2.5h-45.5h-8h-46t-36.5 -2.5t-30.5 -5.5t-22 -11.5t-18 -17.5t-11.5 -27.5t-9 -38t-4.5 -51t-3 -64.5v-81v-9v-78t2.5 -61.5t3 -49t8 -35.5t10.5 -27t17.5 -16.5t22.5 -11
t31 -4.5t38 -3h48h8h48t38 3t31 4.5t22 11.5t17.5 16.5t10.5 26.5t7.5 35.5t3 49.5t2.5 61v78zM341 921l-91 -146h-58l89 146h60zM487 921l-91 -146h-57l89 146h59z" />
    <glyph glyph-name="ohungarumlaut" unicode="&#x151;" 
d="M448 245q0 -61 -2 -97t-9.5 -68t-19 -47t-35.5 -26.5t-53.5 -14.5t-77.5 -3t-77.5 3t-53.5 14.5t-35.5 26.5t-19.5 47t-9.5 68t-1.5 97q0 62 2.5 100.5t10.5 71t20 48.5t36 27.5t53 14.5t75 3t75 -3t53 -14.5t36 -27.5t20 -48.5t10.5 -71t2.5 -100.5zM391 241v9v69.5
t-3.5 52t-5.5 38.5t-12 24.5t-16 15.5t-25 7.5t-31.5 3.5h-42.5h-8h-42.5t-31.5 -3.5t-25 -7.5t-16 -15.5t-12 -24.5t-5.5 -38.5t-3.5 -52v-69.5v-9v-67.5t3 -49t4.5 -36.5t11 -23t15.5 -16t25 -6.5t32.5 -3.5h44.5h8h44t32.5 3.5t25 6.5t15.5 15.5t11.5 23.5t4.5 37t3 49
v67zM283 748l-91 -146h-58l89 146h60zM429 748l-91 -146h-57l89 146h59z" />
    <glyph glyph-name="OE" unicode="&#x152;" horiz-adv-x="853" 
d="M805 0h-542q-34 0 -58.5 2t-45.5 9.5t-34.5 17.5t-24.5 29.5t-16.5 41.5t-9.5 58.5t-5 75t-1 95.5q0 80 3 132.5t12 94t22 64t37.5 37t53.5 19t75 4.5h529v-53h-320v-254h292v-52h-292v-268h325v-53zM423 55v571h-151q-29 0 -42 -0.5t-32 -4.5t-26.5 -10.5t-18.5 -21.5
t-14 -35.5t-7.5 -53t-5.5 -73t-1 -98.5q0 -54 0.5 -90.5t4.5 -67.5t6.5 -49t13 -32.5t17 -20.5t25.5 -9.5t31.5 -4t41.5 -0.5h158z" />
    <glyph glyph-name="oe" unicode="&#x153;" horiz-adv-x="805" 
d="M752 233h-321v-65t3.5 -48t5.5 -35.5t12 -23t16.5 -14.5t26.5 -6.5t33.5 -3.5h45.5q44 0 84.5 3.5t59.5 6.5l18 3v-41q-71 -20 -181 -20q-67 0 -101.5 9.5t-51.5 37.5q-18 -28 -54 -37.5t-106 -9.5q-45 0 -73 3t-51 14.5t-34 26.5t-18.5 47t-9.5 68t-2 97t2.5 100.5
t10.5 71t20 48t34.5 28t50 14.5t70.5 3q70 0 106 -11t54 -42q18 32 54.5 42.5t106.5 10.5q43 0 70.5 -3t50.5 -14.5t35 -28t20 -48t10.5 -71t2.5 -100.5v-12zM374 241v9q0 43 -0.5 70t-3.5 51.5t-5 38t-11.5 25t-15.5 15.5t-23 7.5t-29 3.5h-39h-8h-39t-29.5 -3.5
t-23.5 -7.5t-15 -15.5t-11.5 -25t-5.5 -38t-3.5 -51.5t-0.5 -70v-9v-86t6.5 -55.5t11 -36t23.5 -16.5t34 -8h53h8h33t26 2t22 3.5t16 7.5t12.5 12t7.5 19t5.5 25t2.5 34.5t2 43.5v55zM695 280q0 36 -0.5 60t-4.5 45t-6 33t-12 21.5t-16 13.5t-24 6.5t-30 2.5h-39h-39t-30 -3
t-24 -6.5t-16 -13t-12.5 -21.5t-6 -33t-4 -45t-0.5 -60h264z" />
    <glyph glyph-name="Racute" unicode="&#x154;" horiz-adv-x="599" 
d="M547 0h-63l-134 308h-214v-308h-58v680h251q34 0 50 -0.5t42 -4t38.5 -10.5t29 -20.5t24 -33.5t13 -50.5t5.5 -70.5q0 -100 -28 -137t-91 -43zM474 490q0 35 -1.5 57.5t-10 38.5t-15.5 24t-28.5 12t-37.5 4.5t-54 0.5h-191v-266h195h41.5t31.5 2t26 5t18 9.5t13.5 15
t7 23t5 32t0.5 42.5zM399 921l-91 -146h-58l89 146h60z" />
    <glyph glyph-name="racute" unicode="&#x155;" horiz-adv-x="360" 
d="M348 449q-47 12 -120 12q-30 0 -57 -2.5t-39 -4.5l-12 -3v-451h-56v490q55 20 142 20q39 0 74.5 -5t51.5 -10l16 -5v-41zM305 748l-91 -146h-58l89 146h60z" />
    <glyph glyph-name="Rcommaaccent" unicode="&#x156;" horiz-adv-x="599" 
d="M547 0h-63l-134 308h-214v-308h-58v680h251q34 0 50 -0.5t42 -4t38.5 -10.5t29 -20.5t24 -33.5t13 -50.5t5.5 -70.5q0 -100 -28 -137t-91 -43zM474 490q0 35 -1.5 57.5t-10 38.5t-15.5 24t-28.5 12t-37.5 4.5t-54 0.5h-191v-266h195h41.5t31.5 2t26 5t18 9.5t13.5 15
t7 23t5 32t0.5 42.5zM327 -224l-49 -107h-45l43 107h-3v121h54v-121z" />
    <glyph glyph-name="rcommaaccent" unicode="&#x157;" horiz-adv-x="360" 
d="M348 449q-47 12 -120 12q-30 0 -57 -2.5t-39 -4.5l-12 -3v-451h-56v490q55 20 142 20q39 0 74.5 -5t51.5 -10l16 -5v-41zM119 -224l-49 -107h-45l43 107h-3v121h54v-121z" />
    <glyph glyph-name="Rcaron" unicode="&#x158;" horiz-adv-x="599" 
d="M547 0h-63l-134 308h-214v-308h-58v680h251q34 0 50 -0.5t42 -4t38.5 -10.5t29 -20.5t24 -33.5t13 -50.5t5.5 -70.5q0 -100 -28 -137t-91 -43zM474 490q0 35 -1.5 57.5t-10 38.5t-15.5 24t-28.5 12t-37.5 4.5t-54 0.5h-191v-266h195h41.5t31.5 2t26 5t18 9.5t13.5 15
t7 23t5 32t0.5 42.5zM421 921l-89 -146h-64l-89 146h58l63 -101l63 101h58z" />
    <glyph glyph-name="rcaron" unicode="&#x159;" horiz-adv-x="360" 
d="M348 449q-47 12 -120 12q-30 0 -57 -2.5t-39 -4.5l-12 -3v-451h-56v490q55 20 142 20q39 0 74.5 -5t51.5 -10l16 -5v-41zM327 748l-89 -146h-64l-89 146h58l63 -101l63 101h58z" />
    <glyph glyph-name="Sacute" unicode="&#x15a;" horiz-adv-x="524" 
d="M485 177q0 -44 -5.5 -75.5t-19.5 -52t-29.5 -33t-44 -18.5t-54 -7.5t-67.5 -1.5q-61 0 -116.5 5t-80.5 10l-24 5v45q76 -12 202 -12h43.5t35.5 1t31 4t23 7t19 11t13 17t10 23.5t4 31t2 40.5q0 87 -12.5 108t-80.5 33l-146 27q-35 6 -60 14.5t-40 22t-24 25t-13 33.5
t-4.5 36.5t-0.5 45.5q0 58 13.5 93t44 51.5t62.5 21t87 4.5q56 0 108 -5t76 -11l24 -5v-45q-75 12 -189 12h-44.5t-35.5 -1.5t-30.5 -4.5t-21.5 -8.5t-17.5 -14t-10.5 -20.5t-7.5 -28.5t-1.5 -38.5q0 -73 12.5 -91.5t80.5 -31.5l148 -27q30 -6 52 -14t37.5 -16t25.5 -23
t15 -25.5t7.5 -33.5t3 -37.5t0.5 -45.5zM358 921l-91 -146h-58l89 146h60z" />
    <glyph glyph-name="sacute" unicode="&#x15b;" horiz-adv-x="455" 
d="M412 132q0 -49 -10.5 -78t-37 -43t-55 -18t-79.5 -4q-50 0 -95.5 5t-66.5 10l-21 5v40q64 -12 163 -12q34 0 49 0.5t36 3t29 8t17 16.5t11.5 27t2.5 40q0 58 -9.5 72.5t-59.5 22.5l-119 17q-43 6 -68 18t-35.5 33t-12.5 37t-2 49q0 34 9.5 58.5t23.5 38t37.5 21t45.5 9.5
t53 2q46 0 88 -5t62 -10l19 -5v-40q-58 12 -148 12q-36 0 -52 -0.5t-36 -4.5t-27 -12.5t-12.5 -24t-5.5 -39.5q0 -51 9.5 -64t60.5 -22l118 -18q35 -6 57.5 -16t35 -20.5t18 -30.5t6.5 -34t1 -44zM323 748l-91 -146h-58l89 146h60z" />
    <glyph glyph-name="Scircumflex" unicode="&#x15c;" horiz-adv-x="524" 
d="M485 177q0 -44 -5.5 -75.5t-19.5 -52t-29.5 -33t-44 -18.5t-54 -7.5t-67.5 -1.5q-61 0 -116.5 5t-80.5 10l-24 5v45q76 -12 202 -12h43.5t35.5 1t31 4t23 7t19 11t13 17t10 23.5t4 31t2 40.5q0 87 -12.5 108t-80.5 33l-146 27q-35 6 -60 14.5t-40 22t-24 25t-13 33.5
t-4.5 36.5t-0.5 45.5q0 58 13.5 93t44 51.5t62.5 21t87 4.5q56 0 108 -5t76 -11l24 -5v-45q-75 12 -189 12h-44.5t-35.5 -1.5t-30.5 -4.5t-21.5 -8.5t-17.5 -14t-10.5 -20.5t-7.5 -28.5t-1.5 -38.5q0 -73 12.5 -91.5t80.5 -31.5l148 -27q30 -6 52 -14t37.5 -16t25.5 -23
t15 -25.5t7.5 -33.5t3 -37.5t0.5 -45.5zM380 775h-58l-63 100l-63 -100h-58l89 146h64z" />
    <glyph glyph-name="scircumflex" unicode="&#x15d;" horiz-adv-x="455" 
d="M412 132q0 -49 -10.5 -78t-37 -43t-55 -18t-79.5 -4q-50 0 -95.5 5t-66.5 10l-21 5v40q64 -12 163 -12q34 0 49 0.5t36 3t29 8t17 16.5t11.5 27t2.5 40q0 58 -9.5 72.5t-59.5 22.5l-119 17q-43 6 -68 18t-35.5 33t-12.5 37t-2 49q0 34 9.5 58.5t23.5 38t37.5 21t45.5 9.5
t53 2q46 0 88 -5t62 -10l19 -5v-40q-58 12 -148 12q-36 0 -52 -0.5t-36 -4.5t-27 -12.5t-12.5 -24t-5.5 -39.5q0 -51 9.5 -64t60.5 -22l118 -18q35 -6 57.5 -16t35 -20.5t18 -30.5t6.5 -34t1 -44zM345 602h-58l-63 100l-63 -100h-58l89 146h64z" />
    <glyph glyph-name="Scedilla" unicode="&#x15e;" horiz-adv-x="524" 
d="M369 -142q0 -49 -18 -63.5t-73 -14.5q-25 0 -47.5 5t-32.5 11l-11 5v32q31 -10 81 -10q33 0 40 4.5t7 30.5q0 25 -3.5 29t-25.5 4h-60v99q-51 1 -96.5 6t-65.5 9l-20 4v45q76 -12 202 -12h43.5t35.5 1t31 4t23 7t19 11t13 17t10 23.5t4 31t2 40.5q0 87 -12.5 108
t-80.5 33l-146 27q-35 6 -60 14.5t-40 22t-24 25t-13 33.5t-4.5 36.5t-0.5 45.5q0 58 13.5 93t44 51.5t62.5 21t87 4.5q56 0 108 -5t76 -11l24 -5v-45q-75 12 -189 12h-44.5t-35.5 -1.5t-30.5 -4.5t-21.5 -8.5t-17.5 -14t-10.5 -20.5t-7.5 -28.5t-1.5 -38.5
q0 -73 12.5 -91.5t80.5 -31.5l148 -27q30 -6 52 -14t37.5 -16t25.5 -23t15 -25.5t7.5 -33.5t3 -37.5t0.5 -45.5q0 -63 -12 -101.5t-42 -57t-62.5 -24t-91.5 -5.5v-52h19q20 0 29.5 -1.5t22 -8.5t17 -23.5t4.5 -45.5z" />
    <glyph glyph-name="scedilla" unicode="&#x15f;" horiz-adv-x="455" 
d="M333 -142q0 -49 -17.5 -63.5t-73.5 -14.5q-24 0 -47 5t-33 11l-11 5v32q32 -10 81 -10q34 0 41 4.5t7 30.5q0 25 -3.5 29t-25.5 4h-61v99q-40 1 -75.5 6t-51.5 9l-16 4v40q64 -12 163 -12q34 0 49 0.5t36 3t29 8t17 16.5t11.5 27t2.5 40q0 58 -9.5 72.5t-59.5 22.5
l-119 17q-43 6 -68 18t-35.5 33t-12.5 37t-2 49q0 34 9.5 58.5t23.5 38t37.5 21t45.5 9.5t53 2q46 0 88 -5t62 -10l19 -5v-40q-58 12 -148 12q-36 0 -52 -0.5t-36 -4.5t-27 -12.5t-12.5 -24t-5.5 -39.5q0 -51 9.5 -64t60.5 -22l118 -18q35 -6 57.5 -16t35 -20.5t18 -30.5
t6.5 -34t1 -44q0 -47 -10 -76t-34 -43.5t-51.5 -19t-74.5 -4.5v-52h19q20 0 29.5 -1.5t21.5 -8.5t16.5 -23.5t4.5 -45.5z" />
    <glyph glyph-name="Scaron" unicode="&#x160;" horiz-adv-x="524" 
d="M485 177q0 -44 -5.5 -75.5t-19.5 -52t-29.5 -33t-44 -18.5t-54 -7.5t-67.5 -1.5q-61 0 -116.5 5t-80.5 10l-24 5v45q76 -12 202 -12h43.5t35.5 1t31 4t23 7t19 11t13 17t10 23.5t4 31t2 40.5q0 87 -12.5 108t-80.5 33l-146 27q-35 6 -60 14.5t-40 22t-24 25t-13 33.5
t-4.5 36.5t-0.5 45.5q0 58 13.5 93t44 51.5t62.5 21t87 4.5q56 0 108 -5t76 -11l24 -5v-45q-75 12 -189 12h-44.5t-35.5 -1.5t-30.5 -4.5t-21.5 -8.5t-17.5 -14t-10.5 -20.5t-7.5 -28.5t-1.5 -38.5q0 -73 12.5 -91.5t80.5 -31.5l148 -27q30 -6 52 -14t37.5 -16t25.5 -23
t15 -25.5t7.5 -33.5t3 -37.5t0.5 -45.5zM380 921l-89 -146h-64l-89 146h58l63 -101l63 101h58z" />
    <glyph glyph-name="scaron" unicode="&#x161;" horiz-adv-x="455" 
d="M412 132q0 -49 -10.5 -78t-37 -43t-55 -18t-79.5 -4q-50 0 -95.5 5t-66.5 10l-21 5v40q64 -12 163 -12q34 0 49 0.5t36 3t29 8t17 16.5t11.5 27t2.5 40q0 58 -9.5 72.5t-59.5 22.5l-119 17q-43 6 -68 18t-35.5 33t-12.5 37t-2 49q0 34 9.5 58.5t23.5 38t37.5 21t45.5 9.5
t53 2q46 0 88 -5t62 -10l19 -5v-40q-58 12 -148 12q-36 0 -52 -0.5t-36 -4.5t-27 -12.5t-12.5 -24t-5.5 -39.5q0 -51 9.5 -64t60.5 -22l118 -18q35 -6 57.5 -16t35 -20.5t18 -30.5t6.5 -34t1 -44zM345 748l-89 -146h-64l-89 146h58l63 -101l63 101h58z" />
    <glyph glyph-name="uni0162" unicode="&#x162;" horiz-adv-x="528" 
d="M501 626h-208v-626h-58v626h-208v54h474v-54zM291 -224l-49 -107h-45l43 107h-3v121h54v-121z" />
    <glyph glyph-name="uni0163" unicode="&#x163;" horiz-adv-x="405" 
d="M386 9q-52 -20 -133 -20q-33 0 -56.5 5t-38 18.5t-23 25.5t-12 37t-4 41t-0.5 50v283h-99v50h99v170h57v-170h173v-50h-173v-283q0 -29 0.5 -41.5t2 -30t5.5 -24t10 -15t17.5 -10.5t26 -4t36.5 -2q30 0 58 2.5t41 5.5l13 3v-41zM280 -224l-49 -107h-45l43 107h-3v121h54
v-121z" />
    <glyph glyph-name="Tcaron" unicode="&#x164;" horiz-adv-x="528" 
d="M501 626h-208v-626h-58v626h-208v54h474v-54zM385 921l-89 -146h-64l-89 146h58l63 -101l63 101h58z" />
    <glyph glyph-name="tcaron" unicode="&#x165;" horiz-adv-x="490" 
d="M386 9q-52 -20 -133 -20q-33 0 -56.5 5t-38 18.5t-23 25.5t-12 37t-4 41t-0.5 50v283h-99v50h99v170h57v-170h173v-50h-173v-283q0 -29 0.5 -41.5t2 -30t5.5 -24t10 -15t17.5 -10.5t26 -4t36.5 -2q30 0 58 2.5t41 5.5l13 3v-41zM486 605l-49 -107h-45l43 107h-3v121h54
v-121z" />
    <glyph glyph-name="Tbar" unicode="&#x166;" horiz-adv-x="528" 
d="M501 626h-208v-258h134v-50h-134v-318h-58v318h-135v50h135v258h-208v54h474v-54z" />
    <glyph glyph-name="tbar" unicode="&#x167;" horiz-adv-x="405" 
d="M386 9q-52 -20 -133 -20q-33 0 -56.5 5t-38 18.5t-23 25.5t-12 37t-4 41t-0.5 50v64h-86v48h86v171h-99v50h99v170h57v-170h173v-50h-173v-171h138v-48h-138v-64q0 -29 0.5 -41.5t2 -30t5.5 -24t10 -15t17.5 -10.5t26 -4t36.5 -2q30 0 58 2.5t41 5.5l13 3v-41z" />
    <glyph glyph-name="Utilde" unicode="&#x168;" horiz-adv-x="620" 
d="M542 227q0 -56 -2.5 -89.5t-11.5 -63t-23.5 -44t-42 -25t-63 -13.5t-90.5 -3t-90 3t-62.5 13.5t-41.5 25t-23 44t-11.5 63t-2.5 89.5v453h58v-453v-50t2.5 -39.5t3.5 -31.5t8.5 -23t10.5 -17t17 -11t21.5 -7.5t29 -3t35.5 -1.5h45h45t36 1.5t30 3t21.5 7.5t17 11t11 17
t8.5 23t3.5 31.5t2.5 39.5v50v453h58v-453zM443 902q0 -131 -75 -131q-14 0 -30 9t-24 17.5l-24 25.5q-28 33 -40 33q-8 0 -12.5 -4t-9 -23t-4.5 -54h-49q0 132 75 132q14 0 30 -9t24 -17.5l24 -25.5q28 -34 40 -34q8 0 12.5 4t9 23t4.5 54h49z" />
    <glyph glyph-name="utilde" unicode="&#x169;" 
d="M438 9q-72 -20 -187 -20q-54 0 -83.5 4.5t-56 21.5t-37 53.5t-10.5 97.5v333h56v-333q0 -32 2 -53.5t10 -36t15 -22t26 -11t32.5 -4t45.5 -0.5q36 0 68.5 2t46.5 4l15 2v452h57v-490zM385 729q0 -131 -75 -131q-14 0 -30 9t-24 17.5l-24 25.5q-27 33 -40 33
q-8 0 -12.5 -4t-9 -23t-4.5 -54h-49q0 132 75 132q14 0 30 -9t24 -17.5l24 -25.5q28 -34 40 -34q8 0 12.5 4t9 23t4.5 54h49z" />
    <glyph glyph-name="Umacron" unicode="&#x16a;" horiz-adv-x="620" 
d="M542 227q0 -56 -2.5 -89.5t-11.5 -63t-23.5 -44t-42 -25t-63 -13.5t-90.5 -3t-90 3t-62.5 13.5t-41.5 25t-23 44t-11.5 63t-2.5 89.5v453h58v-453v-50t2.5 -39.5t3.5 -31.5t8.5 -23t10.5 -17t17 -11t21.5 -7.5t29 -3t35.5 -1.5h45h45t36 1.5t30 3t21.5 7.5t17 11t11 17
t8.5 23t3.5 31.5t2.5 39.5v50v453h58v-453zM425 775h-231v51h231v-51z" />
    <glyph glyph-name="umacron" unicode="&#x16b;" 
d="M438 9q-72 -20 -187 -20q-54 0 -83.5 4.5t-56 21.5t-37 53.5t-10.5 97.5v333h56v-333q0 -32 2 -53.5t10 -36t15 -22t26 -11t32.5 -4t45.5 -0.5q36 0 68.5 2t46.5 4l15 2v452h57v-490zM367 602h-231v51h231v-51z" />
    <glyph glyph-name="Ubreve" unicode="&#x16c;" horiz-adv-x="620" 
d="M542 227q0 -56 -2.5 -89.5t-11.5 -63t-23.5 -44t-42 -25t-63 -13.5t-90.5 -3t-90 3t-62.5 13.5t-41.5 25t-23 44t-11.5 63t-2.5 89.5v453h58v-453v-50t2.5 -39.5t3.5 -31.5t8.5 -23t10.5 -17t17 -11t21.5 -7.5t29 -3t35.5 -1.5h45h45t36 1.5t30 3t21.5 7.5t17 11t11 17
t8.5 23t3.5 31.5t2.5 39.5v50v453h58v-453zM420 921q0 -29 -0.5 -42t-2 -33t-6 -28.5t-12 -20t-20 -15.5t-29.5 -7.5t-41 -3.5t-41 3.5t-29.5 7.5t-20 15.5t-12 20t-6 28.5t-2 33t-0.5 42h47q0 -73 9.5 -87.5t54.5 -14.5t54.5 14.5t9.5 87.5h47z" />
    <glyph glyph-name="ubreve" unicode="&#x16d;" 
d="M438 9q-72 -20 -187 -20q-54 0 -83.5 4.5t-56 21.5t-37 53.5t-10.5 97.5v333h56v-333q0 -32 2 -53.5t10 -36t15 -22t26 -11t32.5 -4t45.5 -0.5q36 0 68.5 2t46.5 4l15 2v452h57v-490zM362 748q0 -29 -0.5 -42t-2 -33t-6 -28.5t-12 -20t-20 -15.5t-29.5 -7.5t-41 -3.5
t-41 3.5t-29.5 7.5t-20 15.5t-12 20t-6 28.5t-2 33t-0.5 42h47q0 -73 9.5 -87.5t54.5 -14.5t54.5 14.5t9.5 87.5h47z" />
    <glyph glyph-name="Uring" unicode="&#x16e;" horiz-adv-x="620" 
d="M542 227q0 -56 -2.5 -89.5t-11.5 -63t-23.5 -44t-42 -25t-63 -13.5t-90.5 -3t-90 3t-62.5 13.5t-41.5 25t-23 44t-11.5 63t-2.5 89.5v453h58v-453v-50t2.5 -39.5t3.5 -31.5t8.5 -23t10.5 -17t17 -11t21.5 -7.5t29 -3t35.5 -1.5h45h45t36 1.5t30 3t21.5 7.5t17 11t11 17
t8.5 23t3.5 31.5t2.5 39.5v50v453h58v-453zM410 857q0 -55 -17.5 -70.5t-83.5 -15.5t-83.5 15.5t-17.5 70.5q0 58 18.5 74.5t82.5 16.5t82.5 -16.5t18.5 -74.5zM359 857q0 37 -6.5 43.5t-43.5 6.5t-43.5 -6.5t-6.5 -43.5q0 -35 6.5 -40.5t43.5 -5.5t43.5 6t6.5 40z" />
    <glyph glyph-name="uring" unicode="&#x16f;" 
d="M438 9q-72 -20 -187 -20q-54 0 -83.5 4.5t-56 21.5t-37 53.5t-10.5 97.5v333h56v-333q0 -32 2 -53.5t10 -36t15 -22t26 -11t32.5 -4t45.5 -0.5q36 0 68.5 2t46.5 4l15 2v452h57v-490zM352 684q0 -55 -17.5 -70.5t-83.5 -15.5t-83.5 15.5t-17.5 70.5q0 58 18.5 74.5
t82.5 16.5t82.5 -16.5t18.5 -74.5zM301 684q0 37 -6.5 43.5t-43.5 6.5t-43.5 -6t-6.5 -44q0 -34 6.5 -40t43.5 -6t43.5 6t6.5 40z" />
    <glyph glyph-name="Uhungarumlaut" unicode="&#x170;" horiz-adv-x="620" 
d="M542 227q0 -56 -2.5 -89.5t-11.5 -63t-23.5 -44t-42 -25t-63 -13.5t-90.5 -3t-90 3t-62.5 13.5t-41.5 25t-23 44t-11.5 63t-2.5 89.5v453h58v-453v-50t2.5 -39.5t3.5 -31.5t8.5 -23t10.5 -17t17 -11t21.5 -7.5t29 -3t35.5 -1.5h45h45t36 1.5t30 3t21.5 7.5t17 11t11 17
t8.5 23t3.5 31.5t2.5 39.5v50v453h58v-453zM341 921l-91 -146h-58l89 146h60zM487 921l-91 -146h-57l89 146h59z" />
    <glyph glyph-name="uhungarumlaut" unicode="&#x171;" 
d="M438 9q-72 -20 -187 -20q-54 0 -83.5 4.5t-56 21.5t-37 53.5t-10.5 97.5v333h56v-333q0 -32 2 -53.5t10 -36t15 -22t26 -11t32.5 -4t45.5 -0.5q36 0 68.5 2t46.5 4l15 2v452h57v-490zM283 748l-91 -146h-58l89 146h60zM429 748l-91 -146h-57l89 146h59z" />
    <glyph glyph-name="Uogonek" unicode="&#x172;" horiz-adv-x="620" 
d="M382 -186q-27 -20 -73 -20q-77 0 -77 86q0 70 47 110q-47 1 -78 5t-54.5 15.5t-36 26t-20.5 43.5t-10 61.5t-2 85.5v453h58v-453v-50t2.5 -39.5t3.5 -31.5t8.5 -23t10.5 -17t17 -11t21.5 -7.5t29 -3t35.5 -1.5h45h45t36 1.5t30 3t21.5 7.5t17 11t11 17t8.5 23t3.5 31.5
t2.5 39.5v50v453h58v-453q0 -53 -2.5 -86t-10.5 -62t-21 -44t-38 -26.5t-57 -15t-81 -4.5q-46 -36 -46 -102q0 -29 8.5 -39.5t31.5 -10.5q15 0 29 2.5t21 4.5l6 3v-33z" />
    <glyph glyph-name="uogonek" unicode="&#x173;" 
d="M425 -186q-27 -20 -73 -20q-77 0 -77 86q0 71 50 113q-46 -4 -74 -4q-54 0 -83.5 4.5t-56 21.5t-37 53.5t-10.5 97.5v333h56v-333q0 -32 2 -53.5t10 -36t15 -22t26 -11t32.5 -4t45.5 -0.5q36 0 68.5 2t46.5 4l15 2v452h57v-490q-20 -5 -50 -10q-59 -39 -59 -112
q0 -29 8.5 -39.5t31.5 -10.5q14 0 28 2.5t21 4.5l7 3v-33z" />
    <glyph glyph-name="Wcircumflex" unicode="&#x174;" horiz-adv-x="834" 
d="M816 680l-165 -680h-85l-149 616l-149 -616h-85l-163 680h57l150 -620l149 620h82l150 -620l149 620h59zM538 775h-58l-63 100l-63 -100h-58l89 146h64z" />
    <glyph glyph-name="wcircumflex" unicode="&#x175;" horiz-adv-x="715" 
d="M692 499l-136 -499h-79l-119 439l-120 -439h-79l-136 499h55l121 -443l121 443h76l121 -444l120 444h55zM479 602h-58l-63 100l-63 -100h-58l89 146h64z" />
    <glyph glyph-name="Ycircumflex" unicode="&#x176;" horiz-adv-x="541" 
d="M530 680l-228 -373h-3v-307h-57v307h-3l-228 373h66l193 -317l194 317h66zM391 775h-58l-63 100l-63 -100h-58l89 146h64z" />
    <glyph glyph-name="ycircumflex" unicode="&#x177;" horiz-adv-x="458" 
d="M443 499l-199 -576q-14 -40 -19.5 -55.5t-16 -40t-17.5 -32t-19.5 -18t-26.5 -13t-34 -2.5q-36 0 -69 5t-48 11l-15 5v40q43 -12 112 -12q42 0 55.5 16.5t43.5 104.5l24 68h-21l-172 499h58l153 -445l154 445h57zM353 602h-58l-63 100l-63 -100h-58l89 146h64z" />
    <glyph glyph-name="Ydieresis" unicode="&#x178;" horiz-adv-x="541" 
d="M530 680l-228 -373h-3v-307h-57v307h-3l-228 373h66l193 -317l194 317h66zM221 775h-54v113h54v-113zM373 775h-54v113h54v-113z" />
    <glyph glyph-name="Zacute" unicode="&#x179;" horiz-adv-x="531" 
d="M492 0h-448v55l366 571h-361v54h428v-54l-366 -571h381v-55zM364 921l-91 -146h-58l89 146h60z" />
    <glyph glyph-name="zacute" unicode="&#x17a;" horiz-adv-x="454" 
d="M411 0h-364v49l283 400h-276v50h342v-49l-283 -400h298v-50zM326 748l-91 -146h-58l89 146h60z" />
    <glyph glyph-name="Zdotaccent" unicode="&#x17b;" horiz-adv-x="531" 
d="M492 0h-448v55l366 571h-361v54h428v-54l-366 -571h381v-55zM294 775h-57v124h57v-124z" />
    <glyph glyph-name="zdotaccent" unicode="&#x17c;" horiz-adv-x="454" 
d="M411 0h-364v49l283 400h-276v50h342v-49l-283 -400h298v-50zM255 602h-57v124h57v-124z" />
    <glyph glyph-name="Zcaron" unicode="&#x17d;" horiz-adv-x="531" 
d="M492 0h-448v55l366 571h-361v54h428v-54l-366 -571h381v-55zM386 921l-89 -146h-64l-89 146h58l63 -101l63 101h58z" />
    <glyph glyph-name="zcaron" unicode="&#x17e;" horiz-adv-x="454" 
d="M411 0h-364v49l283 400h-276v50h342v-49l-283 -400h298v-50zM348 748l-89 -146h-64l-89 146h58l63 -101l63 101h58z" />
    <glyph glyph-name="longs" unicode="&#x17f;" horiz-adv-x="329" 
d="M330 676q-43 11 -112 11q-26 0 -41.5 -1t-27.5 -8t-17 -12t-8 -24t-3.5 -33.5t-0.5 -49.5v-559h-56v559q0 24 0.5 36.5t2 33t5 31t9.5 25.5t15.5 22.5t23.5 15.5t33.5 11t43.5 3q37 0 70 -5.5t48 -10.5l15 -5v-40z" />
    <glyph glyph-name="uni018F" unicode="&#x18f;" horiz-adv-x="620" 
d="M552 333q0 -86 -2 -134t-11.5 -92.5t-23 -63t-43.5 -33.5t-66 -18t-97 -3q-45 0 -75 1.5t-57 9t-43 16t-29.5 29.5t-19.5 42.5t-10.5 61t-5.5 80t-1 104.5v47h426q0 41 -0.5 70t-3.5 56t-4.5 43.5t-9.5 32.5t-12.5 24t-19.5 15.5t-24 10t-32.5 4.5t-38.5 2h-49
q-60 0 -113.5 -3t-77.5 -7l-24 -3v47q88 20 233 20q55 0 88 -3.5t62.5 -18t43.5 -36t24 -64.5t13 -97t3 -140zM494 329h-369v-95.5t4.5 -70t6.5 -52t15 -33t21 -22t34 -9.5t43.5 -5h59.5h49t38.5 2.5t32 4.5t23 11.5t17.5 17t11 27t8.5 35.5t3 49t2.5 61.5v78.5z" />
    <glyph glyph-name="florin" unicode="&#x192;" horiz-adv-x="570" 
d="M565 678q-43 9 -111 9q-54 0 -69 -23t-28 -105l-30 -188h171v-52h-180l-60 -379q-6 -39 -10 -58t-13.5 -46.5t-21 -40.5t-32.5 -23t-49 -10q-35 0 -66.5 5t-45.5 11l-15 5v39q41 -11 104 -11q50 0 64.5 23.5t27.5 105.5l60 379h-148v52h157l29 188q6 37 10 57.5t13.5 47
t22 40t35 23.5t52.5 10q36 0 69.5 -5.5t48.5 -10.5l15 -5v-38z" />
    <glyph glyph-name="uni01B7" unicode="&#x1b7;" horiz-adv-x="548" 
d="M477 47q0 -67 -10.5 -112.5t-26 -70.5t-46 -38t-58 -16t-75.5 -3q-60 0 -114 5t-79 10l-24 5v46q75 -12 198 -12h37t31.5 1.5t28 3.5t22.5 6.5t19.5 11.5t14.5 17t12 23.5l7 31.5t5 40.5t1 50.5v75.5t-9.5 48t-17 32.5t-40.5 13.5t-59.5 7.5h-94.5h-62v51l248 352h-336
v53h402v-52l-248 -353q70 0 99.5 -1t69.5 -7.5t53 -19.5t29 -39.5t19.5 -64t3.5 -96.5z" />
    <glyph glyph-name="AEmacron" unicode="&#x1e2;" horiz-adv-x="845" 
d="M797 0h-383v219h-251l-90 -219h-62l278 680h502v-53h-319v-254h292v-52h-292v-268h325v-53zM414 272v355h-86l-144 -355h230zM588 775h-231v51h231v-51z" />
    <glyph glyph-name="aemacron" unicode="&#x1e3;" horiz-adv-x="795" 
d="M742 233h-321v-65t3.5 -48t5 -35.5t12 -22.5t17 -15t26.5 -6.5t34 -3.5h46q43 0 83.5 3.5t59.5 6.5l18 3v-41q-70 -20 -182 -20q-64 0 -98.5 9.5t-51.5 36.5q-21 -29 -56.5 -37.5t-99.5 -8.5q-25 0 -38.5 0.5t-36 3.5t-35 8.5t-29 16.5t-25 27.5t-14.5 41.5t-6 58
q0 31 5 55t11.5 39.5t21 26.5t25.5 16.5t32.5 8t35 3t39.5 0.5h141v39q0 32 -3 54.5t-12 36.5t-16.5 22t-27 11.5t-33 4t-43.5 0.5q-41 0 -78.5 -3t-54.5 -7l-17 -3v41q66 20 171 20q54 0 88.5 -9.5t54.5 -40.5q19 29 55 39.5t104 10.5q52 0 82.5 -6t53.5 -20t33.5 -46
t15 -76t4.5 -117v-12zM365 166v81h-141q-27 0 -39 -0.5t-28.5 -3.5t-22.5 -9t-12.5 -17.5t-8.5 -28.5t-2 -43q0 -32 6 -52.5t13.5 -32t27 -16.5t34 -6t46.5 -1q30 0 43 0.5t31.5 4t25.5 11.5t15 22.5t10 36t2 54.5zM686 280q0 48 -1 77t-8.5 51t-13 31.5t-25 15.5t-34.5 6.5
t-51 0.5h-39t-30 -2.5t-24 -6.5t-16 -13.5t-12 -21.5t-6 -33t-4.5 -45t-0.5 -60h265zM514 602h-231v51h231v-51z" />
    <glyph glyph-name="uni01E4" unicode="&#x1e4;" horiz-adv-x="636" 
d="M632 258h-90v-249q-91 -20 -237 -20q-59 0 -94.5 3.5t-64.5 18.5t-42.5 34t-22.5 62.5t-11 90.5t-2 131q0 85 2.5 137t12 96.5t24 66.5t42.5 38t63 20.5t90 4.5q64 0 122.5 -5t85.5 -10l26 -5v-46q-83 12 -216 12h-61.5t-46 -5t-36 -10.5t-22.5 -23.5t-16.5 -36t-7.5 -56
t-5 -75.5v-102.5v-78t2.5 -61.5t3.5 -49t8 -36t10.5 -27t17.5 -17t22 -11.5t31 -4.5t37.5 -2.5h47.5q49 0 94 3t65 5l20 3v205h-90v50h90v65h58v-65h90v-50z" />
    <glyph glyph-name="uni01E5" unicode="&#x1e5;" horiz-adv-x="528" 
d="M438 -60q0 -61 -11 -98t-37 -54t-53.5 -21.5t-77.5 -4.5q-48 0 -93 5t-66 11l-20 5v40q62 -12 159 -12q35 0 50 0.5t36 4.5t28 11.5t15.5 22t10.5 36t2 54.5v84q-62 -8 -135 -8q-45 0 -74 3t-52 14t-35 25.5t-19.5 44.5t-9.5 64.5t-2 90.5q0 58 2.5 95t11 67t20.5 46
t35.5 27t51 14t71.5 3q52 0 100 -5t70 -10l22 -5v-202h85v-47h-85v-301zM381 75v166h-86v47h86v163q-49 10 -130 10q-39 0 -55.5 -0.5t-37 -7.5t-26 -16.5t-13 -34.5t-8 -55t-0.5 -84v-9v-80t7 -51.5t12 -33.5t25.5 -15.5t37.5 -7.5h58q36 0 68.5 2t46.5 4z" />
    <glyph glyph-name="Gcaron" unicode="&#x1e6;" horiz-adv-x="614" 
d="M542 9q-91 -20 -237 -20q-59 0 -94.5 3.5t-64.5 18.5t-42.5 34t-22.5 62.5t-11 90.5t-2 131q0 85 2.5 137t12 96.5t24 66.5t42.5 38t63 20.5t90 4.5q64 0 122.5 -5t85.5 -10l26 -5v-46q-83 12 -216 12h-61.5t-46 -5t-36 -10.5t-22.5 -23.5t-16.5 -36t-7.5 -56t-5 -75.5
v-102.5v-78t2.5 -61.5t3.5 -49t8 -36t10.5 -27t17.5 -17t22 -11.5t31 -4.5t37.5 -2.5h47.5q49 0 94 3t65 5l20 3v268h-176v52h234v-364zM430 921l-89 -146h-64l-89 146h58l63 -101l63 101h58z" />
    <glyph glyph-name="gcaron" unicode="&#x1e7;" 
d="M438 -60q0 -61 -11 -98t-37 -54t-53.5 -21.5t-77.5 -4.5q-48 0 -93 5t-66 11l-20 5v40q62 -12 159 -12q35 0 50 0.5t36 4.5t28 11.5t15.5 22t10.5 36t2 54.5v84q-62 -8 -135 -8q-45 0 -74 3t-52 14t-35 25.5t-19.5 44.5t-9.5 64.5t-2 90.5q0 58 2.5 95t11 67t20.5 46
t35.5 27t51 14t71.5 3q52 0 100 -5t70 -10l22 -5v-550zM381 75v376q-49 10 -130 10q-39 0 -55.5 -0.5t-37 -7.5t-26 -16.5t-13 -34.5t-8 -55t-0.5 -84v-9v-80t7 -51.5t12 -33.5t25.5 -15.5t37.5 -7.5h58q36 0 68.5 2t46.5 4zM372 748l-89 -146h-64l-89 146h58l63 -101
l63 101h58z" />
    <glyph glyph-name="uni01E8" unicode="&#x1e8;" horiz-adv-x="583" 
d="M564 0h-72l-241 320h-115v-320h-58v680h58v-306h115l231 306h72l-253 -333zM430 921l-89 -146h-64l-89 146h58l63 -101l63 101h58z" />
    <glyph glyph-name="uni01E9" unicode="&#x1e9;" horiz-adv-x="467" 
d="M448 0h-69l-174 229h-85v-229h-56v726h56v-447h85l167 220h68l-185 -245zM372 961l-89 -146h-64l-89 146h58l63 -101l63 101h58z" />
    <glyph glyph-name="uni01EA" unicode="&#x1ea;" horiz-adv-x="620" 
d="M382 -186q-27 -20 -73 -20q-77 0 -77 86q0 69 47 109q-39 1 -65.5 3.5t-50 10.5t-37.5 18t-25.5 31t-17.5 42.5t-9.5 60.5t-4.5 78t-1 100q0 87 2.5 140t13 97t25 65t44.5 35.5t64 18t92 3.5q43 0 72 -2t56 -9t43 -17t30.5 -30t21.5 -44t12 -64t6.5 -84t1.5 -109
q0 -62 -1 -101t-5 -78.5t-9.5 -61t-18 -42.5t-27 -30.5t-39 -17.5t-52 -10t-68.5 -3q-46 -36 -46 -102q0 -29 8.5 -39.5t31.5 -10.5q15 0 29 2.5t21 4.5l6 3v-33zM494 329v9v81t-3 64.5t-4.5 51t-9 38t-11.5 27.5t-18 17.5t-22 11.5t-30 5.5t-36.5 2.5h-45.5h-8h-46
t-36.5 -2.5t-30.5 -5.5t-22 -11.5t-18 -17.5t-11.5 -27.5t-9 -38t-4.5 -51t-3 -64.5v-81v-9v-78t2.5 -61.5t3 -49t8 -35.5t10.5 -27t17.5 -16.5t22.5 -11t31 -4.5t38 -3h48h8h48t38 3t31 4.5t22 11.5t17.5 16.5t10.5 26.5t7.5 35.5t3 49.5t2.5 61v78z" />
    <glyph glyph-name="uni01EB" unicode="&#x1eb;" 
d="M323 -186q-27 -20 -72 -20q-77 0 -77 86q0 69 46 110q-47 1 -75.5 8.5t-48 21.5t-28 46.5t-11.5 71t-3 107.5q0 62 2.5 100.5t10.5 71t20 48.5t36 27.5t53 14.5t75 3t75 -3t53 -14.5t36 -27.5t20 -48.5t10.5 -71t2.5 -100.5q0 -58 -1.5 -93t-8.5 -66.5t-17.5 -47
t-31.5 -28t-47.5 -16.5t-68.5 -5q-45 -38 -45 -102q0 -29 8.5 -39.5t31.5 -10.5q14 0 28 2.5t20 4.5l7 3v-33zM391 241v9v69.5t-3.5 52t-5.5 38.5t-12 24.5t-16 15.5t-25 7.5t-31.5 3.5h-42.5h-8h-42.5t-31.5 -3.5t-25 -7.5t-16 -15.5t-12 -24.5t-5.5 -38.5t-3.5 -52v-69.5
v-9v-67.5t3 -49t4.5 -36.5t11 -23t15.5 -16t25 -6.5t32.5 -3.5h44.5h8h44t32.5 3.5t25 6.5t15.5 15.5t11.5 23.5t4.5 37t3 49v67z" />
    <glyph glyph-name="uni01EE" unicode="&#x1ee;" horiz-adv-x="548" 
d="M477 47q0 -67 -10.5 -112.5t-26 -70.5t-46 -38t-58 -16t-75.5 -3q-60 0 -114 5t-79 10l-24 5v46q75 -12 198 -12h37t31.5 1.5t28 3.5t22.5 6.5t19.5 11.5t14.5 17t12 23.5l7 31.5t5 40.5t1 50.5v75.5t-9.5 48t-17 32.5t-40.5 13.5t-59.5 7.5h-94.5h-62v51l248 352h-336
v53h402v-52l-248 -353q70 0 99.5 -1t69.5 -7.5t53 -19.5t29 -39.5t19.5 -64t3.5 -96.5zM374 921l-89 -146h-64l-89 146h58l63 -101l63 101h58z" />
    <glyph glyph-name="uni01EF" unicode="&#x1ef;" horiz-adv-x="447" 
d="M391 -33q0 -48 -4.5 -82.5t-16 -57t-24.5 -36t-36 -19.5t-43 -8t-54 -2q-48 0 -92.5 5t-64.5 11l-21 5v40q62 -12 158 -12q36 0 51.5 0.5t36.5 5.5t27.5 13.5t14.5 27t9.5 44t1.5 65.5v48t-3.5 35.5t-5.5 27t-14.5 16t-20 11t-32.5 4.5t-42.5 3h-59.5h-61v48l204 289
h-258v50h323v-49l-203 -290h51t42.5 -1.5t37.5 -4t29 -7t24.5 -11.5t17 -17.5t14 -24.5t8 -33t5.5 -41.5t1 -52.5zM326 748l-89 -146h-64l-89 146h58l63 -101l63 101h58z" />
    <glyph glyph-name="uni01F4" unicode="&#x1f4;" horiz-adv-x="614" 
d="M542 9q-91 -20 -237 -20q-59 0 -94.5 3.5t-64.5 18.5t-42.5 34t-22.5 62.5t-11 90.5t-2 131q0 85 2.5 137t12 96.5t24 66.5t42.5 38t63 20.5t90 4.5q64 0 122.5 -5t85.5 -10l26 -5v-46q-83 12 -216 12h-61.5t-46 -5t-36 -10.5t-22.5 -23.5t-16.5 -36t-7.5 -56t-5 -75.5
v-102.5v-78t2.5 -61.5t3.5 -49t8 -36t10.5 -27t17.5 -17t22 -11.5t31 -4.5t37.5 -2.5h47.5q49 0 94 3t65 5l20 3v268h-176v52h234v-364zM408 921l-91 -146h-58l89 146h60z" />
    <glyph glyph-name="uni01F5" unicode="&#x1f5;" 
d="M438 -60q0 -61 -11 -98t-37 -54t-53.5 -21.5t-77.5 -4.5q-48 0 -93 5t-66 11l-20 5v40q62 -12 159 -12q35 0 50 0.5t36 4.5t28 11.5t15.5 22t10.5 36t2 54.5v84q-62 -8 -135 -8q-45 0 -74 3t-52 14t-35 25.5t-19.5 44.5t-9.5 64.5t-2 90.5q0 58 2.5 95t11 67t20.5 46
t35.5 27t51 14t71.5 3q52 0 100 -5t70 -10l22 -5v-550zM381 75v376q-49 10 -130 10q-39 0 -55.5 -0.5t-37 -7.5t-26 -16.5t-13 -34.5t-8 -55t-0.5 -84v-9v-80t7 -51.5t12 -33.5t25.5 -15.5t37.5 -7.5h58q36 0 68.5 2t46.5 4zM350 748l-91 -146h-58l89 146h60z" />
    <glyph glyph-name="Aringacute" unicode="&#x1fa;" horiz-adv-x="596" 
d="M399 739q0 -36 -11.5 -49.5t-49.5 -16.5l247 -673h-62l-79 219h-292l-80 -219h-61l246 673q-38 3 -49 16.5t-11 49.5q0 45 18.5 57.5t82.5 12.5t82.5 -12.5t18.5 -57.5zM425 272l-127 351l-127 -351h254zM348 739q0 29 -6.5 34t-43.5 5q-38 0 -44 -5t-6 -34
q0 -26 6 -30.5t44 -4.5q37 0 43.5 4.5t6.5 30.5zM398 948l-91 -114h-59l89 114h61z" />
    <glyph glyph-name="aringacute" unicode="&#x1fb;" 
d="M352 616q0 -43 -17.5 -55t-83.5 -12t-83.5 12t-17.5 55q0 44 18.5 57t82.5 13q63 0 82 -13t19 -57zM301 616q0 29 -6.5 34t-43.5 5t-43.5 -5t-6.5 -34q0 -26 6.5 -30.5t43.5 -4.5t43.5 4.5t6.5 30.5zM350 834l-91 -113h-58l89 113h60zM438 9q-74 -20 -192 -20
q-28 0 -42 0.5t-38.5 3.5t-37 8.5t-29 16.5t-25 27.5t-14.5 41.5t-6 58q0 31 5 55t11.5 40t21 26.5t25.5 16t34 8t37.5 3t43.5 0.5h149v39q0 28 -3 48t-6.5 34t-14 23t-18.5 14t-27 7t-32 2.5t-41 0.5q-43 0 -83 -3t-58 -7l-18 -3v41q70 20 179 20q31 0 51 -1.5t42.5 -7.5
t36.5 -17.5t26 -30.5t17.5 -49t5.5 -71v-324zM381 46v201h-149q-26 0 -37.5 -0.5t-28.5 -2t-23 -5.5t-14.5 -11t-11 -18.5t-4.5 -27t-2 -37.5q0 -27 2.5 -45.5t11.5 -30.5t16.5 -18.5t27 -9.5t33.5 -3.5t44 -0.5q37 0 71 2.5t49 4.5z" />
    <glyph glyph-name="AEacute" unicode="&#x1fc;" horiz-adv-x="845" 
d="M797 0h-383v219h-251l-90 -219h-62l278 680h502v-53h-319v-254h292v-52h-292v-268h325v-53zM414 272v355h-86l-144 -355h230zM571 921l-91 -146h-58l89 146h60z" />
    <glyph glyph-name="aeacute" unicode="&#x1fd;" horiz-adv-x="795" 
d="M742 233h-321v-65t3.5 -48t5 -35.5t12 -22.5t17 -15t26.5 -6.5t34 -3.5h46q43 0 83.5 3.5t59.5 6.5l18 3v-41q-70 -20 -182 -20q-64 0 -98.5 9.5t-51.5 36.5q-21 -29 -56.5 -37.5t-99.5 -8.5q-25 0 -38.5 0.5t-36 3.5t-35 8.5t-29 16.5t-25 27.5t-14.5 41.5t-6 58
q0 31 5 55t11.5 39.5t21 26.5t25.5 16.5t32.5 8t35 3t39.5 0.5h141v39q0 32 -3 54.5t-12 36.5t-16.5 22t-27 11.5t-33 4t-43.5 0.5q-41 0 -78.5 -3t-54.5 -7l-17 -3v41q66 20 171 20q54 0 88.5 -9.5t54.5 -40.5q19 29 55 39.5t104 10.5q52 0 82.5 -6t53.5 -20t33.5 -46
t15 -76t4.5 -117v-12zM365 166v81h-141q-27 0 -39 -0.5t-28.5 -3.5t-22.5 -9t-12.5 -17.5t-8.5 -28.5t-2 -43q0 -32 6 -52.5t13.5 -32t27 -16.5t34 -6t46.5 -1q30 0 43 0.5t31.5 4t25.5 11.5t15 22.5t10 36t2 54.5zM686 280q0 48 -1 77t-8.5 51t-13 31.5t-25 15.5t-34.5 6.5
t-51 0.5h-39t-30 -2.5t-24 -6.5t-16 -13.5t-12 -21.5t-6 -33t-4.5 -45t-0.5 -60h265zM497 748l-91 -146h-58l89 146h60z" />
    <glyph glyph-name="Oslashacute" unicode="&#x1fe;" horiz-adv-x="620" 
d="M552 333q0 -86 -2 -134t-11.5 -92.5t-23 -63t-43.5 -33.5t-66 -18t-97 -3q-102 0 -147 14l-37 -71h-55l49 95q-32 30 -41.5 95.5t-9.5 210.5q0 87 2.5 140t13 97t25 65t44.5 35.5t64 18t92 3.5q101 0 147 -17l38 74h56l-52 -100q32 -32 43 -102t11 -214zM494 329v9
q0 210 -25 256l-282 -543q27 -8 119 -8h8h48t38 3t31 4.5t22 11.5t17.5 16.5t10.5 26.5t7.5 35.5t3 49.5t2.5 61v78zM125 329q0 -119 3.5 -170t18.5 -77l284 545q-27 10 -117 10h-8h-46t-36.5 -2.5t-30.5 -5.5t-22 -11.5t-18 -17.5t-11.5 -27.5t-9 -38t-4.5 -51t-3 -64.5
v-81v-9zM409 921l-91 -146h-59l89 146h61z" />
    <glyph glyph-name="oslashacute" unicode="&#x1ff;" 
d="M448 245q0 -61 -2 -97t-9.5 -68t-19 -47t-35.5 -26.5t-53.5 -14.5t-77.5 -3q-69 0 -109 9l-35 -66h-51l44 85q-29 22 -37.5 71t-8.5 157q0 62 2.5 100.5t10.5 71t20 48.5t36 27.5t53 14.5t75 3q68 0 107 -10l36 67h51l-46 -87q29 -24 39 -76.5t10 -158.5zM391 241v9
q0 148 -18 180l-208 -387q20 -4 82 -4h8h44t32.5 3.5t25 6.5t15.5 15.5t11.5 23.5t4.5 37t3 49v67zM111 241q0 -86 2.5 -121t13.5 -53l207 389q-19 5 -79 5h-8h-42.5t-31.5 -3.5t-25 -7.5t-16 -15.5t-12 -24.5t-5.5 -38.5t-3.5 -52v-69.5v-9zM350 748l-91 -146h-58l89 146
h60z" />
    <glyph glyph-name="Scommaaccent" unicode="&#x218;" horiz-adv-x="524" 
d="M485 177q0 -44 -5.5 -75.5t-19.5 -52t-29.5 -33t-44 -18.5t-54 -7.5t-67.5 -1.5q-61 0 -116.5 5t-80.5 10l-24 5v45q76 -12 202 -12h43.5t35.5 1t31 4t23 7t19 11t13 17t10 23.5t4 31t2 40.5q0 87 -12.5 108t-80.5 33l-146 27q-35 6 -60 14.5t-40 22t-24 25t-13 33.5
t-4.5 36.5t-0.5 45.5q0 58 13.5 93t44 51.5t62.5 21t87 4.5q56 0 108 -5t76 -11l24 -5v-45q-75 12 -189 12h-44.5t-35.5 -1.5t-30.5 -4.5t-21.5 -8.5t-17.5 -14t-10.5 -20.5t-7.5 -28.5t-1.5 -38.5q0 -73 12.5 -91.5t80.5 -31.5l148 -27q30 -6 52 -14t37.5 -16t25.5 -23
t15 -25.5t7.5 -33.5t3 -37.5t0.5 -45.5zM286 -224l-49 -107h-45l43 107h-3v121h54v-121z" />
    <glyph glyph-name="scommaaccent" unicode="&#x219;" horiz-adv-x="455" 
d="M412 132q0 -49 -10.5 -78t-37 -43t-55 -18t-79.5 -4q-50 0 -95.5 5t-66.5 10l-21 5v40q64 -12 163 -12q34 0 49 0.5t36 3t29 8t17 16.5t11.5 27t2.5 40q0 58 -9.5 72.5t-59.5 22.5l-119 17q-43 6 -68 18t-35.5 33t-12.5 37t-2 49q0 34 9.5 58.5t23.5 38t37.5 21t45.5 9.5
t53 2q46 0 88 -5t62 -10l19 -5v-40q-58 12 -148 12q-36 0 -52 -0.5t-36 -4.5t-27 -12.5t-12.5 -24t-5.5 -39.5q0 -51 9.5 -64t60.5 -22l118 -18q35 -6 57.5 -16t35 -20.5t18 -30.5t6.5 -34t1 -44zM251 -224l-49 -107h-45l43 107h-3v121h54v-121z" />
    <glyph glyph-name="uni021A" unicode="&#x21a;" horiz-adv-x="528" 
d="M501 626h-208v-626h-58v626h-208v54h474v-54zM291 -224l-49 -107h-45l43 107h-3v121h54v-121z" />
    <glyph glyph-name="uni021B" unicode="&#x21b;" horiz-adv-x="405" 
d="M386 9q-52 -20 -133 -20q-33 0 -56.5 5t-38 18.5t-23 25.5t-12 37t-4 41t-0.5 50v283h-99v50h99v170h57v-170h173v-50h-173v-283q0 -29 0.5 -41.5t2 -30t5.5 -24t10 -15t17.5 -10.5t26 -4t36.5 -2q30 0 58 2.5t41 5.5l13 3v-41zM280 -224l-49 -107h-45l43 107h-3v121h54
v-121z" />
    <glyph glyph-name="uni021E" unicode="&#x21e;" horiz-adv-x="620" 
d="M542 0h-58v320h-348v-320h-58v680h58v-306h348v306h58v-680zM430 921l-89 -146h-64l-89 146h58l63 -101l63 101h58z" />
    <glyph glyph-name="uni021F" unicode="&#x21f;" 
d="M438 0h-57v333q0 24 -1.5 42t-6.5 32t-9 23t-14 15t-17 9t-23 5t-26.5 2h-32.5q-36 0 -68.5 -2.5t-47.5 -4.5l-15 -3v-451h-56v726h56v-224q50 8 131 8q51 0 79.5 -4.5t56.5 -21.5t39.5 -53.5t11.5 -97.5v-333zM372 961l-89 -146h-64l-89 146h58l63 -101l63 101h58z" />
    <glyph glyph-name="uni0228" unicode="&#x228;" horiz-adv-x="550" 
d="M399 -142q0 -49 -18 -63.5t-74 -14.5q-24 0 -47 5t-34 11l-10 5v32q32 -10 81 -10q34 0 41 4.5t7 30.5q0 25 -3.5 29t-25.5 4h-61v109h-177v680h419v-53h-361v-254h332v-52h-332v-268h367v-53h-196v-63h19q20 0 29.5 -1.5t22 -8.5t17 -23.5t4.5 -45.5z" />
    <glyph glyph-name="uni0229" unicode="&#x229;" 
d="M360 -142q0 -49 -17.5 -63.5t-73.5 -14.5q-24 0 -47 5t-34 11l-10 5v32q32 -10 81 -10q34 0 41 4.5t7 30.5q0 25 -3.5 29t-25.5 4h-61v99q-46 1 -73.5 8t-46.5 21t-28 46t-12 71.5t-3 108.5q0 62 2.5 100.5t10.5 71t20 48.5t36 27.5t53 14.5t75 3t75 -3t53 -14.5
t36 -27.5t20 -48.5t10.5 -71t2.5 -100.5v-12h-337v-65.5t3.5 -47.5t5 -35.5t12 -22.5t17 -15.5t28 -6t36 -3.5h49.5q46 0 88 3.5t62 6.5l19 3v-41q-63 -16 -163 -19v-53h20q20 0 29.5 -1.5t21.5 -8.5t16.5 -23.5t4.5 -45.5zM391 280q0 36 -0.5 60t-4.5 45t-6 32.5
t-12.5 21.5t-17 13.5t-25.5 6.5t-31.5 3h-42.5h-43t-32 -3t-25.5 -6.5t-16.5 -13.5t-12.5 -21.5t-6 -32.5t-4 -44.5t-0.5 -60.5h280z" />
    <glyph glyph-name="dotlessj" unicode="&#x237;" horiz-adv-x="274" 
d="M210 -60q0 -39 -1 -57.5t-7 -46.5t-19 -41t-37.5 -23t-61.5 -10q-34 0 -65.5 5t-46.5 11l-14 5v39q41 -11 103 -11q24 0 39.5 2t26 10t16 14.5t8 25.5t3 32.5t0.5 44.5v559h56v-559z" />
    <glyph glyph-name="uni0259" unicode="&#x259;" 
d="M448 245q0 -61 -2 -97t-9.5 -68t-19 -47t-35.5 -26.5t-53.5 -14.5t-77.5 -3t-77.5 3t-53.5 14.5t-35.5 26.5t-19.5 47t-9.5 68t-1.5 97v42h337q0 35 -0.5 58t-4.5 43t-6.5 31.5t-13.5 20.5t-18 13t-27.5 6.5t-34.5 2.5h-46q-46 0 -88.5 -3t-61.5 -7l-20 -3v41
q73 20 189 20q52 0 82.5 -6t53.5 -20t33.5 -46t15 -76t4.5 -117zM391 240h-280v-67.5t3 -49.5t4.5 -37t11.5 -23t16 -15.5t26 -6.5t33.5 -4h45.5h45.5t33 3.5t26 6.5t16.5 15.5t11.5 23.5t4.5 37t3 49.5v67.5z" />
    <glyph glyph-name="uni0292" unicode="&#x292;" horiz-adv-x="447" 
d="M391 -33q0 -48 -4.5 -82.5t-16 -57t-24.5 -36t-36 -19.5t-43 -8t-54 -2q-48 0 -92.5 5t-64.5 11l-21 5v40q62 -12 158 -12q36 0 51.5 0.5t36.5 5.5t27.5 13.5t14.5 27t9.5 44t1.5 65.5v48t-3.5 35.5t-5.5 27t-14.5 16t-20 11t-32.5 4.5t-42.5 3h-59.5h-61v48l204 289
h-258v50h323v-49l-203 -290h51t42.5 -1.5t37.5 -4t29 -7t24.5 -11.5t17 -17.5t14 -24.5t8 -33t5.5 -41.5t1 -52.5z" />
    <glyph glyph-name="circumflex" unicode="&#x2c6;" horiz-adv-x="836" 
d="M539 602h-58l-63 100l-63 -100h-58l89 146h64z" />
    <glyph glyph-name="caron" unicode="&#x2c7;" horiz-adv-x="836" 
d="M539 748l-89 -146h-64l-89 146h58l63 -101l63 101h58z" />
    <glyph glyph-name="uni02C9" unicode="&#x2c9;" horiz-adv-x="836" 
d="M534 602h-231v51h231v-51z" />
    <glyph glyph-name="breve" unicode="&#x2d8;" horiz-adv-x="836" 
d="M529 748q0 -29 -0.5 -42t-2 -33t-6 -28.5t-12 -20t-20 -15.5t-29.5 -7.5t-41 -3.5t-41 3.5t-29.5 7.5t-20 15.5t-12 20t-6 28.5t-2 33t-0.5 42h47q0 -73 9.5 -87.5t54.5 -14.5t54.5 14.5t9.5 87.5h47z" />
    <glyph glyph-name="dotaccent" unicode="&#x2d9;" horiz-adv-x="836" 
d="M446 602h-57v124h57v-124z" />
    <glyph glyph-name="ring" unicode="&#x2da;" horiz-adv-x="836" 
d="M519 684q0 -55 -17.5 -70.5t-83.5 -15.5t-83.5 15.5t-17.5 70.5q0 58 18.5 74.5t82.5 16.5t82.5 -16.5t18.5 -74.5zM468 684q0 37 -6.5 43.5t-43.5 6.5q-38 0 -44 -6t-6 -44q0 -34 6 -40t44 -6q37 0 43.5 6t6.5 40z" />
    <glyph glyph-name="ogonek" unicode="&#x2db;" horiz-adv-x="836" 
d="M490 -186q-26 -20 -72 -20q-77 0 -77 86q0 24 6.5 45.5t15.5 34.5t18 22.5t15 13.5l7 4h53q-7 -4 -17 -11.5t-27 -36.5t-17 -65q0 -29 8.5 -39.5t31.5 -10.5q14 0 28 2.5t21 4.5l6 3v-33z" />
    <glyph glyph-name="tilde" unicode="&#x2dc;" horiz-adv-x="836" 
d="M552 729q0 -131 -75 -131q-14 0 -30 9t-24 17.5l-24 25.5q-27 33 -40 33q-8 0 -12.5 -4t-9 -23t-4.5 -54h-49q0 132 75 132q14 0 30 -9t24 -17.5l24 -25.5q28 -34 40 -34q8 0 12.5 4t9 23t4.5 54h49z" />
    <glyph glyph-name="hungarumlaut" unicode="&#x2dd;" horiz-adv-x="836" 
d="M450 748l-91 -146h-58l89 146h60zM596 748l-91 -146h-57l89 146h59z" />
    <glyph glyph-name="uni0374" unicode="&#x374;" horiz-adv-x="253" 
d="M190 726l-73 -236h-53l72 236h54z" />
    <glyph glyph-name="uni0375" unicode="&#x375;" horiz-adv-x="253" 
d="M190 124l-73 -235h-53l72 235h54z" />
    <glyph glyph-name="uni037E" unicode="&#x37e;" horiz-adv-x="184" 
d="M120 372h-56v127h56v-127zM120 0l-51 -113h-49l47 113h-3v127h56v-127z" />
    <glyph glyph-name="tonos" unicode="&#x384;" horiz-adv-x="836" 
d="M446 770l-2 -168h-52l-2 168h56z" />
    <glyph glyph-name="dieresistonos" unicode="&#x385;" horiz-adv-x="836" 
d="M336 602h-47v113h47v-113zM547 602h-47v113h47v-113zM444 770l-2 -168h-48l-2 168h52z" />
    <glyph glyph-name="Alphatonos" unicode="&#x386;" horiz-adv-x="596" 
d="M585 0h-62l-79 219h-292l-80 -219h-61l249 680h76zM425 272l-127 351l-127 -351h254zM86 680l-2 -168h-52l-2 168h56z" />
    <glyph glyph-name="anoteleia" unicode="&#x387;" horiz-adv-x="184" 
d="M120 372h-56v127h56v-127z" />
    <glyph glyph-name="Epsilontonos" unicode="&#x388;" horiz-adv-x="611" 
d="M564 0h-425v680h419v-53h-361v-254h332v-52h-332v-268h367v-53zM60 680l-2 -168h-52l-2 168h56z" />
    <glyph glyph-name="Etatonos" unicode="&#x389;" horiz-adv-x="681" 
d="M603 0h-58v320h-348v-320h-58v680h58v-306h348v306h58v-680zM60 680l-2 -168h-52l-2 168h56z" />
    <glyph glyph-name="Iotatonos" unicode="&#x38a;" horiz-adv-x="275" 
d="M197 0h-58v680h58v-680zM60 680l-2 -168h-52l-2 168h56z" />
    <glyph glyph-name="Omicrontonos" unicode="&#x38c;" horiz-adv-x="675" 
d="M607 333q0 -86 -2 -134t-11.5 -92.5t-23 -63t-43.5 -33.5t-66 -18t-97 -3q-45 0 -75 1.5t-57 9t-43 16t-29.5 29.5t-19.5 42.5t-10.5 61t-5.5 80t-1 104.5q0 87 2.5 140t13 97t25 65t44.5 35.5t64 18t92 3.5q43 0 72 -2t56 -9t43 -17t30.5 -30t21.5 -44t12 -64t6.5 -84
t1.5 -109zM549 329v9v81t-3 64.5t-4.5 51t-9 38t-11.5 27.5t-18 17.5t-22 11.5t-30 5.5t-36.5 2.5h-45.5h-8h-46t-36.5 -2.5t-30.5 -5.5t-22 -11.5t-18 -17.5t-11.5 -27.5t-9 -38t-4.5 -51t-3 -64.5v-81v-9v-78t2.5 -61.5t3 -49t8 -35.5t10.5 -27t17.5 -16.5t22.5 -11
t31 -4.5t38 -3h48h8h48t38 3t31 4.5t22 11.5t17.5 16.5t10.5 26.5t7.5 35.5t3 49.5t2.5 61v78zM60 680l-2 -168h-52l-2 168h56z" />
    <glyph glyph-name="Upsilontonos" unicode="&#x38e;" horiz-adv-x="624" 
d="M614 680l-228 -373h-3v-307h-57v307h-3l-228 373h66l193 -317l194 317h66zM60 680l-2 -168h-52l-2 168h56z" />
    <glyph glyph-name="Omegatonos" unicode="&#x38f;" horiz-adv-x="696" 
d="M617 0h-194v53l90 137q33 50 39.5 87t6.5 154q0 32 -0.5 56t-4 45t-6 35t-10.5 26t-13 19t-19 12.5t-22.5 8t-30 4t-34.5 1.5h-42h-8q-36 0 -52 -0.5t-40 -3t-33 -7.5t-22.5 -15t-17.5 -24.5t-9.5 -37t-6.5 -51t-1 -68.5q0 -116 6.5 -152.5t40.5 -88.5l89 -137v-53h-194
v53h127l-68 104q-42 65 -50.5 107.5t-8.5 166.5q0 63 4.5 106t18 72.5t29 45.5t47.5 24.5t61.5 10.5t83.5 2t83.5 -2t61.5 -10.5t47.5 -24.5t29 -45.5t18 -72.5t4.5 -106q0 -124 -8.5 -166.5t-51.5 -107.5l-68 -104h128v-53zM60 680l-2 -168h-52l-2 168h56z" />
    <glyph glyph-name="iotadieresistonos" unicode="&#x390;" horiz-adv-x="184" 
d="M120 0h-56v499h56v-499zM10 602h-47v113h47v-113zM221 602h-47v113h47v-113zM118 770l-2 -168h-48l-2 168h52z" />
    <glyph glyph-name="Alpha" unicode="&#x391;" horiz-adv-x="596" 
d="M585 0h-62l-79 219h-292l-80 -219h-61l249 680h76zM425 272l-127 351l-127 -351h254z" />
    <glyph glyph-name="Beta" unicode="&#x392;" horiz-adv-x="591" 
d="M531 190q0 -40 -5.5 -70.5t-13.5 -50.5t-24 -33.5t-28.5 -20.5t-37.5 -10.5t-40 -4t-46 -0.5h-258v680h251q28 0 42.5 -0.5t39.5 -4t38 -10.5t30.5 -20.5t26 -33.5t15 -50.5t6.5 -70.5t-6 -69t-14.5 -42.5t-17.5 -21t-15 -8.5l-6 -1v-1q3 0 7 -1t15 -9.5t19 -23t15 -47
t7 -76.5zM469 490q0 34 -3 57.5t-12 39t-17 23.5t-28.5 12t-35 4.5t-46.5 0.5h-191v-254h195q34 0 48.5 0.5t34.5 4t27 10t15.5 20t10.5 33t2 49.5zM474 190q0 33 -2.5 55t-11 37t-16 22.5t-28.5 11.5t-35.5 4.5t-49.5 0.5h-195v-268h198q31 0 45 0.5t34.5 4.5t28.5 12
t17 23.5t12 39t3 57.5z" />
    <glyph glyph-name="Gamma" unicode="&#x393;" horiz-adv-x="520" 
d="M493 626h-357v-626h-58v680h415v-54z" />
    <glyph glyph-name="uni0394" unicode="&#x394;" horiz-adv-x="596" 
d="M585 0h-574l249 680h76zM503 53l-205 570l-206 -570h411z" />
    <glyph glyph-name="Epsilon" unicode="&#x395;" horiz-adv-x="550" 
d="M503 0h-425v680h419v-53h-361v-254h332v-52h-332v-268h367v-53z" />
    <glyph glyph-name="Zeta" unicode="&#x396;" horiz-adv-x="531" 
d="M492 0h-448v55l366 571h-361v54h428v-54l-366 -571h381v-55z" />
    <glyph glyph-name="Eta" unicode="&#x397;" horiz-adv-x="620" 
d="M542 0h-58v320h-348v-320h-58v680h58v-306h348v306h58v-680z" />
    <glyph glyph-name="Theta" unicode="&#x398;" horiz-adv-x="620" 
d="M552 333q0 -86 -2 -134t-11.5 -92.5t-23 -63t-43.5 -33.5t-66 -18t-97 -3q-45 0 -75 1.5t-57 9t-43 16t-29.5 29.5t-19.5 42.5t-10.5 61t-5.5 80t-1 104.5q0 87 2.5 140t13 97t25 65t44.5 35.5t64 18t92 3.5q43 0 72 -2t56 -9t43 -17t30.5 -30t21.5 -44t12 -64t6.5 -84
t1.5 -109zM495 329v9v81.5t-3 64.5t-4 51t-9 37.5t-11.5 27.5t-18 17.5t-22.5 11.5t-30.5 5.5t-36.5 2.5h-46h-8q-52 0 -73 -0.5t-48 -11t-34 -25t-16 -53t-10 -83t-1 -126.5v-9v-78t2.5 -61.5t3 -49t8 -35.5t11 -27t17.5 -16.5t22 -11t31.5 -4.5t38 -3h48.5h8h48t38 3
t31 4.5t22.5 11t17.5 16.5t10.5 27t8 35.5t3 49t2.5 61.5v78zM454 316h-289v53h289v-53z" />
    <glyph glyph-name="Iota" unicode="&#x399;" horiz-adv-x="214" 
d="M136 0h-58v680h58v-680z" />
    <glyph glyph-name="Kappa" unicode="&#x39a;" horiz-adv-x="583" 
d="M564 0h-72l-241 320h-115v-320h-58v680h58v-306h115l231 306h72l-253 -333z" />
    <glyph glyph-name="Lambda" unicode="&#x39b;" horiz-adv-x="568" 
d="M556 0h-61l-212 621l-211 -621h-61l233 680h79z" />
    <glyph glyph-name="Mu" unicode="&#x39c;" horiz-adv-x="751" 
d="M673 0h-57v613l-204 -613h-74l-203 613v-613h-57v680h92l205 -617l206 617h92v-680z" />
    <glyph glyph-name="Nu" unicode="&#x39d;" horiz-adv-x="634" 
d="M556 0h-85l-336 617v-617h-57v680h85l336 -616v616h57v-680z" />
    <glyph glyph-name="Xi" unicode="&#x39e;" horiz-adv-x="540" 
d="M486 626h-432v54h432v-54zM459 316h-378v53h378v-53zM492 0h-445v55h445v-55z" />
    <glyph glyph-name="Omicron" unicode="&#x39f;" horiz-adv-x="620" 
d="M552 333q0 -86 -2 -134t-11.5 -92.5t-23 -63t-43.5 -33.5t-66 -18t-97 -3q-45 0 -75 1.5t-57 9t-43 16t-29.5 29.5t-19.5 42.5t-10.5 61t-5.5 80t-1 104.5q0 87 2.5 140t13 97t25 65t44.5 35.5t64 18t92 3.5q43 0 72 -2t56 -9t43 -17t30.5 -30t21.5 -44t12 -64t6.5 -84
t1.5 -109zM494 329v9v81t-3 64.5t-4.5 51t-9 38t-11.5 27.5t-18 17.5t-22 11.5t-30 5.5t-36.5 2.5h-45.5h-8h-46t-36.5 -2.5t-30.5 -5.5t-22 -11.5t-18 -17.5t-11.5 -27.5t-9 -38t-4.5 -51t-3 -64.5v-81v-9v-78t2.5 -61.5t3 -49t8 -35.5t10.5 -27t17.5 -16.5t22.5 -11
t31 -4.5t38 -3h48h8h48t38 3t31 4.5t22 11.5t17.5 16.5t10.5 26.5t7.5 35.5t3 49.5t2.5 61v78z" />
    <glyph glyph-name="Pi" unicode="&#x3a0;" horiz-adv-x="620" 
d="M542 0h-58v626h-348v-626h-58v680h464v-680z" />
    <glyph glyph-name="Rho" unicode="&#x3a1;" horiz-adv-x="570" 
d="M531 485q0 -40 -5 -70.5t-11.5 -51t-22 -34t-27.5 -20.5t-38 -10.5t-42.5 -4t-51.5 -0.5h-197v-294h-58v680h251q26 0 39 -0.5t34.5 -2t32.5 -5t27.5 -10t24.5 -16t18 -24t14.5 -34t8 -45.5t3.5 -58zM474 485q0 37 -1.5 60t-10 39.5t-15.5 24.5t-28.5 12.5t-37.5 5
t-54 0.5h-191v-279h195q38 0 54 0.5t37 5t27 11.5t14 23.5t9.5 38.5t1.5 58z" />
    <glyph glyph-name="Sigma" unicode="&#x3a3;" horiz-adv-x="523" 
d="M484 0h-445v53l205 291l-198 284v52h432v-53h-365l198 -283l-204 -291h377v-53z" />
    <glyph glyph-name="Tau" unicode="&#x3a4;" horiz-adv-x="528" 
d="M501 626h-208v-626h-58v626h-208v54h474v-54z" />
    <glyph glyph-name="Upsilon" unicode="&#x3a5;" horiz-adv-x="541" 
d="M530 680l-228 -373h-3v-307h-57v307h-3l-228 373h66l193 -317l194 317h66z" />
    <glyph glyph-name="Phi" unicode="&#x3a6;" horiz-adv-x="826" 
d="M772 340q0 -46 -2.5 -81.5t-10 -61.5t-14.5 -44t-22 -29.5t-25.5 -17.5t-34 -9t-37.5 -3.5t-44 -0.5h-141v-115h-56v115h-143q-24 0 -35.5 0.5t-31 1.5t-28.5 4.5t-24 9.5t-21.5 15t-16.5 22.5t-14 31.5t-9 41.5t-6.5 53.5t-1.5 67q0 47 3 83.5t10.5 62.5t14.5 44.5
t22.5 30t26 18t33.5 9.5t37 3.5t43 0.5h141v111h56v-111h140q26 0 38.5 -0.5t33.5 -2.5t31 -6.5t25.5 -13t22.5 -21t16.5 -31t13.5 -44t7 -58.5t3 -75zM385 146v393h-141q-27 0 -38.5 -0.5t-29 -3t-24 -7t-16.5 -14.5t-13 -23.5t-7 -35.5t-4.5 -49t-0.5 -66q0 -33 1 -57.5
t2.5 -45t6.5 -34t8 -24t13.5 -16.5t16.5 -10t22.5 -5t27 -1.5t33.5 -0.5h143zM714 340q0 31 -0.5 54t-3 43t-4 34t-7.5 25t-9 18t-13.5 12t-16.5 7.5t-22 4t-25.5 1.5h-31.5h-140v-393h141q24 0 34.5 0.5t27 1.5t23 5t16.5 10t13 16.5t8 24t6.5 34t2.5 44.5t1 58z" />
    <glyph glyph-name="Chi" unicode="&#x3a7;" horiz-adv-x="578" 
d="M559 0h-69l-201 318l-202 -318h-67l221 347l-212 333h67l193 -304l193 304h68l-212 -333z" />
    <glyph glyph-name="Psi" unicode="&#x3a8;" horiz-adv-x="826" 
d="M762 372q0 -55 -12 -93t-27 -57t-43.5 -28.5t-46.5 -11t-51 -1.5h-141v-181h-56v181h-143q-23 0 -35.5 0.5t-34.5 4t-34.5 10.5t-28.5 21t-24.5 33.5t-14.5 50.5t-6 71v308h58v-308q0 -29 3.5 -50.5t7.5 -36t14 -24t17.5 -14.5t23 -7.5t25 -3t29.5 -0.5h143v444h56v-444
h141q35 0 51.5 2.5t36 14.5t27 41t7.5 78v308h58v-308z" />
    <glyph glyph-name="uni03A9" unicode="&#x3a9;" horiz-adv-x="644" 
d="M566 0h-194v53l90 137q33 50 39.5 87t6.5 154q0 32 -0.5 56t-4 45t-6 35t-10.5 26t-13 19t-19 12.5t-22.5 8t-30 4t-34.5 1.5h-42h-8q-36 0 -52 -0.5t-40 -3t-33 -7.5t-22.5 -15t-17.5 -24.5t-9.5 -37t-6.5 -51t-1 -68.5q0 -116 6.5 -152.5t40.5 -88.5l89 -137v-53h-194
v53h127l-68 104q-42 65 -50.5 107.5t-8.5 166.5q0 63 4.5 106t18 72.5t29 45.5t47.5 24.5t61.5 10.5t83.5 2t83.5 -2t61.5 -10.5t47.5 -24.5t29 -45.5t18 -72.5t4.5 -106q0 -124 -8.5 -166.5t-51.5 -107.5l-68 -104h128v-53z" />
    <glyph glyph-name="Iotadieresis" unicode="&#x3aa;" horiz-adv-x="214" 
d="M136 0h-58v680h58v-680zM58 775h-54v113h54v-113zM210 775h-54v113h54v-113z" />
    <glyph glyph-name="Upsilondieresis" unicode="&#x3ab;" horiz-adv-x="541" 
d="M530 680l-228 -373h-3v-307h-57v307h-3l-228 373h66l193 -317l194 317h66zM221 775h-54v113h54v-113zM373 775h-54v113h54v-113z" />
    <glyph glyph-name="alphatonos" unicode="&#x3ac;" 
d="M438 9q-74 -20 -192 -20q-46 0 -75 3t-52 14.5t-34.5 26.5t-19 47t-9.5 68t-2 97q0 74 4.5 117.5t15 75.5t34 46t54.5 20t84 6q52 0 100 -5t70 -10l22 -5v-481zM381 47v404q-49 10 -130 10h-44t-32.5 -3.5t-25.5 -7.5t-16 -15.5t-12 -24.5t-6 -38.5t-4 -52v-69.5v-9
v-67.5t3 -49t4.5 -36.5t11.5 -23t16 -16t26 -6.5t33.5 -3.5h45.5q36 0 68.5 2t46.5 4zM279 770l-2 -168h-52l-2 168h56z" />
    <glyph glyph-name="epsilontonos" unicode="&#x3ad;" horiz-adv-x="443" 
d="M403 9q-69 -20 -177 -20q-40 0 -64 2t-48.5 10.5t-37.5 24.5t-21 44.5t-8 69.5q0 32 5.5 55t12.5 33.5t14.5 17t12.5 6.5l6 1v2q-2 0 -5 0.5t-11 6t-14 15.5t-11 31.5t-5 50.5q0 51 12 82.5t38 46t52.5 18.5t70.5 4q47 0 90.5 -5t62.5 -10l20 -5v-40q-61 12 -154 12
q-46 0 -64.5 -1.5t-38.5 -11t-26 -31t-6 -59.5q0 -56 19.5 -68.5t78.5 -12.5h148v-47h-148q-34 0 -48.5 -1.5t-30 -10t-20 -27t-4.5 -52.5q0 -22 3 -38t6.5 -27.5t13.5 -18.5t17.5 -11t27 -5.5t32 -2t41.5 -0.5q43 0 82.5 3t57.5 6l18 3v-40zM256 770l-2 -168h-52l-2 168h56
z" />
    <glyph glyph-name="etatonos" unicode="&#x3ae;" 
d="M438 -227h-57v560q0 24 -1.5 42t-6.5 32t-9 23t-14 15t-17 9t-23 5t-26.5 2h-32.5q-36 0 -68.5 -2.5t-47.5 -4.5l-15 -3v-451h-56v490q72 20 187 20q51 0 79.5 -4.5t56.5 -21.5t39.5 -53.5t11.5 -97.5v-560zM279 770l-2 -168h-52l-2 168h56z" />
    <glyph glyph-name="iotatonos" unicode="&#x3af;" horiz-adv-x="184" 
d="M120 0h-56v499h56v-499zM120 770l-2 -168h-52l-2 168h56z" />
    <glyph glyph-name="upsilondieresistonos" unicode="&#x3b0;" 
d="M438 166q0 -41 -5 -70.5t-16.5 -49t-25 -31t-37.5 -17.5t-45.5 -7.5t-57.5 -1.5q-54 0 -83.5 4.5t-56 21.5t-37 53.5t-10.5 97.5v333h56v-333q0 -32 2 -53.5t10 -36t15 -22t26 -11t32.5 -4t45.5 -0.5q31 0 45 0.5t32.5 4t25.5 11t15 22t10 36t2 53.5v333h57v-333z
M169 602h-47v113h47v-113zM380 602h-47v113h47v-113zM277 770l-2 -168h-48l-2 168h52z" />
    <glyph glyph-name="alpha" unicode="&#x3b1;" 
d="M438 9q-74 -20 -192 -20q-46 0 -75 3t-52 14.5t-34.5 26.5t-19 47t-9.5 68t-2 97q0 74 4.5 117.5t15 75.5t34 46t54.5 20t84 6q52 0 100 -5t70 -10l22 -5v-481zM381 47v404q-49 10 -130 10h-44t-32.5 -3.5t-25.5 -7.5t-16 -15.5t-12 -24.5t-6 -38.5t-4 -52v-69.5v-9
v-67.5t3 -49t4.5 -36.5t11.5 -23t16 -16t26 -6.5t33.5 -3.5h45.5q36 0 68.5 2t46.5 4z" />
    <glyph glyph-name="beta" unicode="&#x3b2;" 
d="M448 195q0 -41 -4 -72.5t-10.5 -53.5t-19 -37t-25 -23.5t-33 -13t-38.5 -5.5t-46 -1q-40 0 -78 2t-56 4l-18 2v-224h-56v786q0 62 10.5 98.5t37.5 53.5t56.5 21.5t85.5 4.5q32 0 52.5 -2t45 -8t39 -19.5t28 -35t19.5 -56t6 -81.5q0 -45 -5 -78.5t-12 -49t-13.5 -24
t-11.5 -9.5l-5 -1v-2q2 0 5.5 -1t12.5 -10.5t15.5 -26t12 -53t5.5 -85.5zM391 195q0 58 -3.5 88.5t-18 45.5t-29 17t-52.5 2h-99v49h99q29 0 41 1.5t27 7.5t19.5 21t8 40.5t3.5 67.5q0 38 -2.5 64.5t-11.5 43.5t-17 26t-28 13.5t-34 5t-45 0.5q-26 0 -38 -0.5t-29.5 -2.5
t-24.5 -7t-16.5 -14t-12.5 -23t-5.5 -33.5t-2.5 -47.5v-516q49 -7 131 -7h32.5t27 1.5t23.5 4.5t18 8t15 13t10.5 19.5t8.5 27.5t3.5 36.5t1.5 47.5z" />
    <glyph glyph-name="gamma" unicode="&#x3b3;" horiz-adv-x="451" 
d="M436 499l-171 -499h-12v-227h-56v227h-10l-172 499h57l154 -445l152 445h58z" />
    <glyph glyph-name="delta" unicode="&#x3b4;" 
d="M448 231q0 -56 -2 -90.5t-10 -64.5t-20 -45t-36 -25.5t-53 -13.5t-76 -3t-76.5 3t-53 14t-35.5 25.5t-20 44.5t-10 64t-2 91q0 61 2.5 99t11.5 68t20.5 45.5t36.5 25t52.5 12t73.5 2.5l59 -2l-225 196v49h322v-49h-245l204 -176q59 -51 70.5 -93t11.5 -177zM391 227v9
q0 54 -0.5 84t-8 55.5t-13 35t-26 16.5t-37 7.5t-55.5 0.5t-55.5 -0.5t-37 -7.5t-26 -16.5t-13 -35t-8 -55.5t-0.5 -84v-9v-63t3 -46.5t4.5 -35t11.5 -21.5t16 -14.5t26 -6t33.5 -3.5h45.5h45.5t33 3.5t26 6t16.5 14.5t11.5 22t4.5 34.5t3 46v63.5z" />
    <glyph glyph-name="epsilon" unicode="&#x3b5;" horiz-adv-x="443" 
d="M403 9q-69 -20 -177 -20q-40 0 -64 2t-48.5 10.5t-37.5 24.5t-21 44.5t-8 69.5q0 32 5.5 55t12.5 33.5t14.5 17t12.5 6.5l6 1v2q-2 0 -5 0.5t-11 6t-14 15.5t-11 31.5t-5 50.5q0 51 12 82.5t38 46t52.5 18.5t70.5 4q47 0 90.5 -5t62.5 -10l20 -5v-40q-61 12 -154 12
q-46 0 -64.5 -1.5t-38.5 -11t-26 -31t-6 -59.5q0 -56 19.5 -68.5t78.5 -12.5h148v-47h-148q-34 0 -48.5 -1.5t-30 -10t-20 -27t-4.5 -52.5q0 -22 3 -38t6.5 -27.5t13.5 -18.5t17.5 -11t27 -5.5t32 -2t41.5 -0.5q43 0 82.5 3t57.5 6l18 3v-40z" />
    <glyph glyph-name="zeta" unicode="&#x3b6;" horiz-adv-x="455" 
d="M420 -86q0 -74 -18.5 -97t-72.5 -23q-25 0 -48 5t-33 10l-11 5v32q32 -9 81 -9q31 0 39.5 13.5t8.5 63.5q0 55 -8.5 67t-51.5 19l-156 27q-40 7 -58.5 21.5t-28 53t-9.5 115.5q0 110 9 142.5t58 85.5l212 232h-255v49h325v-49l-245 -272q-34 -38 -40.5 -65.5t-6.5 -122.5
q0 -68 5 -95t15.5 -35.5t40.5 -14.5l155 -26q57 -10 75 -34t18 -98z" />
    <glyph glyph-name="eta" unicode="&#x3b7;" 
d="M438 -227h-57v560q0 24 -1.5 42t-6.5 32t-9 23t-14 15t-17 9t-23 5t-26.5 2h-32.5q-36 0 -68.5 -2.5t-47.5 -4.5l-15 -3v-451h-56v490q72 20 187 20q51 0 79.5 -4.5t56.5 -21.5t39.5 -53.5t11.5 -97.5v-560z" />
    <glyph glyph-name="theta" unicode="&#x3b8;" 
d="M448 359q0 -70 -0.5 -113t-4.5 -86.5t-8.5 -66t-16 -45t-24 -31.5t-35 -17t-46.5 -9.5t-62 -1.5t-62 1.5t-46.5 9.5t-35 17t-24 31.5t-16 45t-8.5 66t-4.5 86.5t-0.5 113q0 92 2 148t11 102t20.5 68.5t36 37.5t52.5 18.5t75 3.5t75 -3.5t52.5 -18.5t36 -37.5t20.5 -68.5
t11 -102t2 -148zM391 389q0 47 -0.5 81t-2.5 64.5t-3.5 50.5t-7.5 37.5t-9 27.5t-13.5 18t-17 11t-22.5 5.5t-26 2.5h-33h-12q-28 0 -40 -0.5t-30 -4.5t-24.5 -10.5t-16 -22t-12 -35t-6 -53.5t-4 -73.5t-0.5 -98.5h280zM391 341h-280q0 -105 2.5 -149.5t6 -85.5t22.5 -49.5
t37 -13t65 -4.5h12h36t28 3t23 5t16.5 12t13 17.5t8 28t6 37.5t2.5 52t2 64.5v82.5z" />
    <glyph glyph-name="iota" unicode="&#x3b9;" horiz-adv-x="184" 
d="M120 0h-56v499h56v-499z" />
    <glyph glyph-name="kappa" unicode="&#x3ba;" horiz-adv-x="467" 
d="M448 0h-69l-174 229h-85v-229h-56v499h56v-220h85l167 220h68l-185 -245z" />
    <glyph glyph-name="lambda" unicode="&#x3bb;" horiz-adv-x="458" 
d="M443 0h-58l-153 445l-151 -445h-59l172 499h20l-23 68q-28 86 -42.5 103t-57.5 17q-31 0 -59 -3t-40 -6l-13 -3v41q51 21 132 21q50 0 75 -32t58 -129z" />
    <glyph glyph-name="uni03BC" unicode="&#x3bc;" 
d="M438 9q-72 -20 -187 -20q-36 0 -68.5 2t-47.5 4l-15 2v-224h-56v726h56v-452q50 -8 131 -8q36 0 68.5 2t46.5 4l15 2v452h57v-490z" />
    <glyph glyph-name="nu" unicode="&#x3bd;" horiz-adv-x="451" 
d="M436 499l-171 -499h-78l-172 499h57l154 -445l152 445h58z" />
    <glyph glyph-name="xi" unicode="&#x3be;" horiz-adv-x="455" 
d="M420 -86q0 -74 -18.5 -97t-72.5 -23q-25 0 -48 5t-33 10l-11 5v32q32 -9 81 -9q31 0 39.5 13.5t8.5 63.5q0 55 -8.5 67t-51.5 19l-156 27q-40 7 -58.5 21.5t-28 53t-9.5 115.5q0 43 5.5 75t13 46.5t14.5 22.5t13 9l5 1v2q-2 0 -5 1t-11 9.5t-14.5 24t-11.5 49t-5 78.5
q0 47 5 81.5t17 56t25 35t35 19.5t41 8t49 2q47 0 90.5 -5.5t63.5 -10.5l19 -5v-41q-59 12 -152 12q-25 0 -36 -0.5t-28.5 -2t-24.5 -5.5t-18 -11t-14.5 -18t-8.5 -27t-6 -37.5t-1 -50.5q0 -35 1.5 -58t7.5 -39t11 -24t19.5 -12t25 -4.5t35.5 -0.5h147v-49h-147
q-31 0 -43.5 -1.5t-28 -7t-20 -20t-8 -38.5t-3.5 -64q0 -68 5 -95t15.5 -35.5t40.5 -14.5l155 -26q57 -10 75 -34t18 -98z" />
    <glyph glyph-name="omicron" unicode="&#x3bf;" 
d="M448 245q0 -61 -2 -97t-9.5 -68t-19 -47t-35.5 -26.5t-53.5 -14.5t-77.5 -3t-77.5 3t-53.5 14.5t-35.5 26.5t-19.5 47t-9.5 68t-1.5 97q0 62 2.5 100.5t10.5 71t20 48.5t36 27.5t53 14.5t75 3t75 -3t53 -14.5t36 -27.5t20 -48.5t10.5 -71t2.5 -100.5zM391 241v9v69.5
t-3.5 52t-5.5 38.5t-12 24.5t-16 15.5t-25 7.5t-31.5 3.5h-42.5h-8h-42.5t-31.5 -3.5t-25 -7.5t-16 -15.5t-12 -24.5t-5.5 -38.5t-3.5 -52v-69.5v-9v-67.5t3 -49t4.5 -36.5t11 -23t15.5 -16t25 -6.5t32.5 -3.5h44.5h8h44t32.5 3.5t25 6.5t15.5 15.5t11.5 23.5t4.5 37t3 49
v67z" />
    <glyph glyph-name="pi" unicode="&#x3c0;" horiz-adv-x="649" 
d="M630 449h-119v-449h-56v449h-261v-449h-57v449h-117v50h610v-50z" />
    <glyph glyph-name="rho" unicode="&#x3c1;" 
d="M448 245q0 -60 -2 -96.5t-9.5 -68.5t-19.5 -47t-35 -26.5t-52 -14.5t-75 -3q-32 0 -66 2t-51 4l-18 2v-224h-56v560q0 49 9 82t22.5 52t40.5 28.5t52 12t67 2.5q44 0 72 -3t51.5 -14.5t35.5 -28t20.5 -48t11 -71t2.5 -100.5zM391 241v9v69.5t-4 52t-6 38.5t-12 24.5
t-16 15.5t-25.5 7.5t-32.5 3.5h-44q-25 0 -37 -0.5t-29.5 -2.5t-24.5 -7t-17 -14t-13.5 -23t-6.5 -34t-3 -47v-287q49 -7 131 -7h45.5t33 3.5t26 6.5t16.5 15.5t11.5 23t4.5 37t3 49.5v67z" />
    <glyph glyph-name="sigma1" unicode="&#x3c2;" horiz-adv-x="455" 
d="M420 -86q0 -74 -18.5 -97t-72.5 -23q-25 0 -48 5t-33 10l-11 5v32q32 -9 81 -9q31 0 39.5 13.5t8.5 63.5q0 55 -8.5 67t-51.5 19l-156 27q-42 8 -60.5 23.5t-27 59t-8.5 135.5q0 69 3 108.5t12.5 74t29.5 50t50.5 24t79.5 8.5q48 0 91.5 -5t63.5 -10l19 -5v-41
q-60 12 -154 12h-44t-32.5 -3.5t-25.5 -7.5t-16 -16.5t-11.5 -25t-5 -39t-3.5 -52.5v-72v-68t3 -45t5.5 -29.5t11 -15.5t16.5 -10t25 -5l155 -26q57 -10 75 -34t18 -98z" />
    <glyph glyph-name="sigma" unicode="&#x3c3;" horiz-adv-x="565" 
d="M545 449h-122q3 -3 7 -12.5t11 -61.5t7 -130q0 -61 -2 -97t-9.5 -68t-19 -47t-35.5 -26.5t-53.5 -14.5t-77.5 -3t-77.5 3t-53.5 14.5t-35.5 26.5t-19.5 47t-9.5 68t-1.5 97t2.5 99.5t11.5 69t20.5 46t36.5 25t52.5 12t73.5 2.5h294v-50zM391 241v9q0 54 -0.5 84t-8 55.5
t-13 35t-26 16.5t-37 7.5t-55.5 0.5t-55.5 -0.5t-37 -7.5t-26 -16.5t-13 -35t-8 -55.5t-0.5 -84v-9v-67.5t3 -49t4.5 -36.5t11 -23t15.5 -16t25 -6.5t32.5 -3.5h44.5h8h44t32.5 3.5t25 6.5t15.5 15.5t11.5 23.5t4.5 37t3 49v67z" />
    <glyph glyph-name="tau" unicode="&#x3c4;" horiz-adv-x="415" 
d="M396 449h-160v-449h-57v449h-159v50h376v-50z" />
    <glyph glyph-name="upsilon" unicode="&#x3c5;" 
d="M438 166q0 -41 -5 -70.5t-16.5 -49t-25 -31t-37.5 -17.5t-45.5 -7.5t-57.5 -1.5q-54 0 -83.5 4.5t-56 21.5t-37 53.5t-10.5 97.5v333h56v-333q0 -32 2 -53.5t10 -36t15 -22t26 -11t32.5 -4t45.5 -0.5q31 0 45 0.5t32.5 4t25.5 11t15 22t10 36t2 53.5v333h57v-333z" />
    <glyph glyph-name="phi" unicode="&#x3c6;" horiz-adv-x="769" 
d="M716 245q0 -59 -2 -94.5t-9.5 -65.5t-18 -44.5t-32.5 -25t-48.5 -13t-69.5 -2.5h-124v-227h-55v227h-124q-44 0 -69.5 2t-48 12t-32.5 24t-18 44.5t-9.5 66.5t-1.5 96q0 115 12.5 172t36 75t71.5 18q32 0 61.5 -5t42.5 -10l14 -5v-40q-37 12 -97 12q-26 0 -36.5 -2
t-23 -11t-16 -33t-6 -62t-2.5 -104v-9v-64.5t3 -46.5t4 -35t10.5 -22.5t15 -15t23.5 -6t30.5 -3.5h41.5h118v285q0 42 3 70.5t12.5 49t20.5 31.5t34 17t46 7.5t63 1.5q61 0 92.5 -8t53.5 -38t28 -79t6 -140zM659 241v9q0 43 -0.5 70.5t-3.5 52t-5.5 38t-11.5 25t-15 15.5
t-23.5 7.5t-29.5 3.5h-39q-33 0 -46.5 -0.5t-31 -4.5t-22.5 -11t-11 -22.5t-7 -36t-1 -54.5v-285h119h41.5t30.5 3.5t23.5 6.5t14.5 14.5t10.5 22t4.5 35.5t3 47v64z" />
    <glyph glyph-name="chi" unicode="&#x3c7;" horiz-adv-x="458" 
d="M439 -227h-62l-148 339l-148 -339h-61l162 367l-156 359h61l142 -330l142 330h61l-156 -359z" />
    <glyph glyph-name="psi" unicode="&#x3c8;" horiz-adv-x="769" 
d="M705 173q0 -36 -5.5 -64t-12.5 -46t-21.5 -30.5t-25.5 -19t-31.5 -9.5t-32.5 -3.5t-35 -0.5h-129v-227h-55v227h-128q-24 0 -36 0.5t-32.5 3.5t-31.5 9.5t-25.5 19t-21.5 30.5t-12.5 46t-5.5 64v326h56v-326q0 -45 6 -71t23 -37t32 -13t48 -2h128v449h55v-449h129
q33 0 47.5 2t31.5 13t23 37t6 71v326h56v-326z" />
    <glyph glyph-name="omega" unicode="&#x3c9;" horiz-adv-x="769" 
d="M716 245q0 -72 -3.5 -113t-12.5 -72.5t-29 -45t-47 -19.5t-73 -6q-89 0 -122 7.5t-44 25.5q-12 -18 -44.5 -25.5t-122.5 -7.5q-38 0 -62 3t-44 14t-30 27t-17 47t-9 68t-2 97q0 116 12.5 172.5t36.5 74.5t74 18q34 0 64.5 -5t44.5 -10l14 -5v-40q-39 12 -100 12
q-24 0 -33.5 -0.5t-22.5 -7.5t-17 -18.5t-9 -36.5t-6 -59.5t-1 -89.5v-9v-68t3 -49.5t4 -37t10.5 -23.5t15 -15.5t23.5 -6.5t30.5 -4h41.5h50t32 5.5t21.5 10t9 23.5t5.5 35v55v167h55v-167v-55t5.5 -35t9.5 -23.5t21.5 -10t32 -5.5h50.5h41.5t30.5 3.5t23.5 6.5t14.5 16
t10.5 23.5t4.5 37t3 50v67.5v9q0 47 -1.5 78.5t-3 56t-7.5 38t-10.5 22.5t-17 12t-21.5 4t-29 1q-27 0 -52 -3t-37 -6l-11 -3v40q48 20 124 20q50 0 74 -18t36.5 -74.5t12.5 -172.5z" />
    <glyph glyph-name="iotadieresis" unicode="&#x3ca;" horiz-adv-x="184" 
d="M120 0h-56v499h56v-499zM43 602h-54v113h54v-113zM195 602h-54v113h54v-113z" />
    <glyph glyph-name="upsilondieresis" unicode="&#x3cb;" 
d="M438 166q0 -41 -5 -70.5t-16.5 -49t-25 -31t-37.5 -17.5t-45.5 -7.5t-57.5 -1.5q-54 0 -83.5 4.5t-56 21.5t-37 53.5t-10.5 97.5v333h56v-333q0 -32 2 -53.5t10 -36t15 -22t26 -11t32.5 -4t45.5 -0.5q31 0 45 0.5t32.5 4t25.5 11t15 22t10 36t2 53.5v333h57v-333z
M202 602h-54v113h54v-113zM354 602h-54v113h54v-113z" />
    <glyph glyph-name="omicrontonos" unicode="&#x3cc;" 
d="M448 245q0 -61 -2 -97t-9.5 -68t-19 -47t-35.5 -26.5t-53.5 -14.5t-77.5 -3t-77.5 3t-53.5 14.5t-35.5 26.5t-19.5 47t-9.5 68t-1.5 97q0 62 2.5 100.5t10.5 71t20 48.5t36 27.5t53 14.5t75 3t75 -3t53 -14.5t36 -27.5t20 -48.5t10.5 -71t2.5 -100.5zM391 241v9v69.5
t-3.5 52t-5.5 38.5t-12 24.5t-16 15.5t-25 7.5t-31.5 3.5h-42.5h-8h-42.5t-31.5 -3.5t-25 -7.5t-16 -15.5t-12 -24.5t-5.5 -38.5t-3.5 -52v-69.5v-9v-67.5t3 -49t4.5 -36.5t11 -23t15.5 -16t25 -6.5t32.5 -3.5h44.5h8h44t32.5 3.5t25 6.5t15.5 15.5t11.5 23.5t4.5 37t3 49
v67zM279 770l-2 -168h-52l-2 168h56z" />
    <glyph glyph-name="upsilontonos" unicode="&#x3cd;" 
d="M438 166q0 -41 -5 -70.5t-16.5 -49t-25 -31t-37.5 -17.5t-45.5 -7.5t-57.5 -1.5q-54 0 -83.5 4.5t-56 21.5t-37 53.5t-10.5 97.5v333h56v-333q0 -32 2 -53.5t10 -36t15 -22t26 -11t32.5 -4t45.5 -0.5q31 0 45 0.5t32.5 4t25.5 11t15 22t10 36t2 53.5v333h57v-333z
M279 770l-2 -168h-52l-2 168h56z" />
    <glyph glyph-name="omegatonos" unicode="&#x3ce;" horiz-adv-x="769" 
d="M716 245q0 -72 -3.5 -113t-12.5 -72.5t-29 -45t-47 -19.5t-73 -6q-89 0 -122 7.5t-44 25.5q-12 -18 -44.5 -25.5t-122.5 -7.5q-38 0 -62 3t-44 14t-30 27t-17 47t-9 68t-2 97q0 116 12.5 172.5t36.5 74.5t74 18q34 0 64.5 -5t44.5 -10l14 -5v-40q-39 12 -100 12
q-24 0 -33.5 -0.5t-22.5 -7.5t-17 -18.5t-9 -36.5t-6 -59.5t-1 -89.5v-9v-68t3 -49.5t4 -37t10.5 -23.5t15 -15.5t23.5 -6.5t30.5 -4h41.5h50t32 5.5t21.5 10t9 23.5t5.5 35v55v167h55v-167v-55t5.5 -35t9.5 -23.5t21.5 -10t32 -5.5h50.5h41.5t30.5 3.5t23.5 6.5t14.5 16
t10.5 23.5t4.5 37t3 50v67.5v9q0 47 -1.5 78.5t-3 56t-7.5 38t-10.5 22.5t-17 12t-21.5 4t-29 1q-27 0 -52 -3t-37 -6l-11 -3v40q48 20 124 20q50 0 74 -18t36.5 -74.5t12.5 -172.5zM413 770l-2 -168h-52l-2 168h56z" />
    <glyph glyph-name="uni0400" unicode="&#x400;" horiz-adv-x="550" 
d="M503 0h-425v680h419v-53h-361v-254h332v-52h-332v-268h367v-53zM339 775h-59l-90 146h60z" />
    <glyph glyph-name="uni0401" unicode="&#x401;" horiz-adv-x="550" 
d="M503 0h-425v680h419v-53h-361v-254h332v-52h-332v-268h367v-53zM240 775h-54v113h54v-113zM392 775h-54v113h54v-113z" />
    <glyph glyph-name="uni0402" unicode="&#x402;" horiz-adv-x="741" 
d="M677 -60q0 -39 -1 -57.5t-7 -46.5t-19 -41t-37.5 -23t-61.5 -10q-35 0 -66.5 5t-45.5 11l-14 5v39q40 -11 104 -11q65 0 78.5 23.5t13.5 105.5v253v49.5t-2.5 39.5t-3.5 31.5t-8 23t-10.5 17t-16.5 11t-20.5 7t-28 3t-33.5 1.5h-42q-45 0 -86 -2t-59 -4l-18 -2v-368h-58
v627h-208v53h474v-53h-208v-206q61 8 163 8q53 0 86 -3t59.5 -13.5t40 -25t22.5 -44t11 -63t2 -89.5v-251z" />
    <glyph glyph-name="uni0403" unicode="&#x403;" horiz-adv-x="520" 
d="M493 626h-357v-626h-58v680h415v-54zM384 921l-91 -146h-58l89 146h60z" />
    <glyph glyph-name="uni0404" unicode="&#x404;" horiz-adv-x="550" 
d="M503 9q-84 -20 -218 -20q-35 0 -61.5 2.5t-48.5 7t-37.5 16t-27.5 23t-19 34t-12 43.5t-7 57.5t-3 70t-1 86.5q0 82 2.5 133.5t11 96t22 67.5t39 39.5t58 21.5t81.5 5q58 0 112 -5t78 -11l25 -5v-45q-74 12 -196 12q-47 0 -66.5 -1t-45 -9.5t-33 -22.5t-17.5 -46
t-11.5 -74t-2.5 -112h343v-52h-343v-92.5t4.5 -68t6.5 -50.5t15 -32.5t21 -21t33 -9.5t42 -5h57q55 0 104.5 3t71.5 6l23 3v-45z" />
    <glyph glyph-name="uni0405" unicode="&#x405;" horiz-adv-x="524" 
d="M485 177q0 -44 -5.5 -75.5t-19.5 -52t-29.5 -33t-44 -18.5t-54 -7.5t-67.5 -1.5q-61 0 -116.5 5t-80.5 10l-24 5v45q76 -12 202 -12h43.5t35.5 1t31 4t23 7t19 11t13 17t10 23.5t4 31t2 40.5q0 87 -12.5 108t-80.5 33l-146 27q-35 6 -60 14.5t-40 22t-24 25t-13 33.5
t-4.5 36.5t-0.5 45.5q0 58 13.5 93t44 51.5t62.5 21t87 4.5q56 0 108 -5t76 -11l24 -5v-45q-75 12 -189 12h-44.5t-35.5 -1.5t-30.5 -4.5t-21.5 -8.5t-17.5 -14t-10.5 -20.5t-7.5 -28.5t-1.5 -38.5q0 -73 12.5 -91.5t80.5 -31.5l148 -27q30 -6 52 -14t37.5 -16t25.5 -23
t15 -25.5t7.5 -33.5t3 -37.5t0.5 -45.5z" />
    <glyph glyph-name="uni0406" unicode="&#x406;" horiz-adv-x="214" 
d="M136 0h-58v680h58v-680z" />
    <glyph glyph-name="uni0407" unicode="&#x407;" horiz-adv-x="214" 
d="M136 0h-58v680h58v-680zM58 775h-54v113h54v-113zM210 775h-54v113h54v-113z" />
    <glyph glyph-name="uni0408" unicode="&#x408;" horiz-adv-x="468" 
d="M390 227q0 -55 -2.5 -87t-12.5 -64.5t-29.5 -49t-53 -27t-83.5 -10.5t-95.5 5t-65.5 10l-21 5v47q64 -13 162 -13q36 0 56.5 1.5t38.5 9t26 18t14 33.5t7.5 49.5t1.5 72.5v453h57v-453z" />
    <glyph glyph-name="uni0409" unicode="&#x409;" horiz-adv-x="877" 
d="M838 190q0 -40 -5.5 -70.5t-13.5 -50.5t-24 -33.5t-28.5 -20.5t-37.5 -10.5t-40 -4t-46 -0.5h-226v626h-124l-221 -626h-61l241 680h223v-306h164q32 0 48 -0.5t41.5 -4t38 -10t29 -19.5t24 -33t13 -49t5.5 -68zM780 190q0 33 -2 55t-11 37t-16 22.5t-28 11.5t-36 4.5
t-50 0.5h-162v-268h166q31 0 45 0.5t34 4.5t28 12t17 23.5t12 39t3 57.5z" />
    <glyph glyph-name="uni040A" unicode="&#x40a;" horiz-adv-x="891" 
d="M852 190q0 -40 -5.5 -70.5t-13.5 -50.5t-24.5 -33.5t-29 -20.5t-37.5 -10.5t-40 -4t-45 -0.5h-226v320h-295v-320h-58v680h58v-306h295v306h58v-306h164q32 0 48 -0.5t41.5 -4t38 -10t29 -19.5t24 -33t13 -49t5.5 -68zM793 190q0 25 -1 43.5t-6 32.5t-8.5 23t-14.5 15.5
t-18.5 9.5t-25.5 5t-30 2h-38h-162v-268h166q31 0 45 0.5t34 4.5t27.5 12t16.5 23.5t12 39t3 57.5z" />
    <glyph glyph-name="uni040B" unicode="&#x40b;" horiz-adv-x="741" 
d="M677 0h-56v193v49.5t-2.5 39.5t-3.5 31.5t-8 23t-10.5 17t-16.5 11t-20.5 7t-28 3t-33.5 1.5h-42q-45 0 -86 -2t-59 -4l-18 -2v-368h-58v627h-208v53h474v-53h-208v-206q61 8 163 8q53 0 86 -3t59.5 -13.5t40 -25t22.5 -44t11 -63t2 -89.5v-191z" />
    <glyph glyph-name="uni040C" unicode="&#x40c;" horiz-adv-x="583" 
d="M564 0h-72l-241 320h-115v-320h-58v680h58v-306h115l231 306h72l-253 -333zM408 921l-91 -146h-58l89 146h60z" />
    <glyph glyph-name="uni040D" unicode="&#x40d;" horiz-adv-x="620" 
d="M542 0h-58v579l-348 -579h-58v680h58v-578l348 578h58v-680zM359 775h-59l-90 146h60z" />
    <glyph glyph-name="uni040E" unicode="&#x40e;" horiz-adv-x="556" 
d="M544 680l-262 -592q-28 -63 -48 -81t-71 -18q-33 0 -63 5t-44 10l-13 5v46q38 -13 97 -13q41 0 55 9.5t32 50.5l37 86h-12l-219 492h63l193 -437l193 437h62zM400 921q0 -29 -0.5 -42t-2 -33t-6 -28.5t-12 -20t-20 -15.5t-29.5 -7.5t-41 -3.5t-41 3.5t-29.5 7.5t-20 15.5
t-12 20t-6 28.5t-2 33t-0.5 42h47q0 -73 9.5 -87.5t54.5 -14.5t54.5 14.5t9.5 87.5h47z" />
    <glyph glyph-name="uni040F" unicode="&#x40f;" horiz-adv-x="620" 
d="M542 0h-205v-192h-55v192h-204v680h58v-625h348v625h58v-680z" />
    <glyph glyph-name="uni0410" unicode="&#x410;" horiz-adv-x="596" 
d="M585 0h-62l-79 219h-292l-80 -219h-61l249 680h76zM425 272l-127 351l-127 -351h254z" />
    <glyph glyph-name="uni0411" unicode="&#x411;" horiz-adv-x="582" 
d="M531 190q0 -40 -5.5 -70.5t-13.5 -50.5t-24 -33.5t-28.5 -20.5t-37.5 -10.5t-40 -4t-46 -0.5h-258v680h412v-53h-354v-254h197q32 0 48 -0.5t41.5 -4t38 -10t28.5 -19.5t23.5 -32.5t13 -48.5t5.5 -68zM474 190q0 33 -2.5 55t-11 37t-16 22.5t-28.5 11.5t-35.5 4.5
t-49.5 0.5h-195v-268h198q31 0 45 0.5t34.5 4.5t28.5 12t17 23.5t12 39t3 57.5z" />
    <glyph glyph-name="uni0412" unicode="&#x412;" horiz-adv-x="591" 
d="M531 190q0 -40 -5.5 -70.5t-13.5 -50.5t-24 -33.5t-28.5 -20.5t-37.5 -10.5t-40 -4t-46 -0.5h-258v680h251q28 0 42.5 -0.5t39.5 -4t38 -10.5t30.5 -20.5t26 -33.5t15 -50.5t6.5 -70.5t-6 -69t-14.5 -42.5t-17.5 -21t-15 -8.5l-6 -1v-1q3 0 7 -1t15 -9.5t19 -23t15 -47
t7 -76.5zM469 490q0 34 -3 57.5t-12 39t-17 23.5t-28.5 12t-35 4.5t-46.5 0.5h-191v-254h195q34 0 48.5 0.5t34.5 4t27 10t15.5 20t10.5 33t2 49.5zM474 190q0 33 -2.5 55t-11 37t-16 22.5t-28.5 11.5t-35.5 4.5t-49.5 0.5h-195v-268h198q31 0 45 0.5t34.5 4.5t28.5 12
t17 23.5t12 39t3 57.5z" />
    <glyph glyph-name="uni0413" unicode="&#x413;" horiz-adv-x="520" 
d="M493 626h-357v-626h-58v680h415v-54z" />
    <glyph glyph-name="uni0414" unicode="&#x414;" horiz-adv-x="793" 
d="M746 -192h-55v192h-589v-192h-55v245h101l222 627h276v-627h100v-245zM588 53v574h-177l-202 -574h379z" />
    <glyph glyph-name="uni0415" unicode="&#x415;" horiz-adv-x="550" 
d="M503 0h-425v680h419v-53h-361v-254h332v-52h-332v-268h367v-53z" />
    <glyph glyph-name="uni0416" unicode="&#x416;" horiz-adv-x="837" 
d="M817 0h-68l-206 320h-96v-320h-58v320h-96l-205 -320h-68l222 347l-213 333h68l196 -306h96v306h58v-306h96l196 306h69l-213 -333z" />
    <glyph glyph-name="uni0417" unicode="&#x417;" horiz-adv-x="542" 
d="M482 190q0 -56 -10.5 -94t-26.5 -59t-46.5 -32t-58.5 -13.5t-75 -2.5q-60 0 -114.5 5t-78.5 10l-25 5v45q76 -12 199 -12q32 0 46.5 0.5t37.5 2t32 5t23 11t19 18t11.5 26t8 36.5t1.5 49q0 33 -2.5 55t-11 37t-16 22.5t-28.5 11.5t-36 4.5t-50 0.5h-181v52h181
q33 0 47.5 0.5t35 4t27.5 10t15.5 20t11 33t2.5 49.5q0 37 -3 62.5t-14 42t-20.5 25t-34.5 13t-43 5t-58 0.5q-52 0 -100 -3t-71 -6l-22 -3v45q82 21 212 21q42 0 68 -2.5t56.5 -14t47 -32.5t28 -59.5t11.5 -93.5q0 -40 -6 -69t-14.5 -42.5t-17 -21t-14.5 -8.5l-6 -1v-1
q3 0 7 -1t15 -9.5t19 -23t15 -47t7 -76.5z" />
    <glyph glyph-name="uni0418" unicode="&#x418;" horiz-adv-x="620" 
d="M542 0h-58v579l-348 -579h-58v680h58v-578l348 578h58v-680z" />
    <glyph glyph-name="uni0419" unicode="&#x419;" horiz-adv-x="620" 
d="M542 0h-58v579l-348 -579h-58v680h58v-578l348 578h58v-680zM420 921q0 -29 -0.5 -42t-2 -33t-6 -28.5t-12 -20t-20 -15.5t-29.5 -7.5t-41 -3.5t-41 3.5t-29.5 7.5t-20 15.5t-12 20t-6 28.5t-2 33t-0.5 42h47q0 -73 9.5 -87.5t54.5 -14.5t54.5 14.5t9.5 87.5h47z" />
    <glyph glyph-name="uni041A" unicode="&#x41a;" horiz-adv-x="583" 
d="M564 0h-72l-241 320h-115v-320h-58v680h58v-306h115l231 306h72l-253 -333z" />
    <glyph glyph-name="uni041B" unicode="&#x41b;" horiz-adv-x="606" 
d="M528 0h-58v626h-177l-221 -626h-61l241 680h276v-680z" />
    <glyph glyph-name="uni041C" unicode="&#x41c;" horiz-adv-x="751" 
d="M673 0h-57v613l-204 -613h-74l-203 613v-613h-57v680h92l205 -617l206 617h92v-680z" />
    <glyph glyph-name="uni041D" unicode="&#x41d;" horiz-adv-x="620" 
d="M542 0h-58v320h-348v-320h-58v680h58v-306h348v306h58v-680z" />
    <glyph glyph-name="uni041E" unicode="&#x41e;" horiz-adv-x="620" 
d="M552 333q0 -86 -2 -134t-11.5 -92.5t-23 -63t-43.5 -33.5t-66 -18t-97 -3q-45 0 -75 1.5t-57 9t-43 16t-29.5 29.5t-19.5 42.5t-10.5 61t-5.5 80t-1 104.5q0 87 2.5 140t13 97t25 65t44.5 35.5t64 18t92 3.5q43 0 72 -2t56 -9t43 -17t30.5 -30t21.5 -44t12 -64t6.5 -84
t1.5 -109zM494 329v9v81t-3 64.5t-4.5 51t-9 38t-11.5 27.5t-18 17.5t-22 11.5t-30 5.5t-36.5 2.5h-45.5h-8h-46t-36.5 -2.5t-30.5 -5.5t-22 -11.5t-18 -17.5t-11.5 -27.5t-9 -38t-4.5 -51t-3 -64.5v-81v-9v-78t2.5 -61.5t3 -49t8 -35.5t10.5 -27t17.5 -16.5t22.5 -11
t31 -4.5t38 -3h48h8h48t38 3t31 4.5t22 11.5t17.5 16.5t10.5 26.5t7.5 35.5t3 49.5t2.5 61v78z" />
    <glyph glyph-name="uni041F" unicode="&#x41f;" horiz-adv-x="620" 
d="M542 0h-58v626h-348v-626h-58v680h464v-680z" />
    <glyph glyph-name="uni0420" unicode="&#x420;" horiz-adv-x="570" 
d="M531 485q0 -40 -5 -70.5t-11.5 -51t-22 -34t-27.5 -20.5t-38 -10.5t-42.5 -4t-51.5 -0.5h-197v-294h-58v680h251q26 0 39 -0.5t34.5 -2t32.5 -5t27.5 -10t24.5 -16t18 -24t14.5 -34t8 -45.5t3.5 -58zM474 485q0 37 -1.5 60t-10 39.5t-15.5 24.5t-28.5 12.5t-37.5 5
t-54 0.5h-191v-279h195q38 0 54 0.5t37 5t27 11.5t14 23.5t9.5 38.5t1.5 58z" />
    <glyph glyph-name="uni0421" unicode="&#x421;" horiz-adv-x="533" 
d="M503 9q-84 -20 -218 -20q-35 0 -61.5 2.5t-48.5 7t-37.5 16t-27.5 23t-19 34t-12 43.5t-7 57.5t-3 70t-1 86.5q0 82 2.5 133.5t11 96t22 67.5t39 39.5t58 21.5t81.5 5q58 0 112 -5t78 -11l25 -5v-46q-74 12 -196 12h-43.5t-35.5 -2.5t-29.5 -5.5t-21.5 -12t-18 -18.5
t-11.5 -28t-9 -39t-4 -52.5t-3 -66.5t-0.5 -83.5v-78t2.5 -61.5t3.5 -49t8 -35.5t10.5 -26.5t17.5 -17t22 -11.5t30.5 -4.5t37 -2.5h47.5q55 0 104.5 3.5t71.5 6.5l23 3v-47z" />
    <glyph glyph-name="uni0422" unicode="&#x422;" horiz-adv-x="528" 
d="M501 626h-208v-626h-58v626h-208v54h474v-54z" />
    <glyph glyph-name="uni0423" unicode="&#x423;" horiz-adv-x="556" 
d="M544 680l-262 -592q-28 -63 -48 -81t-71 -18q-33 0 -63 5t-44 10l-13 5v46q38 -13 97 -13q41 0 55 9.5t32 50.5l37 86h-12l-219 492h63l193 -437l193 437h62z" />
    <glyph glyph-name="uni0424" unicode="&#x424;" horiz-adv-x="826" 
d="M772 340q0 -46 -2.5 -81.5t-10 -61.5t-14.5 -44t-22 -29.5t-25.5 -17.5t-34 -9t-37.5 -3.5t-44 -0.5h-141v-115h-56v115h-143q-24 0 -35.5 0.5t-31 1.5t-28.5 4.5t-24 9.5t-21.5 15t-16.5 22.5t-14 31.5t-9 41.5t-6.5 53.5t-1.5 67q0 47 3 83.5t10.5 62.5t14.5 44.5
t22.5 30t26 18t33.5 9.5t37 3.5t43 0.5h141v111h56v-111h140q26 0 38.5 -0.5t33.5 -2.5t31 -6.5t25.5 -13t22.5 -21t16.5 -31t13.5 -44t7 -58.5t3 -75zM385 146v393h-141q-27 0 -38.5 -0.5t-29 -3t-24 -7t-16.5 -14.5t-13 -23.5t-7 -35.5t-4.5 -49t-0.5 -66q0 -33 1 -57.5
t2.5 -45t6.5 -34t8 -24t13.5 -16.5t16.5 -10t22.5 -5t27 -1.5t33.5 -0.5h143zM714 340q0 31 -0.5 54t-3 43t-4 34t-7.5 25t-9 18t-13.5 12t-16.5 7.5t-22 4t-25.5 1.5h-31.5h-140v-393h141q24 0 34.5 0.5t27 1.5t23 5t16.5 10t13 16.5t8 24t6.5 34t2.5 44.5t1 58z" />
    <glyph glyph-name="uni0425" unicode="&#x425;" horiz-adv-x="578" 
d="M559 0h-69l-201 318l-202 -318h-67l221 347l-212 333h67l193 -304l193 304h68l-212 -333z" />
    <glyph glyph-name="uni0426" unicode="&#x426;" horiz-adv-x="689" 
d="M641 -192h-55v192h-508v680h58v-625h348v625h58v-627h99v-245z" />
    <glyph glyph-name="uni0427" unicode="&#x427;" horiz-adv-x="585" 
d="M506 0h-56v259q-63 -8 -165 -8q-53 0 -86 3t-59.5 13.5t-40 25t-22 44t-11 63t-2.5 89.5v191h58v-191v-61t4.5 -45.5t6.5 -33t13.5 -21t19 -14t30 -6.5t38 -3h51.5q45 0 86.5 2.5t60.5 4.5l18 2v366h56v-680z" />
    <glyph glyph-name="uni0428" unicode="&#x428;" horiz-adv-x="920" 
d="M841 0h-763v680h58v-625h295v625h58v-625h295v625h57v-680z" />
    <glyph glyph-name="uni0429" unicode="&#x429;" horiz-adv-x="988" 
d="M941 -192h-55v192h-808v680h58v-625h295v625h58v-625h295v625h57v-627h100v-245z" />
    <glyph glyph-name="uni042A" unicode="&#x42a;" horiz-adv-x="783" 
d="M743 190q0 -31 -3.5 -56.5t-8 -44t-15 -33t-18.5 -24t-23.5 -16t-26 -9.5t-31 -5t-32.5 -2h-36h-259v626h-263v54h321v-306h196q33 0 48.5 -0.5t41.5 -4t38 -10t28.5 -19.5t24 -33t13 -49t5.5 -68zM686 190q0 33 -2 55t-11 37t-16 22.5t-28 11.5t-36 4.5t-50 0.5h-195
v-268h199q46 0 65 2t40 15t27.5 41t6.5 79z" />
    <glyph glyph-name="uni042B" unicode="&#x42b;" horiz-adv-x="745" 
d="M531 190q0 -40 -5.5 -70.5t-13.5 -50.5t-24 -33.5t-28.5 -20.5t-37.5 -10.5t-40 -4t-46 -0.5h-258v680h58v-306h197q32 0 48 -0.5t41.5 -4t38 -10t28.5 -19.5t23.5 -33t13 -49t5.5 -68zM474 190q0 33 -2.5 55t-11 37t-16 22.5t-28.5 11.5t-35.5 4.5t-49.5 0.5h-195v-268
h198q31 0 45 0.5t34.5 4.5t28.5 12t17 23.5t12 39t3 57.5zM666 0h-58v680h58v-680z" />
    <glyph glyph-name="uni042C" unicode="&#x42c;" horiz-adv-x="570" 
d="M531 190q0 -40 -5.5 -70.5t-13.5 -50.5t-24 -33.5t-28.5 -20.5t-37.5 -10.5t-40 -4t-46 -0.5h-258v680h58v-306h197q32 0 48 -0.5t41.5 -4t38 -10t28.5 -19.5t23.5 -33t13 -49t5.5 -68zM474 190q0 33 -2.5 55t-11 37t-16 22.5t-28.5 11.5t-35.5 4.5t-49.5 0.5h-195v-268
h198q31 0 45 0.5t34.5 4.5t28.5 12t17 23.5t12 39t3 57.5z" />
    <glyph glyph-name="uni042D" unicode="&#x42d;" horiz-adv-x="550" 
d="M482 329q0 -60 -1 -96.5t-4.5 -75.5t-9.5 -60.5t-17.5 -43t-26.5 -32t-38.5 -19t-51.5 -11t-68 -2.5q-60 0 -114.5 5t-78.5 10l-25 5v45q76 -12 199 -12h57t42 5t33 9.5t21 21t15 32.5t6.5 50.5t4.5 68v92.5h-344v52h344q-1 70 -2.5 112t-11.5 74t-17.5 46t-33.5 22.5
t-45.5 9.5t-65.5 1q-53 0 -101.5 -3t-71.5 -6l-22 -3v45q83 21 214 21q49 0 81.5 -5t58 -21.5t39 -39.5t22 -67.5t11 -96t2.5 -133.5z" />
    <glyph glyph-name="uni042E" unicode="&#x42e;" horiz-adv-x="920" 
d="M852 333q0 -86 -2 -134t-11.5 -92.5t-23 -63t-43.5 -33.5t-66 -18t-97 -3q-45 0 -74.5 1.5t-56.5 8.5t-43 15.5t-29.5 28t-20 41t-11 59t-5.5 77t-1 100.5h-232v-320h-58v680h58v-306h232q1 75 4.5 123t14.5 86t26 57.5t44.5 32t63 16t88.5 3.5q43 0 72 -2t56 -9t43 -17
t30.5 -30t21.5 -44t12 -64t6.5 -84t1.5 -109zM793 329v9v81.5t-3 64.5t-4 51t-8.5 37.5t-11.5 27.5t-18 17.5t-22 11.5t-30.5 5.5t-36.5 2.5h-45h-8h-46t-36.5 -2.5t-30.5 -5.5t-22 -11.5t-18 -17.5t-11.5 -27.5t-9 -38t-4.5 -51t-3 -64.5v-81v-9v-78t2.5 -61t3 -49.5
t7.5 -35.5t10.5 -26.5t17.5 -16.5t22 -11.5t31.5 -4.5t38 -3h48.5h8h48t38 3t31 4.5t22 11.5t17 16.5t10 27t8 35t3 49t2 61.5v78z" />
    <glyph glyph-name="uni042F" unicode="&#x42f;" horiz-adv-x="599" 
d="M521 0h-57v308h-215l-133 -308h-64l136 310q-43 4 -67.5 18.5t-38.5 53.5t-14 108q0 40 5.5 70.5t13 50.5t24 33.5t29 20.5t39 10.5t42.5 4t50 0.5h250v-680zM464 361v266h-192q-38 0 -54 -0.5t-37.5 -4.5t-28.5 -12t-15.5 -24t-10 -38.5t-1.5 -57.5q0 -25 0.5 -42.5
t5 -32t7 -23t13.5 -15t18 -9.5t26 -5t31.5 -2h41.5h196z" />
    <glyph glyph-name="uni0430" unicode="&#x430;" 
d="M438 9q-74 -20 -192 -20q-28 0 -42 0.5t-38.5 3.5t-37 8.5t-29 16.5t-25 27.5t-14.5 41.5t-6 58q0 31 5 55t11.5 40t21 26.5t25.5 16t34 8t37.5 3t43.5 0.5h149v39q0 28 -3 48t-6.5 34t-14 23t-18.5 14t-27 7t-32 2.5t-41 0.5q-43 0 -83 -3t-58 -7l-18 -3v41
q70 20 179 20q31 0 51 -1.5t42.5 -7.5t36.5 -17.5t26 -30.5t17.5 -49t5.5 -71v-324zM381 46v201h-149q-26 0 -37.5 -0.5t-28.5 -2t-23 -5.5t-14.5 -11t-11 -18.5t-4.5 -27t-2 -37.5q0 -27 2.5 -45.5t11.5 -30.5t16.5 -18.5t27 -9.5t33.5 -3.5t44 -0.5q37 0 71 2.5t49 4.5z
" />
    <glyph glyph-name="uni0431" unicode="&#x431;" 
d="M448 231q0 -58 -4.5 -98.5t-16.5 -67t-25 -42t-39 -23t-49 -9.5t-63 -2q-38 0 -62 1.5t-46.5 9.5t-35 17t-24 31.5t-16 45t-8.5 66t-4.5 86.5t-0.5 113q0 91 2.5 148t10.5 102.5t19 68t34 37.5t49 18.5t69 3.5q50 0 96 2.5t66 4.5l21 2v-49q-69 -10 -181 -10
q-27 0 -39 -0.5t-29.5 -4t-24.5 -12t-16 -22.5t-12 -37.5t-5.5 -55.5t-2.5 -78q52 6 140 6q45 0 69 -2t50 -10t38 -23.5t23 -44.5t14 -70t3 -102zM391 231v67t-4 49.5t-6 36.5t-12 23.5t-16 15t-25.5 7t-32.5 3.5h-44q-39 0 -74 -1.5t-51 -3.5l-15 -2v-67q0 -212 10 -258
q11 -46 45 -56q18 -6 78 -6h12q35 0 49.5 0.5t34 6.5t26 17t14.5 33t9.5 53.5t1.5 81.5z" />
    <glyph glyph-name="uni0432" unicode="&#x432;" horiz-adv-x="487" 
d="M439 140q0 -41 -9 -68.5t-20 -41.5t-35 -21t-40 -8t-49 -1h-222v499h214q30 0 46 -1t41 -8t38 -21t23 -42t10 -68q0 -29 -5 -50.5t-12 -31.5t-14 -15.5t-12 -5.5l-5 -1v-2q2 0 5.5 -0.5t12.5 -7t15.5 -17t12 -33.5t5.5 -55zM379 359q0 34 -5.5 53t-22 27.5t-30.5 10
t-46 1.5h-155v-173h160q26 0 37.5 0.5t26.5 4.5t20.5 12.5t10 24t4.5 39.5zM383 140q0 34 -4.5 52.5t-20 27t-29.5 10t-49 1.5h-160v-183h163q30 0 43.5 1.5t29.5 10t21.5 27.5t5.5 53z" />
    <glyph glyph-name="uni0433" unicode="&#x433;" horiz-adv-x="414" 
d="M396 449h-276v-449h-56v499h332v-50z" />
    <glyph glyph-name="uni0434" unicode="&#x434;" horiz-adv-x="638" 
d="M603 -141h-54v141h-460v-141h-54v189h74l160 451h261v-451h73v-189zM473 48v403h-164l-142 -403h306z" />
    <glyph glyph-name="uni0435" unicode="&#x435;" 
d="M448 233h-337v-65.5t3.5 -47.5t5 -35.5t12 -22.5t17 -15.5t28 -6t36 -3.5h49.5q46 0 88 3.5t62 6.5l19 3v-41q-73 -20 -189 -20q-45 0 -73 3t-51 14.5t-34 26.5t-18.5 47t-9.5 68t-2 97q0 62 2.5 100.5t10.5 71t20 48.5t36 27.5t53 14.5t75 3t75 -3t53 -14.5t36 -27.5
t20 -48.5t10.5 -71t2.5 -100.5v-12zM391 280q0 36 -0.5 60t-4.5 45t-6 32.5t-12.5 21.5t-17 13.5t-25.5 6.5t-31.5 3h-42.5h-43t-32 -3t-25.5 -6.5t-16.5 -13.5t-12.5 -21.5t-6 -32.5t-4 -44.5t-0.5 -60.5h280z" />
    <glyph glyph-name="uni0436" unicode="&#x436;" horiz-adv-x="674" 
d="M655 0h-66l-147 229h-77v-229h-56v229h-77l-147 -229h-65l163 254l-158 245h66l141 -220h77v220h56v-220h77l141 220h65l-157 -245z" />
    <glyph glyph-name="uni0437" unicode="&#x437;" horiz-adv-x="443" 
d="M395 140q0 -51 -10.5 -82.5t-36 -46t-53.5 -18.5t-78 -4q-48 0 -92.5 5t-64.5 10l-21 5v40q62 -12 158 -12q29 0 41.5 0.5t32 2t27 5.5t17.5 11t13.5 18.5t6.5 27.5t3 38q0 34 -4.5 52.5t-20 27t-29.5 10t-49 1.5h-148v47h148q27 0 38.5 0.5t26.5 4.5t20.5 12.5t9.5 24
t4 39.5q0 26 -2.5 43.5t-11 29t-16 17.5t-27.5 9t-33.5 3.5t-45.5 0.5q-41 0 -79 -3t-55 -6l-18 -3v40q66 20 172 20q43 0 69.5 -4t53 -18.5t38.5 -46t12 -82.5q0 -29 -5 -50.5t-11.5 -31.5t-13.5 -15.5t-12 -5.5l-5 -1v-2q2 0 5.5 -0.5t12.5 -7t15.5 -17t12 -33.5t5.5 -55z
" />
    <glyph glyph-name="uni0438" unicode="&#x438;" 
d="M438 0h-56v406l-262 -406h-56v499h56v-406l262 406h56v-499z" />
    <glyph glyph-name="uni0439" unicode="&#x439;" 
d="M438 0h-56v406l-262 -406h-56v499h56v-406l262 406h56v-499zM362 748q0 -29 -0.5 -42t-2 -33t-6 -28.5t-12 -20t-20 -15.5t-29.5 -7.5t-41 -3.5t-41 3.5t-29.5 7.5t-20 15.5t-12 20t-6 28.5t-2 33t-0.5 42h47q0 -73 9.5 -87.5t54.5 -14.5t54.5 14.5t9.5 87.5h47z" />
    <glyph glyph-name="uni043A" unicode="&#x43a;" horiz-adv-x="467" 
d="M448 0h-69l-174 229h-85v-229h-56v499h56v-220h85l167 220h68l-185 -245z" />
    <glyph glyph-name="uni043B" unicode="&#x43b;" horiz-adv-x="517" 
d="M452 0h-55v449h-165l-159 -449h-58l177 499h260v-499z" />
    <glyph glyph-name="uni043C" unicode="&#x43c;" horiz-adv-x="625" 
d="M561 0h-55v438l-160 -438h-70l-157 437v-437h-55v499h88l158 -441l163 441h88v-499z" />
    <glyph glyph-name="uni043D" unicode="&#x43d;" 
d="M438 0h-57v229h-261v-229h-56v499h56v-220h261v220h57v-499z" />
    <glyph glyph-name="uni043E" unicode="&#x43e;" 
d="M448 245q0 -61 -2 -97t-9.5 -68t-19 -47t-35.5 -26.5t-53.5 -14.5t-77.5 -3t-77.5 3t-53.5 14.5t-35.5 26.5t-19.5 47t-9.5 68t-1.5 97q0 62 2.5 100.5t10.5 71t20 48.5t36 27.5t53 14.5t75 3t75 -3t53 -14.5t36 -27.5t20 -48.5t10.5 -71t2.5 -100.5zM391 241v9v69.5
t-3.5 52t-5.5 38.5t-12 24.5t-16 15.5t-25 7.5t-31.5 3.5h-42.5h-8h-42.5t-31.5 -3.5t-25 -7.5t-16 -15.5t-12 -24.5t-5.5 -38.5t-3.5 -52v-69.5v-9v-67.5t3 -49t4.5 -36.5t11 -23t15.5 -16t25 -6.5t32.5 -3.5h44.5h8h44t32.5 3.5t25 6.5t15.5 15.5t11.5 23.5t4.5 37t3 49
v67z" />
    <glyph glyph-name="uni043F" unicode="&#x43f;" 
d="M438 0h-57v449h-261v-449h-56v499h374v-499z" />
    <glyph glyph-name="uni0440" unicode="&#x440;" 
d="M448 245q0 -60 -2 -96.5t-9.5 -68.5t-19.5 -47t-35 -26.5t-52 -14.5t-75 -3q-32 0 -66 2t-51 4l-18 2v-224h-56v717q74 20 191 20q44 0 72 -3t51.5 -14.5t35.5 -28t20.5 -48t11 -71t2.5 -100.5zM391 241v9v69.5t-4 52t-6 38.5t-12 24.5t-16 15.5t-25.5 7.5t-32.5 3.5h-44
q-36 0 -68.5 -2.5t-47.5 -4.5l-15 -3v-405q49 -7 131 -7h45.5t33 3.5t26 6.5t16.5 15.5t11.5 23t4.5 37t3 49.5v67z" />
    <glyph glyph-name="uni0441" unicode="&#x441;" horiz-adv-x="445" 
d="M409 9q-68 -20 -178 -20q-37 0 -63.5 4.5t-46 11t-31.5 23t-19.5 32.5t-11 48t-4.5 59.5t-1 77.5q0 69 3 108.5t12.5 74t29.5 50t50.5 24t79.5 8.5q48 0 91.5 -5t63.5 -10l19 -5v-41q-60 12 -154 12h-44t-32.5 -3.5t-25.5 -7.5t-16 -16.5t-11.5 -25t-5 -39t-3.5 -52.5
v-72v-56t1.5 -44t2 -36t6 -25.5t8 -19.5t13.5 -11.5t17.5 -8.5t24.5 -3t29.5 -2h38.5q42 0 81.5 2.5t57.5 5.5l18 3v-41z" />
    <glyph glyph-name="uni0442" unicode="&#x442;" horiz-adv-x="415" 
d="M396 449h-160v-449h-57v449h-159v50h376v-50z" />
    <glyph glyph-name="uni0443" unicode="&#x443;" horiz-adv-x="458" 
d="M443 499l-199 -576q-14 -40 -19.5 -55.5t-16 -40t-17.5 -32t-19.5 -18t-26.5 -13t-34 -2.5q-36 0 -69 5t-48 11l-15 5v40q43 -12 112 -12q42 0 55.5 16.5t43.5 104.5l24 68h-21l-172 499h58l153 -445l154 445h57z" />
    <glyph glyph-name="uni0444" unicode="&#x444;" horiz-adv-x="769" 
d="M716 245q0 -60 -2 -97t-9.5 -68t-18.5 -47t-32.5 -27t-48.5 -14t-69 -3q-30 0 -61 2t-47 4l-16 2v-224h-55v224q-57 -8 -124 -8q-42 0 -68.5 3t-48 14t-32.5 27t-18.5 47t-9.5 68t-2 97q0 91 6 140t27.5 79t53.5 38t92 8q30 0 61 -2t47 -4l16 -2v224h55v-224q57 8 124 8
q61 0 92.5 -8t53.5 -38t28 -79t6 -140zM357 46v407q-45 8 -118 8h-39t-29.5 -3.5t-23.5 -7.5t-15 -15.5t-11.5 -25t-5.5 -38t-3.5 -51.5t-0.5 -70v-9v-86t6.5 -55.5t11 -36t23.5 -16.5t34 -8h53q32 0 61.5 1.5t43.5 3.5zM659 241v9q0 43 -0.5 70t-3.5 51.5t-5.5 38t-11.5 25
t-15 15.5t-23.5 7.5t-29.5 3.5h-39q-33 0 -62.5 -2t-42.5 -4l-14 -2v-407q45 -7 119 -7h41t30 3.5t23.5 7t15 15.5t11 23t4.5 36.5t3 49.5v67z" />
    <glyph glyph-name="uni0445" unicode="&#x445;" horiz-adv-x="458" 
d="M439 0h-66l-144 227l-144 -227h-65l162 254l-156 245h64l139 -218l139 218h64l-156 -245z" />
    <glyph glyph-name="uni0446" unicode="&#x446;" horiz-adv-x="546" 
d="M511 -141h-53v141h-394v499h56v-449h261v449h57v-451h73v-189z" />
    <glyph glyph-name="uni0447" unicode="&#x447;" horiz-adv-x="481" 
d="M417 0h-57v186q-48 -9 -126 -9q-33 0 -48.5 0.5t-40 3.5t-35 10t-24.5 19.5t-19.5 31.5t-10 47t-4.5 66v144h56v-144q0 -32 2 -53.5t10 -36.5t14.5 -22.5t24.5 -11t31.5 -4t43.5 -0.5q35 0 66.5 2.5t45.5 4.5l14 2v263h57v-499z" />
    <glyph glyph-name="uni0448" unicode="&#x448;" horiz-adv-x="769" 
d="M705 0h-641v499h56v-449h237v449h55v-449h237v449h56v-499z" />
    <glyph glyph-name="uni0449" unicode="&#x449;" horiz-adv-x="814" 
d="M778 -141h-52v141h-662v499h56v-449h237v449h55v-449h237v449h56v-451h73v-189z" />
    <glyph glyph-name="uni044A" unicode="&#x44a;" horiz-adv-x="636" 
d="M605 140q0 -34 -5 -59t-17 -40t-23 -23.5t-32.5 -12.5t-35 -4.5t-41.5 -0.5h-222v449h-209v50h265v-220h162q33 0 49.5 -1t41 -8t36.5 -21t21.5 -41.5t9.5 -67.5zM548 140q0 34 -4.5 52.5t-20 27t-29.5 10t-49 1.5h-160v-183h164q30 0 43 1.5t29 10t21.5 27.5t5.5 53z
" />
    <glyph glyph-name="uni044B" unicode="&#x44b;" horiz-adv-x="632" 
d="M439 140q0 -41 -9 -68.5t-20 -41.5t-35 -21t-40 -8t-49 -1h-222v499h56v-220h161q34 0 50.5 -1t41 -8t36.5 -21t21 -41.5t9 -67.5zM383 140q0 34 -4.5 52.5t-20 27t-29.5 10t-49 1.5h-160v-183h163q30 0 43.5 1.5t29.5 10t21.5 27.5t5.5 53zM567 0h-56v499h56v-499z" />
    <glyph glyph-name="uni044C" unicode="&#x44c;" horiz-adv-x="471" 
d="M439 140q0 -41 -9 -68.5t-20 -41.5t-35 -21t-40 -8t-49 -1h-222v499h56v-220h161q34 0 50.5 -1t41 -8t36.5 -21t21 -41.5t9 -67.5zM383 140q0 34 -4.5 52.5t-20 27t-29.5 10t-49 1.5h-160v-183h163q30 0 43.5 1.5t29.5 10t21.5 27.5t5.5 53z" />
    <glyph glyph-name="uni044D" unicode="&#x44d;" horiz-adv-x="449" 
d="M395 245q0 -49 -1 -77.5t-4.5 -60t-11 -47.5t-20 -32.5t-32 -23t-46 -11t-63.5 -4.5q-48 0 -92.5 5t-64.5 10l-21 5v40q62 -12 158 -12h45.5t33 3.5t26 6.5t16.5 14.5t11.5 22.5t5 35.5t3.5 47.5v64h-268v47h268q-1 50 -2 78t-8 51t-12.5 32t-26 15.5t-36 7t-53.5 0.5
q-42 0 -80.5 -3t-55.5 -6l-18 -3v40q66 20 174 20q49 0 79.5 -8.5t50.5 -24t29.5 -50t12.5 -74t3 -108.5z" />
    <glyph glyph-name="uni044E" unicode="&#x44e;" horiz-adv-x="769" 
d="M716 245q0 -61 -1.5 -97t-9.5 -68t-19.5 -47t-35.5 -26.5t-53.5 -14.5t-77.5 -3q-70 0 -106 7t-58.5 35.5t-28 70.5t-5.5 127h-201v-229h-56v499h56v-220h201q1 79 8.5 121.5t31 68.5t58.5 33.5t100 7.5q55 0 87 -6t56 -20t34.5 -46.5t15 -75.5t4.5 -117zM659 241v9
q0 58 -0.5 89.5t-7.5 58.5t-12.5 37t-25.5 17.5t-35.5 8t-54.5 0.5h-8h-43t-31.5 -3.5t-25 -7.5t-16.5 -15.5t-12 -24.5t-5.5 -38.5t-3.5 -52v-69.5v-9v-67.5t3.5 -49t5 -36.5t11 -23.5t15.5 -15.5t25.5 -6.5t32.5 -3.5h44h8h44t32.5 3.5t25 6.5t15.5 15.5t11.5 23.5t4.5 37
t3 49v67z" />
    <glyph glyph-name="uni044F" unicode="&#x44f;" horiz-adv-x="483" 
d="M419 0h-56v216h-180l-89 -216h-62l92 218q-42 7 -61 36t-19 100q0 35 5.5 61t18.5 41.5t24.5 24.5t34.5 12.5t36.5 4.5t41.5 1h214v-499zM363 265v186h-156q-38 0 -53 -1.5t-30.5 -10.5t-19.5 -28.5t-4 -56.5q0 -23 1.5 -37.5t7.5 -25t11 -15.5t20 -7.5t26 -3t37 -0.5
h160z" />
    <glyph glyph-name="uni0450" unicode="&#x450;" 
d="M448 233h-337v-65.5t3.5 -47.5t5 -35.5t12 -22.5t17 -15.5t28 -6t36 -3.5h49.5q46 0 88 3.5t62 6.5l19 3v-41q-73 -20 -189 -20q-45 0 -73 3t-51 14.5t-34 26.5t-18.5 47t-9.5 68t-2 97q0 62 2.5 100.5t10.5 71t20 48.5t36 27.5t53 14.5t75 3t75 -3t53 -14.5t36 -27.5
t20 -48.5t10.5 -71t2.5 -100.5v-12zM391 280q0 36 -0.5 60t-4.5 45t-6 32.5t-12.5 21.5t-17 13.5t-25.5 6.5t-31.5 3h-42.5h-43t-32 -3t-25.5 -6.5t-16.5 -13.5t-12.5 -21.5t-6 -32.5t-4 -44.5t-0.5 -60.5h280zM301 602h-59l-90 146h60z" />
    <glyph glyph-name="uni0451" unicode="&#x451;" 
d="M448 233h-337v-65.5t3.5 -47.5t5 -35.5t12 -22.5t17 -15.5t28 -6t36 -3.5h49.5q46 0 88 3.5t62 6.5l19 3v-41q-73 -20 -189 -20q-45 0 -73 3t-51 14.5t-34 26.5t-18.5 47t-9.5 68t-2 97q0 62 2.5 100.5t10.5 71t20 48.5t36 27.5t53 14.5t75 3t75 -3t53 -14.5t36 -27.5
t20 -48.5t10.5 -71t2.5 -100.5v-12zM391 280q0 36 -0.5 60t-4.5 45t-6 32.5t-12.5 21.5t-17 13.5t-25.5 6.5t-31.5 3h-42.5h-43t-32 -3t-25.5 -6.5t-16.5 -13.5t-12.5 -21.5t-6 -32.5t-4 -44.5t-0.5 -60.5h280zM202 602h-54v113h54v-113zM354 602h-54v113h54v-113z" />
    <glyph glyph-name="uni0452" unicode="&#x452;" horiz-adv-x="528" 
d="M464 -60q0 -39 -1 -57.5t-7 -46.5t-19 -41t-37.5 -23t-61.5 -10q-35 0 -66.5 5t-45.5 11l-14 5v39q41 -11 104 -11q65 0 78.5 23.5t13.5 105.5v393q0 32 -2.5 54t-11.5 36t-16.5 22t-26.5 11.5t-32 4t-42 0.5q-36 0 -68.5 -2.5t-46.5 -4.5l-15 -3v-451h-57v587h-85v48h85
v91h57v-91h138v-48h-138v-85q49 8 130 8q51 0 79.5 -4.5t56.5 -21.5t39.5 -53.5t11.5 -97.5v-393z" />
    <glyph glyph-name="uni0453" unicode="&#x453;" horiz-adv-x="414" 
d="M396 449h-276v-449h-56v499h332v-50zM328 748l-91 -146h-58l89 146h60z" />
    <glyph glyph-name="uni0454" unicode="&#x454;" horiz-adv-x="449" 
d="M409 9q-68 -20 -178 -20q-37 0 -63.5 4.5t-46 11t-31.5 23t-19.5 32.5t-11 48t-4.5 59.5t-1 77.5q0 69 3 108.5t12.5 74t29.5 50t50.5 24t79.5 8.5q48 0 91.5 -5t63.5 -10l19 -5v-40q-60 12 -154 12q-39 0 -54.5 -0.5t-36 -7t-26 -15.5t-12.5 -32t-8 -51t-1 -78h268v-47
h-268v-64.5t3.5 -47.5t5 -35.5t11.5 -22t16 -14.5t26 -6.5t33.5 -3.5h45.5q42 0 81.5 3t57.5 6l18 3v-40z" />
    <glyph glyph-name="uni0455" unicode="&#x455;" horiz-adv-x="455" 
d="M412 132q0 -49 -10.5 -78t-37 -43t-55 -18t-79.5 -4q-50 0 -95.5 5t-66.5 10l-21 5v40q64 -12 163 -12q34 0 49 0.5t36 3t29 8t17 16.5t11.5 27t2.5 40q0 58 -9.5 72.5t-59.5 22.5l-119 17q-43 6 -68 18t-35.5 33t-12.5 37t-2 49q0 34 9.5 58.5t23.5 38t37.5 21t45.5 9.5
t53 2q46 0 88 -5t62 -10l19 -5v-40q-58 12 -148 12q-36 0 -52 -0.5t-36 -4.5t-27 -12.5t-12.5 -24t-5.5 -39.5q0 -51 9.5 -64t60.5 -22l118 -18q35 -6 57.5 -16t35 -20.5t18 -30.5t6.5 -34t1 -44z" />
    <glyph glyph-name="uni0456" unicode="&#x456;" horiz-adv-x="184" 
d="M120 0h-56v499h56v-499zM120 602h-56v124h56v-124z" />
    <glyph glyph-name="uni0457" unicode="&#x457;" horiz-adv-x="184" 
d="M120 0h-56v499h56v-499zM43 602h-54v113h54v-113zM195 602h-54v113h54v-113z" />
    <glyph glyph-name="uni0458" unicode="&#x458;" horiz-adv-x="274" 
d="M210 -60q0 -39 -1 -57.5t-7 -46.5t-19 -41t-37.5 -23t-61.5 -10q-34 0 -65.5 5t-46.5 11l-14 5v39q41 -11 103 -11q24 0 39.5 2t26 10t16 14.5t8 25.5t3 32.5t0.5 44.5v559h56v-559zM210 602h-56v124h56v-124z" />
    <glyph glyph-name="uni0459" unicode="&#x459;" horiz-adv-x="762" 
d="M731 140q0 -41 -9 -68.5t-20.5 -41.5t-35.5 -21t-40 -8t-48 -1h-206v449h-140l-159 -449h-58l177 499h235v-220h146q33 0 49.5 -1t41.5 -8t36.5 -21t21 -41.5t9.5 -67.5zM674 140q0 34 -4.5 52.5t-20 27t-29.5 10t-49 1.5h-144v-183h148q30 0 43 1.5t29 10t21.5 27.5
t5.5 53z" />
    <glyph glyph-name="uni045A" unicode="&#x45a;" horiz-adv-x="747" 
d="M716 140q0 -34 -5 -59t-17 -40t-23 -23.5t-32.5 -12.5t-35 -4.5t-41.5 -0.5h-205v229h-237v-229h-56v499h56v-220h237v220h55v-220h146q33 0 49.5 -1t41.5 -8t36.5 -21t21 -41.5t9.5 -67.5zM659 140q0 34 -4.5 52.5t-20 27t-29.5 10t-49 1.5h-144v-183h148q24 0 35 0.5
t26 5t21.5 14t11.5 27.5t5 45z" />
    <glyph glyph-name="uni045B" unicode="&#x45b;" horiz-adv-x="528" 
d="M464 0h-57v333q0 24 -1.5 42t-6.5 32t-9 23t-14 15t-17 9t-23 5t-26.5 2h-32.5q-36 0 -68.5 -2.5t-47.5 -4.5l-15 -3v-451h-56v587h-85v48h85v91h56v-91h139v-48h-139v-85q50 8 131 8q51 0 79.5 -4.5t56.5 -21.5t39.5 -53.5t11.5 -97.5v-333z" />
    <glyph glyph-name="uni045C" unicode="&#x45c;" horiz-adv-x="467" 
d="M448 0h-69l-174 229h-85v-229h-56v499h56v-220h85l167 220h68l-185 -245zM350 748l-91 -146h-58l89 146h60z" />
    <glyph glyph-name="uni045D" unicode="&#x45d;" 
d="M438 0h-56v406l-262 -406h-56v499h56v-406l262 406h56v-499zM301 602h-59l-90 146h60z" />
    <glyph glyph-name="uni045E" unicode="&#x45e;" horiz-adv-x="458" 
d="M443 499l-199 -576q-14 -40 -19.5 -55.5t-16 -40t-17.5 -32t-19.5 -18t-26.5 -13t-34 -2.5q-36 0 -69 5t-48 11l-15 5v40q43 -12 112 -12q42 0 55.5 16.5t43.5 104.5l24 68h-21l-172 499h58l153 -445l154 445h57zM343 748q0 -29 -0.5 -42t-2 -33t-6 -28.5t-12 -20
t-20 -15.5t-29.5 -7.5t-41 -3.5t-41 3.5t-29.5 7.5t-20 15.5t-12 20t-6 28.5t-2 33t-0.5 42h47q0 -73 9.5 -87.5t54.5 -14.5t54.5 14.5t9.5 87.5h47z" />
    <glyph glyph-name="uni045F" unicode="&#x45f;" 
d="M438 0h-161v-141h-53v141h-160v499h56v-449h261v449h57v-499z" />
    <glyph glyph-name="uni0462" unicode="&#x462;" horiz-adv-x="587" 
d="M548 190q0 -40 -5.5 -70.5t-13.5 -50.5t-24 -33.5t-28.5 -20.5t-37.5 -10.5t-40 -4t-46 -0.5h-258v490h-90v50h90v140h57v-140h145v-50h-145v-116h197q32 0 48 -0.5t41.5 -4t38 -10t29 -19.5t24 -33t13 -49t5.5 -68zM490 190q0 33 -2 55t-11 37t-16 22.5t-28 11.5
t-36 4.5t-50 0.5h-195v-268h199q46 0 65 2t40 15t27.5 41t6.5 79z" />
    <glyph glyph-name="uni0463" unicode="&#x463;" horiz-adv-x="497" 
d="M465 140q0 -41 -9 -68.5t-20 -41.5t-35 -21t-40 -8t-49 -1h-222v406h-85v47h85v137h57v-137h138v-47h-138v-127h161q33 0 49.5 -1t41 -8t36.5 -21t21 -41.5t9 -67.5zM409 140q0 34 -4.5 52.5t-20 27t-29.5 10t-48 1.5h-160v-183h163q30 0 43 1.5t29 10t21.5 27.5t5.5 53z
" />
    <glyph glyph-name="uni0472" unicode="&#x472;" horiz-adv-x="620" 
d="M552 333q0 -86 -2 -134t-11.5 -92.5t-23 -63t-43.5 -33.5t-66 -18t-97 -3q-45 0 -75 1.5t-57 9t-43 16t-29.5 29.5t-19.5 42.5t-10.5 61t-5.5 80t-1 104.5q0 87 2.5 140t13 97t25 65t44.5 35.5t64 18t92 3.5q43 0 72 -2t56 -9t43 -17t30.5 -30t21.5 -44t12 -64t6.5 -84
t1.5 -109zM494 368v73.5t-3 58t-4.5 46t-9 34t-11.5 25t-18 16t-22 10t-30 5t-36.5 2.5h-45.5h-8h-46t-36.5 -2.5t-30.5 -5t-22 -10t-18 -16t-11.5 -25t-9 -34t-4.5 -46t-3 -58v-73.5h369zM494 317h-369v-75t2.5 -59t3 -47t8 -34t10.5 -26t17.5 -16t22.5 -11t31 -4.5
t38 -2.5h48h8h48t38 2.5t31 4.5t22 11t17.5 15.5t10.5 26t7.5 34.5t3 47.5t2.5 58.5v75z" />
    <glyph glyph-name="uni0473" unicode="&#x473;" 
d="M448 245q0 -61 -2 -97t-9.5 -68t-19 -47t-35.5 -26.5t-53.5 -14.5t-77.5 -3t-77.5 3t-53.5 14.5t-35.5 26.5t-19.5 47t-9.5 68t-1.5 97q0 62 2.5 100.5t10.5 71t20 48.5t36 27.5t53 14.5t75 3t75 -3t53 -14.5t36 -27.5t20 -48.5t10.5 -71t2.5 -100.5zM391 275v61.5
t-3.5 46t-5.5 34t-12 22t-16 14t-25 6.5t-31.5 3h-42.5h-8h-42.5t-31.5 -3t-25 -6.5t-16 -14t-12 -22t-5.5 -34t-3.5 -46v-61.5h280zM391 229h-280v-81.5t6.5 -52.5t11 -34.5t25 -15.5t36.5 -8h57h8h44t32.5 3.5t25 6t15.5 14.5t11.5 22.5t4.5 35t3 46.5v64z" />
    <glyph glyph-name="uni0474" unicode="&#x474;" horiz-adv-x="726" 
d="M698 625q-45 12 -116 12q-29 0 -42 -23t-61 -161l-155 -453h-81l-232 680h61l211 -621l136 394q55 163 76.5 201t62.5 38q38 0 73 -5t51 -11l16 -5v-46z" />
    <glyph glyph-name="uni0475" unicode="&#x475;" horiz-adv-x="559" 
d="M541 449q-35 12 -87 12q-23 0 -32.5 -16.5t-42.5 -111.5l-114 -333h-78l-172 499h57l154 -445l95 279q42 118 58.5 147.5t50.5 29.5q30 0 58 -5t40 -10l13 -5v-41z" />
    <glyph glyph-name="uni0490" unicode="&#x490;" horiz-adv-x="541" 
d="M493 626h-357v-626h-58v680h360v192h55v-246z" />
    <glyph glyph-name="uni0491" unicode="&#x491;" horiz-adv-x="431" 
d="M396 449h-276v-449h-56v499h279v141h53v-191z" />
    <glyph glyph-name="Wgrave" unicode="&#x1e80;" horiz-adv-x="834" 
d="M816 680l-165 -680h-85l-149 616l-149 -616h-85l-163 680h57l150 -620l149 620h82l150 -620l149 620h59zM467 775h-59l-90 146h60z" />
    <glyph glyph-name="wgrave" unicode="&#x1e81;" horiz-adv-x="715" 
d="M692 499l-136 -499h-79l-119 439l-120 -439h-79l-136 499h55l121 -443l121 443h76l121 -444l120 444h55zM408 602h-59l-90 146h60z" />
    <glyph glyph-name="Wacute" unicode="&#x1e82;" horiz-adv-x="834" 
d="M816 680l-165 -680h-85l-149 616l-149 -616h-85l-163 680h57l150 -620l149 620h82l150 -620l149 620h59zM516 921l-91 -146h-58l89 146h60z" />
    <glyph glyph-name="wacute" unicode="&#x1e83;" horiz-adv-x="715" 
d="M692 499l-136 -499h-79l-119 439l-120 -439h-79l-136 499h55l121 -443l121 443h76l121 -444l120 444h55zM457 748l-91 -146h-58l89 146h60z" />
    <glyph glyph-name="Wdieresis" unicode="&#x1e84;" horiz-adv-x="834" 
d="M816 680l-165 -680h-85l-149 616l-149 -616h-85l-163 680h57l150 -620l149 620h82l150 -620l149 620h59zM368 775h-54v113h54v-113zM520 775h-54v113h54v-113z" />
    <glyph glyph-name="wdieresis" unicode="&#x1e85;" horiz-adv-x="715" 
d="M692 499l-136 -499h-79l-119 439l-120 -439h-79l-136 499h55l121 -443l121 443h76l121 -444l120 444h55zM309 602h-54v113h54v-113zM461 602h-54v113h54v-113z" />
    <glyph glyph-name="Ygrave" unicode="&#x1ef2;" horiz-adv-x="541" 
d="M530 680l-228 -373h-3v-307h-57v307h-3l-228 373h66l193 -317l194 317h66zM320 775h-59l-90 146h60z" />
    <glyph glyph-name="ygrave" unicode="&#x1ef3;" horiz-adv-x="458" 
d="M443 499l-199 -576q-14 -40 -19.5 -55.5t-16 -40t-17.5 -32t-19.5 -18t-26.5 -13t-34 -2.5q-36 0 -69 5t-48 11l-15 5v40q43 -12 112 -12q42 0 55.5 16.5t43.5 104.5l24 68h-21l-172 499h58l153 -445l154 445h57zM282 602h-59l-90 146h60z" />
    <glyph glyph-name="uni2010" unicode="&#x2010;" horiz-adv-x="363" 
d="M316 268h-269v53h269v-53z" />
    <glyph glyph-name="figuredash" unicode="&#x2012;" horiz-adv-x="570" 
d="M523 269h-476v51h476v-51z" />
    <glyph glyph-name="endash" unicode="&#x2013;" horiz-adv-x="450" 
d="M450 269h-450v51h450v-51z" />
    <glyph glyph-name="emdash" unicode="&#x2014;" horiz-adv-x="900" 
d="M720 269h-540v51h540v-51z" />
    <glyph glyph-name="afii00208" unicode="&#x2015;" horiz-adv-x="934" 
d="M886 269h-837v51h837v-51z" />
    <glyph glyph-name="underscoredbl" unicode="&#x2017;" horiz-adv-x="449" 
d="M451 -66h-452v51h452v-51zM451 -199h-452v50h452v-50z" />
    <glyph glyph-name="quoteleft" unicode="&#x2018;" horiz-adv-x="183" 
d="M161 726l-45 -111h3v-125h-55v125l50 111h47z" />
    <glyph glyph-name="quoteright" unicode="&#x2019;" horiz-adv-x="183" 
d="M119 601l-50 -111h-47l45 111h-3v125h55v-125z" />
    <glyph glyph-name="quotesinglbase" unicode="&#x201a;" horiz-adv-x="183" 
d="M119 0l-50 -111h-47l45 111h-3v124h55v-124z" />
    <glyph glyph-name="quotereversed" unicode="&#x201b;" horiz-adv-x="183" 
d="M161 490h-47l-50 111v125h55v-125h-3z" />
    <glyph glyph-name="quotedblleft" unicode="&#x201c;" horiz-adv-x="347" 
d="M161 726l-45 -111h3v-125h-55v125l50 111h47zM325 726l-45 -111h3v-125h-55v125l50 111h47z" />
    <glyph glyph-name="quotedblright" unicode="&#x201d;" horiz-adv-x="347" 
d="M119 601l-50 -111h-47l45 111h-3v125h55v-125zM283 601l-50 -111h-47l45 111h-3v125h55v-125z" />
    <glyph glyph-name="quotedblbase" unicode="&#x201e;" horiz-adv-x="347" 
d="M119 0l-50 -111h-47l45 111h-3v124h55v-124zM283 0l-50 -111h-47l45 111h-3v124h55v-124z" />
    <glyph glyph-name="uni201F" unicode="&#x201f;" horiz-adv-x="347" 
d="M161 490h-47l-50 111v125h55v-125h-3zM325 490h-47l-50 111v125h55v-125h-3z" />
    <glyph glyph-name="dagger" unicode="&#x2020;" horiz-adv-x="482" 
d="M434 446h-166v-673h-55v673h-166v53h166v227h55v-227h166v-53z" />
    <glyph glyph-name="daggerdbl" unicode="&#x2021;" horiz-adv-x="482" 
d="M434 0h-166v-227h-55v227h-166v53h166v393h-166v53h166v227h55v-227h166v-53h-166v-393h166v-53z" />
    <glyph glyph-name="bullet" unicode="&#x2022;" horiz-adv-x="319" 
d="M271 340q0 -51 -33 -87t-79 -36t-79 36t-33 87t33 87t79 36t79 -36t33 -87z" />
    <glyph glyph-name="ellipsis" unicode="&#x2026;" horiz-adv-x="900" 
d="M178 0h-56v127h56v-127zM478 0h-56v127h56v-127zM778 0h-56v127h56v-127z" />
    <glyph glyph-name="perthousand" unicode="&#x2030;" horiz-adv-x="1241" 
d="M643 680l-353 -680h-48l354 680h47zM320 464q0 -52 -1.5 -82.5t-7 -57t-14 -38.5t-26 -21t-38.5 -11t-56 -2t-55 2t-37.5 11t-25.5 20.5t-14 38.5t-7 57t-1 83q0 64 3.5 101t10.5 64t24.5 38t39.5 15.5t62 4.5q51 0 76 -5.5t42 -31t21 -66t4 -120.5zM275 463v4v59.5
t-2.5 44t-4 32t-8.5 20.5t-11 13.5t-17 6.5t-22 3h-30h-4h-30t-22 -3t-17.5 -6t-11 -13.5t-8 -21t-4 -32.5t-2.5 -44v-59v-4v-56.5t2 -41t3 -31t8 -19.5t11 -13.5t17.5 -5.5t22.5 -3h31h4h31t22.5 3t17.5 5.5t11 13.5t8 19.5t3 31t2 41v56.5zM850 206q0 -52 -1.5 -82.5
t-7 -57t-14 -38.5t-26 -21t-38.5 -11t-56 -2t-55 2t-37.5 11t-25.5 20.5t-14 38.5t-7 57t-1 83q0 64 3.5 101t10.5 64t24.5 38t39.5 15.5t62 4.5q51 0 76 -5.5t42 -31t21 -66t4 -120.5zM805 205v4v59.5t-2.5 44t-4 32t-8.5 20.5t-11 13.5t-17 6.5t-22 3h-30h-4h-30t-22 -3
t-17.5 -6t-11 -13.5t-8 -21t-4 -32.5t-2.5 -44v-59v-4v-56.5t2 -41t3 -31t8 -19.5t11 -13.5t17.5 -5.5t22.5 -3h31h4h31t22.5 3t17.5 5.5t11 13.5t8 19.5t3 31t2 41v56.5zM1205 206q0 -52 -1.5 -82.5t-7 -57t-14 -38.5t-26 -21t-38.5 -11t-56 -2t-55 2t-37.5 11t-25.5 20.5
t-14 38.5t-7 57t-1 83q0 64 3.5 101t10.5 64t24.5 38t39.5 15.5t62 4.5q51 0 76 -5.5t42 -31t21 -66t4 -120.5zM1160 205v4v59.5t-2.5 44t-4 32t-8.5 20.5t-11 13.5t-17 6.5t-22 3h-30h-4h-30t-22 -3t-17.5 -6t-11 -13.5t-8 -21t-4 -32.5t-2.5 -44v-59v-4v-56.5t2 -41t3 -31
t8 -19.5t11 -13.5t17.5 -5.5t22.5 -3h31h4h31t22.5 3t17.5 5.5t11 13.5t8 19.5t3 31t2 41v56.5z" />
    <glyph glyph-name="minute" unicode="&#x2032;" horiz-adv-x="253" 
d="M190 726l-73 -236h-53l72 236h54z" />
    <glyph glyph-name="second" unicode="&#x2033;" horiz-adv-x="410" 
d="M190 726l-73 -236h-53l72 236h54zM346 726l-73 -236h-53l72 236h54z" />
    <glyph glyph-name="guilsinglleft" unicode="&#x2039;" horiz-adv-x="245" 
d="M222 22h-60l-139 228l139 227h60l-138 -227z" />
    <glyph glyph-name="guilsinglright" unicode="&#x203a;" horiz-adv-x="245" 
d="M222 250l-138 -228h-61l139 228l-139 227h61z" />
    <glyph glyph-name="exclamdbl" unicode="&#x203c;" horiz-adv-x="405" 
d="M134 227h-56v453h56v-453zM135 0h-57v124h57v-124zM326 227h-56v453h56v-453zM327 0h-57v124h57v-124z" />
    <glyph glyph-name="interrobang" unicode="&#x203d;" horiz-adv-x="666" 
d="M425 517q0 -98 -15 -126.5t-79 -48.5l-73 -22v-93h-55v129l115 34q38 11 45.5 31.5t7.5 95.5q0 32 -2 53t-11.5 35t-17 21.5t-30 11t-38.5 4t-54 0.5q-46 0 -88.5 -3t-62.5 -6l-20 -3v41q74 21 190 21q49 0 78 -4.5t57 -21.5t40.5 -53.5t12.5 -95.5zM259 0h-56v124h56
v-124zM587 227h-56v453h56v-453zM588 0h-57v124h57v-124z" />
    <glyph glyph-name="fraction" unicode="&#x2044;" horiz-adv-x="174" 
d="M287 680l-353 -680h-48l354 680h47z" />
    <glyph glyph-name="uni2047" unicode="&#x2047;" horiz-adv-x="927" 
d="M425 517q0 -98 -15 -126.5t-79 -48.5l-73 -22v-93h-55v129l115 34q38 11 45.5 31.5t7.5 95.5q0 32 -2 53t-11.5 35t-17 21.5t-30 11t-38.5 4t-54 0.5q-46 0 -88.5 -3t-62.5 -6l-20 -3v41q74 21 190 21q49 0 78 -4.5t57 -21.5t40.5 -53.5t12.5 -95.5zM259 0h-56v124h56
v-124zM878 517q0 -98 -15 -126.5t-79 -48.5l-73 -22v-93h-55v129l115 34q38 11 45.5 31.5t7.5 95.5q0 32 -2 53t-11.5 35t-17 21.5t-30 11t-38.5 4t-54 0.5q-46 0 -88.5 -3t-62.5 -6l-20 -3v41q74 21 190 21q49 0 78 -4.5t57 -21.5t40.5 -53.5t12.5 -95.5zM712 0h-56v124h56
v-124z" />
    <glyph glyph-name="uni2048" unicode="&#x2048;" horiz-adv-x="666" 
d="M425 517q0 -98 -15 -126.5t-79 -48.5l-73 -22v-93h-55v129l115 34q38 11 45.5 31.5t7.5 95.5q0 32 -2 53t-11.5 35t-17 21.5t-30 11t-38.5 4t-54 0.5q-46 0 -88.5 -3t-62.5 -6l-20 -3v41q74 21 190 21q49 0 78 -4.5t57 -21.5t40.5 -53.5t12.5 -95.5zM259 0h-56v124h56
v-124zM587 227h-56v453h56v-453zM588 0h-57v124h57v-124z" />
    <glyph glyph-name="uni2049" unicode="&#x2049;" horiz-adv-x="666" 
d="M134 227h-56v453h56v-453zM135 0h-57v124h57v-124zM617 517q0 -98 -15 -126.5t-79 -48.5l-73 -22v-93h-55v129l115 34q38 11 45.5 31.5t7.5 95.5q0 32 -2 53t-11.5 35t-17 21.5t-30 11t-38.5 4t-54 0.5q-46 0 -88.5 -3t-62.5 -6l-20 -3v41q74 21 190 21q49 0 78 -4.5
t57 -21.5t40.5 -53.5t12.5 -95.5zM451 0h-56v124h56v-124z" />
    <glyph glyph-name="zero.superior" unicode="&#x2070;" horiz-adv-x="356" 
d="M320 631q0 -52 -1.5 -82.5t-7 -57t-14 -38.5t-26 -21t-38.5 -11t-56 -2t-55 2t-37.5 11t-25.5 20.5t-14 38.5t-7 57t-1 83q0 64 3.5 101t10.5 64t24.5 38t39.5 15.5t62 4.5q51 0 76 -5.5t42 -31t21 -66t4 -120.5zM275 630v4v59.5t-2.5 44t-4 32t-8.5 20.5t-11 13.5
t-17 6.5t-22 3h-30h-4h-30t-22 -3t-17.5 -6t-11 -13.5t-8 -21t-4 -32.5t-2.5 -44v-59v-4v-56.5t2 -41t3 -31t8 -19.5t11 -13.5t17.5 -5.5t22.5 -3h31h4h31t22.5 3t17.5 5.5t11 13.5t8 19.5t3 31t2 41v56.5z" />
    <glyph glyph-name="i.superior" unicode="&#x2071;" horiz-adv-x="121" 
d="M82 425h-43v312h43v-312zM82 791h-43v84h43v-84z" />
    <glyph glyph-name="four.superior" unicode="&#x2074;" horiz-adv-x="356" 
d="M328 558h-58v-133h-43v133h-198v38l187 251h54v-247h58v-42zM227 600v195l-147 -195h147z" />
    <glyph glyph-name="five.superior" unicode="&#x2075;" horiz-adv-x="356" 
d="M307 554q0 -48 -6 -75t-24 -40.5t-38.5 -16.5t-61.5 -3q-34 0 -66 3.5t-47 7.5l-15 3v35q50 -9 117 -9q38 0 52 1t27 11t15 27.5t2 55.5q0 47 -10 56.5t-50 9.5h-149v227h228v-41h-184v-146h105q30 0 44 -2t31 -11t23.5 -32t6.5 -61z" />
    <glyph glyph-name="six.superior" unicode="&#x2076;" horiz-adv-x="356" 
d="M320 554q0 -47 -8.5 -75t-30 -40.5t-43 -16t-61.5 -3.5q-35 0 -55 2t-37.5 11t-25.5 20.5t-14 38.5t-7 57t-1 83q0 104 10.5 149t35 59.5t82.5 14.5q34 0 66.5 -3.5t47.5 -6.5l15 -4v-35q-47 9 -117 9q-37 0 -50.5 -1.5t-27 -15.5t-16 -40.5t-2.5 -80.5q34 4 96 4
q49 0 72.5 -3t42 -16t23.5 -37.5t5 -69.5zM275 554q0 63 -14 74.5t-84 11.5l-96 -4v-5v-57t2 -42t3 -31.5t8 -19.5t11 -13.5t17.5 -5.5t23 -3h31.5q24 0 34 0.5t24.5 3t19.5 8t11 16.5t7.5 27t1.5 40z" />
    <glyph glyph-name="seven.superior" unicode="&#x2077;" horiz-adv-x="356" 
d="M309 809l-163 -384h-49l163 380h-214v42h263v-38z" />
    <glyph glyph-name="eight.superior" unicode="&#x2078;" horiz-adv-x="356" 
d="M320 546q0 -44 -9 -70.5t-30.5 -38.5t-43 -15t-60.5 -3q-38 0 -59 3t-42 15t-30 38.5t-9 70.5q0 26 4 45.5t9.5 28.5t10.5 14t9 6h4v1q-1 0 -3.5 0.5t-8.5 5t-10.5 12.5t-8.5 26t-4 42q0 44 9 70.5t30 38.5t41.5 15t57.5 3q38 0 59 -3t42 -15t30 -38.5t9 -70.5
q0 -24 -3.5 -42t-9 -26t-11 -12.5t-9.5 -4.5l-3 -1v-1q2 0 4.5 -0.5t9 -5.5t12 -14t9.5 -28.5t4 -45.5zM273 727q0 32 -5 50t-20 26t-28 9.5t-43 1.5t-42.5 -1.5t-27.5 -9.5t-19.5 -26t-4.5 -50q0 -48 17.5 -58t76.5 -10q61 0 78.5 10t17.5 58zM275 546q0 53 -18 64t-80 11
q-61 0 -78.5 -11t-17.5 -64q0 -33 4 -50.5t18.5 -25.5t27.5 -9.5t46 -1.5t47 1.5t28.5 9.5t18.5 25.5t4 50.5z" />
    <glyph glyph-name="nine.superior" unicode="&#x2079;" horiz-adv-x="356" 
d="M320 631q0 -62 -3 -96.5t-9.5 -60.5t-22.5 -36.5t-36.5 -14.5t-58.5 -4q-34 0 -66 3.5t-48 7.5l-15 3v35q51 -9 117 -9q27 0 37 0.5t25 4.5t19 11t9.5 24t6 38.5t0.5 58.5q-33 -3 -98 -3q-48 0 -71 3t-41 16t-23 37t-5 70q0 47 8.5 75t29 40.5t42 16t60.5 3.5
q51 0 76 -5.5t42 -31t21 -66t4 -120.5zM275 636q0 36 -0.5 58.5t-3 43.5t-4 32t-8.5 21t-11.5 13.5t-18 6.5t-22.5 3h-30q-61 0 -78.5 -14t-17.5 -81q0 -63 14 -75t82 -12z" />
    <glyph glyph-name="plus.superior" unicode="&#x207a;" horiz-adv-x="329" 
d="M300 589h-115v-136h-41v136h-115v41h115v135h41v-135h115v-41z" />
    <glyph glyph-name="minus.superior" unicode="&#x207b;" horiz-adv-x="329" 
d="M300 589h-271v41h271v-41z" />
    <glyph glyph-name="equal.superior" unicode="&#x207c;" horiz-adv-x="329" 
d="M300 639h-271v41h271v-41zM300 538h-271v41h271v-41z" />
    </font>
</defs>
</svg>
