<?xml version="1.0" encoding="utf-8"?>
<!-- Generator: Adobe Illustrator 21.0.0, SVG Export Plug-In . SVG Version: 6.00 Build 0)  -->
<svg version="1.1" xmlns="http://www.w3.org/2000/svg" xmlns:xlink="http://www.w3.org/1999/xlink" x="0px" y="0px"
	 viewBox="0 0 1417.3 3230" style="enable-background:new 0 0 1417.3 3230;" xml:space="preserve">
<style type="text/css">
	.st0{fill:url(#SVGID_1_);}
</style>
<g id="Слой_2">
</g>
<g id="Слой_1">
	<linearGradient id="SVGID_1_" gradientUnits="userSpaceOnUse" x1="713.3666" y1="67.9915" x2="713.3666" y2="3180">
		<stop  offset="2.702703e-03" style="stop-color:#FFFFFF;stop-opacity:0"/>
		<stop  offset="0.1243" style="stop-color:#FFFFFF"/>
		<stop  offset="1" style="stop-color:#FFFFFF;stop-opacity:0.1"/>
	</linearGradient>
	<path class="st0" d="M1169.7,756.1c2.7,10.5,5.6,20.8,9.3,30.7c3.5,9.2,4.7,18.9,6.8,28.4c5.3,23.1,1.3,46.2,3,69.2
		c1.2,17.2-3.7,33.9-4.1,51.1c-0.3,14.2-3.1,29-6.3,43.1c-5.4,23.8-11,47.6-18.1,71c-5.6,18.4-11.4,36.8-17.6,55.1
		c-5.5,16.3-11.6,32.3-17.9,48.3c-4.1,10.4-7.2,21-11,31.5c-3.3,9-7.3,17.8-10.3,26.9c-3.1,9.1-5.8,18.3-8.7,27.5
		c-1.2,3.8-2.3,7.7-4,13.4c7.8,19.7,17.3,40.9,23.3,63.5c3,11.3,6.1,22.6,8.8,34c1.5,6.5,4.7,12.6,3.9,19.9
		c-0.6,5.9,2.3,12.1,2.8,18.3c0.6,7.1,0,14.2,0.2,21.3c0.1,3.6,1.1,7.1,1.9,10.6c1.7,6.8,0.1,14.5-0.4,21.8c-0.2,2.5-1.6,5-1.5,7.5
		c0.4,16.4-0.5,32.6-6.6,48.1c2.3,7.7-2.7,14.3-3.6,21.6c-0.7,6.4-4,12.5-6.3,18.6c-3.2,8.5-6.4,17-9.8,25.4c-2.9,7-6,13.9-9.3,21.4
		c9.5,19.9,19.2,40.4,29.1,60.6c2.9,5.9,6.2,11.7,9.9,17.2c4,6.1,9.1,11.5,12.9,17.6c3.4,5.4,6.4,10.3,11.3,14.9
		c9.1,8.5,15.6,19.6,23.6,29.3c9.5,11.4,22.5,18.6,35.1,26c1.8,1.1,3.3,2.7,5.1,4.3c0,3.5,0,7.2,0,11.4c-1.6,0.2-3.2,0.8-4.6,0.6
		c-5.8-0.9-10.6-3.9-14.7-8.1c-13.5-13.6-28-26.3-40.3-40.8c-15.1-17.7-29-36.6-40.7-56.8c-7.8-13.6-15-27.6-22-41.7
		c-3.6-7.2-6.3-14.8-10.1-23.9c-17.9,30.6-37.8,58.6-60.5,84.7c-1.8,5.7,3.3,8.2,5.6,12.3c9.4,16.8,18.4,33.8,27,51.1
		c6.8,13.6,14.1,26.8,17.4,42c1.7,8,4,15.9,6,23.8c3.2,12.2,2.5,24.2,3.1,36.4c0.2,4,2.5,7.8,3,11.8c0.5,4.3,0.5,8.8,0,13.1
		c-0.8,8.3-2.2,16.6-3.2,24.9c-1,8.3,1.8,16.8-3,25c-1.9,3.3,0.1,8.6-0.4,12.9c-0.4,3.5-2.9,6.7-3,10.1c-0.4,11-4.2,21.3-7.4,31.5
		c-3,9.6-5.1,19.6-8.9,29c-3.7,9.3-7.7,18.7-10.5,28.5c-2.6,9-9,17-13.8,25.7c-2.4,0-5,0-7.5,0c-0.4-1.1-0.9-2-1.2-3
		c-1.3-5.3,2.3-9.6,4.9-12.6c12.6-14.3,18.2-31.6,24.8-48.9c7-18.1,9.5-37.4,15.7-55.7c3.6-10.7,2.5-23,3.8-34.5
		c0.9-8.9,2.6-17.6,3.1-26.5c0.5-8.7,0.8-17.5,0-26.2c-1.7-16.6-2.9-33.5-6.8-49.7c-3.6-15.1-9.5-29.8-15.6-44.3
		c-5.2-12.2-12.1-23.4-18-35.1c-5.9-11.7-13.6-22.6-20.9-34.4c-19.7,18.1-38.7,36.3-58.6,53.4c-19.4,16.7-39.9,32.3-60.8,49.1
		c2,7.1,6.4,13.9,12.2,20c9.9,10.3,20.8,19.3,33.2,26.7c17.6,10.5,29.7,25.9,37,45c4.3,11.4,8.3,22.8,10.6,35.1
		c1.8,9.5-0.2,19.8,3.2,28c4,9.3,1.9,17.9,2.5,26.8c1.5,21.7-7.5,41.5-13.3,61.7c-1.7,6-6.9,11-9.9,17.1
		c-3.6,7.4-10.4,13.2-15.6,19.5c3.3,8,6.9,15.8,9.8,23.8c5.4,14.7,15.6,27.7,16,44.2c6.8,10.6,6.9,23.5,11.2,34.7
		c2.7,7-1.7,15.3,5.1,20.8c2.7,19,6,72.8,2.9,92c-3.2,19.5-7.9,38.7-15.6,57.4c-7.7,18.7-19,34.8-29.1,52
		c-10.2,17.3-22.9,32.2-33.4,46.3c-5.4,1.6-8.7,2.6-13.3,4c-1.2-2.7-2.8-6.4-4.4-10c9-8.9,16.9-17.2,25.4-24.9
		c13.3-12.2,22.1-27.6,31.7-42.6c10-15.6,14.9-33.2,21.6-50.1c2.1-5.2,2.9-11,3.9-16.3c2.6-13.5,5.4-27.1,3.9-41.2
		c-0.7-6.5-0.3-13.1-0.1-19.7c0.5-16.9-3.2-33.2-6.1-49.8c-3.8-21.8-9.5-42.9-16.9-63.6c-5.1-14.3-10.9-28.3-18-41.7
		c-0.9-1.8-1.6-3.7-2.8-6.8c-21.7,18.8-45.4,34.5-68.4,50.9c-15.3,10.9-28.8,23.3-41.7,35.9c3.3,11.7,6.4,23,9.5,34.2
		c1.9,6.9,2.9,14.1,5.7,20.6c2.9,6.9-2.7,15.3,4.1,21.3c0.5,0.5,0,2.1,0.1,3.2c1.1,11,2.6,22,3.1,33.1c0.5,11.4,0.1,22.9,0.1,34.4
		c0,8.7-0.2,17.5,0,26.2c0.5,17.5-1.3,34.6-6.4,51.4c-1.6,5.3-0.4,11.1-3.1,16.8c-2.2,4.8-2,11-3.2,16.6
		c-3.7,17-10.5,32.9-15.6,49.4c-10,32.1-27.5,60.8-41.9,90.8c-8.6,17.8-18.9,34.8-28.2,51.6c5,9.5,10.2,18.2,14.4,27.5
		c4.2,9.2,8.7,18.2,12.5,27.6c5.4,13.5,12.2,26.6,16.7,40.6c2.4,7.7,6.4,14.9,8.7,22.6c2.2,7.3,3.1,14.9,6.1,22.1
		c3.2,7.5,3.7,15.7,6.6,23.5c3,8.1,2.5,17.5,3.8,26.3c0.8,5.6,2.4,11.1,3.2,16.7c0.8,5.6-1.2,11.5,3.1,16.9c1.6,2,0.3,6.3,0.3,9.6
		c0,27.9-0.3,55.7,0.2,83.6c0.1,6.6-2.4,12.2-3.5,18.3c-1.1,6.1,1.1,12.1-2.5,18.7c-3.4,6.4-1,15.1-3.7,23
		c-4.2,12.5-6.4,25.5-11.6,37.8c-4.5,10.6-6.6,22.2-11.6,32.9c-7,15.1-11.8,31.1-21,45.5c-6.4,10.1-9.7,22.2-15.4,32.9
		c-7.6,14.2-15.5,28.3-28.8,40.2c-3.2-1.3-6.9-2.9-11.3-4.7c2.1-4.7,3-8.9,5.4-11.9c6.2-7.9,12.8-15.6,19.6-23
		c13.8-14.9,26.6-30.4,31.6-50.9c9.6-11.7,13.4-26.2,19-39.7c5.8-14,10.7-28.6,13.6-43.5c2-10.6,7.2-20.6,6.8-31.7
		c4.8-4.2,2.7-9.9,3.3-15c0.9-7.8,2.6-15.5,3.1-23.2c0.5-7.6-2.1-16.2,0.6-22.8c5.2-12.8,3.7-25.9,2.2-38.1
		c-1.8-13.8-0.4-27.9-3.1-41.3c-5-24.6-8.6-49.4-15.1-73.8c-6.2-23.2-13.9-45.8-21.5-68.3c-7.5-22.3-20.2-42.9-30.6-64.3
		c-0.9-1.8-1.5-3.7-3.1-7.5c-1.9,4.3-3.5,7.2-4.6,10.2c-3.6,9.7-7.2,19.2-6.9,30.1c0.2,6.3-7.6,11.1-6.3,18.6
		c-9.1,8.5-5.8,19.6-6.6,29.1c11.4,6.8,19.7,15.4,25.6,25.8c2.6,18.8,3.8,37.5,10.8,55c2.5,6.2,3.4,12,2.7,18.2
		c-1.6,1.6-3.1,3.2-4.6,4.8c-17.5-4.8-35.4-8.8-44.4-27.5c-5.6-11.7-12.1-23-18-34.3c-5.8,11.9-7.1,25.3-11.2,37.9
		c-3.4,10.8-6.1,65.9-3.1,75.5c2.5,7.9,2,15.6,3.1,23.3c1,6.9,4.2,13.5,6.3,20.3c2.3,7.3,4.1,14.7,6.6,21.8
		c4.4,12.6,11.6,23.8,18.9,34.8c6.4,9.6,13.2,18.8,24,24.3c2.9,1.5,4.7,5.3,8.2,9.6c-4.3,0.7-6.7,1.1-9.5,1.5
		c-26.9-23.5-44.1-53.4-53.9-87c-3.8-13.1-7-26.9-8.3-41.2c-1.1-12.7-2.5-25.3-2.4-38c0.1-8-0.9-16.7,1.8-23.8
		c2.9-7.6-2.3-16.4,4.7-22.6c-0.5-14.8,6.9-27.8,10-41.8c0.2-0.9,1.5-1.6,2.6-2.7c-10.7-23.3-32-37.6-47.5-55.3
		c-2.8-8.2-4.4-15.8-8-22.4c-2.8-5.1-2.9-10-3-15.2c0-6.6-0.1-13.1,0-19.7c0.1-6.3,1.2-12.2,2.9-18.4c6.3-23.7,17.5-45.3,26.5-67.8
		c6.4-16,11.5-32.4,16.3-49c1.2-4.1-0.2-9.5-1.8-13.8c-8.8-23.5-21.9-44.7-35.5-65.7c-7.6-11.8-12.2-25.5-18.1-38.3
		c-4.2-9.2-7.7-18.6-10.4-28.5c-3.5-12.8-7.1-25.5-9.6-38.6c-1.6-8.3-1.2-17.2-3.6-24.7c-2.7-8.6-2.3-16.7-2.6-25.1
		c-0.3-8.7-0.1-17.5-0.1-26.2c0-7.6-2.5-16.6,0.6-22.6c3.8-7.2,1-13.8,2.7-20.3c1.8-6.8,5.5-13.4,6.2-20.3c2-18.2,10-34.3,18.5-49.7
		c9.5-17.3,18.3-35.1,27.6-52.5c4.8-9,10.2-17.6,14.8-26.7c3.2-6.3,5.3-13.1,8.1-19.6c3-7,7-13.6,9.1-20.8c2-6.9,4.5-13.5,6.7-20.2
		c3.1-9.3,3-19.7,3.7-29.6c0.5-7.1-0.4-14.2,0.2-21.3c1.9-21.9-4.3-42.2-11.8-62.4c-7.3-19.7-17.7-37.6-28.6-55.5
		c-8.4-13.8-19.3-25.5-27.3-39.4c-2.1-3.7-6-6.3-9.9-10.2c-2.7,9.3,0.4,17.3,1.7,25.8c1.4,9.1,0.3,18.5,0.3,26.9
		c-6,20.4-28.3,20.9-40,35.5c7.3,8.1,14.8,16.4,22.7,25.2c7.5,15,4.6,30.5-2.5,45.5c-6.8,14.5-13.6,29.2-28.9,36.5
		c5.8,10.6,6.5,22.9,8.5,34c2,11.2,3.4,22.9,4.1,34.5c-8.2,10.5,1.5,24.4-6.6,35c0.8,11.7-4.8,22.1-6.9,33.3
		c3.4,2.6,6.7,4.9,9.9,7.3c2.8,2.2,5.6,4.4,9.7,7.7c2.5,5,5.9,11.8,10,20c-0.1-0.6,0.1,0.4,0.2,1.5c1.8,18.2-2.1,35.1-11,51.2
		c-5.1,9.2-9.2,19.2-12.8,29.1c-5.2,14.3-7.8,28.5-3.8,44.3c3.2,12.4,5.8,24.7,10.7,36.6c1.7,4.1,0.3,9.4,0.3,14.5
		c-2.9,0.2-5,0.3-7.9,0.4c-16.1-16.4-34-31.7-46.1-55.1c-3.4,7.6-6.2,12.9-8.1,18.5c-6.3,18.7-12.6,37.5-18.2,56.4
		c-4.3,14.1-7.7,28.5-11.3,42.9c-3.4,13.6-4.5,27.8-7.3,41.4c-4.4,21.6-3.5,43.2-1.8,64.3c1.6,20.5,7.8,40.9,16.4,60.2
		c5.6,12.5,10.7,25.1,18.8,36.5c11.6,16.4,23.4,32.2,43.5,41.4c-1.1,3.6-2.3,7.3-3.6,11.3c-2.1-0.8-2.8-1.2-3.6-1.5
		c-7.4-2.6-12.8-8.1-17-14c-13.7-19.3-28.1-38-38.9-59.2c-7.9-15.5-11.9-32.3-16.3-49c-6-22.8-8.8-46.1-6.2-69.4
		c2.5-22.5,5-45,11.7-67.1c4.8-16,8.3-32.6,13.4-48.6c5.8-18.3,12.4-36.4,18.4-54.6c2.1-6.3,3.6-12.7,5.6-19.8
		c-7.8-13.4-11.3-28.4-10-44c6.2-11.5,12.3-22.7,19.6-36.2c0-2.5,0-7.9,0-11.3c-6.1-18.3-19.9-28.1-31.3-39.9
		c-10.2-10.7-22.3-19.8-27.7-36.5c0-3.4,0-8.8,0-11.2c3.3-12.2,10.3-19.1,13.7-28.5c2.7-7.6,1.5-14.6,2.6-21.8
		c-7-9-0.1-20.7-6.2-30.3c-1.7-2.7,0.5-8.1,1.1-12.3c0.4-3,1.8-6.1,1.7-9.1c-0.6-14.7,5.6-27,13.4-38.7c5.2-7.8,10.8-15.2,15.2-21.4
		c5-19.5-4.9-34.8-9.4-51.2c-0.1-0.5-0.9-0.7-1.1-1.2c-1.3-3.8-2.4-23.7-1.6-27.8c0.8-4-1.5-8.4,2.2-12.3c2.3-2.5,3-6.3,4.8-10.3
		c-1.3-3.3-2-7.6-4.4-10.7c-10.5-14.1-16.1-30.3-22.7-46.4c-6.4-15.6-9.3-32.1-15.4-47.7c-0.4-0.9-0.6-2-0.5-3.1
		c0.9-15.5-5-30.5-3.6-46.2c1.2-13,0.2-26.2,0.2-39c-18-24-35.8-47.7-54.4-72.5c-1.7,7.1-1.4,14.7-5,18.6c-5,5.2-0.5,11.4-4.9,16.4
		c-4,4.6,1.5,12.8-4.5,17.7c2.2,11.3-3.4,21.9-3.3,33.1c0.1,13.7-0.3,27.3,0.2,41c0.3,7.2,2.5,14.4,3,21.6
		c0.5,7.1-2.6,16.1,0.8,20.9c4.8,6.8-0.5,14.7,5.5,21.1c3.2,3.4-1.9,11.6,3.7,16.3c-0.7,19.1,10.5,35.1,14.2,53.1
		c2.5,12,6.1,23.7,8.6,35.7c1.7,8.2,5.9,16.4,3.2,24.8c-2.7,8,6.5,13.9,2,22.7c-3.1,6.1-1.4,14.7-1.8,22.2
		c-0.4,7.5,1.4,16.1-1.6,22.2c-3.2,6.5,2.2,14.5-4.9,19.3c-0.2,17.9-7.4,33.8-13,50.3c-7.1,20.8-16.2,40.3-27.6,59.1
		c-8,13.2-16,26.3-25,38.8c-5.2,7.2-10,14.7-15.9,21.2c-10.1,11.1-20.8,21.6-30.3,33.3c-6.9,8.5-16.4,14.8-25.8,22.9
		c-3.7-2.1-7.1-4.1-10.8-6.2c3.5-4.7,2.1-11.6,9.3-11.9c10.2-10.9,21.5-20.3,34.4-27.8c14.5-21,34.3-37.7,46.3-61.1
		c7.1-13.9,16.7-26.8,23.3-41.2c9.3-20.3,17.2-41,22.5-62.9c1.5-6.2,0.5-13.3,3.4-18.1c3.7-5.9,1.2-11.6,2.8-17
		c6.9-24.5,2.4-49.4,2.7-74.1c0.2-11.5-3.7-23.3-7.2-34.5c-9.1-29.5-18.2-59.1-28.6-88.1c-7-19.5-13.7-39.1-20.2-58.8
		c-3.5-10.7-5.8-21.6-8.7-32.4c-5.8-21.5-8.5-43.7-6.8-66c0.8-10.8,3.8-21.3,5.6-32c1.9-11.2,5.4-22,7.1-33.1
		c1.3-8.3,3.9-16.2,7.3-23.2c4.9-9.9,2-18.6-1.4-26.6c-9.7-22.5-17.4-45.5-22.1-69.6c-1.2-5.9-3.1-11.8-5.6-17.3
		c-2.9-6.5,0.9-13.3-2.9-20.2c-2.8-5.1-0.1-12.8-1.4-19c-6.6-29.5-1.7-59.2-2.9-88.8c-0.3-6.6,2.3-13.3,3-20
		c0.7-6.2,1.5-12.3,2.7-18.4c2-10.1,4.6-20,7-30c5.5-22.8,12.6-44.9,23.4-66.1c-3.3-8.8-5.6-18.5-10.5-26.6
		c-5.4-9-7.9-18.7-10.9-28.3c-3.1-9.7-7-19-8.9-29.2c-2.2-11.8-9.1-22.7-9.9-35.1c-4.6-3.1-2-7.9-2.8-11.9c-0.8-4-3.2-7.9-3-11.8
		c0.4-11.2-6-21.7-3.5-33.1c-6.3-11.1-2.7-23.1-3.1-34.7c-1-24.8,6.6-48.1,13.2-71.5c1.8-6.2,5.9-12,10.1-17
		c7.6-9.2,16-17.6,24.5-27c-9.5-5.9-20.1-12.5-32.7-20.3c-14.5,1.2-25.9,12.5-34.4,24.8c-12.7,18.4-20.5,39.4-24.1,62.2
		c-1.7,10.6,0,21.8-3.3,31.3c-3.4,9.8-3.9,19.5-2.1,28.3c3.5,17.2,2,35.1,8.9,51.9c3.3,7.9,2,17.6,3.9,26.3
		c1.8,8.5,2.1,17.3,5.7,25.5c2.4,5.6,1.5,12,3.4,18.2c3.3,10.9,4.2,23,3.5,34.5c-0.8,13.6,4.3,26.3,3.5,39.6
		c-0.5,8.9-2.5,17.7-3,26.5c-0.5,8.7,1.5,17.9-0.4,26.1c-4.3,18.4-4.9,37.6-12.2,55.5c-3.5,8.6,0.1,18.6,3.9,27.4
		c9,21,14.5,43.2,21.1,64.9c3.9,13,6.9,27.1,7.6,41.3c0.4,7.6,2.1,15.5,3.3,23.2c1.2,7.8,3.1,15.3,2.9,23.3
		c-0.2,8.2-0.1,16.4-0.1,24.6c0,8.2,0.3,16.4-0.1,24.6c-1.5,30.7-7.5,60.5-17.3,89.5c-2.9,8.6-7.3,16.6-11.5,24.7
		c-4.2,8.1-6,17.1-11.3,24.9c-4.9,7-8.2,15.1-12.2,22.8c-4.2,8.1-8.5,16.1-12.3,24.4c-3.9,8.7-6,18.5-11,26.5
		c-5.4,8.6-6.3,18.4-8.9,27.5c-2.9,10.1-0.3,21.7-0.7,32.6c-0.9,21.1,5.4,39.7,17.8,56.6c4,5.4,7.2,11.6,4.4,19.3
		c-2.4,0-4.9,0-7.5,0c-3.4-5.4-8.3-10.6-10.1-16.7c-2.2-7.3-5.2-14.4-7.3-21.5c-3.9-13.3-6.9-27.6-6.7-41.4
		c0.5-30.1,9.3-58.6,22.7-85.5c12.4-24.9,26.3-49.2,37.9-74.5c7.7-17,14.4-34.6,17.9-53.3c2.6-13.8,4.7-27.7,7-41.5
		c2.7-15.6,2.1-30.9,2.4-46.3c0.2-10,0.8-19.8-2.7-29.9c-3.1-8.7,2.5-19.2-3.7-28c1.3-19.1-7.5-36.4-10.8-54.7
		c-3.1-17.3-10-34-15.5-50.8c-1.1-3.3-3.2-6.3-4.7-9.1c-8.2,17.1-16,34.7-24.9,51.7c-9.4,17.9-20,35.1-34.3,49.8
		c-4.3,4.5-11.1,7.3-11.7,14.8c-7.6,0.8-8.6,8.2-12.6,12.5c-11.7,12.4-24.8,23-38.9,32.6c-1.8,1.2-3.1,3-5.1,5.1c-4.3,0-9,0-14.9,0
		c-0.1-2.2-0.2-4.7-0.5-8.9c8.5-5.4,18-10.6,26.7-17c19.8-14.5,38-30.6,52.7-50.7c6.4-8.8,13.6-17,19.8-26.2
		c13.1-19.2,21.6-40.2,28.9-61.9c1.8-5.4,4.1-10.6,3.5-16.7c-0.3-2.7,2-5.6,2.9-8c-6.9-20.5-16.5-39.5-23-59.7
		c-2.9-9.1-8.2-17.4-11.7-26.3c-10.3-26.3-22-52.3-29.6-79.4c-5.6-20.1-12.1-40.2-14.9-61.3c-2.2-16.6-6.3-32.9-6-49.8
		c0.1-4.5,1.2-9.1-2.5-13.8c-2.1-2.7-2.3-9.5-0.3-12.4c3.4-5.1,2.7-10.1,2.9-15.3c0.7-28.8,8.8-55.6,20.7-81.6
		c9-19.5,22.2-36.1,34.9-53.1c0,0.1,0.3,0.3,0.5,0.5c0.9-0.8,1.8-1.5,2.7-2.3c-0.3-0.3-0.7-0.7-1-1c-0.8,0.9-1.5,1.8-2.1,2.8
		c-8.3,2.5-16.5,5.2-22.9,11.7c-9.2,9.4-19.8,17.6-27.5,28.1c-13.5,18.5-28.4,36.3-34.9,59.2c-2.5,8.6-8.3,16-10.7,25
		c-3.2,11.9-6.7,23.6-8.5,35.7c-1.1,7.2-4.8,13.8-3.6,21.6c2.5,16.4,6.4,32,15.8,45.9c6.9,10.2,14.1,20.3,20.3,30.9
		c7.5,12.8,7.7,27.2,6.4,41.4c-0.3,3.6-4,7.1-6.4,10.3c-4.1,5.5-9,10.4-12.6,16.1c-9.4,14.8-8.8,30.7-2.9,46.3
		c1.4,3.6,1.9,6.8,2.6,10.4c2,10.6,4.8,21.4,5.6,31.9c1.7,21.3,4.4,43.2-8.6,63.2c-4.4,6.8-10.4,11.2-15.9,16.8
		c0.2-5.9,2.3-10.7,6.3-14.8c8.7-9,13.6-19.5,12.7-32.5c-0.6-8.7,0.3-17.5-0.2-26.2c-0.7-10.8-4.7-21.4-5.3-32
		c-0.8-14.3-9.7-26.6-7.9-41.3c1.5-12.3,4.5-23.4,13.9-32c6.7-6.1,11.2-13,13.3-22.5c1.5-6.8-0.8-12.8-1.4-18.7
		c-0.7-7.1-5.5-14-9.4-20.5c-7.2-11.8-16-22.6-21.8-35.2c-4.6-9.9-8.8-19.9-7.5-31.3c0.3-2.7,0.3-5.5,0-8.2
		c-2.3-21.4,4.8-41.1,11.1-61c9.4-29.4,24.6-55.8,42.1-80.8c6.7-9.5,16.8-16.6,25.8-24.4c6.1-5.3,12.9-9.9,21.7-16.5
		c-21.6,0-40.5,0-59.5,0c-9.4,0-35.3-7.9-45.6-12.5c-17.2-7.7-31.6-33.3-22.6-54.1c2.2-5,2.7-11.3-1.7-16.6
		c-1.1-1.3-0.6-4.1-0.9-7.3c-9.7-7.7-17.5-18.4-28.9-26.2c-13.1-9-19.4-23.4-23.7-39.1c-2.9-10.7-3.8-21.2-2.6-31.5
		c2.8-23.5,7.6-46.6,26.4-67.5c-1.2,6.1-1.2,9.5-2.5,12.5c-5.8,13.5-12.5,26.3-15.4,41.2c-4.1,20.9-3.1,46.5,7.8,63.6
		c4.6,7.1,10.5,14.6,17.6,18.6c8.9,5,14.2,13,21.5,19.1c5.2,4.3,6.7,10.3,6.6,16.9c-0.2,13.7-0.1,27.3-0.1,41
		c0.5,0.9,1.3,1.7,1.6,2.6c5,15.8,18.7,22.3,32,28.3c6.8,3.1,15.1,4.1,22.7,4.3c19.6,0.6,39.3,0.2,59,0.1c0.9,0,1.8-1,2.4-1.4
		c-17.4-9.2-31.7-21.5-40-40.2c-2-4.6-5.5-9-9.2-12.5c-9.7-9.1-18.8-18.9-29.4-27.3c-10-7.8-16.8-19.3-16.5-33.9
		c0.2-10.4-3.3-20.7-3.3-31.4c0-10.1-4.1-20.1-5.7-30.1c-2.1-13-5.1-26-4.1-39.5c1.3-16.2,0-32.3,6.3-48.3c3.9-9.9,1.7-22.1,4-32.8
		c3.7-17.2,0.7-35.6,9.6-51.7c-0.5-12.5,5.4-22.1,14-30.2c8.4-7.9,16.3-15.7,27.1-21.4c17.1-9.1,33.5-20,49.3-31.6
		c22.6-16.5,41.2-37.2,62-55.5c28.1-24.6,53.5-52,80.6-77.6c16.6-15.7,34.8-29.9,55-40.6c14.2-7.5,29.1-14.2,45.4-16.9
		c8.5-1.4,16.5-5,25-7c7.8-1.9,17,0.4,23.7-5.9c22.1,0.2,42-10.1,63.3-13.5c11.9-1.9,23.4-6.5,35.1-10c12.8-3.8,25.9-6.2,38.6-9.8
		c29.5-8.5,59.4-5.5,89.2-5.9c10.8-0.1,21.3,4,32,5.4c11.9,1.6,23.3,4.5,34.6,7.7c20.1,5.7,41.5,6.5,60.6,15.8
		c15.8,0.2,29.5,8.4,43.3,14.1c14.4,5.9,28.8,13.4,40.8,24.2c4.3,3.9,9.1,7.3,13.3,11.4c4.3,4.3,7.9,9.4,12.1,13.9
		c4.1,4.4,9,8.1,12.6,12.9c12.2,16,23.5,32.6,34.2,49.7c15.5,24.7,29.5,50.6,47.2,73.9c15.1,19.8,33.8,36.1,53.8,51.1
		c32.1,24.1,63.6,49.3,89.6,80c16.2,19.1,32.7,38.6,38.7,64.2c9.6,14.2,9.2,31.2,13.6,46.9c4.5,16.1,2.5,32,2.5,47.9
		c0,10.6-4,21.2-6.6,31.6c-3.5,14.1-7.9,28.2-15.7,41c-10.6,17.4-20.3,35.6-36.2,48.8c-11.9,9.8-23.5,20.3-38.4,25.7
		c-3.6,1.3-7.1,2.9-11.9,4.8c5.4,0.8,10.1,0.4,13.4,2.3c5.1,3,8.2,1.7,12.8-0.9c3.3-1.8,8.5-0.4,12.4-0.4
		c11.5-7.6,20.2-16.8,28.5-27.5c11.1-14.5,24.8-26.9,45.3-28.8c5-0.5,11.1-1.7,16.2-4c6.4-3,14.2-3.2,19.1-9.2
		c7.2-8.8,13.8-18.3,17-29c3.6-12.3,7.1-24.9,6.9-38.2c-0.2-17.5-0.2-35,0-52.4c0.1-9.1-1.1-17.7-6.4-25.3
		c-3.6-5.1-2.5-11.8-6.8-16.9c-11.3-13.7-19.3-29.9-32.6-42.2c-7.2-6.7-14-13.8-20.9-20.9c-1.4-1.4-2.1-3.4-3.3-5.5
		c2.2-0.9,3.6-1.4,6.4-2.5c16.2,18.8,33.8,36.8,48.4,57c13.6,18.8,22.9,40.2,21.6,64.7c-0.5,10.9-0.5,21.9,0,32.8
		c0.7,17-2.4,33.9-7.3,49.5c-7.4,23.3-21.6,42.2-49.1,46.2c-15.4,2.3-29.6,7.6-41.3,19.5c-4.9,5-9.6,10.3-14.2,15.5
		c-6.8,7.6-13.6,14.9-22.9,19.4c-1.8,0.9-3,3.1-4.8,5.1c-12.4,0-24.8,0-40,0c5.7,3.5,9.2,5.3,12.3,7.6c20.2,15.2,38.5,32.4,53,53.1
		c13.1,18.6,19.5,40,15.2,62.1c-2.8,14-1.2,27.7-2.7,41.4c-1.5,13.4,3.1,25.6,11.5,34.4c14.7,15.5,20.1,32.8,18.1,53.4
		c-0.2,1.6,0,3.2,0,2.8c-8.9,20.8-22.3,35.9-35.7,51.4c-14.3,16.4-22.6,34.1-13.5,58.7c0,16.2,8.3,29.3,16.3,42.4
		c6.1,10,10.7,21.5,22.5,26.1c0,2.7,0,5.3,0,8.3c-20.4-14.4-32.3-34.8-40.4-56.4c-5.1-13.7-9.6-28.6-8.3-44.2
		c0.9-11.2,6.2-20.6,11.4-29.7c5-8.6,12.4-15.9,19.5-23.1c7.1-7.2,12.7-15.3,17.2-24.1c2.5-5,5.4-10,4.7-16.2
		c-0.3-2.8,1.5-5.8,2.7-10.1c-1.6-4.1-3.7-9.8-6.2-15.3c-2.3-5.2-5.1-9.9-8.6-14.6c-4.5-6-10.9-11-11.4-19.9
		c-0.2-3.6-3.9-7.1-6.2-11c0-10.9,0.1-22.3,0-33.8c-0.2-12.8,4.4-24.9,3.7-38c-0.8-14.6-5.8-27-13.4-38.8
		c-4.8-7.4-9.6-14.8-15.1-21.6c-4.9-6.1-12.2-9.8-17.9-15.1c-10-9.3-20.3-18-32.7-24c0.1,0,0.3-0.3,0.5-0.5
		c-0.8-0.9-1.5-1.8-2.3-2.7c-0.3,0.3-0.7,0.7-1,1c0.9,0.8,1.8,1.5,2.8,2.1c0.5,1.9,0.3,4.4,1.4,5.8c8.3,10.6,11.7,23.6,18,35.2
		c5.4,10.1,7.5,22,10.2,33.4c4.3,18.5,8,37.1,6.7,56.2c-0.3,4.1-1,8.4,3,12c1.4,1.2,1.3,5.9,0,7.8c-5,7.4-2.1,15.6-3.2,23.3
		c-1,7.8,2.5,15.8-2.2,23.7c-3.7,6.2,2.1,15-4.3,21.1c-2.9,37.7-21.4,71.1-29.5,107.4c-11,18-13.5,39.1-22,58.1
		c-2.7,6.2-1.5,13-3.6,19.7c-3.5,10.8-3.3,22.9-3.8,34.5c-0.5,12-1.7,24.3,0.3,36c2.5,14.6,3.8,29.4,9.2,43.6
		c6.4,16.9,12.6,33.4,25.5,46.9c5.3,5.5,8.8,12.3,16.2,16c4.1,2.1,6.3,7,12.4,6.2c1.7-0.2,4,4.1,7.4,7.8c-4.2,1-6.6,1.5-8.6,1.9
		c-6.3-4.6-12.3-8.6-17.9-13.2c-13.2-10.9-23.7-24.5-31-39.6c-6.3-13.1-14.3-26.3-13.6-41.9c-7.5-8.3-1.3-19.1-5.7-28.8
		c-3.7-8.2-1.6-19.4-0.7-29.1c2.7-30.9,6.7-61.5,18.1-90.7c7.9-20.2,14.9-40.8,22-61.3c3.3-9.6,5.1-19.7,9.1-29
		c4-9.4,5.4-19.5,9.1-29c3.1-8,2.6-17.5,3.8-26.3c0.9-6.7,2.2-13.3,3.2-19.9c1-6.7-2.4-14,3.3-19.9c-1.5-13.8,3.1-27.9-2.7-41.5
		c-1-2.3-0.6-5.3-0.6-7.9c0.1-30-10.2-57.5-20.5-84.9c-3.4-9-8.2-17.4-12.7-25.8C1174.1,759.1,1171.2,758,1169.7,756.1
		c-1.3-3.4-3.3-6.4-5.9-10.5C1161,753.1,1165.4,754.6,1169.7,756.1z M1241.2,690.9c-1.1,1.1-2.2,2.2-3.3,3.3
		c-1.1,1.1-2.2,2.2-3.3,3.3s-2.2,2.2-3.3,3.3c-1.1,1.1-2.2,2.2-3.3,3.3c-1.1,1.1-2.2,2.2-3.3,3.3c-1.1,1.1-2.2,2.2-2.9,3.6
		c-0.2-0.2-0.4-0.4-0.6-0.6c-0.9,0.8-1.8,1.5-2.7,2.3c0.3,0.3,0.7,0.7,1,1c0.8-0.9,1.5-1.8,1.9-3c1.1-1.1,2.2-2.2,3.3-3.3
		c1.1-1.1,2.2-2.2,3.3-3.3c1.1-1.1,2.2-2.2,3.3-3.3c1.1-1.1,2.2-2.2,3.3-3.3c1.1-1.1,2.2-2.2,3.3-3.3
		C1239,693.1,1240.1,692,1241.2,690.9c1.1-1.1,2.2-2.2,3.3-3.3c5.2-1.3,7.1-4.7,6.6-9.8c7.4-3,8.7-9.7,9.8-16.4
		c8.8-3.4,7.9-12.3,11-19c10-21.4,15-43.9,15.1-67.4c0-13.8,0.4-27.4-2.8-41.3c-3.7-16.5-7.3-33-14.4-48.2c-12-25.6-29-48-48.5-68.4
		c-9.2-9.7-18.8-18.9-29.8-26.8c-12.3-9-23.8-19.2-35.7-28.8c-4-3.3-8.3-6.2-12.5-9.3c-4.2-3.1-9-5.6-12.4-9.4
		c-13.1-14.2-27.9-26.7-39.8-42.3c-17-22.2-30.2-46.7-45.9-69.6c-5.2-7.5-8.3-16.7-14.2-23.5c-9-10.3-16.2-22-24.7-32.7
		c-16.4-20.6-34.7-38.2-57.9-50.2c-20.7-10.7-41.8-20.9-65.5-23.8c-9-6.6-20.5-6.4-30.5-9c-11.2-2.9-22.7-6.9-34.7-7.7
		c-7-0.5-14.9-1.4-21.1-4.2c-5.6-2.5-10.6-0.7-15.6-2.1c-5.5-1.5-10.6-3.5-16.7-3.4c-19.6,0.5-39.3,0.2-59,0.2
		c-3.3,0-7.3-1.2-9.7,0.2c-10.9,6.7-23.8,6.5-35.5,9c-23.5,5.1-46.6,11.9-69.8,17.9c-20.2,5.3-40.4,10.8-60.8,14.8
		c-15.2,3-30,6.8-44.9,10.7c-15.1,3.9-29.9,9.6-43.4,17.8c-24.9,15.1-45.9,35.3-67.4,54.6c-33.4,30.2-62.4,64.9-97.1,93.8
		c-10.9,9.1-21.5,18.5-33.4,26.4c-14.9,9.9-29.2,21.1-45.4,28.8c-18.9,9-30.6,23.4-37,43.2c-1.8,5.4,0,10.7-2,15.5
		c-4.8,11.3-3.8,23.5-6,35.1c-2.1,10.8-0.3,22.8-4,32.8c-5.2,14.3-4,29.6-9.2,43.7c-1,2.8-1.3,7.6,0.3,9.4
		c4.4,4.9,2.1,10.3,2.8,15.3c1.3,9.3,2,18.7,4,27.8c2.6,11.1,6.3,22.3,5.4,33.6c-0.9,11.5,4.1,21.9,3.9,33.1
		c-0.1,3.2,2.3,6.9,4.5,9.4c4.6,5.4,9.2,11.3,15.1,14.9c16.3,10,26.5,24.7,36.1,40.6c5.1,8.4,11.1,16.7,18.4,23.2
		c6.5,5.7,15.3,8.9,22.1,12.6c2.5-1.2,3.9-1.8,13.2,1.3c-2.2-2.5-2.9-3.7-3.3-3.7c-1.6,0.2-3.1,0.9-4.6,1.4c2,0.6,4,1.1,0-1.5
		c0.6-3.5-0.9-5.9-3.4-8.5c-11-11.7-22.8-22.6-32.9-35.3c-13.4-16.9-27.4-39.6-37.9-61.5c-11.1-23.3-15.4-48.5-20.5-73.3
		c-2.2-10.5-0.8-21.8-0.2-32.7c0.5-10.5-0.3-20.8,2.4-31.6c2.6-10.3,4.9-21,7.3-31.5c2.4-10.5,5.4-20.8,13.1-29
		c-0.8-9,7-13.5,10.6-20.2c3.7-6.7,7.5-13.8,12.8-19.2c13.7-13.7,27.4-27.5,42.7-39.3c20.8-16.1,43.3-30,64.5-45.6
		c13.2-9.7,26.5-19.3,38-31.1c7.2-7.5,14.7-14.7,22-22c7.3-7.3,14.9-14.5,21.9-22.1c6.4-6.9,11.9-14.8,18.5-21.4
		c6.3-6.3,13.9-11.4,20.5-17.6c9.8-9.1,18.7-19,29.9-26.7c11-7.6,21.7-15.4,33.6-21.7c26.1-13.7,53.3-24.5,81.6-32.4
		c10.3-2.9,20.8-5.6,31.5-7.5c6.6-1.2,13.4-1.4,19.8-3.2c5.8-1.6,11.6-5.8,17.1-5.5c7.3,0.4,13.2-3.2,20-3.8
		c6.1-0.6,12.2-2.9,18.3-3c7-0.1,13.4-2.5,20-3.2c21.4-2.2,42.8,1.2,64.1,3c5.9,6.8,15.6,0.2,22.1,6.3c2.2,2.1,7.4,0.7,10.3,2.5
		c3.7,2.1,9.2-1.2,11.3,4.3c24.8,2.4,46.7,14.1,68.8,23.8c27.8,12.1,50.8,32.4,73,52.9c11,10.1,20.6,21.8,30.8,32.8
		c15.6,16.8,28.4,36,44.6,52.3c7.1,7.1,14.3,14.6,19.4,23.1c2.8,4.7,6.5,8.2,9.7,12.3c3.5,4.5,6.7,9.4,10.5,13.6
		c10,11.2,21.7,20.6,30.3,33.3c5.4,8,13.6,14.1,20.6,21c6.7,6.7,11.6,15.1,18.5,21.4c6.9,6.2,12.7,13.4,19.3,19.8
		c11.5,11.2,23.1,22.3,35.5,32.7c10.1,8.5,17.6,20,27,29.5c15.5,15.7,27.9,33.4,36.2,53.9c5.6,13.9,9.9,28.1,10.1,43.4
		c0.1,8.3-3.3,17.2,2.9,25c1,1.2,0.7,5.2-0.4,6.1c-3.7,3-2.9,6.8-2.7,10.5c0.6,11.7-2.2,22.6-6.5,33.4c-2,5.2-2.3,11-3.4,16.6
		c-7.4,3-8.7,9.7-9.8,16.4c-5.2,1.3-7.1,4.7-6.6,9.8C1243.4,688.7,1242.3,689.8,1241.2,690.9z M621.3,244.8c0.2,0.2,0.4,0.4,0.6,0.6
		c0.9-0.8,1.8-1.5,2.7-2.3c-0.3-0.3-0.7-0.7-1-1c-0.8,0.9-1.5,1.8-1.9,3c-1.1,1.1-2.2,2.2-3.3,3.3c-2.5,0.5-6.3-1.6-6.6,3.3
		c-1.1,1.1-2.2,2.2-3.3,3.3c-2.4,0.8-5.1,1.1-7.2,2.4c-3.1,2.1-5.2,5.8-8.5,7.3c-13.7,6.1-24.7,15.7-35,26.2
		c-2.6,0.1-5.2,0.3-6.5,0.4c-5.4,5-9.2,10.9-14.3,12.5c-8.8,2.8-14,8.1-17.3,16.4c-8.1-0.3-13,3.5-16.2,10.3c-1.1,2.3-2.8,5.7-4.7,6
		c-7.4,1.2-9.5,8.4-15.4,11.8c0,2.6,0,5.2,0,7.8c-3.1,0.3-5.7,0.6-9.6,1c-2.6,6-5.4,12.5-8.2,19.1c-2.5,0-5.2,0-7.9,0
		c-0.7-2.9-1.5-5.7-2.3-8.9c4.6-3.7,11.2-7.1,14.8-12.5c3.3-4.9,5.8-8.9,11.5-11.7c5.6-2.7,10.3-7.7,8.6-15.5c3.4-0.4,6-0.7,8.6-0.9
		c3.1-3.1,6.4-6,9.2-9.3c2.7-3.1,4.8-6.6,7.3-10c12.5-2.2,13.8-3.1,18.8-12.7c9.4-0.5,15.5-6,20.4-13.6c2.1,0,4.2,0,4.3,0
		c32.3-24.3,65.2-44.4,98.5-64.3c-6.9-4.2-13.8,0.7-18.5,3.4c-32.3,18.2-67.2,30.5-100.3,46.8c-22.4,11.1-42.5,24.6-59.1,43.2
		c-7.5,8.3-14.3,17.2-22.1,25.2c-16.8,17.2-33.6,34.5-51,50.9c-14.8,14-26.1,30.8-39.1,46.3c-6.1,7.3-10,16.5-14.4,25.1
		c-2.1,4-2.8,8.6-4.4,12.9c-1.4,3.8-2.7,7.7-4.7,11.1c-2.5,4.2-1.3,9-2.8,13.6c-4.1,12.6-7.6,26.2-7.4,39.4
		c0.3,25.2-3,50.4,2.3,75.8c2.6,12.6,4.2,25.5,6.6,38.2c1.7,8.7,4.5,16.8,6.5,25.2c2,8.5,4.5,16.8,6.4,25.2c1.9,8,6.4,15.2,7.1,23.3
		c0.9,9.8,4.8,18.7,12.2,24.2c7.1,5.4,14.6,11.3,24.3,12.8c-0.2,0.2-0.4,0.4-0.6,0.6c0.8,0.9,1.5,1.8,2.3,2.7c0.3-0.3,0.7-0.7,1-1
		c-0.9-0.8-1.8-1.5-3-1.9c-5.5-8.6-12.1-16.7-16-26c-3.3-7.8-5.7-16-9-24c-6.3-15.3-10.8-31.4-5.8-52c0.8,5.5,1.1,7.4,1.3,9.4
		c1.1,9.3,0.2,19.5,3.7,27.8c7.5,17.5,12.2,36.5,22.8,52.4c8.9,13.3,21.2,23.3,47,26c-2.2-2.5-2.9-3.7-3.3-3.7
		c-1.6,0.2-3.1,0.9-4.6,1.4c2,0.6,4,1.1,0-1.5c-2.6-5.5-5.2-10.9-7.8-16.4c3.3-3.6,5.7-6.3,8.8-9.7c-4.3-6-8.4-11.7-12.2-17
		c-4.8,0-7.9,0-11.8,0c-2.5-5.1-4.9-10-7.7-15.8c3.1-3.5,5.7-6.5,8.9-10.1c-2.6-5.4-4.9-10.5-7.4-15.7c-3.3,0-5.8,0-8.4,0
		c0.7-0.9,1.4-1.8,2.1-2.7c-3.9-2.1-7.7-4.2-10.3-5.6c0-4.7,0-7.4,0-10.2c2.5-2.7,4.9-5.3,6.8-7.3c-1.7-12.2-5.8-21.2-16.1-24.8
		c0-5.6,0-10.4,0-14.9c2.4-0.8,4.3-1.4,6.8-2.3c-1.9-6.3-3.6-12.1-4.9-16.8c-3.5-2.2-6.1-3.8-8.6-5.4c0-5.2,0-10,0-14.4
		c2.3-2.3,4.2-4.2,5.7-5.7c0-5.3,0-10,0-15.2c-2.2-1.7-4.3-3.4-5.8-4.6c0-4.1,0-7.4,0-10.4c3.3-3.3,6.3-6.3,9.6-9.6
		c0-3.1,0-6.4,0-9.8c-3.4-3.7-7-7.5-11.4-12.2c5.3-4.3,9.7-7.8,14.4-11.6c1.7-8,8-16.7,0.3-24.5c6.2-7.4,11.7-13.8,17.1-20.3
		c0-6.3,0-12.2,0-18.4c11,0,12.6-10.1,18.4-14.2c-1.4-3.1-2.3-4.9-3.3-7.1c7.3-5.8,14.2-11.3,20.8-16.6c0-4.3,0-7.5,0-10.3
		c6.7-4.9,13-9.6,19.2-14.2c2.3,6.7-6.3,8.2-6.6,13.6c1,1.7,2,3.3,2.8,4.7c-6.7,5.4-13.2,10.6-19.9,16c0,5.4,0,10.1,0,14.8
		c-2.9,0-5.1,0-7.5,0c-2.6,2.7-5.2,5.4-8.5,9c0,4.9,0,10.8,0,17.4c-4.4,1.7-8.6,3.3-13.2,5c2.8,6.8-7.8,13.1,0.4,20.2
		c-4,4.5-8,8.9-12.6,14.1c-0.8,3.4-1.9,8.3-3.3,14.2c1.5,3,3.5,6.9,5.9,11.4c-2.8,3-5.7,6.1-9.1,9.7c0,3.6,0,8.3,0,13.1
		c2.3,2,4.3,3.8,6,5.4c0,3.7,0,7,0,10.1c-2,2-3.9,3.9-6.2,6.2c0,4.4,0,9.2,0,17.1c2,1.8,5.7,4.9,9.2,8c2.6,6.1-4.3,7.6-6.1,11.4
		c0,5.8,0,11.2,0,15.4c5,4.1,9.4,7.5,12.9,10.4c0,4.3,0,7,0,9.9c-2.1,2.3-4.4,4.6-6.5,7c-0.3,0.3,0,1.1,0,1.5c2,4.7,3,10.2,6.2,13.8
		c3.7,4.2,9.2,6.7,13,9.2c0,5.1,0,8.7,0,13.7c-1.8,1.1-4,2.5-5.8,3.6c3.6,6.5,6.7,12.4,9.9,18.2c0.5-0.6,1-1.1,1.5-1.7
		c5.1,3.2,10.2,6.4,15.7,9.8c-1.7,6.7-3,12.1-4.6,18.5c2.2,3.8,4.7,8.2,7.3,12.8c4,0.2,7.7,0.4,10,0.5c3.7,3.2,6.6,5.6,9.7,8.3
		c-0.7,6.8-1.4,13.4-2.2,20.7c0.5,0.6,1.8,2.2,2.4,2.9c8,0,15,0,22,0c-5.1-6.7-10.5-12.5-14.5-19.1c-6.8-11.2-13.7-22.4-18.4-34.9
		c-7.1-18.9-5.7-39-9.4-58.3c-1.8-9.2,2.1-19.2-3.4-28.1c0.4-17.6-4.1-34.9-3.8-52.7c0.2-12.4,1.4-24.8,4.3-36.1
		c6.2-23.8,12.2-47.6,15.8-72c6.7-5.4-0.2-14.8,5.9-20.5c2.8-17.5,12-32.3,20.9-47c12.9-21.3,27.5-41.6,43.9-60.4
		c10.9-12.5,25-22.1,33.6-36.9c1.1-1.8,2.8-3.4,4.6-4.6c19-12.7,33.4-30.1,48.4-46.8c1.1-1.1,2.2-2.2,3.3-3.3
		c2.5-0.5,6.3,1.6,6.6-3.3C619.4,247.2,620.5,246.1,621.3,244.8z M598.7,1100.7c-1.1-1.1-2.2-2.2-3.3-3.3c0.5-5.1-1.4-8.6-6.6-9.8
		c-0.5-2.5,1.6-6.3-3.3-6.6c0-2.7,1-6.1-0.2-8.1c-6.9-11.7-1.3-24.3-3-36.3c6.5-16,9.5-33.1,16.9-48.7c-4.8-6.4-9.3-12.4-14.1-18
		c0.2-0.2,0.4-0.4,0.6-0.6c-0.8-0.9-1.5-1.8-2.3-2.7c-0.3,0.3-0.7,0.7-1,1c0.9,0.8,1.8,1.5,3,1.9c2.2,15-3,29.4-3.4,44.3
		c-0.1,4.5-2.4,8.8-3,13.3c-0.7,4.6,1.1,9.7-3.4,13.3c0,14.3-1.3,29,9.8,40.6c0.5,2.5-1.6,6.3,3.3,6.6c-0.5,5.1,1.4,8.6,6.6,9.8
		C596.5,1098.5,597.6,1099.6,598.7,1100.7c1.1,1.1,2.2,2.2,3.3,3.3c0.3,2,0,4.7,1.2,5.8c7.1,7,14.5,13.6,21.8,20.4
		c1.1,1.1,2.2,2.2,3.2,4.1c-0.2,5.4,2.5,8.6,7.8,9c-2.6-3-5.4-6.2-7.7-9.9c-1.1-1.1-2.2-2.2-3.3-3.3c-0.3-2,0-4.7-1.2-5.8
		c-7.1-7-14.5-13.6-21.8-20.4C600.8,1102.9,599.7,1101.8,598.7,1100.7z M815,1536.7c1.1-1.1,2.2-2.2,3.3-3.3
		c1.1-1.1,2.2-2.2,3.3-3.3c1.1-1.1,2.2-2.2,3.2-3.3c1.7,0,4,0.7,4.9-0.1c11.8-10.8,22.7-22.4,31.2-36c3.8-6,4.8-12.5,2-19.3
		c-1.3-3.3-2.3-6.7-3.8-11.1c-7.5,10.8-7.2,23.7-13,34.5c-6.2,11.5-15.2,20.7-21.2,32c-1.1,1.1-2.2,2.2-3.3,3.3
		c-1.1,1.1-2.2,2.2-3.3,3.3C817.2,1534.5,816.1,1535.6,815,1536.7c-1.1,1.1-2.2,2.2-3.2,5.8c0-0.9-0.1-1.9-0.1-2.8
		c-2.1,0.4-4.3,0.8-6.4,1.3c0.1,0.7,0.2,1.4,0.3,2.1c2.1-0.2,4.2-0.4,6.2-3.1C812.8,1538.9,813.9,1537.8,815,1536.7z M313.4,382.7
		c-1.1,1.1-2.2,2.2-2.7,3.3c-2.2,0-4.4-0.7-5.4,0.1c-13.3,10.4-27.7,19.4-39.2,32.2c-14.4,15.9-26.4,33.1-33.4,53.4
		c-2.7,7.6-5.7,15.2-7.6,23.1c-1.8,7.6-3.7,15.6-3.1,23.2c0.8,8.9-4.3,16.4-3.5,24.9c0.5,5.6,3.4,11.3,2.9,16.7
		c-1.6,16.7,3.2,32.3,7,48.1c3.8,15.7,8.7,31.3,14.1,46.6c4.3,12.4,10.5,24,15.1,36.3c4.8,12.9,15.3,22.9,18.4,36.6
		c0.3,1.3,2.2,2.2,3.3,3.2c4.9-1.7,9.7-3.3,14.4-4.8c0-3.5,0-6.8,0-9.8c-4.7-8.1-8.8-16.4-14-23.9c-13.6-19.3-26.7-38.8-37-60.1
		c-2.6-5.3-8.3-25.8-7.9-31.1c0.8-11,2.7-22,3.1-33.1c0.5-15.3,0.4-30.6,0-45.9c-0.2-9.7,3.5-18,6.3-26.9c3.7-11.7,9.6-22.3,14-33.6
		c5.4-14.1,13.4-27.5,22.1-39.9c8.6-12.2,19.5-22.8,29.8-35.2c1.1-1.1,2.2-2.2,2.9-3.6c0.2,0.2,0.4,0.4,0.6,0.6
		c0.9-0.8,1.8-1.5,2.7-2.3c-0.3-0.3-0.7-0.7-1-1C314.6,380.7,313.9,381.6,313.4,382.7z M526.2,792.2c0.2,0.2,0.4,0.4,0.6,0.6
		c0.9-0.8,1.8-1.5,2.7-2.3c-0.3-0.3-0.7-0.7-1-1c-0.8,0.9-1.5,1.8-1.9,3c-1.1,1.1-2.2,2.2-4.2,2.7c-5.6,10-11.6,19.8-16.7,30
		c-2.5,4.9-4.5,10.4-5.1,15.8c-3,25.2,8.2,45,25.1,64c3.1-5.9,5.6-10.8,8.1-15.5c-14.9-30.5-17.4-61.6-10.4-93.7
		C524.3,794.7,525.4,793.6,526.2,792.2z M956.3,946.9c-0.2-0.2-0.4-0.4-0.6-0.6c-0.9,0.8-1.8,1.5-2.7,2.3c0.3,0.3,0.7,0.7,1,1
		c0.8-0.9,1.5-1.8,1.9-3c1.1-1.1,2.2-2.2-0.1-2c11.7-3,17.9-6.9,23.3-14.3c7.6-10.4,10.1-22.5,12.2-34.2c1.5-8.2,3.9-18.2-2.5-26.4
		c1.6-11.8-6.8-20.1-10.7-29.9c-3.4-8.4-7.3-16.5-5.6-25.3c1.5-7.8,3.9-15.8,8.6-22.5c5.6-8.1,11.6-15.9,16.9-23.1
		c0-7.8,0-14.7,0-21.3c-10.8-7.2-10.8-7.2-21.5-6.6c1.9,5,5.5,10.1,5.3,15c-0.4,8-2.6,16.2-5.1,23.9c-7,21.1-10,37.9-7.4,57.9
		c2,15.5,7.5,30.4,6.6,46.4c-0.2,3.6,5.7,8.1,2.7,11.4c-4.1,4.5-2.2,9.1-3,13.6c-0.5,3-2.1,5.8-2.4,8.8c-1,10.5-7.3,18-13.9,25.3
		C958.2,944.4,957.1,945.5,956.3,946.9z M916.6,258.2c1.1,1.1,2.2,2.2,1.7,3.2c2.2,2.3,3.5,4,5.1,5.1c6.7,4.7,14,8.8,20.3,14.1
		c6.3,5.2,11.4,11.8,17.6,17.1c6.4,5.5,11.9,11.8,18.9,17c5.7,4.2,11.5,9.6,16.7,15.2c11.4,12.4,23.2,24.7,35.9,35.9
		c18.9,16.6,31.8,37.8,44.1,58.9c16.8,28.7,35.7,56,52.9,84.5c9.1,15.1,18.2,30.3,23.3,47.7c3.7,12.7,9,24.8,10.6,38.2
		c1,8,5.8,15.4,5.4,23.9c-0.4,9,4.9,17.1,3.5,26.5c-1.2,8.6-0.2,17.4-0.3,26.2c0,3.8,1.1,8.2-0.4,11.3c-6.4,13.3-9.6,28.4-21.7,38.6
		c-0.9,0.7-0.5,2.8-1,5.6c2.6,0,4.7-0.3,6.6,0.1c2.1,0.5,4.1,1.6,6.2,2.5c6.5-8.9,9.5-18.5,11.9-28.6c3.3-13.8,8.2-27.3,12.3-40.8
		c6.1-19.9,7.5-40.4,12.2-60.3c3.5-14.8-3.8-29.5-3.1-44.4c-5.4-7.8-4.4-17.5-8.5-26c-7.4-15.1-16.9-28.7-28.3-40.6
		c-29.6-30.9-61-60.1-89-92.6c-1.1-1.2-2.5-2.2-3.4-3.5c-12.5-16.5-25.8-32.4-40.5-47.1c-12.5-12.5-26.1-23.8-38.7-36
		c-13.8-13.4-29.2-24.7-44.2-36.3c-6.5-5-13.1-12.1-22.8-11.9C918.8,260.4,917.7,259.3,916.6,258.2c-0.3-4.9-4.1-2.8-6.6-3.3
		c-0.3-4.9-4.1-2.8-6.9-2.9c0.2-0.2,0.4-0.4,0.6-0.6c-0.8-0.9-1.5-1.8-2.3-2.7c-0.3,0.3-0.7,0.7-1,1c0.9,0.8,1.8,1.5,3,1.9
		c0.3,4.9,4.1,2.8,6.6,3.3C910.4,259.8,914.2,257.7,916.6,258.2z M644.5,254.9c-1.1,0-2.2,0-3.3,0c-1.4-6.9,4.2-10.6,8.2-12.6
		c8-4,13.1-10.1,17.7-17.2c0.2,0.2,0.4,0.4,0.6,0.6c0.9-0.8,1.8-1.5,2.7-2.3c-0.3-0.3-0.7-0.7-1-1c-0.8,0.9-1.5,1.8-1.9,3
		c-5.3-1.2-8.9,2.7-12.7,4.8c-22,12.4-41,28.9-59.2,46c-16.3,15.3-32,31.4-47.5,47.4c-11.2,11.6-22,23.5-32.4,35.7
		c-6.7,7.9-12.7,16.5-18.6,25c-5.2,7.6-9.5,15.7-14.3,23.5c-13,21.1-15.5,27.3-22.1,53.2c-1.3,5-2.7,9.8-3.2,15.1
		c-0.6,5.6-1.8,11.7-3.7,16.4c-2.8,7.1-1.1,14.5-4.2,21.2c-6.3,13.5-8.9,28.5-10.9,42.8c-2.7,19.3-3.1,39.6,0,58.8
		c3.1,18.8,6,37.3,6,56.4c0,9.9,5,19.5,3.1,29.8c5.3,3.8,1.7,10.2,4.1,14.7c10.6,20,21.4,39.9,36.1,56.1c7.9,0,14.8,0,23.2,0
		c-5.5-5.5-10.1-9.9-14.5-14.5c-3.3-3.5-6.9-6.8-9.4-10.9c-7.2-11.6-13.4-23.8-18.4-36.6c-1.7-4.2-4-8.5-4.4-12.8
		c-0.4-4-1.7-8.8,1.5-13.5c10,33.2,21.2,64.2,49.1,85c7,0,14,0,21.4,0c-11.7-9.2-21.8-18.4-30-30.3c-13.4-19.3-20.3-40.8-25.9-63.1
		c-6.4-6.1-2.7-14.8-5.6-22.2c-4-10.3-3.5-22.4-4.9-33.7c0.9-0.4,1.8-0.9,2.7-1.3c1.2,2.1,2.5,4.3,4.4,7.6c-0.7,7.8,0.9,17,3.2,26.3
		c2.4,9.9,4,20.1,6.5,30.1c3.5,13.8,8.5,27.3,14.3,39.9c6,13.1,15.8,24.8,27,34.8c6.3,5.6,13.3,7.8,20.8,9.2
		c7.1,1.3,13.5-1.1,18.5-6.6c0.5-0.6,0.6-1.5,0.9-2.2c-1.3-1.3-2.4-2.4-4.2-4.2c-4.2,0-8.9,0-14.1,0c-2.7-4.7-5.3-9.1-7.6-13.1
		c2.7-5.1,5.1-9.6,7.2-13.7c-2.9-4.6-5.4-8.5-7.8-12.4c-4-0.2-7.7-0.4-8.4-0.4c-5.1-3.7-8.1-5.9-10.1-7.4c0-5.9,0-10.1,0-14.1
		c2.2-2.2,4.2-4.2,5.7-5.7c-2.5-5.1-5-10.1-7.5-15.3c-9.7,1.8-11.6-5.6-13.6-10.5c2.3-10.4,7.8-18.6,4.6-27.9
		c-5.9-4.5-11.1-8.5-15.6-12c-0.4-9.1,3.3-13.9,9.7-16.9c-1.4-5.4-2.8-10.9-4.2-16.4c0.7-0.5,1.4-1,2-1.5c-3.8-3-7.6-6-11.7-9.3
		c2.5-11,6.6-21.7,3.5-31.6c-3.7-2.6-6.7-4.6-9.1-6.3c0-4.1,0-7.3,0-12.1c1.8-1.3,4.5-3.1,6.1-4.2c0-6.9,0-12.3,0-15.1
		c-3.3-6.1-5.4-10.1-8.1-14.9c4.7-3.8,8.5-6.9,10.8-8.7c1.7-7,4.9-12.6,3.6-16.7c-1.6-5.1-3.6-9.5-2-15.4c2.9-1.7,5.9-3.5,7.7-4.5
		c1.8-4.9,3.2-8.7,4.2-11.7c-1.3-4.5-2.4-8.3-3.6-12.4c8.5-4.1,12.8-10.9,17.1-16.9c-1.5-4.4-2.8-8.3-4-11.9
		c6.4-4.7,11.9-8.7,17.5-12.9c0-5.2,0-9.9,0-14.6c8.3-1.4,11-8.6,16.3-12.3c0-4,0-7.2,0-10c0.7-0.7,1.1-1.2,1.5-1.5
		c6.5-4.8,15.7-7.1,15.1-18.2c-0.1-1.4,2.7-4.2,4.4-4.4c9.6-1.3,8.4-10.7,12.5-16c7.7-1.3,10.4-8.5,14.9-11.7
		c0.6-3.8,0.9-6.3,1.3-8.9c8.9,1.3,12.4-3.7,15.6-9.7c2.8-5.2,5.8-10.4,13.1-9.7c-0.8,2.4-0.9,5.4-2.4,7.1
		c-4.3,4.9-10.1,8.8-13.5,14.2c-3.4,5.4-8.8,8-12.8,12.4c-3.9,4.2-9.5,7.5-7.3,13.8c-14.8,6-17,23-29.5,28.6c0,3.2,0,5.4,0,8
		c-7.3,3.7-11.7,10.4-16.8,17.5c0,2.7,0,5.9,0,9.3c-3.3,1.9-6.3,3.7-9.9,5.8c-1.2,6.2-2.4,12.8-3.9,20.8c-1.8,1.1-4.9,3-9.8,6.1
		c-0.9,6.5-2,14.6-3.2,23.4c-2.7,1.6-5.7,3.4-7.5,4.4c-1.8,4.9-3.2,8.7-4,11c1.3,6.3,2.3,11.2,3.3,16.4c-3.9,2.3-6.9,4.2-10.2,6.1
		c-1.7,5,2.5,11.7-3.4,16.3c2.2,2.3,4.4,4.6,7.7,8.1c-2.3,4.1-4.8,8.5-7.5,13.1c0,4.8,0,10.2,0,15.2c2.3,2.3,4.2,4.2,6.2,6.2
		c0,3.2,0,6.5,0,9.8c-2.4,2.6-4.9,5.3-6.2,6.6c1.6,6.8,2.8,11.8,3.8,16c4.5,3.6,8.8,7.2,12.9,10.5c-1.5,2.8-9.5,12.6-10.1,13
		c1.4,5.6,2.7,11.1,4.3,17.7c3.7,4,12.4,5.7,11.8,14.8c-8.3,8.9-8.7,18.2-0.8,26.9c3.6,3,7.2,6,10.6,8.8c0,4.2,1.5,9.1-0.3,11.6
		c-5.7,7.6-1.6,13.5,1.7,19.8c11.9-1,13.7,9.3,18.7,16.4c-2.3,4.2-4.5,8.1-6.6,12.1c2.5,3.7,5,7.6,7.4,11.2c4,0,7.2,0,11.5,0
		c3.5,5.1,7.2,10.7,10.7,15.8c-2.5,4.8-4.6,8.7-6.6,12.6c2.2,1.8,4.1,3.4,6.1,5.2c7.1-5.5,13.4-10.4,20-15.5
		c-29.6-25.4-32.1-42.4-42.4-78.7c-2.1-7.6-1.4-16.3,1.2-24.4c5.4,38.7,13.9,75.7,46.8,101.6c6.9-2.8,13.5-5.4,20.9-8.4
		c-2.8-2.3-4.3-3.8-6.1-4.9c-13.5-8.1-20.8-19.1-27.6-34.6c-8.5-19.4-9.8-39.9-12.6-60.3c-0.4-2.7,1.1-6.9-0.2-7.9
		c-6.9-5.3-0.7-13.2-5-19.5c-3.5-5.1-3.2-12.8-4.7-19.2c-0.9-4-2.5-7.8-3.1-11.8c-0.7-4.2,0.3-8.8-0.8-12.8
		c-2.9-10.5-5.4-21.2-5.6-32c-0.3-16.5-1.1-33,2.8-49.5c2.1-8.7-1-18.9,2-27.1c3.3-9.2-2-19.4,4.9-27.4c0.5-15.1,6.5-29,9.8-43.4
		c4.9-21.6,14.9-41.4,27.1-59.1c10-14.4,19.7-29.1,29.4-43.7c2.8-4.2,6.2-8.3,5.8-14c5.2-1.3,7.1-4.7,6.2-10.1
		c0.2,0.2,0.4,0.4,0.6,0.6c0.9-0.8,1.8-1.5,2.7-2.3c-0.3-0.3-0.7-0.7-1-1C645.7,252.8,645,253.7,644.5,254.9z M890.4,1038.4
		c11.2-15.5,16.1-29.2,16.4-45.9c6.3-1.5,2-6.6,3.3-9.8c5.4-2.6,9.3-6.4,10.8-12.4c7.1-1,11.8-6.7,14.2-11.7c2.7-5.7,7.7-5.5,11.4-9
		c-0.2,0.2-0.4,0.4-0.6,0.6c0.8,0.9,1.5,1.8,2.3,2.7c0.3-0.3,0.7-0.7,1-1c-0.9-0.8-1.8-1.5-3-1.9c2.7-3.2,4.9-7.1,8.2-9.6
		c10.4-8.2,12.2-21.2,18-31.9c-0.1-18.5,0.5-36.8-5.8-54.8c-6.5-18.7-5.9-38,0.2-57.2c5-15.7,10.8-31.5,9-45.6
		c-3.6-5-5.8-8-7.4-10.1c-6.9,2.6-13,4.8-18.9,7c6.8,9.8,9.6,20.6,9.4,31.1c-0.3,18.1,2.2,36.1-2.3,54.4c-2.4,9.8-2,20.9-4,31.2
		c-1.3,7.1-2.2,14.6-4,21.3c-1.8,6.7-3,13.8-5.7,20.5c-2.8,7-3,15.5-7,21.5c-6.2,9.5-5.7,22.3-15.5,29.7c-1.9,9-10.1,15.5-10.4,25.1
		c-6.3,1.5-2,6.6-3.3,9.8c-0.5,0-1.5-0.2-1.6,0c-5,13.1-8,26.9-14.7,39.4c-0.9,1.7-0.1,4.3-3.9,14.4c2.5-2.2,3.7-2.9,3.7-3.3
		c-0.2-1.6-0.9-3.1-1.4-4.6C888.3,1040.4,887.8,1042.3,890.4,1038.4z M896.7,828.9c9.5-8.6,14-17.5,19.2-33.8c3-9.4-2.3-17-3.5-25.7
		c-4.6,3.1-8.7,5.9-12.9,8.7c6,8.5,2.9,17.3,4.2,25.5c1.5,9.6-6,16.3-6.7,25c-1.1,1.1-2.2,2.2-3.3,3.3c-4.8,4.2-9.4,8.7-14.4,12.6
		c-4.5,3.5-7.5,8.3-13.3,11c-4.9,2.3-7.4,9.6-11.4,15.3c-0.4,1.6-1,4.1-1.5,6.7c-1.6,8-7.5,16.4-4.7,23.8c3.4,9,3.1,19,8.9,27.4
		c2.9,4.3,3.2,10.8,3.5,16.4c1.3,19.4-8.4,35-19.8,48.8c-14.3,17.4-30.4,33.4-46.1,49.6c-5.1,5.2-12.6,8.4-16.7,14.2
		c-4.3,6.1-9,11.7-14.2,16.9c-4.9,4.8-8.1,10.5-11.5,16.4c-9.6,16.8-11.1,35.8-15.8,53.9c-1.4,5.3-1.4,11.9,2,17.7
		c-0.5-10.6,4.5-18.6,10.8-26c-0.4,3.1-0.5,6.3-1.2,9.3c-2.8,11.9-7.5,23.7-8.2,35.8c-1.3,21.1-2.3,42.5,6.2,62.8
		c-0.5,20,9.4,36.4,18.4,53c11,20.3,14.9,42.4,17.4,64.8c0.8,7,2.1,12.9,6.6,18.7c9.2,11.7,19.3,44.8,20,58.9
		c0.7,14.5-1.6,28.6-4.5,43.3c-4.5,10.9-12.7,21-15,34c-0.2-0.2-0.4-0.4-0.6-0.6c-0.9,0.8-1.8,1.5-2.7,2.3c0.3,0.3,0.7,0.7,1,1
		c0.8-0.9,1.5-1.8,1.9-3c10.6-7.3,16.9-18.1,22.7-28.9c4.6-8.5,8.3-17.9,6.8-28.2c6.8-7.5,3-16.6,2.9-24.8c0-8.6-2-17.5-4.4-25.9
		c-5.3-18.4-13.5-35.8-21.7-53.1c-8-17.1-14.1-34.4-12.9-53.2c-14.2-17.2-20.5-37.7-26.1-58.2c-2.7-9.8-0.1-53.9,3.5-63.8
		c6.2-17,10.8-34.7,19.3-50.9c3.6-6.7,7.8-13.2,11.7-19.7c7.8-12.9,15.6-25.7,26.5-36.5c12.1-12.1,23.6-24.9,34.6-38
		c5-5.9,8.1-13.5,15.7-17c0,1.6,0.7,3.9-0.1,4.8c-13,15.4-26.1,30.8-39.3,46c-5.2,6-10.4,11.9-15.3,18.1
		c-18.5,23.7-28.6,41.7-38.9,69.2c-7.3,19.5-13.6,39.4-11.3,60.9c0.6,5.4,0.5,11,0,16.4c-1.9,19.6,7.3,36.4,14.9,52.8
		c9.4,20.4,24.7,37.7,36.5,57c14.6,23.7,27,48.3,27.3,77.1c0,1.6-0.6,3.6,0.1,4.9c8.7,15.1-2.9,29.6-1,44.5
		c-4.9,3.5-0.9,9.1-3.4,13.4c-7.6,13.5-13.6,27.9-25.5,38.6c-5.3,4.7-10.1,10-15.1,15c-0.3,0.3-0.8,0.9-0.7,1.1
		c0.2,0.5,0.7,0.8,2.1,2.2c2.6-2,5.1-4.6,8.1-6.1c17.3-8.2,23.3-26.4,35.4-39.2c-0.8-6.8,4.4-11.3,6.4-17c2-5.8,3.6-12.2,3.1-18.2
		c-0.6-6.8,3.5-12.1,3.6-18.3c0-2.7,1-6-0.2-8.1c-6.3-12.1-5.7-25.9-9.1-38.8c-3.7-13.9-5.2-28.7-6.5-43.1
		c-1.1-12.9-6.4-23.7-10.7-35.1c-5.5-14.6-12.7-28.6-18.5-43.1c-7.3-18.7-10.8-38.4-14-58.1c-3.1-18.7,3.3-37.2,3.2-56
		c0-0.9,0.8-1.8,1.1-2.8c3.6-11.1,7.2-22.1,11.4-32.9c5.3-13.8,11.2-27.5,19.1-39.5c14.5-22.2,31.5-42.6,47-64.2
		c8.3-11.6,15.1-24.4,23.5-36.1c4.2-5.9,4.8-12.2,6.6-18.7c1.9-6.7,4.4-13.6,6.8-20.1c3.7-10.1,5.5-20.6,9.1-30.6
		c3.7-10.2,7.2-20.5,6.6-31.7c6-6.8,3.9-15.8,5.9-23.7c2-7.8,2.6-16.4,3.7-24.7c2.4-19.2-1.5-38.3-3.6-57.4
		c-0.1-0.5-1.8-0.8-5.2-1.1c0.9,0,1.9-0.1,2.8-0.1c-0.4-2.1-0.8-4.3-1.3-6.4c-0.7,0.1-1.4,0.2-2.1,0.3c0.2,2.1,0.4,4.2,3.1,6.2
		c-1,6.7,0.5,13.4-1.9,20.5c-6.8,20.1-14,39.9-23.2,59.2c-6.1,12.8-8.4,27.3-10.8,41.3c-1.2,7.2,0.6,14.3,2.7,21.6
		c3.7,13.1-3.2,26.1-3.1,39.5c0,2.8-2.5,5.6-3,8.5c-3.5,17.8-12.5,33.1-21.3,48.5c-0.9,1.6-3.3,2.4-5,3.5c0.5-3.6-0.5-6.9,2.1-10.6
		c15.2-21.5,23.8-45.3,24.1-71.9c0.1-11.5,0.7-23-0.1-34.4c-1.5-22.1,6.9-41.4,15.5-60.8c9.9-22.2,20-44.4,17.5-68.4
		c-2-3.9-3.4-6.6-4.9-9.5c-1.5,1.5-3,2.9-4.8,4.6c0.9,1.1,2.5,2.1,2.6,3.2c0.4,6.5-0.1,13.1,0.6,19.5c1.6,14.7-6.5,25.8-13.8,36.9
		c-6.6,10-15,18.8-21.7,28.7c-9.5,14-15.9,29.1-13.8,46.7c0.8,7.3,0.4,14.3,3,21.7c3.1,9,1.2,41.5-3.2,49.1
		c-5.7,9.9-7.1,23.1-19.3,28.8c-0.4-5.6,2.8-9.8,5.8-13.8c6.6-8.9,10.4-18.6,10.6-29.8c0.1-3.6-0.9-7.4,2.8-10.3
		c1.1-0.9,1.3-5,0.3-6c-5.7-6.1-2.2-13.3-3.1-19.9c-0.5-3.6,0.4-7.8-1-11c-7.5-16.7,0.3-31.7,6-46.1c4.1-10.2,13.3-18.3,20-27.5
		c1.1-1.5,0.8-4,1.2-6C894.8,830.8,895.9,829.7,896.7,828.9z M903.7,1510c5.5-3,10.9-7.4,17.1-9.1c11.5-3.1,19-9.9,24-20.2
		c6-12.2,12.1-24.4,17.9-36.3c-1.9-3.3-3.6-6.2-5.2-8.8c-6.2,16.2-11.9,32.8-25.7,44.7c-5.8,5.1-12.5,9.2-18.7,13.8
		c-1.9,1.4-8.7,13-9.2,14.2c-9.1,9.1-12.3,19.4-16.5,28.9c-1,2.3,2.1,6.4,3.7,10.9c3.4-6.5,5.9-11.5,7.9-15.3
		C900.7,1524.7,902.1,1517.5,903.7,1510z M585.2,2110.7c0.2-0.2,0.4-0.4,0.6-0.6c-0.8-0.9-1.5-1.8-2.3-2.7c-0.3,0.3-0.7,0.7-1,1
		c0.9,0.8,1.8,1.5,1.6,2.2c11.9,10.5,9.5,25.4,13.8,38.2c-3.9,13.6-6.2,27.7-12.4,40.6c-3.8,8-5.9,16.5-6.4,25.1
		c-0.6,12.5-0.6,25.1,0,37.6c0.4,7.1,2.3,14.2,4.1,21.2c0.3,1.1,2.1,5.3,5.2,3.1c-1.1-5.9-1.7-11.5-3.1-17
		c-4-15.5-3.4-25.8-0.8-38.6c2.1-10.2,6.3-19.1,10.2-28.5c5.1-12.2,11.8-23.4,16.6-35.5c0-8.6,0-17.3,0-26.9
		c-7.5,0.6-3.9-9.5-11.6-10.8C594.8,2118.3,593.1,2109.1,585.2,2110.7z M600.9,1113.3c-0.3,7.3-0.3,7.3,5.8,13.4
		c7.2,7.2,14.5,20.1,18.5,31.3c0.4,1.1,3.3,1.3,5.8,2.2c0-4.9,0-8.6,0-12.5c-9.8-11.3-20-22.9-34-33.9c0.7-0.1,1.5-0.2,2.2-0.3
		c-1-2.3-1.5-5-3-6.9c-4.8-6.3-9.8-12.4-15-18.3c-8.9-10.4-7.9-24-12.1-35.9c7.2-8.9-0.7-21.1,6.6-30c-0.2-15.5,4.9-30.4,3.5-46.1
		c-1-11.1-0.9-10.9-6.6-25.1c-8.1-20.2-22.2-36.3-35-54.7c-2.9,4.9-5.2,8.8-7.5,12.7c6.6,6.6,13.6,12.7,19.6,19.8
		c6.7,7.9,13.8,15.9,18.3,25.1c9,18.2,7.6,37.9,3.5,57.2c-2.1,10.1-5.8,19.8-5.7,30.3c0.1,10.4,0,20.7,0,29.8
		c4.2,8.2,6.9,16.2,11.7,22.5C583.1,1101.3,590.5,1107.2,600.9,1113.3z M578.4,1753c0.6,0.3,1.1,0.5,1.7,0.8c2.9-5.6,6.7-11,8.5-17
		c4.2-14.2,10.7-26.7,21.9-36.7c5.3-4.7,10-10,15.1-14.9c5.7-5.5,9.4-11.9,13.1-19c8.9-17.3,15.8-36.2,32.3-48.8
		c-0.4-3-0.9-5.8-1.5-10.3c-17.6,12-28.5,27.7-37.7,43.9c-9.7,16.9-19.4,33.5-34.5,46c-8.2,6.7-11.7,16-14.5,25.1
		c-3,9.9-3,20.7-7.6,39.1c2.5-2.2,3.7-2.9,3.7-3.3c-0.2-1.6-0.9-3.1-1.4-4.6C576.9,1755,576.3,1757,578.4,1753z M946.1,1336.7
		c-0.5,0-1.4-0.2-1.5,0c-8.2,16.7-16.4,33.3-14.8,52.8c0.2,2.2,0.9,5.1-0.1,6.4c-4.1,5.2-2.6,11.1-3.2,16.8
		c-0.7,5.6-2.2,11.1-3.2,16.7c-2.8,16.6-7.6,32.6-14.5,48c-6.9,15.5-18.2,28.1-27.4,41.3c1.6,3.1,2.9,5.6,4.9,9.3
		c2.8-5.6,4.8-10.3,7.5-14.6c7-11.3,12.8-22.8,25.1-30.7c9.5-6,18.8-14.6,23.9-25.7c5.4-11.7,10.8-23.4,10-36.8
		c-0.3-4.3,0-8.7,0-13.1c1.5-11.2,17.4-13.2,16.5-26.4c-13.9-11.2-23.8-24.8-23.4-44.3c0.2,0.2,0.4,0.4,0.6,0.6
		c0.9-0.8,1.8-1.5,2.7-2.3c-0.3-0.3-0.7-0.7-1-1C947.3,1334.6,946.6,1335.5,946.1,1336.7z M407.9,1677.6c-1,0-2,0.1-3,0.1
		c0.4,3.2,0.8,6.4,1.3,9.7c0.7-0.1,1.5-0.1,2.2-0.2c-0.2-3.2-0.3-6.4-3.1-9.5c0-10.3,0-20.7,0-31s0.4-20.7-0.1-31
		c-0.5-10.7,2.7-20.9,4-31.2c2.3-18,6.3-36.2,13.6-53c3.1-7.2,1.8-11.7-1.1-17.4c-1.4-2.7-1.9-5.8-3.4-8.4
		c-4.7-8.3-9.6-16.5-15.6-26.7c-2.1,6.2-3.7,10.4-5.1,14.7c-7.6,23.5-13.1,47.7-14.9,72.1C379.8,1604.5,393.1,1641,407.9,1677.6z
		 M306.9,1159.7c0.9-0.4,2.7-0.8,2.7-1.2c-0.6-15.5,2.9-30.6,3.8-46c0.5-9.3-0.9-18.7,0.4-27.8c1.3-10-3.6-18.6-3.8-28.2
		c-0.2-12.7-2-25.3-3.1-38c0-0.5,0.1-1.3-0.1-1.6c-6.8-6-1.3-14.9-5.9-22.3c-3.8-6.1-2-15.3-4-22.8c-2-7.7-1.1-16.4-3.8-23
		c-3-7.2,0.5-14.9-3-20c-5-7.5-1.8-14.7-2.7-21.9c-0.8-7,0.2-14.2-0.2-21.3c-1.7-28.2,3.7-55.1,13.1-81.5
		c8.6-24.1,22.8-43.6,46.6-56.3c-6.4-1.8-12.1-3.5-17.7-5.1c-20.9,18.8-38,39.4-46.9,66.1c-4.4,13-9.6,26-11,39.6
		c-1.5,14.6-0.8,29.5-0.2,44.2c0.5,14.3,2.1,28.6,3.2,42.9c0.1,1,0,2.2,0.4,3.1c5.7,12.9,6.4,26.9,9,40.4
		c2.4,12.7,8.7,24.7,7.2,38.1c7.2,4.7,0.5,13,5.4,19.2c3.8,4.8,0.8,12.8,3.8,19.6c2.6,5.7-0.5,13.6,3.8,19.7
		c-1.1,17.7,5.3,34.9,3.5,52.8c-1.1,10.3-0.2,20.7-0.6,31.8c-3.8,6.2-3.8,6.2,0,15.9C306.5,1170.1,306.5,1164.9,306.9,1159.7z
		 M566.1,1958.5c14.1-9.8,26.5-15.6,35.6-26.3c10.9-12.8,19-26.1,16.4-41.9c-8.3-11-15.6-20.6-22.4-29.5c0-7.8,0-14.8,0-20.5
		c3.4-4.5,5.6-8.8,9-11.6c3.8-3.2,8.5-5.7,13.1-7.8c9.1-4.2,14.8-10.8,16.5-17.5c-1.4-9.7-1.1-16.8-3.6-22.7
		c-8.4-19.8,2.1-51.6,19.1-63.5c10.2-7.2,18.4-16.2,25.3-22.5c5.6-13.7,10.2-24.9,15.1-36.8c0-3.3,0-7.6,0-11.8
		c-2.2-1.9-4.1-3.6-6.9-6c-2,3.7-3.1,6.4-4.9,8.6c-11.9,14.9-22.8,30.4-31.3,47.6c-5,10.1-13,17.7-22.4,24.1
		c-14.8,10-22.7,24-22.7,42.1c-0.1,12.6-0.1,25.1,0,37.7c0.1,9.7-2.2,18.1-8.7,26c-5.1,6.1-7.5,14.4-12,21.1
		c-3.5,5.2-2.1,9.2-0.5,14.7c3.6,12.8,11.9,23.5,14.2,34.5c-3.3,12-5.8,22.3-11.8,31.4c-5.8,8.8-10.4,18.5-13.7,28.8
		c-0.2-0.2-0.4-0.4-0.6-0.6c-0.9,0.8-1.8,1.5-2.7,2.3c0.3,0.3,0.7,0.7,1,1C568,1958.4,568.7,1957.5,566.1,1958.5z M399.7,782.7
		c-2.7,0-5.1-0.7-5.9,0.1c-11.2,11.7-25.3,21.3-29.1,38.7c-12.5,16.6-11.2,37.1-15,56c-3.9,19.7,3.5,39.3,3,59.2
		c5,6.6,0.5,15.8,3.9,21.2c4.6,7.3,1.2,15.2,5.2,22.6c3.3,6.1,5.5,14.2,7,21.5c5.7,29,18.6,55.2,29.3,85.2
		c8.6-13.8,15.9-25.6,23.1-37c-9-14.5-14.8-30.3-22.2-45.2c-5.3-10.8-7.9-22.9-11.1-34.7c-3.3-12.3-9.8-23.9-8.9-37.3
		c-5.5-6.5-1.2-14.8-3.6-21.4c-2.9-7.8-3-15.5-2.9-23.3c0.3-13.3-0.4-26.4,2.8-39.7c3.3-13.9,5.8-27.9,12.8-40.6
		c4.4-7.9,7.6-16.5,10.2-25.4c0.2,0.2,0.4,0.4,0.6,0.6c0.9-0.8,1.8-1.5,2.7-2.3c-0.3-0.3-0.7-0.7-1-1
		C399.9,780.6,399.1,781.5,399.7,782.7z M891.3,1012.4c-0.5-0.3-1-0.5-1.6-0.8c-8.4,11.5-16.5,23.4-25.3,34.6
		c-18.7,23.9-36.8,48.1-47.3,77c-7.8,21.3-15.8,42.5-15.2,65.7c0.2,8.7-0.4,17.5,0.2,26.2c0.5,8.3,1.8,16.6,3.2,24.8
		c1.1,6,2.4,12.1,4.6,17.7c7.5,19.7,15.4,39.3,23.1,58.9c0.6-0.1,1.1-0.3,1.7-0.4c0-29.9,0-59.8,0-89.7c0-3.8-1.4-8.6,0.3-11.3
		c3.9-6,2.4-12.3,3.1-18.5c0.7-6.1,2.3-12.2,3.2-18.3c1.3-8.8,0-18.9,4-26.1c3.2-5.8-0.8-13.4,5.9-17.3c-2.1-7.2,2.9-13.1,3.8-19.8
		c0.8-5.9,3.9-11.4,6-17.1c8.1-22.3,15.4-44.9,24.8-66.7c2.6-6,3.8-12.7,8.5-27.3c-2.5,2.2-3.7,2.9-3.7,3.3c0.2,1.6,0.9,3.1,1.4,4.6
		C892.5,1010.2,893.1,1008.2,891.3,1012.4z M575,2254.6c-0.9,0-1.9,0.1-2.8,0.1c0.4,2.1,0.8,4.3,1.3,6.4c0.7-0.1,1.4-0.2,2.1-0.3
		c-0.2-2.1-0.4-4.2-3.1-4c0-8.7,0.8-15.4-0.2-21.8c-1.8-12.5,2.6-24.2,3.9-36.3c0.8-7.1,7.2-13.5,8.7-20.8
		c2.5-11.5,9.5-22.8,6.9-34.7c-3.6-16.6-10.4-32.1-22.8-44.6c-6.7-6.8-13.3-13.9-18.3-21.9c-3.9-6.3-6.5-14-7.4-21.4
		c-1.2-10.2-1-20.8,0-31.1c0.6-6.6,4.3-12.9,3-20c6.5-4.7,2.1-12,4.1-17.9c8.2-24.1,17.9-47.4,32.4-68.6c5.1-7.5,8.7-16.8,4.9-26.4
		c-3.5-8.9-7.5-17.6-10.9-25.5c-6.5-22.2,8.7-35.9,17.5-50.3c1.5-8.1,2.7-14.7,3.9-20.9c-7.5-16.9,0.7-33.4,0.8-48.4
		c5.9-14,14-24.2,26.2-31.6c7.4-4.5,13.4-11.7,16.3-20.8c1.4-4.3,4.5-8,7.1-11.8c10.7-15.8,21.4-31.5,32.6-48c-1-2-2.1-4.2-3.2-6.5
		c-0.9-2-1.8-4.1-2.8-6.3c-15.4,9.4-20.3,24.5-27.3,38.2c-2.3,4.5-4.4,9.1-6.8,13.6c-6.8,12.6-18.3,21-27.8,31
		c-4.7,5-8.6,10.2-11.4,16.6c-9.7,21.7-19.9,43.1-30.3,64.5c-7.7,16-12,33.2-8.4,50.3c3.7,17.7,6.5,35.1,6.1,53.1
		c-0.2,11.2-3.3,21.4-10.1,30.3c-8.5,11-14.4,23.4-19.3,36.3c-3.1,8-5.3,16.6-6.5,25.1c-1.2,8.8,1.3,18.1-3.4,26.5
		c-0.5,0.8-0.5,2.7,0,3.2c4.6,4.4,3.3,9.9,3.1,15.1c-0.4,15.3,5.2,29.4,9,43.8c5.8,21.5,15.9,40.6,28.9,58.6
		c6.1,8.4,10.2,18.4,7.9,29.4c-1.3,5.9-3.7,11.5-6,17.2c-3.3,8.5-9.3,16.7-9.8,25.3C562,2217.8,559.4,2237.4,575,2254.6z M830,228.2
		c2.2,2.5,2.9,3.7,3.3,3.7c1.6-0.2,3.1-0.9,4.6-1.4c-2-0.6-4-1.1,0,1.5c0.7,6.3,6,2.3,8.9,3.8c20.3,10.3,39.3,22.6,56.5,37.3
		c12.8,11,24,23.8,36.1,35.6c2.6,2.5,3.9,5,3.4,8.5c-19-14.1-33.2-33.4-52-47.9c-11.2-8.6-24.3-14.1-34.5-23.9
		c-18.2-4.6-33.9-16-52.3-20c-8.5-1.8-15.9-7.5-25.6-7c-3.8-3-3.8-3-9.2,0c3.7,0,6.7,0,9.7,0.4c0.9,1.1,1.5,2.7,2.6,3.2
		c6.9,3.1,14.1,5.4,20.8,8.9c18.8,9.7,36.1,24.6,51.4,41.1c7.8,8.4,17.9,14.3,26.7,21.8c15.7,13.4,16.9,12.1,23.1,23.5
		c-5.3,1.2-9.2-2.5-12.6-4.9c-4-2.8-5.8-8.8-9.6-12c-4.2-3.5-9.7-5.5-14.4-8.4c-1.2-0.7-1.8-2.5-2.7-3.8c-1.4-2.1-2.4-5.1-4.4-6.2
		c-7.5-4.2-13.8-9.3-19.5-15.9c-5.7-6.8-13.6-11.7-20.4-17.6c-11-9.5-24-15.4-45.7-23.4c2.2,2.5,2.9,3.7,3.3,3.7
		c1.6-0.2,3.1-0.9,4.6-1.4c-2-0.6-4-1.1,0,1.5c0.8,1.3,1.2,3.2,2.4,3.9c16.3,9.4,29.1,23,42.5,35.9c13.4,12.8,23.8,27.4,31.5,44.4
		c5.4,11.9,13.2,22.8,24.2,30.6c11.7,8.2,30.3,28.8,40.7,40.5c9.5,10.7,16,23,23.6,34.7c10,15.3,16.8,32.4,21.8,49.9
		c4.1,14.5,3.7,29.9,6.3,44.8c2.4,13.8,9.4,26.9,7,41.4c6.4,5.8,1,13.8,3.6,19.8c2.8,6.7,3,13.2,3,20.1c0,20.8-0.3,41.5,0.1,62.3
		c0.2,9.7-2.8,18.5-5.1,27.5c-4.1,16-13.4,29.3-24.1,42.5c17.5-8,32.3-0.5,47.9,5.9c1.9-1.9,4.6-4.6,7.3-7.3
		c-2.2-2.3-4.4-4.7-6.3-6.7c0-4.7,0-9.1,0-12.4c3-3.4,5.6-6.3,8.1-9.1c0.3,0.5,0.5,1,0.8,1.4c3.7-1.7,7.3-3.3,10-4.6
		c0-6.3,0-11,0-15.6c-7.6-1.4-8-7.3-9.8-12.7c1.8-3.7,3.6-7.3,4.8-9.7c4.7-2.2,8.3-4,11-5.3c1.7-5.2,3.1-9.5,4.6-14.2
		c-2-0.7-3.9-1.3-6-2c-1.6-4.1-3.2-8.4-5.1-13.5c4.7-3.8,9.1-7.3,13.9-11.2c1.5-4.8,6.1-10.2,3.4-14.9c-4.4-3.1-7.3-5.2-9.5-6.8
		c0-5.3,0-9.6,0-15.6c1.9-1.1,4.6-2.8,6.7-4.1c-1.9-5.8-3.3-10.1-3.7-11.4c-6-5.5-10-9.2-14.1-13c1.9-5.1,3.4-8.9,4.8-12.7
		c-2.3-4.4-4.4-8.4-6-11.6c-5.1-2.5-9.2-4.4-13.2-6.5c-0.6-0.3-0.7-1.8-1.2-3.7c1.2-3.2,2.6-6.9,3.6-9.6c-0.4-12-10.8-14.1-17-20.9
		c0.9-3,1.8-6.4,2.6-9.3c-2.3-5.9-4.7-12-7.2-18.2c-3.8-2.5-7.7-5-12-7.8c1.1-3.7,2-7.1,2.6-9.3c-5-12.8-6.7-27.8-22.5-33.1
		c1.9-3.8,3.2-6.4,4.9-9.8c-8.1-5.5-8.8-18-20.4-19.7c0-4,0-7.2,0-8.5c-3.8-5.7-6.4-10.4-9.8-14.3c-3.3-3.8-5.9-9-12.6-8.8
		c-2.1,0.1-6.2-2.9-6.1-4c1.3-9.3-8.4-11.8-10.7-18.7c8.2-1.4,9.8,7.4,14.9,9.6c3.2,0.4,5.7,0.7,6.5,0.8
		c8.1,15.4,15.2,29.3,30.9,36.1c0,4,0,7.7,0,11.4c4.6,11,16.4,14.6,23.3,22.8c-1.4,3.6-2.7,6.9-3.9,9.9c4.1,8.3,7.8,16,11.7,23.8
		c2.4,0.3,5,0.6,8.9,1.1c-0.8,5-1.5,9.9-2.3,15.3c3.1,6.1,6.7,13.2,10.1,19.8c3.3,0.4,5.8,0.7,8.2,0.9c0,6.5,0,12,0,19.1
		c4.7,4.4,10.2,9.5,16.4,15.2c0,3.9-0.5,8.9,0.1,13.7c0.6,4.5,2.3,8.8,3.2,12c5.2,2.1,9.4,3.8,14,5.7c-1.2,7.4-2.1,13.5-3.1,19.8
		c0.7,3.5,1.4,7.4,2.2,11.4c0.3,1.4,0.9,2.8,1.3,4.2c2.6,0,4.8,0,6.9,0c1.6,1.6,3.1,3.1,4.4,4.4c0,5,0,9.8,0,13.3
		c-3.8,2.6-6.8,4.6-9.3,6.3c0,6.2,0,11.6,0,17c2,2,3.9,3.9,6.2,6.2c0,4.4,0,9.2,0,14.5c-4.1,3-8.3,6-11.9,8.7
		c-1.4,4.5-2.8,8.9-4.5,14.2c8.5,0.2,9.2,6.6,10.6,13.2c-1.8,3.3-2.9,8.9-5.8,10c-10.8,4.2-10.5,13-11.4,22.7
		c2.3,1.7,4.9,3.6,6.7,4.9c0,5.5,0,9.8,0,12.5c-3.2,3.9-5.7,6.9-6.1,7.4c-7.5,2.4-12.2,3.9-17.8,5.7c2.8,2.8,4.3,4.3,6,6
		c3.1,0,6.4,0,10.7,0c3.2-3.4,6.9-7.4,10.7-11.3c21.2-21.7,30.9-48.2,33-78c0.8-10.8-2.2-20.9-3.3-31.4c-0.1-1.2,0.8-2.4,1.4-3.8
		c2,2,3.6,3.5,5.1,4.9c0,3.9,0,7.7,0,11.6c0,3.8-1.5,9.7,0.3,11.1c5.3,4-0.8,6.2-0.4,9.1c0.5,3.8,0.2,7.6,0.1,11.4
		c-0.1,3.2,0.7,6.9-0.6,9.6c-3.7,7.5-3.2,16.2-7,23.3c-4.1,7.7-11.3,13.9-14.4,21.9c-2.9,7.5-10.9,10.5-14.4,19.4
		c5-1.8,8.2-3.6,11.6-4.1c4.3-0.6,8.7-0.1,13.1-0.1c8.6-8.7,15.9-23.1,18.3-34.9c2-10.3,4.5-20.5,6.8-30.8c3,5.1,4.6,10.7,2.6,14.3
		c-2.4,4.1-1.6,8.3-3.1,11.9c-1.9,4.5-1.8,9.2-3.3,13.4c-3.4,9.6-5.5,20.2-14.8,26.6c-0.4,0.3-0.3,1.5-0.5,2.5c5,0,9.8,0,13.4,0
		c4.6-3.6,8.3-6.6,12.1-9.5c1.4,1.1,4,3.2,4.1,3.1c5.1-5.7,12.3-1.6,17.1-3.4c8.4-8,2.6-15.9,1.4-24.4c3.6-2.9,7.3-6,8.8-7.1
		c2-8.4,3.3-13.9,4.5-18.9c-2.5-3-4.8-5.7-7.1-8.5c3.1-3.5,5.5-6.2,8-9.1c-2.6-8.2-3.2-16.7-11.1-22.6c1.1-4.8,2.3-9.8,3.6-15.2
		c-4-4.6-2.3-12.8-9.1-17.1c-1.1-0.7,0.9-6.4,1.7-11.6c-3.1-6.9-7.1-15.9-10.6-23.9c0.9-2.7,2.5-5.2,1.9-6.4
		c-6-10.7-8.1-22.8-12.9-33.9c-1.6-3.7-1.8-8-3.6-11.6c-0.9-1.8-3.9-2.6-6-3.9c0.2-19.2-16.8-30.8-21-47.1c-2.6-0.8-4-1.2-5.5-1.6
		c0-2.5,0-4.7,0-7.9c-2.7-2.5-6.7-4.9-9-8.4c-13.2-19.8-28.2-38.1-45.1-54.8c-3.5-3.4-7.2-6.7-10.3-10.5c-1.1-1.4-0.9-3.9-1.3-6
		c0.9,0.4,2.1,0.6,2.8,1.2c20.2,18.5,37.7,39.4,54.2,61.1c8.3,10.9,18.7,20.7,22.6,34.8c0.7,2.6,5.6,4.2,8.9,6.5
		c1.1,3.8-0.4,8.2,2.9,12.9c6.9,9.9,12.4,20.8,14.6,33.2c0.6,3.1,2.2,9.5,8.9,9c-1.3,11.6-0.1,22.4,9.9,29.8c0,7.1,0,13.6,0,19.7
		c3.4,5,6.6,9.7,10.1,15c-1.2,3-2.5,6.3-3.6,9c2.6,8.9,5.7,17.1,12.4,21.3c-1.1,6-2.3,10.4-2.7,15c-0.4,4.9-0.1,9.8-0.1,14.8
		c2.2,2.3,4.4,4.6,6.4,6.8c0,2.4,0,4.6,0,8.2c-1.9,1.3-4.5,3.1-5.4,3.7c-1.2,7.5-2,13-3,18.9c1.3,1.3,3.3,3.2,4.6,4.5
		c0,3.2,0,5.8,0,8.4c-4.3,2.7-8.2,5.2-12.2,7.8c0,2.8,0,5.4,0,8.4c5.4,0,10.6,0,16,0c1.6-3.1,2.3-7.2,4.5-8.3
		c7.9-4,11.2-11.7,14.3-18.6c3.3-7.3,4-16.2,4.1-24.4c0.4-22.7-0.1-45.2-5.7-67.8c-4.5-18.4-9.2-36.6-15.9-54.1
		c-8.4-22-21.9-41.3-34.6-61c-12.5-19.3-24-39.2-36-58.7c-13.7-22.1-26.9-44.7-46.1-62.8c-9.7-9.1-20-17.7-29.8-26.7
		c-17.1-15.6-32.9-32.5-50.4-47.9c-22.8-20.1-47.1-37.5-74.5-50C861.9,237.9,851.2,230.1,830,228.2z M631.4,215.6
		c-9.2-0.8-16.9,3.3-25.3,6.3c-12.9,4.6-27.1,5.7-37.8,15.7c-1,0.9-3,0.6-4.5,1c-3.9,1.1-8.1,1.6-11.7,3.4
		c-5.5,2.8-10.5,9.1-15.7,9.1c-7.2,0-8.7,8.3-15.2,7.5c-0.1,9.3-9.5,6-13.9,9.8c-4.7,4-7.2,9.8-12.3,12.8
		c-5.5,3.2-10.9,5.5-14.9,11.4c-3.7,5.4-10.3,8.7-15.7,13c-2.7,2.1-3.6,4.7-3.8,8.3c-0.5,6.1-5.4,7.2-11.3,6.7
		c-3.3,3.7-6.8,7.8-10.6,12.1c0.3,0.4,1.3,1.5,2.7,3.1c-7.5,4.2-14.6,9.2-23.2,11.5c0-2.1,0-3.7,0-5.4c2.6-1.5,6.1-2.5,7.7-4.8
		c2-2.7,2.4-6.6,3.6-9.9c2.3,0,4.4,0,6.4,0c4-4,7.8-7.8,12.4-12.3c0-1.8,0-4.4,0-6.9c3.2-0.4,5.7-0.7,8.1-0.9
		c10-9.2,16.1-22.2,28.9-25.2c2.3-5.8,3.9-9.9,5.7-14.5c2.2,1.9,3.3,2.9,4.5,3.9c4.1-6.8,15.3-6.3,15.7-15.5
		c14.6-2.4,25.2-12,37.7-17.5c12.5-5.4,25.1-10.6,37.8-15.5c12.3-4.7,24.9-8.4,41.1-13.7c-8,0-13-1.5-16.4,0.3
		c-8.1,4.2-17,3.8-25.4,5.9c-21.8,5.4-42.8,12.7-63,22c-20.4,9.4-40.7,19.1-58.1,33.9c-11.5,9.8-24.3,17.9-36.1,27.3
		c-10,8-18.5,18-29,25.1c-11.2,7.5-20.3,17.3-32.5,24c-13.2,7.2-26.5,15.8-35.6,28.5c-3.4,4.7-9.6,5.1-12.2,11
		c-2.1,4.6-6.6,10-11.1,11.4c-6.8,2.1-6.9,8.4-11,12.1c-11.8,10.4-19.8,24-26.6,38c-8.8,18.2-17.2,36.6-24.3,55.4
		c-4.4,11.7-8.2,24.8-4.7,36.9c2,6.9,2.2,13.4,2.5,20.1c0.6,13.8-4.8,27.1-3.4,41.2c0.9,9.4,3,18.5,7,26.6
		c6,12.3,13.6,23.9,20.8,35.6c9.1,14.8,18.8,29.3,27.6,44.3c3.3,5.6,4.7,12.2,8.1,21.2c3.5-11.8,8.1,1.1,12-4.7
		c-5.4-5-14.3-8.1-12.8-18.8c1.7-3.1,3.8-7.1,5.8-10.7c-3.3-5.9-6.5-11.8-9.8-17.8c-4.1,0-7.8,0-9.1,0c-4.6-3.6-7.5-6-9.7-7.7
		c0-4.3,0-7.6,0-13.2c1.2-0.6,3.9-2,5.6-2.9c-2.8-5.9-4.9-10.5-7.4-15.7c-7.9,2.4-10.7-4.4-16.1-9.3c2.1-6.2,4.3-12.4,6.3-18.3
		c-0.9-4.6-1.9-9.5-2.7-13.6c-4.3-1.5-8.1-2.9-11.8-4.2c0-5.9,0-10.7,0-19.1c2.1-1.1,6.4-3.5,10.6-5.9c-2.1-3.6-3.4-5.8-4.7-8.1
		c1.3-2.4,2.6-4.6,4.1-7.2c-2.5-2.8-4.9-5.5-6.7-7.5c0-4.1,0-7.3,0-10.9c3.2-1.8,6.3-3.6,8.5-4.9c1.3-5.6,2.5-10.6,3.3-13.9
		c-1.1-7.5-2-13.5-3.1-20.8c4.9-1.8,9.2-3.4,13.6-5c7.2-16.8,7.2-16.8,3.5-27.4c5.7-3.2,12.2-5.5,17.1-9.8
		c5.6-4.9,7.2-12.3,5.8-20.3c4.3-1.7,7.6-3,10.5-4.1c4.1-4.1,8.2-8.3,12.8-13c0-3.8-1.4-9.7,4.4-11.6c3.2-1.1,7.4,0.6,8.6,0.8
		c4.4-4.4,8-8,11.5-11.5c0.1,0.1-0.7-0.7,0,0c2.9-2.6,5.8-5.3,8.6-7.7c0.7,0.3,2.5,1.1,4,1.7c4.4-4.3,8.3-8.1,12.2-11.9
		c0-2.3,0-4.5,0-6.7c3-1.4,5.9-2.9,8.7-4.2c1.2,1.2,2,2,2.3,2.3c4-2.7,7.8-5.3,11.9-8c0-1.8,0-4,0-2.9c4.6-4.3,7.4-7,10.1-9.5
		c1.3,0.4,3.8,1,6.3,1.2c-1.4,4.3-2.7,8.7-4,12.8c-10.2,0.4-18.2,4.5-21.9,13.3c-2.7,6.4-7.3,6.6-12.4,7.3
		c-4.8,5.6-12.5,9.2-11.2,18.7c-4.1,0.2-7.8,0.4-11.3,0.6c-9.7,8.4-15.3,21.2-28.7,25.5c-1.8,0.6-3.2,2.9-4.6,4.5
		c-0.6,0.7-0.7,1.9-1.1,3.1c0.9,1.5,1.9,3.1,2.7,4.2c-1.5,2.9-2.9,5.6-4.3,8.3c-3.3,0-6.6,0-9.4,0c-2.8,4.1-5.4,7.9-9.1,13.4
		c0,4,0,9.8,0,15.2c-3.2,1.4-5.8,2.5-8.3,3.5c-1-1-1.8-1.8-2.7-2.7c-2.7,5.4-5.5,10.8-7.4,14.6c1.1,6.8,2,12.2,3,18.4
		c-13.2,1.9-14,12.1-17.2,21.3c2.3,1.8,4.8,3.8,6.8,5.3c0,4.3,0,7.6,0,11.4c-3.1,2.1-6.5,4.3-9.6,6.4c0,6.6,0,13.1,0,22.2
		c2.3,2.1,5.9,5.3,9.5,8.6c-8.3,18.9-9.3,12.1-1.4,29.7c8.4-2.6,10.6,4.7,15.8,9.2c-2.7,6-5.2,11.5-7.8,17.2
		c2.3,3.9,4.6,7.9,7.4,12.8c3.9,0,8,0,11.8,0c2.8,4.9,5.1,8.9,7.4,12.8c-2.3,4.3-4.4,8.2-6.4,12c3.6,5.7,7.1,11.3,11.2,17.7
		c2.8,0,6.5,0,6.9,0c5.4,3.8,8.5,6,11.8,8.4c-1,6.1-1.8,11.5-2.7,17.1c0.8,1.9,1.8,4.2,2.9,6.8c8,3.2,16.2,6.5,25.8,10.4
		c-0.9-4.1-1.3-7-2.2-9.9c-4.9-16-10.9-31.7-14.4-48c-3.7-17.1-11.4-33.5-10.1-51.6c-6.2-5.8-2.9-13.3-3.1-19.9
		c-0.2-7.4-4.4-13.7-3.8-21.6c1.1-13.6-0.9-27.4,0.7-40.9c1.5-13.3,2.8-26.8,5.8-40c1.9-8.5,3.9-16.9,6.4-25.3
		c4.1-13.7,9.4-26.7,17-38.9c8.8-14.2,17.7-28.3,29.6-40.2c5-5,10.3-9.8,15-15.1c2.6-3,2.4-9.3,7.3-9.1c5.8,0.3,2.1-9.3,8.5-6.9
		c12.7-12.7,26.6-24.4,37.7-38.4c14.5-18.4,32.1-33.4,48.3-50c3.9-4,8.9-7.3,13.9-9.8c22.6-11.2,45.2-22.6,68.5-32.4
		c5.5-2.3,11.2-4.5,16.7-7c5-2.3,12.1-3.1,14.8-7c4.1-5.9,11.8-3.8,15-12c0,0.9,0.1,1.9,0.1,2.8c2.1-0.4,4.3-0.8,6.4-1.3
		c-0.1-0.7-0.2-1.4-0.3-2.1C635.5,212.6,633.4,212.8,631.4,215.6z M687.5,726.6c-0.2,0.2-0.4,0.4-0.6,0.6c0.8,0.9,1.5,1.8,2.3,2.7
		c0.3-0.3,0.7-0.7,1-1c-0.9-0.8-1.8-1.5-3-1.9c0.2-0.5,0.3-1,0.5-1.5c-7.6-1.7-15.2-3.4-23.2-5.2c-1.5-6.5-2.9-12.3-4.1-17.3
		c3.1-3.1,5-5,7.1-7.1c-3.6-5-7.2-10.1-10.9-15.3c-4.2,0-7.9,0-11.9,0c-2.6-4.8-5-9.2-7.6-13.9c2.6-5.4,5-10.4,7.1-14.6
		c-1.6-4.9-3-9.2-4.7-14.1c-4.7-2.4-9.7-4.9-13.7-7c-1.7-3.5-3.1-6.2-4.4-8.8c8.3-15.2,8.5-17.3,3.6-29.4
		c-5.9-5.1-10.1-8.7-14.6-12.5c4.1-6.3,7.5-11.4,10.4-16c-1.3-5.9-2.5-11.3-3.5-15.8c-3.5-2.4-6.5-4.4-9-6.1c0-4,0-7.3,0-13.5
		c1.8-1.8,5-5,7.6-7.6c-0.6-5.3-1.2-10.9-1.4-13c-4.7-6.2-7.5-9.9-10.7-14.1c3.4-4.3,6.4-7.9,10.7-13.3c0-3.3,0-9.2,0-14.8
		c-3.4-3.3-6.5-6.4-9.5-9.4c0-2.3,0-4.5,0-7.8c1.9-1.5,4.5-3.5,6.6-5.1c-0.2-11.2,2-21.9-6.3-29.8c10.2-15.5,12.8-11.4,6.1-39.4
		c3-2.1,6.2-4.3,10.3-7.1c-5-7,9-14.5,1.3-21.3c-0.4-6.7,6.9-8.2,7.8-11.7c2.7-9.9,6.8-19.1,9.9-28.7c4.5-13.8,12.6-25.4,19.1-38
		c8-15.4,17.6-30,26.9-45.6c-2.3,0-3.8-0.5-4.4,0.1c-12,10.6-22.5,22.7-31.3,36.1c-15.3,23.1-28,47.8-45,70
		c-8.5,11.1-15.1,24-18.9,37.9c-5.1,18.7-13.5,36.5-14.8,56.1c-5,6-1,14.1-3.7,19.7c-4.1,8.5-1.9,16.8-2.8,25.1
		c-1.1,8.8-3.1,17.7-3.1,26.5c0.1,19.2-1.2,38.5,2.5,57.8c1.4,7.5,2.2,15.8,4.5,22.9c2.3,7.4,2.8,15.1,4.8,22.5
		c5.5,20.5,8.5,41.6,11.1,62.7c0.9,7.8,1.4,15.7,3.5,23.1c2,6.7,5,13.5,9.3,19c5.6,7.3,12.1,14.4,19.7,19.6
		c8.6,5.9,18.1,12.4,29.7,7.8c0-1.8,0.4-3.1-0.1-3.9c-0.8-1.4-2-2.7-3.4-3.5c-16.3-9-26.3-23.5-33.3-40.1
		c-6.9-16.2-11.4-33-12.3-50.7c-0.6-12.6,2.2-25.4-3.9-38.6c3.4,0.4,5.3,0.6,7.6,0.8c-1.8,22.6,1,44,6.2,65.2
		c5.5,22.1,15.7,41.6,32.8,56.8c5.3,4.7,12.1,7.7,18.7,11.7C668.6,727,677.9,727,687.5,726.6z M745.9,235.6c0.2-0.2,0.4-0.4,0.6-0.6
		c-0.8-0.9-1.5-1.8-2.3-2.7c-0.3,0.3-0.7,0.7-1,1c0.9,0.8,1.8,1.5,2.3,2.2c2.4,6.7,4.9,13.3,7.2,20c4.1,11.5,3.5,24.3,9.6,35.4
		c1,1.9-1.3,5.7-1.7,7.5c1.1,5.5,2.2,10.4,3.6,17.3c0.8,0.4,3.2,1.6,4.2,2.1c-5.9,14.9,0.3,25.5,7.7,36c-1.3,1.8-3.2,3.3-3.5,5.1
		c-0.5,3.7-0.6,7.7,0,11.4c0.6,4,1.4,8.2,3.3,11.7c2.5,4.4,6.3,8.1,9.6,12.2c-2.4,2.7-4.9,5.3-6.8,7.4c1.9,7.7,3.5,14.2,5,20.5
		c1.3,0,2.4,0,3.6,0c1.4,2.9,2.9,5.9,4.3,8.7c-9.5,11-4.9,23.8-6.4,38c2.9,2.1,6.9,4.9,9.9,7.1c2.2,9.5-4.4,10.8-10.2,13.7
		c1.6,10,3.3,20.3,4.7,29c3.9,2.8,6.7,4.9,8.8,6.4c0,4.4,0,7.5,0,10.5c-2.2,2.2-4.1,4.1-5.8,5.8c0,8.3,0,16.3,0,21.8
		c5.5,5,9.6,8.7,13.8,12.5c-2.2,5.5-3.9,9.6-5.4,13.2c-2.3,0.5-3.8,0.9-5.2,1.2c0,8.5,0,16.5,0,23.6c3.7,2.4,6.7,4.3,8.9,5.7
		c0,5.8,0,10.6,0,15.1c-2.4,0.8-4.3,1.4-5.9,2c0,7.1,0,13.7,0,19.1c5,4,9.3,7.5,12.9,10.4c0.4,9.6-0.5,17-9.7,20.1
		c0,6.6,0,13.1,0,17.7c6.3,5.7,11.7,10.6,16.4,14.8c0.2,12.4-7.1,17.9-16,22c0,3,0,5.6,0,8.1c5.9,2.8,11.8,5.6,17.8,8.4
		c4-9.2,9.5-17.2,10.9-25.9c3.3-20.2,5.1-40.7,6.8-61.1c1-11.6-5.6-22.8-3.1-34.7c-6.9-5.9,0.5-16-6.6-21.9
		c1.1-8.6-4.3-15.9-5.9-25.7c6.6,3.4,7.7,8.1,9.2,12.8c5.8,19,9.3,38.4,9.6,58.2c0.3,19.2,1.1,38.5-2.8,57.7
		c-3,14.5-6,28.8-13.4,43.5c4.8,1.3,9.7,2.6,13,3.6c19.2-12.9,23.3-30.9,23.1-50.8c-0.1-7.6,0.4-15.3-0.1-22.9
		c-0.5-7.2-2.6-14.4-3.1-21.6c-1.6-23,2-46.1-2.9-69.2c-2.7-12.8-0.6-26.3-3.1-39.6c-1.7-8.6-2.6-17.3-5.3-25.8
		c-2-6.3-4.1-12.7-4.9-19.2c-0.8-7,0.6-14.3-0.4-21.2c-0.9-6.1-4.5-12-2.9-18.3c1.8-7.3-2.7-13.2-3.5-20
		c-2.4-20.1-9.1-38.4-20.5-55.5c-8.9-13.4-18.1-27.2-21.9-43.3c-2.2-9.5-4.5-19.3-8-27.9c-7.2-18.1-10.7-36.5-12.3-54.4
		C765.6,258.7,757,246.2,745.9,235.6z M746.2,222.2c0.5-0.6,1.1-1.2,1.6-1.7c-2.3-1.5-4.6-3-7.7-5c-0.1,2.2-0.3,4-0.4,6.3
		c2.6,0.2,4.6,0.3,6.5,0.4c-1.4,6.9,4.8,9.2,8.2,13c9.8,10.9,18.4,22.3,21.3,37.1c7.5,6.4-1.2,17.2,6.4,23.6
		c1.1,13.4,6.1,25.8,9.7,38.5c4.9,17.5,12.5,37.8,21.5,51.8c4.4,6.8,7.3,14.5,11.8,21.3c14.1,21.5,18,46,19,70.6
		c0.6,15,4.5,29.5,4.1,44.4c10.8,16.9,7.3,37.1,12.7,55.3c1.2,4,0.2,8.7,0.2,13.1c0,4.9,0,9.8,0,14.7c0,4.4,1.1,9.1-0.3,13
		c-1.6,4.3,4.7,6.2,1.6,11.1c-1.7,2.8,1.4,8.4,1.8,12.7c0.4,4.3-0.2,8.7,0.1,13.1c0.8,12.1-1.2,24.2,2.7,36.5
		c2.7,8.4,0.8,18.4,0.4,27.7c-0.3,7.3-5,13.9-3.2,21.6c-6.2,7.1-6.2,19.2-17.9,22c-1,0.2-1.4,3.3-2.2,5.3c7.1,0.1,14.3-2.3,17.9-4.9
		c14.2-10.3,15.7-26.3,18.5-41.5c3.1-17.1-3.7-33.9-3.1-51c0-0.5,0.2-1.2-0.1-1.6c-6.9-11.1-1.5-22.8-1.6-34.2
		c1.9,5.5-0.4,12.5,2.1,16.6c5.1,8.3,0,17.3,3.7,24.7c4.2,8.4,1.6,16.9,2.3,25.3c0.6,7.1-0.2,14.2,0.2,21.3
		c0.8,17.4-4.6,32-18.2,43.3c-0.5,0.4-0.6,1.5-1.3,3.5c7.7-1.6,14.6-3.1,21.8-4.6c0.6-1.6,1.3-3.4,2-5.3c2.7-0.3,5.3-0.6,7.6-0.9
		c1.4-2.9,2.6-5.6,4-8.5c-10.3-2-11.6-10.3-13.1-19.2c5.2-4.4,10.4-8.7,16.4-13.8c0-3.3,0-8,0-12.5c-2.3-2.3-4.2-4.2-5.7-5.7
		c0-5.2,0-10,0-14.8c4.3-2.7,8.2-5.2,12.2-7.8c0-6.1,0-11.9,0-21c-1-0.4-4.2-1.6-6.5-2.5c0.7-10.6,4.3-17.4,13.2-19.9
		c0-6,0-11.4,0-17.2c-1.5-0.4-3-0.8-5-1.3c-1.5-3.1-3.3-6.7-5-10c0.9-1.4,9.4-10.5,10.2-11c-1.2-10.6,3.8-23.3-10-29.8
		c0-3.9,0-7.7,0-11.6c0-0.5,0.2-1,0.9-4.6c0.5-0.2,3.5-1.7,5.6-2.7c0-16.3,0.2-16.5-7.8-27.7c-3.3-4.6-1.8-8.9-1.4-14.8
		c1.9-1.1,4.2-2.5,5.6-3.4c0-6.7,0-12.1,0-17.2c-3.3-3.3-6.4-6.4-9.8-9.8c1.5-9.6,2.9-19.4,4.6-30.8c-4.5-4.5-9.1-9.1-14-14
		c0.7-1.3,2-3.5,3.5-6c-0.9-1.3-2.2-2.4-2.7-3.7c-4.6-11.8-4.5-11.8-13.8-20.2c-2.5-2.3-2.9-5.2-4-8.2c-3.1-8.8-6.7-18.1-19.6-17.1
		c1-8-2.4-13.6-7.2-18.8c-1.6-1.7-1.7-4.7-2.1-7.2c7.1,5.7,14.5,11.7,19.3,15.5c5.1,9.2,8.8,15.8,12.4,22.1
		c5.1,2.9,12.9,0.6,13.9,8.7c-1.2,2.2-2.5,4.4-3.3,5.8c4.1,6.8,7.7,13,10.9,18.4c3.4,2.4,6.2,4.4,6.2,4.4c6.2,8.2-1.7,13.1,2.1,19.7
		c3.1,5.4,2.8,12.9,4,19.2c7.4,1.4,10.7,5.3,9,14.1c-1.5,1.1-4.1,3-5.8,4.2c0,6.7,0,12.1,0,17.2c3.3,3.3,6.4,6.4,9.5,9.5
		c0,3.2,0,6.5,0,10.8c-1.9,1.5-4.5,3.5-6.4,5c0,8.6,0,16.2,0,23.8c7.7,1.5,10.1,7.4,12.4,13.7c-3.1,4.5-6,8.7-9.1,13.2
		c0,6,0,12.6,0,18.9c3.2,3.2,6.3,6.3,9.6,9.6c0,3.1,0,6.4,0,8.8c-3.4,5.2-6.5,9.8-9.6,14.4c1,1,1.7,1.7,2.5,2.5c-1,2.1-2,4.2-3,6.3
		c3.9,3.6,7.4,6.9,10.1,9.3c0,4.8,0,8.1,0,12c-3.9,2.9-8,6-12.4,9.3c-1.4,4.8-2.9,10.2-4.4,15.5c3.9,2.5,7.3,4.7,10.2,6.6
		c0,5.2,0,9.5,0,14.5c-3.9,2.9-8,6-12.3,9.2c-0.9,2.9-1.9,6.3-2.9,9.5c4.1,5.7,8.6,11.9,13.7,19.1c-5.9,4.5-11,8.1-15.7,12.2
		c-1.4,1.2-1.7,3.7-3.3,7.3c13.4-7.1,21.1-15.9,27.4-27.4c9.7-17.6,10-36.8,12.2-55.4c2.3-19.4,0.6-39.2,0.4-58.9
		c0-3.6-1-7.2-1.7-10.6c-1.6-8.3-7.6-16.3-3.4-26c8.8,15.3,9.6,31.8,11.6,48c0.9,7.5,0.6,15.3,0,22.9c-0.6,7.8-3.4,15.6-2.9,23.2
		c1.4,22.2-5.1,42.6-12.8,63.1c9.6,2.8,13.2-6.2,17.8-10.3c8.3-7.5,15.8-17.1,20.5-27.3c6.3-13.4,11-27.8,10.3-43.2
		c-0.2-4.9-1.9-11,0.4-14.5c4.8-7.3,4-15.2,2.4-21.7c-3.2-13.3-2.3-26.4-2.9-39.7c-0.2-4-2.5-7.8-3-11.8c-0.6-4.3,1-9.2-0.6-12.9
		c-5.3-12.5-6-25.9-8.8-38.8c-3.1-14.1-4.6-28.7-6.7-43.1c-1.5-9.9-4.6-18.8-8.5-27.7c-7-15.9-16.2-30.6-25.7-45
		c-7.2-10.9-14.8-22.1-24.4-30.6c-13.3-11.7-26.1-23.7-38.7-36c-4.9-4.8-8.7-10-11.5-16.6c-7.1-16.8-17.5-31.5-30-45
		c-13.1-14.2-29.9-23.6-44-36.5c-0.6-0.6-2.8,0.5-4.8,1c7.4,8.3,16.2,14.5,20.1,24.8c3.7,10,15.5,16.1,13,28.8
		c4.6,4.4,9,8.5,13.3,12.6c0,3.5,0,6.7,0,9.1c4.4,5.4,8.3,10.3,12.5,15.4c1.8,0.1,4.4,0.2,5.7,0.3c1.8,6.9,3.2,12.3,4.6,19.4
		c-5.2-3.4-10.3-6.7-14.6-9.5c-2-4.7-3.2-8.6-5.1-12c-7.2-12.8-14-25.9-22.3-38c-4-5.8-4.2-12.5-7.8-18.1
		c-12.9-20.6-23.3-31.8-43.7-46.8C749.9,221.4,747.8,222.1,746.2,222.2z M670,2408.6c-0.9,0-1.9,0.1-2.8,0.1
		c0.4,2.1,0.8,4.3,1.3,6.4c0.7-0.1,1.4-0.2,2.1-0.3c-0.2-2.1-0.4-4.2-3.1-3.1c0-5.8,1-9.1-0.2-11.2c-9.5-17.9-9.6-38.5-15.9-57.3
		c-2.1-6.4,0.1-14.1-0.5-21.2c-0.5-6.7-2.4-13.3-3.1-20c-0.5-4.9-0.5-9.9,0-14.7c0.5-4.5,3.1-9,3-13.4c-0.4-15.9,3.3-31,6.4-46.5
		c4.9-25.3,15.2-48.3,25.2-71.6c6.5-15.1,18.6-26.9,24.1-41.6c-1.1-4.1-2.5-7.4-2.9-10.8c-2.5-19.3,2.7-37.8,6.8-56.2
		c1.5-6.8,3.3-14.6,6.8-20c8.7-13.5,16.4-27.9,28.3-39.2c10.3-9.8,21.6-19.1,25.8-32.7c-5.2-8-10.5-16.2-14.9-23c0-10.4,0-19,0-27.2
		c4.6-4.6,9-8.8,13.1-13.2c4-4.3,11.5-5.2,12.2-12.9c0.5-5.6,1.1-11.6,0.3-17.5c-0.5-3.9-2-8.5-3.7-11.4c-2.3-4.2-2.6-7.9-2.6-12.1
		c-0.1-7.1,0-14.1,0-17.6c3.9-10.3,6.5-17.3,10.1-26.8c-22,11.5-41.2,22.3-65.1,17.7c-14.9-10.7-15.1-7.3-26.9-35.2
		c4-10.4,4.8-22.2,12.7-30.8c8.5-9.2,17.7-17.8,26.9-27c-0.4-2.3-0.1-5.4-1.5-7.3c-7.8-11-16.1-21.7-25.2-33.9
		c-2.3,7.1-4.7,13.3-6.3,19.6c-4.4,17.7-13.4,31.2-31.9,36.6c-11.6,3.4-22.9,7.3-29.5,17.1c8.2,11,15.8,22.2,24.5,32.7
		c12.9,15.6,23.1,32.9,33.4,50.1c3.4,5.6,5.6,11.9,8.2,17.9c2.4,5.6,4.9,11.1,6.9,16.8c2.2,6.2,2.6,13.4,6.2,18.7
		c4.2,6.2-1.9,14.4,5.1,19.3c-1.7,21.4,1.9,42.7-2.8,64.3c-5.5,25.1-14.5,48.6-25.5,71.5c-10.1,21-21.7,41.3-32.2,62
		c-7.8,15.3-17.9,29.3-23.5,46c-6.5,19.5-12.1,39.3-14,59.6c-1.8,18.4,0.3,37.1-0.6,55.7c-0.8,18.7,5.6,36.3,7,54.6
		c0.4,5.9,3.6,11.6,5.2,17.4C643.7,2362.2,653.7,2385.9,670,2408.6z M258,720.1c-0.2,0.2-0.4,0.4-0.6,0.6c0.8,0.9,1.5,1.8,2.3,2.7
		c0.3-0.3,0.7-0.7,1-1c-0.9-0.8-1.8-1.5-2.2-0.8c-0.8-3.2-1-5.4-2-7.2c-17.5-31.6-31.1-64.7-40.5-99.6c-5.8-21.6-7.6-43.9-10.7-66
		c-0.6-4.3-0.5-8.8,0-13.1c0.5-4,2.5-7.8,3-11.8c0.5-4.3-0.3-8.8,0.2-13.1c0.6-4.5,1.8-9,3.2-13.4c5.9-17.7,10-35.9,20.4-52.2
		c9.6-15.1,21.6-27.5,34-39.9c13-12.9,28.3-23.2,44-32.2c27-15.4,51.6-34.2,76.5-52.5c9.4-6.9,17.5-15.5,26.6-23
		c9.3-7.6,19.4-14.3,28.4-22.2c14.9-13,32-22.6,49-32.1c31.3-17.4,52.2-23.7,92.1-34.8c12.8-3.6,25.7-7.4,38.7-8.9
		c13.6-1.6,27.1-6.1,41.2-4c3.5,0.5,7.5-0.1,10.8-1.4c4.2-1.6,7.6,4,10.9,1.4c7.4-5.8,16-4.1,23.2-2.7c15.4,3,30.8,2.7,46.2,2.8
		c0.5,0,1.2-0.2,1.6,0c15.1,5.7,31.3,5.4,46.9,9c11.9,2.8,23.7,8,36.4,7.3c31.4,12.6,63,24.3,92.6,41.8c25.9,15.3,49.4,33.1,71,53.2
		c28.1,26.2,53.6,55.1,80.3,82.8c0.8,0.8,1.8,1.4,2.3,2.3c7.3,14.5,21.7,22.9,30.6,36.4c5.3,8.1,15.4,12.9,22.4,20.1
		c13.5,13.8,26.6,28.1,39.4,42.7c5,5.7,8.7,12.7,12.8,19.2c13.1,20.8,16.7,44.7,21.1,68.3c0.7,3.7,1.6,8.8-0.2,11.2
		c-4.3,5.5-2.3,11.3-3,16.9c-1.1,9.9-1,20.2-3.9,29.6c-1.2,4-2,7.9-2.7,11.9c-0.7,4-2.1,7.8-3.2,11.8c-5,18.1-10.4,36-16.4,53.8
		c-1.8,5.3-3.7,10.5-5.9,16.5c14-4,24.4-12.2,33.7-20.7c15.5-14.2,31.6-28.2,39.9-48.8c3.8-9.3,14.1-34.5,14.2-43.3
		c0.2-18,0.1-36,0.1-54.1c0-1.1,0.2-2.2,0-3.3c-4.9-19.3-12-37.6-22.4-54.6c-9-14.6-20.3-27-32.4-39
		c-38.5-38.3-77.5-76.1-113.7-116.7c-4.6-5.2-9.8-10.3-14.2-15.4c-3.2-3.7-6.6-8-9.9-12c-3.5-4.2-7.3-8.2-11-12.3
		c-6.3-7-13.5-13.4-18.7-21.1c-6.4-9.7-13.1-18.9-21-27.3c-7.3-7.7-15.2-15.3-20.6-24.3c-4.9-8.1-11.9-13.6-17.7-20.4
		c-6.2-7.3-11.7-15.3-18.7-21.7c-14.1-12.9-28.8-25.1-43.5-37.2c-10.3-8.5-21.5-15.8-33.5-21.8c-13.2-6.6-26.5-12.4-40.6-16.7
		c-14-4.3-28.1-8.8-42-13.4c-21.5-7-43.6-8.1-65.3-12.1c-9.6-1.7-19.8,0.7-29.8,2.2c-15.5,2.2-31,3.9-46.4,7.1
		c-16.1,3.3-32.3,6.5-48.4,9.7c-18.6,3.7-36,11.4-54.6,14.8c-11.6,2.1-21.7,8.6-32.2,13.2c-29,12.6-56,28.8-78.6,51.6
		c-29.2,29.5-58.6,58.8-88.1,88c-7.9,7.9-15.5,15.9-25.1,22.3c-18.5,12.5-35.4,27.5-54.2,39.6c-17.7,11.3-33,25.5-49.7,38
		c-8.4,6.3-14.7,15.2-21.3,23.7c-11.5,15.1-21.6,30.3-27.5,47.7c-3.9,11.5-9.1,23.1-10.1,35c-1.1,13.2-5.5,26-4,39.6
		c1.3,12.1,0.5,24.2,3.1,36.4c2.4,11.6,3.8,23.5,7.2,34.8c3.7,12.6,8.1,25,13.1,37.2c5.2,12.8,13.7,24.1,21.5,35.2
		C226.2,688.4,238.7,706.6,258,720.1z M954.2,2051.2c6.1-7.3,13.5-13.8,17.9-22c9.9-18.1,17.6-37.2,16.7-58.6
		c-0.4-10-1.6-19.9-2.6-29.9c-1.3-12.6-3.7-24.8-7.5-36.5c-9.1-27.8-13.6-31.6-34.9-47.4c-15.9-11.8-33.5-22-43.9-40.1
		c-8.8-15.3-15.3-30.9-16.4-49.1c-1-16.8,5.3-32.7,3.5-49c-2.8-4.2-5.3-8-7-10.6c-11.4-1.8-21.2-3.4-31-5
		c-9.7-2.3-13.7-10.3-17.7-18.3c0-12.6-0.5-25.2,0.2-37.7c0.7-12.6-2-22.7-14.6-28.2c-1.9-0.8-3.3-2.5-5.1-3.5
		c-11.4-6.7-17.6-16.1-16.6-29.8c0.5-7.4,0.1-15,0.1-22.5c-6-3-11.7-4.6-15.8-8.2c-4.2-3.6-6.8-9.1-10-13.6
		c-3.1-21.5,5.8-39.3,17.1-56.7c10.5-16.3,11.2-34.5,6.9-52.9c-3.1-12.9-10.8-23.9-16.1-35.9c-3.1-6.9-6.7-13.9-8-21.2
		c-1.5-8.7-1.2-17.6-3-26.6c-2-9.7-4.8-18.7-8.8-27.6c-8.1-18-20.3-34.3-22-54.8c-11.7-25-11.1-52.4-15.4-78.8
		c-1.4-8.2-0.9-16.7,2.8-25c1.6-3.6,1.1-8.8,0-12.9c-0.9-3.7,6.5-7,0.2-10.4c6.3-5.2,1.7-12.3,3.4-18.3c1.8-6.3,5-12.3,6.3-18.6
		c4.3-19.5,12.7-37.1,26.4-51.3c15.3-15.9,32.4-30.1,48.2-45.5c11.1-10.8,23.1-21,31.4-34.5c2.7-4.4,5.6-8.6,8.9-13.5
		c0-2.5,0.6-5.9-0.1-9c-1.2-4.9-3.3-9.5-4.9-14.3c-4.1-12.8-11-25.4-7.8-39.2c2.6-11.4,5.2-22.8,8.3-34.1
		c3.9-14.3,12.8-23.5,23.1-31.1c9.6-7.1,17.4-15,23.6-24.5c0-6.1,0-12,0-17.3c-4-4.4-7-5.3-12.9-3.2c-10.5,3.8-21.8,2.9-32.9,0.1
		c-15.9-4.1-29.9-12.2-44.7-18.6c-7.4-3.2-14.7-7.6-23.3-5c2.9,4.5,6.5,8.4,8.2,13.1c6,15.9,10,32.6,10.7,49.6
		c0.5,13.2,0.4,26.3-2.3,39.7c-2.6,13.1-3.8,26.7-7.3,39.8c-3.9,14.8-7.4,29.7-11.9,44.3c-5.4,17.4-13.4,34.1-17.2,51.8
		c-5.4,25.5-15.6,49.5-21.7,74.8c-4.6,19.3-11.9,38.5-19.7,57.3c-7.9,19.1-15.4,38.4-22.7,57.8c-8.3,22-18.7,43.3-27.9,64.1
		c7.7,18.7,7.7,18.7,1.9,34.4c-2.1,5.7-4.1,11.4-6.7,18.9c8.7,1.9,10.4,10.2,16.1,15.5c5.2,4.8,10.5,13.6,8,22.4
		c-3.6,12.8-10.3,24.7-21.4,31.7c-5.6,3.6-9.2,8.7-14.4,11.7c0.2,5.1-0.8,9.9,3.2,14c1.9,2,3.2,5.5,3.3,8.3
		c0.1,11.2,5.7,21.7,3.4,33.1c-1.3,6.4,1.9,11.9,5.6,15.6c7.2,7.2,12.5,15.4,17.4,26.1c0.9,13.4-2.4,27-13.5,38.4
		c-3,3.1-3.4,8.7-6.3,12c-7,8-2.8,15.3,1.8,21.2c6.3,8.1,13.4,16.7,22,21.8c10.6,6.2,18.1,15,23.5,24.8c5.4,9.8,12.4,12.5,22.5,13.1
		c17.2,1,30.4,8.7,38.7,24.5c3.4,6.5,1.1,14,3.9,19.7c3.2,6.5,3.8,12.4,0.6,17.8c-3.5,5.8,0.4,12-3.9,18.2
		c-5.4,7.9-7.8,17.8-15.4,24.7c-1.6,1.4-1.5,4.8-1.7,5.6c9.8,15,18.8,28.8,28.4,43.4c3.7,0,8.5,0,12.7,0c1.7,1.7,2.9,2.9,4.6,4.6
		c0,7.4,0,15.5,0,20.6c5,8.7,8,15.3,12.3,21c20.5,27.7,35.7,58.9,56.7,86.4c2.6,10.7,10.5,18.5,15.3,28.1
		c4.8,9.6,10.6,18.9,17.4,27.2c6.9,8.5,9.5,19.3,16.5,27.7c3.2,3.9,5.5,8.6,7.6,13.2c7.8,16.5,19.4,31,25.7,48.4
		C950.5,2048.6,952.8,2049.8,954.2,2051.2z M821.2,2282.4c-11.6-12.1-15.7-27.4-18.7-42c-3.7-17.6,0.5-35.3,8.1-52
		c8.7-19.2,20.4-36,34.9-51c7.4-7.6,15.3-14.7,23.9-21.2c11.6-8.8,23-17.7,35.2-25.7c14.7-9.6,28.3-20.8,41.3-30.5
		c-20.4-45.7-47.7-85.7-72.5-127.2c-24.7-41.3-49-83.2-79-122.3c-5.9,12.4-8,24.4-5,35.4c1.9,6.7,3.3,13.8,5.4,20.6
		c2.2,7,0.5,15.1,0.5,24.6c-8.2,8.8-17.2,18.5-26.6,28.6c6.4,14.6,21.3,26.4,16.9,42.1c-7.8,20.5-21,33.4-33.9,46.6
		c-6.9,7.1-13.9,14.8-18.4,23.5c-9.8,18.7-16.6,38.6-16.8,60.2c-0.1,9.2,2.9,16.1,9.1,22.6c5.5,5.7,10.8,11.7,15,18.3
		c6.5,10.2,10.9,22.3,8.3,33.9c-3.1,13.6-8.1,27-17.2,38.7c-9.4,12.1-16.8,25.7-24.5,37.6c-2.6,21.5,3,39.9,11.5,58.4
		c7.3,15.8,13.7,32.6,11.1,51.1c-0.9,6.5-3.8,16.7-8,22.9c-4.7,6.8-9.8,13.4-13.7,20.5c-2.4,4.3-4.6,8.7-4.9,14.4
		c-0.9,16.6,6.2,31.6,8.3,47.4c1.8,13.7,2.9,28.1,0.6,41.5c-3.6,20.9-12.9,40.4-21.8,59.6c-8.5,18.5-17.1,36.9-19.6,57.4
		c-7.1,11-3.5,23.4-2.6,34.6c0.7,8.4,4,18,11.9,24.4c3.9,3.2,5.9,8.6,9.5,12.3c4,4,9.7,6.4,13.4,10.7c9.5,10.9,18.4,22.8,22.8,36.3
		c3.2,9.9,8.2,18.5,12.2,27.7c4.7,10.7,13,17.9,23.6,22.8c-0.8-7.4-1.5-14-2.4-20.5c-1-7.1-2.3-14.2-3.5-21.2
		c-9-8.7-17.5-17.1-23.9-23.3c-11.2-22-1.7-38.2,7.7-55.2c0-5.8,0-12.3,0-18.9c-2.3-2.3-4.5-4.8-7-6.9c-10.7-9-17.5-20.5-20.8-34
		c-0.6-2.5-2.4-5.7-1.5-7.4c6.7-12,6.1-27.6,18.8-36.6c3.1-2.2,4.7-6.7,7.1-10.3c0-16.2,0-32.5,0-48.4
		c11.2-14.3,22.1-28.3,32.3-41.3c1.8-33.6,12.3-45.1,35.4-60.3c3-6.1,5.5-11,7.4-14.8c-2.3-7.9-5.3-14.6-6-21.5
		c-1.7-16.9,1.8-33.1,8.7-48.7C818.7,2305.7,823.4,2295.1,821.2,2282.4z M623.7,752.7c-4.4,12.5-6.6,23.4-5.4,34.6
		c0.7,6.7,2.2,13.3,3.2,19.9c1.2,8.8,0.5,18.4,3.8,26.3c5.9,13.8,7.2,28.5,11.7,42.6c4.5,13.9,7.8,28.6,11.6,42.8
		c4.8,18.3,7.3,36.5,9,55.1c0.8,8.3-2.6,17.2,3.2,24.8c0,18.6,0,37.1,0,55.7c-5.1,7.2-2.6,15.4-3.4,23.2c-0.8,7.8-1.8,15.5-3.3,23.2
		c-1.6,8-4,15.7-6.2,24.1c4,5.3,9.2,10.7,12.7,17c8.7,15.9,9.3,32.7-0.1,48.4c-6.4,10.7-14.9,20.1-22.7,30.4c0,2.8,0,6,0,9.3
		c0.7-0.7,1.4-1.4,2.2-2.2c5,5.5,10.1,11.1,15.2,16.7c0.3-0.2,1.7-0.4,2-1.2c8.9-17,13.2-36,23.2-52.6c1.2-14.2,10.9-24.9,15.5-37.8
		c4.2-11.8,8.4-23.8,13.4-35.4c3.7-8.6,8.4-17.6,10.1-26.8c3.6-18.6,11.1-36.1,14.5-54.7c1.9-10.3,7.7-19.7,9.2-30.6
		c1.5-10.8,7.5-20.8,10.6-31.6c6.4-21.9,13.7-43.5,19.7-65.5c5.6-20.6,8.8-41.4,11.4-62.2c1.6-12.3,3.4-25.7-2.8-37.9
		c-0.4-20-11-35.8-20.1-51.3c-14.9-1.4-28.6-2.5-42.4-3.9c-1.4-0.1-2.5-1.9-3.9-2.3c-11-2.6-21.8-6-33-7.2
		c-11.3-1.2-22.9-0.8-34.3-0.1c-6.6,0.4-13,2.7-19.8,4.1C626.7,749.8,624.3,752.1,623.7,752.7z M1022.6,1674.7
		c18-15.4,29.7-35.1,43.2-53.2c6.3-8.4,9.6-19,15.5-27.8c3.2-4.8,3.2-9.1,1.7-13.4c-7.9-23.2-16.4-46.1-18.8-70.8
		c-5.1-4.8-2.1-11.2-3.5-16.6c-1.5-6.1-3.2-11.9-3.3-18.3c-0.1-5.6-2.8-11.1-2.9-16.7c-0.4-16.4-0.6-32.8,0-49.1
		c0.6-15.9-0.7-31.7,2.4-47.9c2.6-13.6,4.7-27.6,6.9-41.4c3.1-19.9,9.1-38.9,13.9-58.2c1.6-6.2,3.2-11.9,2.7-17.3
		c-15.1-28.5-29.8-56.3-44.4-84c-1.6,1.6-3.9,3.3-5.4,5.5c-12.9,18.6-25.8,37.3-38.5,56.1c-5.7,8.5-12.9,16.6-16,26.1
		c-4.5,13.6-12.6,25.4-16.8,38.9c-2.3,7.3-4.4,14.5-6.5,21.8c-1.3,4.5,1.4,8,3.2,11.8c0.6,1.3,0.3,3.2,0.1,4.9
		c-1.5,12.4,1.3,23.8,5.9,30.8c8.3,5.8,12.3,10.9,17.2,15.3c-0.8,10.2,2.4,21.2-2.9,28.5c-5,3.6-7.8,5.6-9.9,7
		c-1.8,15.5,1.2,29.2,6.2,42.9c-7.4,15.3-14.9,30.7-23.1,47.7c-1.9,17.6,9.6,33.7,13.8,51.5c4.8,19.9,13.7,38.9,21.7,58
		C995,1630.9,1009.9,1652.2,1022.6,1674.7z M622.7,1192.8c-9.2,21.9-18.2,44.5-26.8,67c-5.2,13.6-11.2,27.1-15.7,41.1
		c-3.9,12-8.3,23.9-12.7,35.7c-5.9,16.1-12.2,32.1-18,48.3c-7.7,21.4-16.2,42.6-22.2,64.5c-5.4,19.6-15.3,37.9-17.2,58.5
		c-6.5,9.1-3.3,21.3-9.8,30.4c-0.7,16.2-7.2,31.6-6.6,48.1c0.2,6,0,11.9,0,17.5c10.4,10.4,21.5,19.6,30.1,30.8
		c5.9,7.6,11.4,16,19.2,21.2c8.2,5.5,14.4,12.6,21.6,18.9c2.7,2.4,5.5,4.7,8.5,7.2c10.3-10.3,19.2-20.9,29.8-29.4
		c13.7-11,17.6-26.6,21.7-41.9c2.8-10.3,6.3-19.5,14-27c4.6-4.5,9-9,13.3-13.3c-3.8-11.9-6.5-22.8-10.7-33.1
		c-4.3-10.4-6.7-21.3-9.5-32.1c-3-11.5-4.4-23.3-6.8-34.9c-2.3-11.5-1.5-23.6-4-34.5c-2.8-11.9-1.7-23.3-2.4-34.9
		c-0.6-11.6,4.7-22.7,3.4-34.7c-1.3-12,5.8-22.8,6.8-34.9c0.9-10.9,7.3-21.2,9-32.1c1.7-11.4,10.7-20.1,10.1-33
		c-5.2-5.2-10.3-11.7-16.8-16.4c-6.4-4.6-6.9-11.7-9-17.7c-2.2-6.3-0.2-13.3,3.8-19.5c2.9-4.5,4.5-9.9,6.6-14.8
		C628.4,1195.7,625.7,1194.4,622.7,1192.8z M755.3,740c1.3-4.7,5.2-10.7,3.6-14.2c-5.7-12.7-6.2-26.6-11.6-39.5
		c-3.4-8.2-5.4-17.9-4.5-27.7c1.8-20.7,2.8-41.4,4.2-62.5c1.7,0,3.2,0,4.6,0c0.4,1.1,1.2,2,1.2,2.9c-0.3,7.8,1.9,16-3.2,23.2
		c0,18.6,0,37.1,0.1,55.7c0,0.9,1,1.8,1.3,2.7c6.2,19.1,13.4,38,11.7,58.6c12.4,2.7,23.7,5.1,35.7,7.7c0-3.9,0-6.5,0-9
		c-8.1-1.2-9.7-8.4-13.2-15.1c4.2-5.9,8.8-12.2,13.5-18.8c1.7-11-5.9-18-12.9-24.6c0-4.8,0-9.2,0-15.7c2.6-2.1,6.4-5.1,10.3-8.2
		c-1.5-2.8-3.2-4.9-3.7-7.3c-0.6-3-0.1-6.2-0.1-9.2c-7.4-1.3-10.5-6.1-14-10.8c2-4.8,3.8-9,5.2-12.4c2.4-0.6,3.8-1,5.1-1.3
		c0-8.5,0-16.5,0-24.4c-2.3-2.1-4.2-4-6.1-5.7c0-4.6,0-8.9,0-14.5c1.9-1.5,4.5-3.4,5.9-4.4c-1.4-8-2.5-14.5-3.6-21.1
		c0.8-0.7,1.6-1.5,2.5-2.2c-4.8-4.2-9.6-8.5-14.4-12.7c1.4-2.7,3.1-5.9,4.6-8.8c1.7-0.3,3.2-0.6,4.7-1c0-10.7,0-20.9,0-31.7
		c-7.7-0.4-10.1-4.9-9.3-14c2.2-1.9,5.8-5,8.9-7.7c-5.7-8.7-0.5-18.3-3.3-26.9c-1.9-1.9-3.9-3.9-6.5-6.5c1.2-4,3.2-8.3,3.7-12.7
		c0.7-5.4,0.2-10.9,0.2-19c-2-2-5.2-5.2-8.4-8.4c1.2-2.3,2.9-5.5,4.7-8.7c-5.7-4.2-1.4-10.9-3.2-16.4c-10.1-10.5-4.5-24.1-7.1-36.3
		c-2.2-6.7-10.8-12.6-2.2-20.2c-1.3-3.4-2.9-6.2-3.4-9.1c-2.4-12.7-3.9-25.6-6.8-38.2c-4.8-21.3-13.1-40.9-33.4-56
		c1.1,3.7,1.4,5.6,2.1,7.3c1.6,3.7,4.4,7.2,5,11c2.8,17.6,6.4,35.1,6.7,53c0.2,10.4,2.8,21.8-0.7,30.9c-3.9,10.2,1.2,21.4-5.8,30.3
		c1.1,18.3-5.2,36-3.5,54.4c1,11.2,0.2,22.5,0.2,33.8c-3.5-6.8-5.8-13.7-6.4-20.7c-1.9-19.3,5.5-38.2,3.2-57.6
		c-0.1-0.5-0.2-1.3,0-1.6c6.3-5.8,0.2-14.6,3.7-19.7c5-7.5,2.2-14.7,2.7-21.9c0.7-12,0.1-24,0.2-36c0.1-11.2,0.2-22.2-3.2-33.1
		c-2.7-8.5-4.9-17.2-7.3-25.8c-1.2,0.1-2.4,0.1-3.6,0.2c4.3,25.9-1.9,51.2-2.5,76.9c-0.3,12.7-2,25.3-3.1,38c0,0.5,0.1,1.1-0.2,1.6
		c-4.4,9-3.8,19.2-6.7,28.4c-2.8,8.9-1.2,18.1-3.6,26.4c-1.5,5.2-2.1,10.1-2.8,15.2c-0.7,5.6-3,11.1-3,16.7
		c-0.1,12.1-3,23.9-7.1,34.8c-5.3,14.2-6.5,28.4-6.5,43.3c0,5.6,2.9,10,3.5,15c1.3,12.6,2.3,25.3,3.3,38c0.1,1.6-0.7,4,0.1,4.8
		c6.4,5.9,0.2,14.5,3.7,19.7c4.7,6.9,2.3,13.6,2.6,20.3c0.5,15.8,0.1,31.7,0.2,47.5c0,11.1-1.2,22.4,3.3,33
		c5.8,14,11.8,27.9,17.9,41.7c0.6,1.4,2.2,2.3,3.4,3.5c7,7,13.8,14,20.9,20.8c1.5,1.4,4.1,1.5,7.6,2.6c-1.5-9-8.8-14.1-7.4-21.9
		c-14.5-23.7-13.3-51.3-19.4-77.2c-0.8-3.6-1.5-8.8,0.3-11.1c5.4-6.6,1.6-13.6,2.8-20.3c1.2-6.6,2.2-13.3,3.3-19.9
		c1.8-10.2-2.3-19.8-3.2-29.8c-0.1-1.2,0.8-2.5,1.5-4.2c1.8,3.4,3.2,6.1,5.2,10.1c-2.2,17.1,2.4,35.9-3,54.6
		c-2.6,9.1-0.1,19.5-0.5,29.4c-0.4,9.6,5.8,18.3,3.4,28.1c8.8,20.4,10.9,43.4,25,61.7C750.1,740,752.3,740,755.3,740z M508.6,947
		c-26.7,34.6-52.4,67.9-77.8,100.8c11.5,21.2,24.1,39.9,37.1,58.3c13.1,18.3,25.2,37.4,35.4,57.4c10.2,19.8,22.4,39.1,23.1,62.5
		c6.3,6.2,0.5,14.9,4.2,21.1c4.7,7.9,1.7,15.8,2.1,23.7c0.4,7.7,0.9,15.4-2.6,23.4c-2.9,6.8-1.1,15.2-3.1,23.2
		c-2,8.3-2.8,17.5-5.8,25.6c-3,8.1-5.1,16.6-7.2,24.8c-3.1,12.2-10.2,22.1-14.7,33.3c-4.7,11.7-10.4,23.2-17.4,33.7
		c-9.1,13.6-15.9,28.5-24.2,42.5c-8.9,15.2-15.6,31.7-22.9,47c8.1,11.9,15,24.2,24.1,34.6c9.3,10.7,15.9,23.7,27.3,34.3
		c1.5-13.4,1.7-25.1,4.5-36.3c1.5-6.2,0.9-13.2,3.4-18.2c4.7-9.4,4.7-19.8,8.1-29.4c3.3-9.5,9.1-18.7,7.8-29.6
		c10.3-25.4,18.3-51.5,26.2-77.6c0.2-0.5-0.1-1.2,0.1-1.6c14-26.5,20.7-55.8,32.1-83.3c11.2-26.9,20.8-54.7,31.4-82
		c4.2-10.8,7.8-21.9,11.7-32.8c1.4-3.8,2.8-7.5,3.5-9.4c-6.7-6.1-12-10.9-15.5-14c-2-7.1-4.1-11.5-4.2-15.9
		c-0.2-6.9-0.4-13.6-4.6-19.2c-18.5-6.7-32.6-18.9-45.8-32.6c-13.9-14.5-20.4-32-21.9-51.6c-0.5-6.5-0.1-13.1-0.1-19.6
		c1.1-1.2,2.8-2.2,3.2-3.6c2.9-11.5,9.4-21.2,15.1-31.5c5.2-9.4,9.8-19.5,7.4-30.6C542.4,954.8,521.7,956.3,508.6,947z
		 M1031.8,1152.3c-1.5-6.3-2.8-14.5-5.6-22.2c-5.2-14.5-8.4-29.6-10.8-44.6c-2.1-13.3-0.9-27.3-0.3-40.9c0.6-13.2-0.9-26.3,2.5-39.8
		c3-11.8,4.6-24.3,7-36.5c3.8-19,11.3-37,15.8-55.7c4.5-18.4,13.4-35.6,13.9-54.9c5.6-6.4,1.2-14.7,3.9-21.3
		c5.9-14.8,3.7-30.3,1.9-44.7c-1.8-13.8-4.8-28.1-10.3-41.5c-6.9,0-13.9,0-20.6,0c-8.1,13.2-2.5,27.6-5.1,42.4
		c-4.7,3.4-10.8,6.9-15.6,11.5c-5,4.8-8.9,10.7-11.5,14c1.2,13.9,7.4,22.1,15.4,29.2c1.4,1.2,1.3,4.2,2.7,5.3
		c8.4,6.9,4,17.9,8.9,25.9c0.7,1.2,1.4,3.6,0.8,4.5c-5,7.2-1.2,15.8-3.9,23c-7.4,20.4-15.4,40.6-25.5,59.9
		c-2.5,4.8-5.9,7.7-10.9,10.4c-7.7,4.2-15.8,6.9-24,9.4c-9,2.8-17,7.7-20.5,15.9c-4.8,11.2-5.5,23.8-2.7,35.8
		c3,12.9,1.9,18.8-0.5,32.2c-1.8,10.1-7.6,17.7-11.2,26.6c-6.1,14.8-10.2,28.5,3.5,41.5c2.5,2.4,4.3,5.8,5.8,9
		c3.9,8.3,9.8,15.9,8.2,26.2c-0.9,5.9-0.2,12-0.2,17.4c-5.8,9.5-11.8,17.5-21.8,22.7c-11.8,6.2-21.8,15.8-33.7,21.7
		c-9.1,4.5-10.7,12.6-12.9,19.9c-2.1,6.9,3.7,12.5,8.6,17.4c4.5,4.5,9.8,7,15.9,9.2c16.1,5.9,33.9,9,46.4,22.6c0.4,0.4,2-0.3,3-0.5
		c1.5-4.9,2.7-9.8,4.4-14.6c4.6-12.3,7.9-25.4,14.5-36.5c6.3-10.5,11.4-21.7,18.2-31.8C1000.2,1198.6,1015.1,1176.9,1031.8,1152.3z
		 M1078.2,750.4c6.4,9.9,14.6,18.8,18.2,29.2c3,8.7,9,15.8,10.7,25.1c1.7,9.4,6,18.3,8.3,27.6c3.1,12.5,5.7,25,7.7,37.7
		c1.4,9.3-1.1,18.8,3.1,28.2c2,4.6,2.3,11.9-0.1,16c-4.3,7.3-2.1,14.6-2.8,21.8c-0.3,3.8,1.4,8.7-0.4,11.2c-3.2,4.5-2.5,9-3.1,13.6
		c-0.7,5.1-2.5,10-3.1,15c-1.6,12.8-5.4,24.9-9.1,37.2c-8.9,29.7-21.7,57.5-35.8,85.1c-9.1,17.8-17.7,35.7-30.9,51.4
		c0.3,2.9-0.2,6.6,1.2,9.2c13.4,25.8,27.2,51.4,42.4,80c5.5-16.8,11-30.2,15.4-43.8c9.4-29.4,21.9-57.6,31.1-87
		c5.6-17.8,14.2-34.9,18-53c3.9-19.1,12.4-36.8,14.2-56.6c0.9-9.3,5.2-18.8,5.8-28.4c0.7-10,5.9-19.4,3.5-29.7
		c-0.4-1.6-0.8-4.1,0.1-4.8c6.1-5.4,1.9-12.3,3.1-18.4c1.2-6.1,3.4-12.2,3.1-18.3c-1.3-26.3,2.9-52.6-2.5-79
		c-2.3-11.1-4-22.4-7.3-33.1c-5.5-17.8-13.5-34.4-26.7-45.3c-8.9-1.2-15.7-2.9-22.5-2.7c-5.6,0.1-12.2,1.1-16.6,4.2
		C1095.4,748,1087.2,749.5,1078.2,750.4z M399.9,1454.9c8.4-13.6,13.4-28.5,21.4-42c9.2-15.6,15.5-32.8,24-48.9
		c12-22.7,16.7-47.2,18.8-72.3c0.5-6.6,0.9-13.2-2.6-20.1c-2.8-5.5,1.3-13.7-3.8-19.7c1.7-12.9-6-23.8-8.2-36
		c-1.8-9.7-7.4-18.7-11.5-27.8c-4.3-9.7-8.4-19.5-13.2-28.9c-9-17.4-18.7-34.5-28.7-52.8c-7.9,13.8-12,28.5-16.7,42.8
		c-3.5,10.6-5.8,21.7-8.4,32.6c-3.9,16.2-5.7,32.5-8.1,48.8c-1,6.9,0.2,14.2-0.3,21.2c-0.4,7.1,2.4,14.8-2.7,21.3
		c5.6,6.1,2,13.4,2.7,20.1c1.3,12.6-1.9,25.4,3,38c2.3,6,1.7,13.2,3,19.9c1.4,7,2.2,14.4,4,21.4c2.9,11.3,6.4,22.5,9.1,33.8
		C385.5,1423.5,393.3,1438.8,399.9,1454.9z M1055.2,746.7c2.1,7.2,4.6,13.3,5.5,19.7c1,6.7,4.6,12.6,3.8,19.9
		c-0.7,6.5,2.9,13.3,2.6,19.9c-0.3,7.8,2.3,15.6-2.1,23.6c-3.9,7.2,2.1,17-4.2,24.4c0.3,19.5-9.5,36.6-13.2,55.2
		c-2.4,12-7.6,23.1-10.5,35.1c-2.4,9.6-4.8,19.7-7.7,29.4c-4.4,14.8-7.1,30.3-7.9,45.9c-0.4,8.3,2.1,16.9-2.9,25
		c-1.7,2.8-1.9,8.9,0,11c4.4,5,3,10.2,2.8,15.3c-0.7,17,4.5,33.2,7,49.7c1.2,7.9,5.6,15.4,9.3,24.9c7.5-11.7,14.8-21,19.7-31.4
		c16.5-35.2,36-63.1,46.1-113.6c10.2-15.8,9-34.6,12.6-52c3.3-15.5,2.5-31.8,3.8-47.7c1-13.4-5.7-26.1-3.3-39.6
		c-6.1-6.7-3.3-15.9-5.8-23.7c-2.6-8.1-5.1-16.6-7.5-24.8c-7.3-24.9-17.7-48.3-37.5-66.1C1062.4,746.7,1059.1,746.7,1055.2,746.7z
		 M618.8,406.1c1.2,0.8,3.9,2.7,5.9,4c0,3.2,0,5.3,0,9.1c-1.9,1.1-4.6,2.8-6,3.6c0,8.4,0,14.9,0,20.9c2.3,2.3,4.2,4.2,5.6,5.5
		c0,4.3,0,8,0,11.4c-2.4,0.8-4.3,1.4-5.9,1.9c0,7.2,0,13.8,0,21.4c9.3-1.9,6.5,7,9.8,10.8c-2.1,3.7-4.1,7.3-6.5,11.6
		c0,4.4,0,9.8,0,15.4c3.5,3.7,7.1,7.6,10.9,11.7c-2.8,5.8-5.1,10.9-7.4,15.5c0,5.6,0,11,0,16.6c8.6-0.2,8.6,7.9,12.5,12.2
		c-9.2,14.3-8,14.3-3.1,27.7c5.7,4.8,9.6,8.1,13.2,11.1c0,4.5,1.5,9.4-0.3,12c-5.8,8.6-2.2,15.6,1.3,21.4c5.9,2.2,10.7,4,14.5,5.4
		c2.3,6.4,5.6,10.7,1.6,18c-3.7,6.7,1.4,15,7.7,20.7c3.3,0,6.6,0,9.5,0c2.9,2.8,5.7,5.5,8.4,8.1c0,6.6,0,13.2,0,19.7
		c9.8,9.5,18.3,13.3,30.1,13.2c-14.9-11.1-19.5-27.9-27.5-42.8c-8.4-15.6-12.9-31.3-12.6-48.9c0.4-20.2,0.1-40.4,0.1-60.6
		c0-3.3,1.3-7.5-0.2-9.6c-5.3-7.2-0.7-15.9-4.3-22.8c-4.1-7.8-0.9-15.9-2-23.8c-0.2-1.6,0.5-3.9-0.3-4.7c-5.9-5.5-0.3-13.2-3.3-18.3
		c-3.8-6.7-2.7-13.4-2.9-20.1c-0.2-6.8-0.2-13.4,3-20c4.9-10.1,7-21.4,8.8-32.3c2-11.9,4.4-23.6,5.2-35.8c0.5-8.1,0.4-17.3,3.1-24.7
		c2.9-7.8,1.2-15.7,3.5-23.1c2.3-7.3,6.4-14.5,5.4-22.2c-1-8.4,3.5-15.3,3.7-23.2c0.2-9.4-2.4-19.3,3.2-28.1c0-18.4,0-36.7,0-57
		c-2.1,2.7-3.2,3.5-3.2,4.2c0.1,12.6-3.8,24.5-6.7,36.6c-1.6,6.3-4.3,12.4-6.4,18.6c-5.1,14.8-9.6,29.9-15.4,44.4
		c-6.3,15.7-11.6,30.9-4.6,48.1c2,4.9,0,11.4-0.2,17.6c-2.8-0.6-4.2-0.9-6.1-1.3c0-14.5,0-28.7,0-42.8c0-3.6,1.6-7,2.6-10.3
		c8.7-30.7,21-60.3,29.2-91.1c1.9-7.1,2.3-14.6,3.4-22c-5.2,5.7-9,11.8-12.4,18.1c-3.3,6.2-5.4,13.3-9.5,18.9
		c-4,5.5-8.9,10-10.2,17.2c-1.2,6.6-9.2,9-10.2,16.9c-0.8,6.7-5.6,12.9-9.4,20.8c0,2.5,0,6.8,0,9.6c-4,6.3-7.3,11.5-10.4,16.4
		c1.9,2.9,3.2,5.1,5,7.9c-4.3,3.5-8.1,6.5-11.9,9.6c-2.7,9.2-2.6,17.6,1.5,25.7C622.8,386.7,617.1,393,618.8,406.1z M424.3,1056.5
		c-8.2,13.2-15.6,25.3-23.1,37.4c9.2,17.1,18.3,33.5,26.9,50.1c6.7,13,12.8,26.3,19,39.6c3.6,7.8,8.8,15.4,9.9,23.6
		c1.3,9.4,9.8,16.4,7.4,26.5c7.2,17.6,8,36.4,9.5,55c0.4,4.3,0.5,8.8-0.1,13.1c-0.5,4-2.7,7.8-3,11.8c-1.4,16.2-7.2,35.9-16.1,53.9
		c-7.4,14.9-15.1,29.8-21.9,45c-6.8,15.2-16.9,28.9-22.1,44.9c-0.8,2.4-1.4,4.9-2.4,7.2c-1,2.3-2.3,4.5-3,5.8
		c8.1,15,15.8,29.4,23.8,44.2c2.7-6.4,5.1-12,7.4-17.5c12.1-29.1,29.9-55.2,44.2-83.2c14.1-27.7,29-54.6,33.7-86.1
		c1.2-8.4,5-17.1,4.9-25.5c0-9.8,4.5-18.6,3.7-28.1c-0.7-8.3,1.5-16.4-2.6-25.1c-3.3-7-1.6-16.2-3.4-24.7
		c-4.6-21.9-20-53.2-31.1-70.7c-9.4-14.7-19-29.2-28.4-43.9C446.8,1092.7,436.1,1075.5,424.3,1056.5z M415,781.6
		c-6.2,8.8-12,15.5-16.1,23.2c-3.3,6.1-4.6,13.3-6.8,20.1c-2.2,6.7-5.2,13.3-6.3,20.2c-1.1,7.2-1.6,14.3-3.1,21.6
		c-3.7,19.1,3,38.2,2.8,57.4c6.6,5.4-0.2,14.9,6.1,20.4c0.2,13.6,7,25.5,10.6,38.2c5.6,19.7,14.4,38.4,25.5,57.1
		c11.1-8.8,16.6-21,24.8-30.8c8.7-10.5,17.1-21.2,25.5-32c7.9-10.2,15.5-20.6,23.5-31.3c-9.1-13.7-8.2-29.1-12-44.2
		c-0.9-0.9-2.4-2.6-4.1-4c-1.6-1.3-3.5-2.2-5.1-3.4c-2.8-2-12.8-17.1-12.8-20c0-16.7-1.3-33.4,8-49.1c6.3-10.7,10.2-22.8,15.8-35.8
		c-9.7,0-18.3,0-26.9,0c-8.7,0-18.8,2.7-25.8-0.7C430.7,784.6,421.2,790,415,781.6z M1020.4,1681.2c-38.3-53.7-58.9-113.3-76.3-176
		c-10.5,10-26.2,7.6-34.4,21.4c1.5,6.8,2.7,15,5.3,22.8c1.5,4.4,2.6,7.5-0.8,11.4c-1.4,1.6-0.9,5-1.3,8.3c-4,3.7-8.4,7.8-13.3,12.4
		c1.3,9.7,3.7,19.5,3.8,29.4c0,18.1,1.5,36.3-2.6,54.4c-2.2,9.7-5.2,18.6-9.7,27.1c0.8,1.5,2.1,3.2,2.7,5.1
		c3.3,10.4,9.8,19.5,4,32.2c-3.7,7.9,1,18.9-3.8,27.9c-0.5,0.8-0.5,2.7,0,3.2c6.3,4.9,1.1,12.4,3.9,17.5c1.6,1.6,2.7,2.7,5.2,5.2
		c1.9-2.5,3.3-5.6,5.7-7.4c18.9-14.8,38.6-28.8,56.9-44.3C983.9,1716.2,1001.1,1699.1,1020.4,1681.2z M312.8,740.9
		c-5.7,0.5-11.7-3.3-16.8,1.8c-16.6-0.5-21.9,17-35.1,22.1c-7.8,15-19.7,27.3-27.2,42.8c-4.5,9.3-7.6,18.9-10.7,28.3
		c-5.9,18.1-11.9,36.6-11.1,56c0.8,20.3-2.6,40.7,2.9,61c2.6,9.5,1,20.3,4,29.6c2.1,6.3,0.8,12.9,3.2,18.3
		c5.9,13.1,7.8,27.3,12.6,40.7c11.2,30.9,21.9,61.9,34.1,92.4c4.1,10.2,10.6,19.5,12.5,31c1.2,7.4,6.7,14.1,10.3,21.2
		c2.1-5.7,1.7-11,2.2-16.3c0.6-5.6,2.5-11.1,3.1-16.7c2.6-24.8-3.2-49.3-3.2-74c0-1.1,0.2-2.6-0.3-3.1c-4.9-3.8-2.1-9.1-3-13.6
		c-1-5-2.6-10-3.2-15c-1.6-13.4-7.3-26.1-6.6-39.9c-5.2-5.8-4-13.6-6.3-20.3c-2.4-7.3-1.2-15.9-3.9-23c-2.8-7.3-0.5-15.5-3.5-21.4
		c-3.8-7.6-0.2-15.3-3.1-21.7c-3.5-7.8-2.8-15.5-2.9-23.4c-0.2-12,0.4-24.1-0.1-36.1c-1.2-24,7.6-45.5,16.3-67.1
		C285.2,774.2,297.3,756.9,312.8,740.9z M741.6,2568.9c8.3,13,16.1,25.1,24.4,38c8.5-15.5,16.3-29.6,24.1-43.7
		c5.4-9.8,12.2-19,15.9-29.4c5.6-15.8,15.5-29.3,20.5-45.6c5.6-18.3,16.4-35,18.1-54.7c5.3-6.3,3.7-14.7,6.4-21.9
		c2.9-7.6,5.3-15.5,6.5-23.5c1.2-7.7-1.1-15.9,3.5-23.2c-2.5-16.2,3.5-31.8,3.2-47.8c-0.2-10.5,0-20.9-2.8-31.5
		c-2.7-10.5-1.6-21.9-3-33c-1.8-14.5-5-28.7-7.6-43c-2.2-12.4-6.6-24.4-10.4-37.9c-19,20-27.8,42.1-25.1,69.2
		c4,5.8,9.7,11.7,12.4,18.7c4.2,10.8,13.3,20.5,10.1,33.4c-1.8,7.4-2.9,15.5-6.8,21.7c-5.8,9.3-9.2,19.3-11.8,29.5
		c-1.7,6.5-2.3,14.6,0.1,20.5c2,4.9,1.2,9.3,2.2,13.8c1,4.5,2.6,8.9,3.1,13.4c0.3,2.3-1,5-1.9,7.3c-2.9,7.3-6.6,13.9-12.6,19.4
		c-8.5,7.7-16.3,16.1-23.9,23.7c-1.5,5.6-2.8,10.5-4.1,15.5c-3.4,13.6-7.7,26.6-18.3,36.7c-5.6,5.4-10.2,11.9-14.5,16.9
		c0,12-0.1,22.4,0,32.7C749.6,2553.1,750.1,2562.2,741.6,2568.9z M978.9,829.4c5.8,12,12.3,22.5,15.9,33.9
		c2.3,7.5,0.4,16.2,0.4,24.4c0,3.3,0,6.6,0,9.8c0,16.4-6.3,30.2-17.6,41.9c-7.3,7.5-16.3,12.5-25.7,17.1c-12.4,6-23.6,14-32.2,24.8
		c-3.1,3.8-4.8,8.9-6.4,13.7c-2.2,6.8-3.8,13.8-5.3,20.7c-2.8,12.5-9.8,23.3-15.4,34.5c-4,7.9-8.7,16-8.3,24.2
		c0.4,9-9.2,17.9-0.6,26.8c-0.4,17.1,5,33.8,3.5,51.1c-0.9,9.9-3.2,19.5-7.1,28.3c-4.1,9.3-10.6,17.5-15.7,26.3
		c-3.6,6.1-9.4,12.4-9.6,18.7c-0.5,12.1-1.7,24.2,1.6,36.7c4.7,18,13.8,33.8,21.6,50.1c9.3,19.4,14.9,39.3,15.6,60.7
		c0.3,11.5,0.5,23-0.1,34.4c-0.5,9.9-1.3,20-3.8,29.5c-4.3,16.6-10,32.9-19.4,47c2.1,3.8,3.8,6.8,5.5,9.8c2.7-5.5,5.5-10.9,8-16.5
		c14.1-31.9,19.1-65.9,23.1-100.2c1.6-14.1-2.1-27.7-4-41.2c-2-13.7-6.6-27.1-5.8-40.6c-6.9-3.3-12.9-6.1-18-8.6
		c-2.1-3.1-3.6-5.7-5.5-8.1c-11-14.1-10.6-29.4-2.4-44.1c4.5-8.1,12.2-14.1,20.3-19.7c14.1-9.8,31.8-14.9,41.6-32.3
		c0.5-7.9,0.1-16.7-6.2-25.2c-6.6-8.9-11-19.4-16.7-29.8c0-8,0-16.7,0-24.7c5.6-10.4,11.2-20.1,16.1-30.1c3.2-6.5,6.2-24.6,3.2-31.1
		c-4.3-9.5-3.5-19-2.6-28.3c1.9-18.9,11.2-33.7,30.7-40.9c19.5-7.2,29.2-11.9,38.8-31.7c6.3-13,14.3-35.9,15.6-49.3
		c0.3-2.9,2.3-5.6,3.1-7.5c-1.3-3.2-3.3-5.6-3.1-7.8c0.9-10-3.8-17-10.4-23.7c-4.4-4.4-8.3-9.5-11.6-14.8
		c-6.6-10.5-4.5-33.1,5.4-39.7c8.7-5.8,15.1-13.5,22.5-19.7c0-9.5,0-18.6,0-27.6c-4.6,0-8.6,0-12.2,0c-1.8,5.8-0.1,10.9-2.3,16.4
		c-3.5,8.9-7.4,17.1-14.4,23.5c-7.6,6.9-11.1,15.1-10.1,25.4C979.3,820.3,978.9,824.7,978.9,829.4z M642.9,1117.2
		c8.3-19.5,9.7-40.7,10.8-61c1.4-25,3.5-50.5-2.2-75.7c-2.4-10.6-1.3-22-2.9-33.1c-1.3-9.3-1.9-19.4-4.8-27.8
		c-3-8.6-4.9-17.6-7.9-26.2c-4.5-13-7-26.6-11.2-39.6c-3.8-11.7-6.3-23.8-8.4-35.8c-2.4-13.4-1.9-27.3-4.6-40.8
		c-0.1-0.5-0.2-1.3,0-1.6c6-7.4,0.7-17.3,5.2-25.8c-16,9.4-31.9,18.8-46.8,27.6c-1.6,11.8-3,22.7-4.4,33.3c10.6,5,21,9.2,30.6,14.8
		c7.8,4.6,13.9,11.4,18.8,19.3c3.7,5.9,3,12.1,3.1,18.4c0.1,3.3,0,6.5,0,8c-11.7,16.4-22.5,31.6-32.4,45.5
		c-0.9,12.9-0.9,23.8,6.2,33.4c4,5.4,7,12.1,12,16.1c5.4,4.2,4,10.5,7.1,15.4c2,3.2,1.3,9.6-1.5,15.2c-4.9,9.8-4.9,21.6-10.7,31.6
		c-2.7,4.6-2.9,10.9-3.4,16.5c-0.5,6-0.1,12-0.1,15.3c5.1,16.8,16.7,25.8,26.7,35.9C629,1103.2,635.9,1110.2,642.9,1117.2z
		 M1088.2,1263.6c-6.5,18.6-10.5,35.9-14.2,53.3c-0.7,3.4-2.7,6.7-3.1,10.1c-0.5,4.3,1.4,9.6-0.5,12.9c-3.4,6.1-2.4,12.2-3,18.5
		c-0.6,6.7-3.3,13.3-3,19.9c1.3,28.5-3.5,57.1,2.8,85.5c2.1,9.6,0.8,19.7,3.2,29.8c3.4,15,5.9,30.2,10.3,44.9
		c3.4,11.5,7,22.9,10.9,35.7c3.5-7.2,6.5-12.6,8.7-18.2c12.1-30.1,20.5-61.1,23-93.6c0.2-3.2-0.7-6.8,0.5-9.6
		c6.2-15.7,1.1-32,2.8-47.9c-5.1-5.4-2.5-12.1-3.3-18.3c-0.8-6.1-2.2-12.2-3.2-18.3c-2.2-13.3-2.2-27.5-7.1-39.6
		C1104.3,1307.6,1100.3,1284.9,1088.2,1263.6z M695.3,2457.6c0.6-0.2,1.3-0.3,1.9-0.5c-0.5-2.9-0.8-5.8-1.5-8.7
		c-1.6-5.9-4.4-11.6-5-17.5c-0.9-9.2-0.3-18.5-0.2-27.8c0.1-5.9,6.2-20.9,9.7-25.5c5.7-7.4,11.1-15,16.8-22.7
		c-1.8-8.4,2.1-17-2.2-25.3c-3.9-7.6-8.7-15.4-10.1-23.6c-1.5-8.8-9.5-15.2-7.7-24.8c-6.2-12.2-2.2-25.3-3.2-37.9
		c-0.1-1.8,1.6-3.7,2-5.7c2.6-12.9,10.4-23.1,17.4-33.8c8-12.4,18.1-23.6,21.9-38.4c0.7-2.8,0.7-6.1-0.1-8.8
		c-4.3-14.5-17.6-22.1-26.2-35.8c-1.3,4.3-1.4,6.5-2.5,7.9c-15.3,20-25,42.8-33.7,66.3c-11.1,29.9-16.2,60.9-17.9,92.3
		c-0.8,13.6-2,27.5,2.6,41.3c2.6,7.7,0.8,16.4,3,24.9c2.5,9.3,3.6,19,7.1,28.3c3.5,9.5,2.6,20.5,10,28.6c-1.2,8.8,6.1,14.9,7.5,23.2
		C686.3,2442,691.7,2449.7,695.3,2457.6z M868.8,1478.3c3.3-8.1,5.4-12.6,7.2-17.3c5.2-13.9,10.4-28.3,10.6-42.8
		c0.3-23.5,3.3-47.1-2.3-70.7c-2.1-9-4.2-17.9-8-26.2c-5-11-11.3-21.5-15.9-32.7c-4.6-11.2-8.6-22.7-11.5-34.5
		c-3.6-14.7-2.4-30,5.9-42.4c9.4-14.1,17.3-28.9,25.8-44.9c0.7-5.8-1.8-13.5,3.1-20.2c1-1.4,1.1-5,0-6.3c-6.9-8.2-1.6-18.3-4.9-27.4
		c-3.3-9.2-1.2-20.3-1.5-30.5c-0.1-2.5-0.2-5.1-0.3-7.6c-2.4,2.3-2,5.1-3,7c-8.8,16.4-12.4,34.2-16.6,52.1
		c-2.9,12.3-6.8,24.5-9.5,36.9c-2.8,13.2-4.1,26.6-6.1,39.9c-2.2,15.1-1.3,30.6-3.3,46.1c-3.1,24,5.1,48,2.8,72.2
		c3.9,9.1,2.8,19.5,6.8,28.3c7.8,17.1,11,34.8,9.6,53.3C855.9,1432.8,864.8,1453.1,868.8,1478.3z M659.1,1585.8
		c-17,3.9-26.2,23.5-27.4,37.8c-0.4,4.5-1.8,8-3.6,11.7c-4.6,10-10.1,19.3-18.6,26.8c-8.6,7.6-16.4,16-24.4,24.2
		c-10.5,10.9-17.2,23.4-16.1,39.2c0.4,6.5,0.1,13.1,0.1,19.7c-0.1,10.5-2.9,20.5-7.4,29.7c-5.2,10.6-11.5,20.6-19.2,29.9
		c-6.2,7.4-11.4,16.4-9.3,27.1c0.8,4.4,3.2,8.5,4.5,12.8c5.5,17.1,13.6,33.6,12,52.5c-0.6,7.2-2.6,12.9-7,18.5
		c-11,14.2-23.2,28.1-22.8,47.9c-9.1,16.1-0.3,32.1,1.6,47.6c1.3,10.8,2,20.3-2.8,30c-2.9,5.9-5,12.4-8.8,17.6
		c-3.3,4.5-2.9,8.9-3.1,13.6c3.2,3.5,7.9,6.5,9.6,10.7c3.5,8.6,10.4,14.4,17.1,18.8c13.2,8.8,20.7,21.3,27.2,34.6
		c7,14.2,8.1,28.6-1.3,42.7c-4.8,7.2-9,14.8-13.2,21.6c0.1,8.1-0.7,15.5,3.2,22.4c3.2,5.7,5.5,11.9,8.1,17.9c1.2-5.1-1-9.3-1.3-13.5
		c-1.1-14.8,0-29.4,6.4-43.2c9.9-21.3,9.9-21.4,9.8-40.2c0-1-0.2-2.1-0.3-3c-4.7-8-9.1-16-14-23.8c-4.8-7.8-8.4-16.1-12.2-24.5
		c-11.8-26-19.6-54.5-19.4-78.8c0.1-13.8-0.6-27.5,2.7-41.4c2-8.5,3.9-17.2,7.6-24.8c7.7-16,17.2-31.1,25.7-46.3c0-14.6,0-28.8,0-43
		c0-3.2,0-6.5-0.7-9.6c-1.7-7.4-4.4-14.7-5.7-22.2c-0.8-4.6-0.4-9.8,1-14.3c4.7-15.1,8.1-30.5,12-45.8c1.1-4.5,2.7-8.9,3.2-13.4
		c1.6-14.4,2.9-28.7,9.9-41.8c-1.5-10.1,10.2-12.7,12-21c13.5-5.9,19.7-18.4,26.1-30.2c9-16.6,18.7-32.4,32.6-45.5
		c5-4.7,9.7-9.7,14-14C664,1595.5,661.5,1590.6,659.1,1585.8z M495.2,1611.9c-1.3,5.4-5.3,12.4-3.2,15.5c3.5,5.4-2,9.6,1.2,15
		c2.8,4.9,0.9,12.8,0.5,19.3c-0.3,5.9,1.2,11.2,3.2,16.7c1.9,5.3-1.8,11.3,2.7,17c3.4,4.3-1,11,3.4,16.7c3.1,4,2.3,10.9,4,16.2
		c1.7,5.3,4.3,10.2,6.4,15.3c2.3,5.6,4.2,11.4,6.6,16.9c2.3,5.1,4.8,10.1,7.6,14.8c2.9,4.9,6.4,9.5,9.7,14.4
		c7.3-7.3,12.1-14.7,15.9-23.8c6.3-15.4,6.4-30.9,5.9-46.6c-0.2-7.6,1.3-14.6,3.6-21.5c1.4-4.2,4.7-7.7,7.1-11.6
		C559.2,1680.4,502.2,1623.5,495.2,1611.9z M824.4,1596.9c3.6,3.6,6.2,6.5,9,9c8,7.1,11.8,15.5,11.2,26.5
		c-0.8,14.6-0.2,29.3-0.2,44.9c13.9,3.3,27.7,6.6,42.6,10.1c7-16.5,10.8-33.4,10-51.6c-0.8-17.8,1.6-35.9-5-52.6
		C870.9,1593.2,847.6,1591.8,824.4,1596.9z M584.2,2090.4c1.5-1.5,4.2-2.9,4.4-4.7c1.6-12.9,7-25,6.8-38.2
		c-0.1-3.8-1.1-8.3,0.6-11.2c5.5-9.3,1.2-19.1,2.7-28.4c-4.4-3.7-2.8-8.7-3.4-13.4c-0.7-5.1-2.9-10-3-15c0-6.5-1.8-11.9-6.2-16.8
		c-5.4,2.6-10.9,5.2-16.9,8.1c-3.2,8.5-8.1,17.2-9.5,26.5c-1.5,9.8-5.4,18.9-6.7,28.4c-1.4,10.1-0.3,20.6-0.3,28.2
		C559.5,2071.5,569.9,2082.8,584.2,2090.4z M903.8,1299.4c-1.2,15.2,4.2,26.6,5,38.2c1.7,24.3,0.8,48.7,1,73.1
		c-7.2,17.9-8.1,37.7-16.2,55.4c-5.2,11.5-10.3,23-16.4,36.9c0.1,0.6,0.5,4,1.2,9.6c6.3-8.2,11.8-14,15.7-20.8
		c10.4-18,19.5-36.5,23-57.6c1.5-8.9,0.3-18.6,3.5-26.2c3.4-8.2,0.3-16.1,2.9-23.3c2.9-7.8,2.9-15.4,3.6-22.9
		c5.6-13.5,10.4-27.5,19.6-38.6C935.9,1308,919.8,1305.6,903.8,1299.4z M559.4,989.2c-5.9,11.9-9.1,22.6-13.5,32.7
		c-3,6.8-4.9,14.3-2.4,19.8c3.3,7.4,1.8,14.5,3.6,21.2c10.2,31.1,26.6,57.5,54.1,73.5c1.6,7.4,3.1,12.9,4,18.5
		c1.6,10.3,2.7,20.7,15.4,24c3.6-2.8,5.6-6.3,3.4-11.9c-6.1-16.1-14.1-30.8-26.6-43c-9.1-8.9-17.4-18.8-25.5-28.7
		c-6.8-8.4-10.6-18.7-12.4-29.1c-2.8-15.4,0.2-31,3.7-45.8c3.2-13.3,6-26.3,5.9-40c-0.1-13-5.6-24.1-12.5-34
		c-8.2-11.7-18.5-22-27.9-32.8c-4.5,7.7-8.6,14.6-12.7,21.7C550.4,944.2,562,959.3,559.4,989.2z M792.4,1534.8
		c5.8-5.8,13.2-12.4,19.6-19.8c6-7.1,13.1-14.4,15.7-22.8c5.4-17.7,11.2-35.5,10.6-54.7c-0.3-9.1-2.7-17.6-3.4-26.5
		c-1.3-15.1-8.8-36.6-18.2-51.4c-8.9-14-17.3-28.3-26.6-43.5c-0.4,6.7,2.9,19.9,5.2,26c7.5,20.4,17.7,39.5,25,60
		c4.6,13,2.9,26.7,7.7,39.3c0.6,1.7,0.2,4.9-1,5.9c-3.3,2.7-2.1,6-2.1,9c0.2,23.2-9.9,41.9-25.5,58.2c-4.8,5-9.8,9.9-16,16
		C786.9,1532.2,789.4,1533.4,792.4,1534.8z M500.2,896.9c-0.3,13.9,1.8,24.9,10.6,34.6c4.9-8,9.1-14.8,13.4-21.8
		c-11.3-10.1-19-21.5-25-34.4c-4.3-9.3-8.2-19.4-4.6-28.5c2.3-5.9,1-11.4,1.8-13.8c8.9-17.6,14-33.9,27.8-46.4c-7.7,0-13.9,0-19.1,0
		c-9.1,19.6-17.8,38.3-27.6,59.5c0,6.9,0,16.7,0,26.4C485.3,880.9,493.3,889.4,500.2,896.9z M724.6,1789.4
		c8.4-1.8,17.1,2.2,25.3-2.2c7.5-4.1,15.3-7.8,23-11.8c-10-15.1-18.4-30.1-30.1-43.5c-7.6,7.6-14.6,13.7-20.5,20.7
		c-5.7,6.9-10.3,14.7-15.7,22.6C712.9,1780.2,718.7,1784.7,724.6,1789.4z M605.5,859.4c-4.5-3.7-8.6-8.2-13.5-11
		c-8.7-4.9-18-9-27.1-13.2c-1.2-0.6-3.1,0.1-4.2,0.2c-3.5,10.8-6.9,21.1-10.4,32c7.8,12.8,16,26.2,24.7,40.4
		C579.3,888,594.4,875.3,605.5,859.4z M741.7,1712.1c5.8-9.1,11-16.1,15-23.9c4.3-8.5,9.5-17.3,2.7-27.2c-0.9-1.4-0.1-3.9-0.1-3.4
		c-6.2-6.8-10.6-11.5-15.9-17.3c-12,5.5-21.7,13.7-31.4,24.2C720.2,1680.8,733.3,1693.6,741.7,1712.1z M627.8,1393.1
		c1.2,20.7,2.4,41.3,3.7,62c4.7,5.5,2.9,12.1,3.3,18.3c0.2,2.5,1,5,1.6,7.5c2.7,11.4,5.3,22.9,8.3,34.3c0.8,3,2.8,5.6,4.4,8.6
		c6.6-11.4,12.4-21.4,18.2-31.6c-13.8-12.8-23.2-28.6-22.3-47.7C645.8,1425,636,1409.7,627.8,1393.1z M923.2,939.7
		c3.5-11.3,11.9-19.9,13.5-31.8c2.1-15.1,10.7-29,9.6-45c6.3-5.8,0.8-13.8,3.4-19.8c3-6.7,2.5-13.3,3.1-20
		c0.7-7.8-2.7-16.1,3.1-23.3c0.8-1,0.8-3.9,0-4.7c-4.8-5-3.4-11.1-3-16.7c0.8-10.9-2.9-20-9.7-29.4c-2.2,1.9-4.2,3.4-6,5.2
		c-1.8,1.8-3.3,3.8-4.7,5.5c9.6,14.7,12.1,30.6,13.3,46.2c1,12.5,0.3,25.1-2.3,38c-2.8,14.1-3.6,28.8-7.3,42.9
		c-4,15.2-5.2,31.2-12.8,45.4C922.3,934,923.2,937.1,923.2,939.7z M647.6,1311.1c-7.9,15.1-18.7,58.2-14.5,68.3
		c6.6-16.3,23.8-22.1,34.3-34.5c0-2.1,0-4.3,0-6.6c-6.5-6.4-13.1-12.9-19.5-19.3C647.9,1316.3,647.7,1313.7,647.6,1311.1z
		 M753.5,2636.9c3.4-8.5,6-15,8.9-22.4c-3-5.3-6.3-11.5-10.1-17.5c-3.9-6.3-8.2-12.3-12.9-19.3c-3.9,4.1-7.3,6.8-9.5,10.3
		c-4.5,7-5.3,14.8,0,21.6C736.9,2618.4,744.7,2626.8,753.5,2636.9z M537,787.7c-10.9,12.9-11.2,25.2-10.6,38c0.4,8.7,0.2,17.4,0,26
		c-0.2,11,6.3,19.6,8.8,33.1c7.7-11.5,9.7-20,6-30.1c-2.4-6.7-5.5-13.2-5.1-20.7c0.3-7,1.5-14.3-2.2-21
		C539.2,805.5,535,797.6,537,787.7z M866.1,1490.5c-13.7,25.7-36,41.5-56.9,57.9c0,2.6,0,5.2,0,8c23.2-12.4,32.8-17.7,61.6-55.3
		C869.4,1498,868,1494.8,866.1,1490.5z M571.8,936.2c2.8-14.4-0.9-27.4-9.2-39.4c-5-7.3-9.7-14.8-14.8-22.6
		c-3.1,6.5-5.7,11.9-8,16.6C550.7,906.2,561.2,921.1,571.8,936.2z M695.1,1657.7c-4.9,12.8-7.7,26.9-15.2,37.8
		c-8.1,11.8-20.7,20.5-31.3,30.5c9.9-5.6,22.6-4.5,31.2-13.2c3.7-3.7,6.5-7.1,7.9-13.2c2.8-12.6,8.5-24.6,12.9-36.4
		C698.5,1661.1,696.9,1659.6,695.1,1657.7z M875.7,1526.8c-5.8,5.8-11,11.5-16.7,16.6c-5,4.6-10.4,8.8-16,12.7
		c-5.8,4.1-12.4,7.3-18,11.7c-5,3.9-13.8,2.8-16.1,12.2c29-9.6,53.7-23.4,72.5-46.9C879.4,1530.7,877.9,1529.2,875.7,1526.8z
		 M810.3,1569.7c6.1-3.3,12.6-6.1,18.3-10.2c15.5-11.3,32.8-20.5,42.9-38c2.4-4.1,3.9-7,1.2-10.7c-16.3,13.4-28.2,31.3-46.4,42.4
		c-4.3,2.6-9.3,4.2-13.3,7.1C810.3,1562.3,805.7,1564.7,810.3,1569.7z M565.7,1112.6c-6.6-11.6-13.9-22.8-18.8-35.5
		c-5.2-13.7-7.9-27.6-7.6-45.9C524.3,1069,540.8,1092.4,565.7,1112.6z M826.1,1577.8c12.4,4.3,20-6.1,29.7-5.1
		c10.2-7.5,24.1-9.5,30.7-21.3c-1.5-2.8-2.8-5.5-4.1-8.1C865.7,1557.1,848.3,1569.5,826.1,1577.8z M539.6,815.9
		c0,4.7-1.8,10.9,0.4,13.9c3.4,4.6,1.9,9.1,3,13.5c0.9,3.9,3,7.5,5.1,12.5c2.6-10.1,4.7-18.2,6.8-26.4
		C548.4,827.4,543.8,822.6,539.6,815.9z M549.7,798.3c3.5,2.8,7,5.6,12.2,9.6c0-9.7,0-16.9,0-24.6c-3.9,0-7.9,0-12.2,0
		C549.7,788.1,549.7,792.3,549.7,798.3z M893.7,1552.4c0.9,3.9-2,9.5,1.8,14.2c8.1-2.1,8.1-9.4,10.9-13.2c-1.7-5.1-3.1-9.3-4.4-13.3
		C899.4,1544.2,896.8,1548,893.7,1552.4z M636.8,1158.4c-7.5,17-6.7,20.1,6.6,28C647.3,1176.1,639,1169,636.8,1158.4z M641.9,1145.2
		c-1.9,13.1,3.5,21.7,7.5,31.4c1.9-3.9,3.5-7,5.3-10.7C650.9,1159.6,646.9,1153.2,641.9,1145.2z M720.5,1634
		c-9,2.2-11.9,8.6-17.2,12.4c0.4,2.7,0.9,5.3,1.8,11.6C709.2,1647.4,719,1645.4,720.5,1634z M890.8,1567.9c-0.2-1.5-0.4-3-0.6-4.5
		c-3.2,0.3-6.8-0.2-9.4,1.1c-5.7,2.9-10.8,6.8-17.4,11.1C874.7,1576.8,882.2,1570.8,890.8,1567.9z M703.1,1626.4
		c-2.6,2.9-5.2,5.8-7.7,8.5c0.8,1.6,2.1,4,3.1,6c4-2.7,7.8-5.2,11.5-7.6C707.4,1630.7,704.7,1628,703.1,1626.4z M689.1,1625.8
		c3.6-1.7,7.2-3.5,10.5-5c-2.9-2.4-5.9-4.9-8.7-7.3c-1.8,0.9-4.3,2.3-6.4,3.3C686.1,1619.9,687.4,1622.6,689.1,1625.8z
		 M682.3,1609.6c1.2-0.2,2.3-0.3,3.5-0.5c0.5-2,1-4,1.8-7c-4.4,0.3-7.3,0.5-9.6,0.6C679.6,1605.2,681,1607.4,682.3,1609.6z
		 M329.3,726.4c-0.1-1-0.2-1.9-0.3-2.9c-2.9,0.4-5.7,0.8-8.6,1.2c0.1,0.6,0.1,1.1,0.2,1.7C323.5,726.4,326.4,726.4,329.3,726.4z
		 M661.5,212.8c0.1,0.9,0.2,1.9,0.4,2.8c1.8-0.4,3.6-0.8,5.3-1.3c-0.1-0.5-0.2-1-0.3-1.6C665.1,212.8,663.3,212.8,661.5,212.8z
		 M765.8,214.7c0-0.5,0-1.1,0-1.6c-2.2,0-4.4,0-6.6,0c0,0.5,0,1.1,0,1.6C761.5,214.7,763.7,214.7,765.8,214.7z M828.1,227.8
		c0-0.5,0-1.1,0-1.6c-2.2,0-4.4,0-6.6,0c0,0.5,0,1.1,0,1.6C823.8,227.8,825.9,227.8,828.1,227.8z M879.8,1064.6c-0.5,0-1.1,0-1.6,0
		c0,2.2,0,4.4,0,6.6c0.5,0,1.1,0,1.6,0C879.8,1069,879.8,1066.8,879.8,1064.6z M633.6,205.7c-0.4,0-0.7,0-1.1,0c0,1.1,0,2.2,0,3.3
		c0.4,0,0.7,0,1.1,0C633.6,207.9,633.6,206.8,633.6,205.7z M883.9,1049.3c0,0.4,0,0.7,0,1.1c1.1,0,2.2,0,3.3,0c0-0.4,0-0.7,0-1.1
		C886,1049.3,885,1049.3,883.9,1049.3z M448.9,772.9c0.4,0,0.7,0,1.1,0c0-1.1,0-2.2,0-3.3c-0.4,0-0.7,0-1.1,0
		C448.9,770.7,448.9,771.8,448.9,772.9z M675.1,1599c0.4,0,0.7,0,1.1,0c0-1.1,0-2.2,0-3.3c-0.4,0-0.7,0-1.1,0
		C675.1,1596.8,675.1,1597.9,675.1,1599z M893.7,246.1c0,0.4,0,0.7,0,1.1c1.1,0,2.2,0,3.3,0c0-0.4,0-0.7,0-1.1
		C895.9,246.1,894.8,246.1,893.7,246.1z M889.3,241.8c-0.4,0-0.7,0-1.1,0c0,1.1,0,2.2,0,3.3c0.4,0,0.7,0,1.1,0
		C889.3,244,889.3,242.9,889.3,241.8z M882.8,1054.8c-0.4,0-0.7,0-1.1,0c0,1.1,0,2.2,0,3.3c0.4,0,0.7,0,1.1,0
		C882.8,1057,882.8,1055.9,882.8,1054.8z M630.3,238.5c-0.4,0-0.7,0-1.1,0c0,1.1,0,2.2,0,3.3c0.4,0,0.7,0,1.1,0
		C630.3,240.7,630.3,239.6,630.3,238.5z M772.4,230.8c0-0.4,0-0.7,0-1.1c-1.1,0-2.2,0-3.3,0c0,0.4,0,0.7,0,1.1
		C770.2,230.8,771.3,230.8,772.4,230.8z M735.2,1169.5c-0.4,0-0.7,0-1.1,0c0,1.1,0,2.2,0,3.3c0.4,0,0.7,0,1.1,0
		C735.2,1171.7,735.2,1170.6,735.2,1169.5z M700.3,2463.4c0-0.4,0-0.7,0-1.1c-1.1,0-2.2,0-3.3,0c0,0.4,0,0.7,0,1.1
		C698.1,2463.4,699.2,2463.4,700.3,2463.4z M677.3,221c0-0.4,0-0.7,0-1.1c-1.1,0-2.2,0-3.3,0c0,0.4,0,0.7,0,1.1
		C675.1,221,676.2,221,677.3,221z"/>
</g>
</svg>
