<?xml version="1.0" encoding="utf-8"?>
<!-- Generator: Adobe Illustrator 21.0.0, SVG Export Plug-In . SVG Version: 6.00 Build 0)  -->
<svg version="1.1" id="Слой_1" xmlns="http://www.w3.org/2000/svg" xmlns:xlink="http://www.w3.org/1999/xlink" x="0px" y="0px"
	 viewBox="0 0 800 800" style="enable-background:new 0 0 800 800;" xml:space="preserve">
<style type="text/css">
	.st0{fill:none;stroke:url(#SVGID_1_);stroke-miterlimit:10;}
	.st1{fill:none;stroke:url(#SVGID_2_);stroke-miterlimit:10;}
	.st2{fill:none;stroke:url(#SVGID_3_);stroke-miterlimit:10;}
	.st3{fill:none;stroke:url(#SVGID_4_);stroke-miterlimit:10;}
	.st4{fill:none;stroke:url(#SVGID_5_);stroke-miterlimit:10;}
	.st5{fill:none;stroke:url(#SVGID_6_);stroke-miterlimit:10;}
	.st6{fill:none;stroke:url(#SVGID_7_);stroke-miterlimit:10;}
	.st7{fill:none;stroke:url(#SVGID_8_);stroke-miterlimit:10;}
	.st8{fill:none;stroke:url(#SVGID_9_);stroke-miterlimit:10;}
	.st9{fill:none;stroke:url(#SVGID_10_);stroke-miterlimit:10;}
	.st10{fill:none;stroke:url(#SVGID_11_);stroke-miterlimit:10;}
	.st11{fill:none;stroke:url(#SVGID_12_);stroke-miterlimit:10;}
	.st12{fill:none;stroke:url(#SVGID_13_);stroke-miterlimit:10;}
	.st13{fill:none;stroke:url(#SVGID_14_);stroke-miterlimit:10;}
	.st14{fill:none;stroke:url(#SVGID_15_);stroke-miterlimit:10;}
	.st15{fill:none;stroke:url(#SVGID_16_);stroke-miterlimit:10;}
	.st16{fill:none;stroke:url(#SVGID_17_);stroke-miterlimit:10;}
	.st17{fill:none;stroke:url(#SVGID_18_);stroke-miterlimit:10;}
	.st18{fill:none;stroke:url(#SVGID_19_);stroke-miterlimit:10;}
	.st19{fill:none;stroke:url(#SVGID_20_);stroke-miterlimit:10;}
	.st20{fill:none;stroke:url(#SVGID_21_);stroke-miterlimit:10;}
	.st21{fill:none;stroke:url(#SVGID_22_);stroke-miterlimit:10;}
	.st22{fill:none;stroke:url(#SVGID_23_);stroke-miterlimit:10;}
	.st23{fill:none;stroke:url(#SVGID_24_);stroke-miterlimit:10;}
	.st24{fill:none;stroke:url(#SVGID_25_);stroke-miterlimit:10;}
	.st25{fill:none;stroke:url(#SVGID_26_);stroke-miterlimit:10;}
	.st26{fill:none;stroke:url(#SVGID_27_);stroke-miterlimit:10;}
	.st27{fill:none;stroke:url(#SVGID_28_);stroke-miterlimit:10;}
	.st28{fill:none;stroke:url(#SVGID_29_);stroke-miterlimit:10;}
	.st29{fill:none;stroke:url(#SVGID_30_);stroke-miterlimit:10;}
	.st30{fill:none;stroke:url(#SVGID_31_);stroke-miterlimit:10;}
	.st31{fill:none;stroke:url(#SVGID_32_);stroke-miterlimit:10;}
	.st32{fill:none;stroke:url(#SVGID_33_);stroke-miterlimit:10;}
	.st33{fill:none;stroke:url(#SVGID_34_);stroke-miterlimit:10;}
	.st34{fill:none;stroke:url(#SVGID_35_);stroke-miterlimit:10;}
	.st35{fill:none;stroke:url(#SVGID_36_);stroke-miterlimit:10;}
	.st36{fill:none;stroke:url(#SVGID_37_);stroke-miterlimit:10;}
</style>
<linearGradient id="SVGID_1_" gradientUnits="userSpaceOnUse" x1="130.2393" y1="399.8314" x2="399.7126" y2="399.8314">
	<stop  offset="0" style="stop-color:#00FFFF"/>
	<stop  offset="1" style="stop-color:#ED1E79"/>
</linearGradient>
<path class="st0" d="M399.5,28C275.6,86.2,163.3,164.6,151,175.6c-4.3,3.8-20.3,16.9-20.3,36.6c0,6.5,7.4,21,29.8,25
	c8.4,1.5,96.3,4.1,139.5,4.1c22.3,0,30.8,4,36.6,7.4c4,2.4,6.7,4,8.1,7.4c0.7,1.8,1.4,4.8-1.4,12.9c-2.8,8.1-5.7,11.4-8.8,17.6
	c-2.6,5.2-3.8,9.6-6.1,18.3c-4.7,17.6-7.4,36.5-10.8,65c-3.3,27.3-3.2,34.1-1.4,44c6.1,33.2,35.8,31,40.6,32.5
	c5,1.6,7.4,6.7,8.1,8.1c3,6.2-1.4,35-4.7,48.1c-3.5,13.8-5.7,17.9-12.9,38.6c-8.6,25.1-11.6,37.2-13.5,46.7c-0.9,4.4-3,15.5-2,29.8
	c0.9,12.6,3.6,18,6.8,21.7c3.5,4,6.3,4.5,10.8,7.4c3.1,2,9.4,6.8,18.3,23.7c8.9,17.1,26.4,84.6,30.5,101.5"/>
<linearGradient id="SVGID_2_" gradientUnits="userSpaceOnUse" x1="134.9781" y1="399.8312" x2="399.7158" y2="399.8312">
	<stop  offset="0" style="stop-color:#00FFFF"/>
	<stop  offset="1" style="stop-color:#ED1E79"/>
</linearGradient>
<path class="st1" d="M399.5,28c-121.7,58.2-232,136.6-244.1,147.6c-4.2,3.8-20,16.9-20,36.6c0,6.5,7.3,21,29.3,25
	c8.3,1.5,94.6,4.1,137,4.1c21.9,0,30.3,4,35.9,7.4c3.9,2.4,6.6,4,8,7.4c0.7,1.8,1.4,4.8-1.3,12.9c-2.7,8.1-5.6,11.4-8.6,17.6
	c-2.6,5.2-3.7,9.6-6,18.3c-4.6,17.6-7.2,36.5-10.6,65c-3.3,27.3-3.1,34.1-1.3,44c6,33.2,35.2,31,39.9,32.5c4.9,1.6,7.3,6.7,8,8.1
	c2.9,6.2-1.4,35-4.7,48.1c-3.5,13.8-5.6,17.9-12.6,38.6c-8.5,25.1-11.4,37.2-13.3,46.7c-0.9,4.4-3,15.5-2,29.8
	c0.9,12.6,3.5,18,6.7,21.7c3.4,4,6.2,4.5,10.6,7.4c3,2,9.3,6.8,18,23.7c8.8,17.1,26,84.6,29.9,101.5"/>
<linearGradient id="SVGID_3_" gradientUnits="userSpaceOnUse" x1="139.717" y1="399.831" x2="399.719" y2="399.831">
	<stop  offset="0" style="stop-color:#00FFFF"/>
	<stop  offset="1" style="stop-color:#ED1E79"/>
</linearGradient>
<path class="st2" d="M399.5,28C280,86.2,171.6,164.6,159.8,175.6c-4.1,3.8-19.6,16.9-19.6,36.6c0,6.5,7.2,21,28.7,25
	c8.1,1.5,92.9,4.1,134.5,4.1c21.6,0,29.7,4,35.3,7.4c3.8,2.4,6.5,4,7.8,7.4c0.7,1.8,1.4,4.8-1.3,12.9c-2.7,8.1-5.5,11.4-8.5,17.6
	c-2.5,5.2-3.6,9.6-5.9,18.3c-4.5,17.6-7.1,36.5-10.4,65c-3.2,27.3-3.1,34.1-1.3,44c5.9,33.2,34.5,31,39.2,32.5
	c4.8,1.6,7.2,6.7,7.8,8.1c2.9,6.2-1.3,35-4.6,48.1c-3.4,13.8-5.5,17.9-12.4,38.6c-8.3,25.1-11.2,37.2-13.1,46.7
	c-0.9,4.4-2.9,15.5-2,29.8c0.9,12.6,3.5,18,6.5,21.7c3.3,4,6.1,4.5,10.4,7.4c2.9,2,9.1,6.8,17.6,23.7c8.6,17.1,25.5,84.6,29.4,101.5
	"/>
<linearGradient id="SVGID_4_" gradientUnits="userSpaceOnUse" x1="145.8098" y1="399.8308" x2="399.7232" y2="399.8308">
	<stop  offset="0" style="stop-color:#00FFFF"/>
	<stop  offset="1" style="stop-color:#ED1E79"/>
</linearGradient>
<path class="st3" d="M399.5,28C282.8,86.2,177,164.6,165.4,175.6c-4,3.8-19.1,16.9-19.1,36.6c0,6.5,7,21,28.1,25
	c7.9,1.5,90.7,4.1,131.4,4.1c21,0,29,4,34.4,7.4c3.7,2.4,6.3,4,7.7,7.4c0.7,1.8,1.3,4.8-1.3,12.9c-2.6,8.1-5.3,11.4-8.3,17.6
	c-2.5,5.2-3.6,9.6-5.7,18.3c-4.4,17.6-6.9,36.5-10.2,65c-3.1,27.3-3,34.1-1.3,44c5.7,33.2,33.7,31,38.3,32.5c4.7,1.6,7,6.7,7.7,8.1
	c2.8,6.2-1.3,35-4.5,48.1c-3.3,13.8-5.4,17.9-12.1,38.6c-8.1,25.1-10.9,37.2-12.8,46.7c-0.8,4.4-2.9,15.5-1.9,29.8
	c0.8,12.6,3.4,18,6.4,21.7c3.3,4,5.9,4.5,10.2,7.4c2.9,2,8.9,6.8,17.2,23.7c8.4,17.1,24.9,84.6,28.7,101.5"/>
<linearGradient id="SVGID_5_" gradientUnits="userSpaceOnUse" x1="152.5796" y1="399.8306" x2="399.7281" y2="399.8306">
	<stop  offset="0" style="stop-color:#00FFFF"/>
	<stop  offset="1" style="stop-color:#ED1E79"/>
</linearGradient>
<path class="st4" d="M399.5,28C285.9,86.2,183,164.6,171.7,175.6c-3.9,3.8-18.6,16.9-18.6,36.6c0,6.5,6.8,21,27.3,25
	c7.7,1.5,88.3,4.1,127.9,4.1c20.5,0,28.2,4,33.5,7.4c3.6,2.4,6.2,4,7.4,7.4c0.7,1.8,1.3,4.8-1.2,12.9c-2.6,8.1-5.2,11.4-8.1,17.6
	c-2.4,5.2-3.5,9.6-5.6,18.3c-4.3,17.6-6.8,36.5-9.9,65c-3,27.3-2.9,34.1-1.2,44c5.6,33.2,32.8,31,37.2,32.5c4.6,1.6,6.8,6.7,7.4,8.1
	c2.7,6.2-1.3,35-4.3,48.1c-3.2,13.8-5.3,17.9-11.8,38.6c-7.9,25.1-10.7,37.2-12.4,46.7c-0.8,4.4-2.8,15.5-1.9,29.8
	c0.8,12.6,3.3,18,6.2,21.7c3.2,4,5.8,4.5,9.9,7.4c2.8,2,8.7,6.8,16.8,23.7c8.2,17.1,24.2,84.6,27.9,101.5"/>
<linearGradient id="SVGID_6_" gradientUnits="userSpaceOnUse" x1="161.3803" y1="399.8305" x2="399.7347" y2="399.8305">
	<stop  offset="0" style="stop-color:#00FFFF"/>
	<stop  offset="1" style="stop-color:#ED1E79"/>
</linearGradient>
<path class="st5" d="M399.5,28C290,86.2,190.7,164.6,179.8,175.6c-3.8,3.8-18,16.9-18,36.6c0,6.5,6.6,21,26.3,25
	c7.4,1.5,85.1,4.1,123.3,4.1c19.8,0,27.2,4,32.3,7.4c3.5,2.4,6,4,7.2,7.4c0.6,1.8,1.2,4.8-1.2,12.9c-2.5,8.1-5,11.4-7.8,17.6
	c-2.3,5.2-3.3,9.6-5.4,18.3c-4.1,17.6-6.5,36.5-9.6,65c-2.9,27.3-2.8,34.1-1.2,44c5.4,33.2,31.7,31,35.9,32.5
	c4.4,1.6,6.6,6.7,7.2,8.1c2.6,6.2-1.2,35-4.2,48.1c-3.1,13.8-5.1,17.9-11.4,38.6c-7.6,25.1-10.3,37.2-12,46.7
	c-0.8,4.4-2.7,15.5-1.8,29.8c0.8,12.6,3.2,18,6,21.7c3.1,4,5.6,4.5,9.6,7.4c2.7,2,8.3,6.8,16.2,23.7c7.9,17.1,23.4,84.6,26.9,101.5"
	/>
<linearGradient id="SVGID_7_" gradientUnits="userSpaceOnUse" x1="172.8889" y1="399.8307" x2="399.7438" y2="399.8307">
	<stop  offset="0" style="stop-color:#00FFFF"/>
	<stop  offset="1" style="stop-color:#ED1E79"/>
</linearGradient>
<path class="st6" d="M399.5,28c-104.2,58.2-198.7,136.6-209,147.6c-3.6,3.8-17.1,16.9-17.1,36.6c0,6.5,6.3,21,25.1,25
	c7.1,1.5,81,4.1,117.3,4.1c18.8,0,25.9,4,30.8,7.4c3.3,2.4,5.7,4,6.8,7.4c0.6,1.8,1.2,4.8-1.1,12.9c-2.3,8.1-4.8,11.4-7.4,17.6
	c-2.2,5.2-3.2,9.6-5.1,18.3c-3.9,17.6-6.2,36.5-9.1,65c-2.8,27.3-2.7,34.1-1.1,44c5.1,33.2,30.1,31,34.2,32.5
	c4.2,1.6,6.2,6.7,6.8,8.1c2.5,6.2-1.2,35-4,48.1c-3,13.8-4.8,17.9-10.8,38.6c-7.3,25.1-9.8,37.2-11.4,46.7
	c-0.7,4.4-2.6,15.5-1.7,29.8c0.8,12.6,3,18,5.7,21.7c2.9,4,5.3,4.5,9.1,7.4c2.6,2,7.9,6.8,15.4,23.7c7.5,17.1,22.2,84.6,25.6,101.5"
	/>
<linearGradient id="SVGID_8_" gradientUnits="userSpaceOnUse" x1="184.3976" y1="399.8311" x2="399.7536" y2="399.8311">
	<stop  offset="0" style="stop-color:#00FFFF"/>
	<stop  offset="1" style="stop-color:#ED1E79"/>
</linearGradient>
<path class="st7" d="M399.5,28c-98.9,58.2-188.6,136.6-198.4,147.6c-3.4,3.8-16.2,16.9-16.2,36.6c0,6.5,5.9,21,23.8,25
	c6.7,1.5,76.9,4.1,111.4,4.1c17.8,0,24.6,4,29.2,7.4c3.2,2.4,5.4,4,6.5,7.4c0.6,1.8,1.1,4.8-1.1,12.9c-2.2,8.1-4.5,11.4-7,17.6
	c-2.1,5.2-3,9.6-4.9,18.3c-3.7,17.6-5.9,36.5-8.6,65c-2.7,27.3-2.5,34.1-1.1,44c4.9,33.2,28.6,31,32.4,32.5c4,1.6,5.9,6.7,6.5,8.1
	c2.4,6.2-1.1,35-3.8,48.1c-2.8,13.8-4.6,17.9-10.3,38.6c-6.9,25.1-9.3,37.2-10.8,46.7c-0.7,4.4-2.4,15.5-1.6,29.8
	c0.7,12.6,2.9,18,5.4,21.7c2.8,4,5,4.5,8.6,7.4c2.4,2,7.5,6.8,14.6,23.7c7.1,17.1,21.1,84.6,24.3,101.5"/>
<linearGradient id="SVGID_9_" gradientUnits="userSpaceOnUse" x1="196.5832" y1="399.8318" x2="399.7647" y2="399.8318">
	<stop  offset="0" style="stop-color:#00FFFF"/>
	<stop  offset="1" style="stop-color:#ED1E79"/>
</linearGradient>
<path class="st8" d="M399.5,28c-93.3,58.2-177.9,136.6-187.1,147.6c-3.2,3.8-15.3,16.9-15.3,36.6c0,6.5,5.6,21,22.4,25
	c6.3,1.5,72.5,4.1,105,4.1c16.8,0,23.2,4,27.5,7.4c3,2.4,5.1,4,6.1,7.4c0.5,1.8,1.1,4.8-1,12.9c-2.1,8.1-4.3,11.4-6.6,17.6
	c-2,5.2-2.8,9.6-4.6,18.3c-3.5,17.6-5.5,36.5-8.2,65c-2.5,27.3-2.4,34.1-1,44c4.6,33.2,27,31,30.6,32.5c3.7,1.6,5.6,6.7,6.1,8.1
	c2.3,6.2-1.1,35-3.6,48.1c-2.7,13.8-4.3,17.9-9.7,38.6c-6.5,25.1-8.8,37.2-10.2,46.7c-0.7,4.4-2.3,15.5-1.5,29.8
	c0.7,12.6,2.7,18,5.1,21.7c2.6,4,4.7,4.5,8.2,7.4c2.3,2,7.1,6.8,13.8,23.7c6.7,17.1,19.9,84.6,22.9,101.5"/>
<linearGradient id="SVGID_10_" gradientUnits="userSpaceOnUse" x1="211.4768" y1="399.8335" x2="399.7793" y2="399.8335">
	<stop  offset="0" style="stop-color:#00FFFF"/>
	<stop  offset="1" style="stop-color:#ED1E79"/>
</linearGradient>
<path class="st9" d="M399.5,28c-86.4,58.2-164.8,136.6-173.4,147.6c-3,3.8-14.2,16.9-14.2,36.6c0,6.5,5.2,21,20.8,25
	c5.9,1.5,67.2,4.1,97.3,4.1c15.6,0,21.5,4,25.5,7.4c2.8,2.4,4.7,4,5.7,7.4c0.5,1.8,1,4.8-0.9,12.9c-1.9,8.1-4,11.4-6.1,17.6
	c-1.8,5.2-2.6,9.6-4.3,18.3c-3.3,17.6-5.1,36.5-7.6,65c-2.3,27.3-2.2,34.1-0.9,44c4.3,33.2,25,31,28.3,32.5c3.5,1.6,5.2,6.7,5.7,8.1
	c2.1,6.2-1,35-3.3,48.1c-2.5,13.8-4,17.9-9,38.6c-6,25.1-8.1,37.2-9.4,46.7c-0.6,4.4-2.1,15.5-1.4,29.8c0.6,12.6,2.5,18,4.7,21.7
	c2.4,4,4.4,4.5,7.6,7.4c2.1,2,6.6,6.8,12.8,23.7c6.2,17.1,18.5,84.6,21.3,101.5"/>
<linearGradient id="SVGID_11_" gradientUnits="userSpaceOnUse" x1="227.0473" y1="399.836" x2="399.796" y2="399.836">
	<stop  offset="0" style="stop-color:#00FFFF"/>
	<stop  offset="1" style="stop-color:#ED1E79"/>
</linearGradient>
<path class="st10" d="M399.5,28c-79.3,58.2-151.1,136.6-159,147.6c-2.7,3.8-13,16.9-13,36.6c0,6.5,4.8,21,19.1,25
	c5.4,1.5,61.6,4.1,89.2,4.1c14.3,0,19.7,4,23.4,7.4c2.5,2.4,4.3,4,5.2,7.4c0.5,1.8,0.9,4.8-0.9,12.9c-1.8,8.1-3.6,11.4-5.6,17.6
	c-1.7,5.2-2.4,9.6-3.9,18.3c-3,17.6-4.7,36.5-6.9,65c-2.1,27.3-2,34.1-0.9,44c3.9,33.2,22.9,31,26,32.5c3.2,1.6,4.8,6.7,5.2,8.1
	c1.9,6.2-0.9,35-3,48.1c-2.3,13.8-3.7,17.9-8.2,38.6c-5.5,25.1-7.4,37.2-8.7,46.7c-0.6,4.4-1.9,15.5-1.3,29.8
	c0.6,12.6,2.3,18,4.3,21.7c2.2,4,4,4.5,6.9,7.4c2,2,6,6.8,11.7,23.7c5.7,17.1,16.9,84.6,19.5,101.5"/>
<linearGradient id="SVGID_12_" gradientUnits="userSpaceOnUse" x1="241.9408" y1="399.8395" x2="399.8133" y2="399.8395">
	<stop  offset="0" style="stop-color:#00FFFF"/>
	<stop  offset="1" style="stop-color:#ED1E79"/>
</linearGradient>
<path class="st11" d="M399.5,28c-72.4,58.2-138,136.6-145.2,147.6c-2.5,3.8-11.9,16.9-11.9,36.6c0,6.5,4.4,21,17.4,25
	c4.9,1.5,56.3,4.1,81.5,4.1c13.1,0,18,4,21.4,7.4c2.3,2.4,3.9,4,4.7,7.4c0.4,1.8,0.8,4.8-0.8,12.9c-1.6,8.1-3.3,11.4-5.1,17.6
	c-1.5,5.2-2.2,9.6-3.6,18.3c-2.7,17.6-4.3,36.5-6.3,65c-1.9,27.3-1.9,34.1-0.8,44c3.6,33.2,20.9,31,23.7,32.5
	c2.9,1.6,4.3,6.7,4.7,8.1c1.7,6.2-0.8,35-2.8,48.1c-2.1,13.8-3.3,17.9-7.5,38.6c-5,25.1-6.8,37.2-7.9,46.7
	c-0.5,4.4-1.8,15.5-1.2,29.8c0.5,12.6,2.1,18,4,21.7c2,4,3.7,4.5,6.3,7.4c1.8,2,5.5,6.8,10.7,23.7c5.2,17.1,15.5,84.6,17.8,101.5"/>
<linearGradient id="SVGID_13_" gradientUnits="userSpaceOnUse" x1="259.5423" y1="399.8452" x2="399.8356" y2="399.8452">
	<stop  offset="0" style="stop-color:#00FFFF"/>
	<stop  offset="1" style="stop-color:#ED1E79"/>
</linearGradient>
<path class="st12" d="M399.5,28c-64.3,58.2-122.6,136.6-128.9,147.6c-2.2,3.8-10.5,16.9-10.5,36.6c0,6.5,3.9,21,15.5,25
	c4.4,1.5,49.9,4.1,72.4,4.1c11.6,0,16,4,19,7.4c2.1,2.4,3.5,4,4.2,7.4c0.4,1.8,0.7,4.8-0.7,12.9c-1.4,8.1-2.9,11.4-4.6,17.6
	c-1.4,5.2-2,9.6-3.2,18.3c-2.4,17.6-3.8,36.5-5.6,65c-1.7,27.3-1.6,34.1-0.7,44c3.2,33.2,18.6,31,21.1,32.5c2.6,1.6,3.9,6.7,4.2,8.1
	c1.6,6.2-0.7,35-2.5,48.1c-1.8,13.8-3,17.9-6.7,38.6c-4.5,25.1-6,37.2-7,46.7c-0.5,4.4-1.6,15.5-1.1,29.8c0.5,12.6,1.9,18,3.5,21.7
	c1.8,4,3.3,4.5,5.6,7.4c1.6,2,4.9,6.8,9.5,23.7c4.6,17.1,13.7,84.6,15.8,101.5"/>
<linearGradient id="SVGID_14_" gradientUnits="userSpaceOnUse" x1="280.1902" y1="399.8548" x2="399.8642" y2="399.8548">
	<stop  offset="0" style="stop-color:#00FFFF"/>
	<stop  offset="1" style="stop-color:#ED1E79"/>
</linearGradient>
<path class="st13" d="M399.5,28c-54.8,58.2-104.4,136.6-109.8,147.6c-1.9,3.8-9,16.9-9,36.6c0,6.5,3.3,21,13.2,25
	c3.7,1.5,42.6,4.1,61.6,4.1c9.9,0,13.6,4,16.2,7.4c1.8,2.4,3,4,3.6,7.4c0.3,1.8,0.6,4.8-0.6,12.9c-1.2,8.1-2.5,11.4-3.9,17.6
	c-1.2,5.2-1.7,9.6-2.7,18.3c-2.1,17.6-3.3,36.5-4.8,65c-1.5,27.3-1.4,34.1-0.6,44c2.7,33.2,15.8,31,18,32.5c2.2,1.6,3.3,6.7,3.6,8.1
	c1.3,6.2-0.6,35-2.1,48.1c-1.6,13.8-2.5,17.9-5.7,38.6c-3.8,25.1-5.1,37.2-6,46.7c-0.4,4.4-1.3,15.5-0.9,29.8
	c0.4,12.6,1.6,18,3,21.7c1.5,4,2.8,4.5,4.8,7.4c1.3,2,4.2,6.8,8.1,23.7c4,17.1,11.7,84.6,13.5,101.5"/>
<linearGradient id="SVGID_15_" gradientUnits="userSpaceOnUse" x1="300.838" y1="399.8682" x2="399.8948" y2="399.8682">
	<stop  offset="0" style="stop-color:#00FFFF"/>
	<stop  offset="1" style="stop-color:#ED1E79"/>
</linearGradient>
<path class="st14" d="M399.5,28c-45.2,58.2-86.3,136.6-90.7,147.6c-1.6,3.8-7.4,16.9-7.4,36.6c0,6.5,2.7,21,10.9,25
	c3.1,1.5,35.2,4.1,50.9,4.1c8.2,0,11.2,4,13.4,7.4c1.5,2.4,2.5,4,3,7.4c0.3,1.8,0.5,4.8-0.5,12.9c-1,8.1-2.1,11.4-3.2,17.6
	c-1,5.2-1.4,9.6-2.2,18.3c-1.7,17.6-2.7,36.5-4,65c-1.2,27.3-1.2,34.1-0.5,44c2.2,33.2,13.1,31,14.8,32.5c1.8,1.6,2.7,6.7,3,8.1
	c1.1,6.2-0.5,35-1.7,48.1c-1.3,13.8-2.1,17.9-4.7,38.6c-3.2,25.1-4.2,37.2-4.9,46.7c-0.3,4.4-1.1,15.5-0.7,29.8
	c0.3,12.6,1.3,18,2.5,21.7c1.3,4,2.3,4.5,4,7.4c1.1,2,3.4,6.8,6.7,23.7c3.3,17.1,9.7,84.6,11.1,101.5"/>
<linearGradient id="SVGID_16_" gradientUnits="userSpaceOnUse" x1="321.57" y1="399.8864" x2="399.9263" y2="399.8864">
	<stop  offset="0" style="stop-color:#00FFFF"/>
	<stop  offset="1" style="stop-color:#ED1E79"/>
</linearGradient>
<path class="st15" d="M399.5,28c-35.7,58.2-68,136.6-71.6,147.6c-1.2,3.8-5.9,16.9-5.9,36.6c0,6.5,2.1,21,8.6,25
	c2.4,1.5,27.7,4.1,40.2,4.1c6.4,0,8.9,4,10.5,7.4c1.1,2.4,1.9,4,2.3,7.4c0.2,1.8,0.4,4.8-0.4,12.9c-0.8,8.1-1.6,11.4-2.5,17.6
	c-0.8,5.2-1.1,9.6-1.8,18.3c-1.3,17.6-2.1,36.5-3.1,65c-1,27.3-0.9,34.1-0.4,44c1.8,33.2,10.3,31,11.7,32.5c1.4,1.6,2.1,6.7,2.3,8.1
	c0.9,6.2-0.4,35-1.4,48.1c-1,13.8-1.7,17.9-3.7,38.6c-2.5,25.1-3.3,37.2-3.9,46.7c-0.3,4.4-0.9,15.5-0.6,29.8c0.3,12.6,1,18,2,21.7
	c1,4,1.8,4.5,3.1,7.4c0.9,2,2.7,6.8,5.3,23.7c2.6,17.1,7.6,84.6,8.8,101.5"/>
<linearGradient id="SVGID_17_" gradientUnits="userSpaceOnUse" x1="344.9369" y1="399.9135" x2="399.9597" y2="399.9135">
	<stop  offset="0" style="stop-color:#00FFFF"/>
	<stop  offset="1" style="stop-color:#ED1E79"/>
</linearGradient>
<path class="st16" d="M399.5,28c-24.9,58.2-47.5,136.6-50,147.6c-0.9,3.8-4.1,16.9-4.1,36.6c0,6.5,1.5,21,6,25
	c1.7,1.5,19.4,4.1,28.1,4.1c4.5,0,6.2,4,7.4,7.4c0.8,2.4,1.4,4,1.6,7.4c0.1,1.8,0.3,4.8-0.3,12.9c-0.6,8.1-1.1,11.4-1.8,17.6
	c-0.5,5.2-0.8,9.6-1.2,18.3c-0.9,17.6-1.5,36.5-2.2,65c-0.7,27.3-0.6,34.1-0.3,44c1.2,33.2,7.2,31,8.2,32.5c1,1.6,1.5,6.7,1.6,8.1
	c0.6,6.2-0.3,35-1,48.1c-0.7,13.8-1.2,17.9-2.6,38.6c-1.7,25.1-2.3,37.2-2.7,46.7c-0.2,4.4-0.6,15.5-0.4,29.8
	c0.2,12.6,0.7,18,1.4,21.7c0.7,4,1.3,4.5,2.2,7.4c0.6,2,1.9,6.8,3.7,23.7c1.8,17.1,5.3,84.6,6.1,101.5"/>
<linearGradient id="SVGID_18_" gradientUnits="userSpaceOnUse" x1="371.9684" y1="399.9536" x2="399.9889" y2="399.9536">
	<stop  offset="0" style="stop-color:#00FFFF"/>
	<stop  offset="1" style="stop-color:#ED1E79"/>
</linearGradient>
<path class="st17" d="M399.5,28c-12.5,58.2-23.8,136.6-25,147.6c-0.4,3.8-2,16.9-2,36.6c0,6.5,0.7,21,3,25c0.8,1.5,9.7,4.1,14,4.1
	c2.2,0,3.1,4,3.7,7.4c0.4,2.4,0.7,4,0.8,7.4c0.1,1.8,0.1,4.8-0.1,12.9c-0.3,8.1-0.6,11.4-0.9,17.6c-0.3,5.2-0.4,9.6-0.6,18.3
	c-0.5,17.6-0.7,36.5-1.1,65c-0.3,27.3-0.3,34.1-0.1,44c0.6,33.2,3.6,31,4.1,32.5c0.5,1.6,0.7,6.7,0.8,8.1c0.3,6.2-0.1,35-0.5,48.1
	c-0.4,13.8-0.6,17.9-1.3,38.6c-0.9,25.1-1.2,37.2-1.4,46.7c-0.1,4.4-0.3,15.5-0.2,29.8c0.1,12.6,0.4,18,0.7,21.7
	c0.3,4,0.6,4.5,1.1,7.4c0.3,2,0.9,6.8,1.8,23.7c0.9,17.1,2.7,84.6,3.1,101.5"/>
<linearGradient id="SVGID_19_" gradientUnits="userSpaceOnUse" x1="399.5266" y1="399.8314" x2="669" y2="399.8314">
	<stop  offset="0" style="stop-color:#ED1E79"/>
	<stop  offset="1" style="stop-color:#00FFFF"/>
</linearGradient>
<path class="st18" d="M399.7,28c123.9,58.2,236.2,136.6,248.5,147.6c4.3,3.8,20.3,16.9,20.3,36.6c0,6.5-7.4,21-29.8,25
	c-8.4,1.5-96.3,4.1-139.5,4.1c-22.3,0-30.8,4-36.6,7.4c-4,2.4-6.7,4-8.1,7.4c-0.7,1.8-1.4,4.8,1.4,12.9c2.8,8.1,5.7,11.4,8.8,17.6
	c2.6,5.2,3.8,9.6,6.1,18.3c4.7,17.6,7.4,36.5,10.8,65c3.3,27.3,3.2,34.1,1.4,44c-6.1,33.2-35.8,31-40.6,32.5c-5,1.6-7.4,6.7-8.1,8.1
	c-3,6.2,1.4,35,4.7,48.1c3.5,13.8,5.7,17.9,12.9,38.6c8.6,25.1,11.6,37.2,13.5,46.7c0.9,4.4,3,15.5,2,29.8
	c-0.9,12.6-3.6,18-6.8,21.7c-3.5,4-6.3,4.5-10.8,7.4c-3.1,2-9.4,6.8-18.3,23.7c-8.9,17.1-26.4,84.6-30.5,101.5"/>
<linearGradient id="SVGID_20_" gradientUnits="userSpaceOnUse" x1="399.5235" y1="399.8312" x2="664.2612" y2="399.8312">
	<stop  offset="0" style="stop-color:#ED1E79"/>
	<stop  offset="1" style="stop-color:#00FFFF"/>
</linearGradient>
<path class="st19" d="M399.7,28c121.7,58.2,232,136.6,244.1,147.6c4.2,3.8,20,16.9,20,36.6c0,6.5-7.3,21-29.3,25
	c-8.3,1.5-94.6,4.1-137,4.1c-21.9,0-30.3,4-35.9,7.4c-3.9,2.4-6.6,4-8,7.4c-0.7,1.8-1.4,4.8,1.3,12.9c2.7,8.1,5.6,11.4,8.6,17.6
	c2.6,5.2,3.7,9.6,6,18.3c4.6,17.6,7.2,36.5,10.6,65c3.3,27.3,3.1,34.1,1.3,44c-6,33.2-35.2,31-39.9,32.5c-4.9,1.6-7.3,6.7-8,8.1
	c-2.9,6.2,1.4,35,4.7,48.1c3.5,13.8,5.6,17.9,12.6,38.6c8.5,25.1,11.4,37.2,13.3,46.7c0.9,4.4,3,15.5,2,29.8
	c-0.9,12.6-3.5,18-6.7,21.7c-3.4,4-6.2,4.5-10.6,7.4c-3,2-9.3,6.8-18,23.7c-8.8,17.1-26,84.6-29.9,101.5"/>
<linearGradient id="SVGID_21_" gradientUnits="userSpaceOnUse" x1="399.5204" y1="399.831" x2="659.5223" y2="399.831">
	<stop  offset="0" style="stop-color:#ED1E79"/>
	<stop  offset="1" style="stop-color:#00FFFF"/>
</linearGradient>
<path class="st20" d="M399.7,28c119.5,58.2,227.9,136.6,239.7,147.6c4.1,3.8,19.6,16.9,19.6,36.6c0,6.5-7.2,21-28.7,25
	c-8.1,1.5-92.9,4.1-134.5,4.1c-21.6,0-29.7,4-35.3,7.4c-3.8,2.4-6.5,4-7.8,7.4c-0.7,1.8-1.4,4.8,1.3,12.9c2.7,8.1,5.5,11.4,8.5,17.6
	c2.5,5.2,3.6,9.6,5.9,18.3c4.5,17.6,7.1,36.5,10.4,65c3.2,27.3,3.1,34.1,1.3,44c-5.9,33.2-34.5,31-39.2,32.5
	c-4.8,1.6-7.2,6.7-7.8,8.1c-2.9,6.2,1.3,35,4.6,48.1c3.4,13.8,5.5,17.9,12.4,38.6c8.3,25.1,11.2,37.2,13.1,46.7
	c0.9,4.4,2.9,15.5,2,29.8c-0.9,12.6-3.5,18-6.5,21.7c-3.3,4-6.1,4.5-10.4,7.4c-2.9,2-9.1,6.8-17.6,23.7
	C421.8,687.5,404.9,755,401,772"/>
<linearGradient id="SVGID_22_" gradientUnits="userSpaceOnUse" x1="399.5161" y1="399.8308" x2="653.4295" y2="399.8308">
	<stop  offset="0" style="stop-color:#ED1E79"/>
	<stop  offset="1" style="stop-color:#00FFFF"/>
</linearGradient>
<path class="st21" d="M399.7,28c116.7,58.2,222.5,136.6,234.1,147.6c4,3.8,19.1,16.9,19.1,36.6c0,6.5-7,21-28.1,25
	c-7.9,1.5-90.7,4.1-131.4,4.1c-21,0-29,4-34.4,7.4c-3.7,2.4-6.3,4-7.7,7.4c-0.7,1.8-1.3,4.8,1.3,12.9c2.6,8.1,5.3,11.4,8.3,17.6
	c2.5,5.2,3.6,9.6,5.7,18.3c4.4,17.6,6.9,36.5,10.2,65c3.1,27.3,3,34.1,1.3,44c-5.7,33.2-33.7,31-38.3,32.5c-4.7,1.6-7,6.7-7.7,8.1
	c-2.8,6.2,1.3,35,4.5,48.1c3.3,13.8,5.4,17.9,12.1,38.6c8.1,25.1,10.9,37.2,12.8,46.7c0.8,4.4,2.9,15.5,1.9,29.8
	c-0.8,12.6-3.4,18-6.4,21.7c-3.3,4-5.9,4.5-10.2,7.4c-2.9,2-8.9,6.8-17.2,23.7C421.3,687.5,404.8,755,401,772"/>
<linearGradient id="SVGID_23_" gradientUnits="userSpaceOnUse" x1="399.5112" y1="399.8306" x2="646.6597" y2="399.8306">
	<stop  offset="0" style="stop-color:#ED1E79"/>
	<stop  offset="1" style="stop-color:#00FFFF"/>
</linearGradient>
<path class="st22" d="M399.7,28c113.6,58.2,216.5,136.6,227.8,147.6c3.9,3.8,18.6,16.9,18.6,36.6c0,6.5-6.8,21-27.3,25
	c-7.7,1.5-88.3,4.1-127.9,4.1c-20.5,0-28.2,4-33.5,7.4c-3.6,2.4-6.2,4-7.4,7.4c-0.7,1.8-1.3,4.8,1.2,12.9c2.6,8.1,5.2,11.4,8.1,17.6
	c2.4,5.2,3.5,9.6,5.6,18.3c4.3,17.6,6.8,36.5,9.9,65c3,27.3,2.9,34.1,1.2,44c-5.6,33.2-32.8,31-37.2,32.5c-4.6,1.6-6.8,6.7-7.4,8.1
	c-2.7,6.2,1.3,35,4.3,48.1c3.2,13.8,5.3,17.9,11.8,38.6c7.9,25.1,10.7,37.2,12.4,46.7c0.8,4.4,2.8,15.5,1.9,29.8
	c-0.8,12.6-3.3,18-6.2,21.7c-3.2,4-5.8,4.5-9.9,7.4c-2.8,2-8.7,6.8-16.8,23.7C420.7,687.5,404.7,755,401,772"/>
<linearGradient id="SVGID_24_" gradientUnits="userSpaceOnUse" x1="399.5046" y1="399.8305" x2="637.859" y2="399.8305">
	<stop  offset="0" style="stop-color:#ED1E79"/>
	<stop  offset="1" style="stop-color:#00FFFF"/>
</linearGradient>
<path class="st23" d="M399.7,28c109.5,58.2,208.8,136.6,219.7,147.6c3.8,3.8,18,16.9,18,36.6c0,6.5-6.6,21-26.3,25
	c-7.4,1.5-85.1,4.1-123.3,4.1c-19.8,0-27.2,4-32.3,7.4c-3.5,2.4-6,4-7.2,7.4c-0.6,1.8-1.2,4.8,1.2,12.9c2.5,8.1,5,11.4,7.8,17.6
	c2.3,5.2,3.3,9.6,5.4,18.3c4.1,17.6,6.5,36.5,9.6,65c2.9,27.3,2.8,34.1,1.2,44c-5.4,33.2-31.7,31-35.9,32.5
	c-4.4,1.6-6.6,6.7-7.2,8.1c-2.6,6.2,1.2,35,4.2,48.1c3.1,13.8,5.1,17.9,11.4,38.6c7.6,25.1,10.3,37.2,12,46.7
	c0.8,4.4,2.7,15.5,1.8,29.8c-0.8,12.6-3.2,18-6,21.7c-3.1,4-5.6,4.5-9.6,7.4c-2.7,2-8.3,6.8-16.2,23.7
	C420,687.5,404.5,755,400.9,772"/>
<linearGradient id="SVGID_25_" gradientUnits="userSpaceOnUse" x1="399.4955" y1="399.8307" x2="626.3503" y2="399.8307">
	<stop  offset="0" style="stop-color:#ED1E79"/>
	<stop  offset="1" style="stop-color:#00FFFF"/>
</linearGradient>
<path class="st24" d="M399.7,28c104.2,58.2,198.7,136.6,209,147.6c3.6,3.8,17.1,16.9,17.1,36.6c0,6.5-6.3,21-25.1,25
	c-7.1,1.5-81,4.1-117.3,4.1c-18.8,0-25.9,4-30.8,7.4c-3.3,2.4-5.7,4-6.8,7.4c-0.6,1.8-1.2,4.8,1.1,12.9c2.3,8.1,4.8,11.4,7.4,17.6
	c2.2,5.2,3.2,9.6,5.1,18.3c3.9,17.6,6.2,36.5,9.1,65c2.8,27.3,2.7,34.1,1.1,44c-5.1,33.2-30.1,31-34.2,32.5
	c-4.2,1.6-6.2,6.7-6.8,8.1c-2.5,6.2,1.2,35,4,48.1c3,13.8,4.8,17.9,10.8,38.6c7.3,25.1,9.8,37.2,11.4,46.7
	c0.7,4.4,2.6,15.5,1.7,29.8c-0.8,12.6-3,18-5.7,21.7c-2.9,4-5.3,4.5-9.1,7.4c-2.6,2-7.9,6.8-15.4,23.7
	C419,687.5,404.3,755,400.9,772"/>
<linearGradient id="SVGID_26_" gradientUnits="userSpaceOnUse" x1="399.4857" y1="399.8311" x2="614.8417" y2="399.8311">
	<stop  offset="0" style="stop-color:#ED1E79"/>
	<stop  offset="1" style="stop-color:#00FFFF"/>
</linearGradient>
<path class="st25" d="M399.7,28c98.9,58.2,188.6,136.6,198.4,147.6c3.4,3.8,16.2,16.9,16.2,36.6c0,6.5-5.9,21-23.8,25
	c-6.7,1.5-76.9,4.1-111.4,4.1c-17.8,0-24.6,4-29.2,7.4c-3.2,2.4-5.4,4-6.5,7.4c-0.6,1.8-1.1,4.8,1.1,12.9c2.2,8.1,4.5,11.4,7,17.6
	c2.1,5.2,3,9.6,4.9,18.3c3.7,17.6,5.9,36.5,8.6,65c2.7,27.3,2.5,34.1,1.1,44c-4.9,33.2-28.6,31-32.4,32.5c-4,1.6-5.9,6.7-6.5,8.1
	c-2.4,6.2,1.1,35,3.8,48.1c2.8,13.8,4.6,17.9,10.3,38.6c6.9,25.1,9.3,37.2,10.8,46.7c0.7,4.4,2.4,15.5,1.6,29.8
	c-0.7,12.6-2.9,18-5.4,21.7c-2.8,4-5,4.5-8.6,7.4c-2.4,2-7.5,6.8-14.6,23.7C418,687.5,404,755,400.8,772"/>
<linearGradient id="SVGID_27_" gradientUnits="userSpaceOnUse" x1="399.4746" y1="399.8318" x2="602.6561" y2="399.8318">
	<stop  offset="0" style="stop-color:#ED1E79"/>
	<stop  offset="1" style="stop-color:#00FFFF"/>
</linearGradient>
<path class="st26" d="M399.7,28C493,86.2,577.6,164.6,586.9,175.6c3.2,3.8,15.3,16.9,15.3,36.6c0,6.5-5.6,21-22.4,25
	c-6.3,1.5-72.5,4.1-105,4.1c-16.8,0-23.2,4-27.5,7.4c-3,2.4-5.1,4-6.1,7.4c-0.5,1.8-1.1,4.8,1,12.9c2.1,8.1,4.3,11.4,6.6,17.6
	c2,5.2,2.8,9.6,4.6,18.3c3.5,17.6,5.5,36.5,8.2,65c2.5,27.3,2.4,34.1,1,44c-4.6,33.2-27,31-30.6,32.5c-3.7,1.6-5.6,6.7-6.1,8.1
	c-2.3,6.2,1.1,35,3.6,48.1c2.7,13.8,4.3,17.9,9.7,38.6c6.5,25.1,8.8,37.2,10.2,46.7c0.7,4.4,2.3,15.5,1.5,29.8
	c-0.7,12.6-2.7,18-5.1,21.7c-2.6,4-4.7,4.5-8.2,7.4c-2.3,2-7.1,6.8-13.8,23.7C417,687.5,403.8,755,400.8,772"/>
<linearGradient id="SVGID_28_" gradientUnits="userSpaceOnUse" x1="399.46" y1="399.8335" x2="587.7625" y2="399.8335">
	<stop  offset="0" style="stop-color:#ED1E79"/>
	<stop  offset="1" style="stop-color:#00FFFF"/>
</linearGradient>
<path class="st27" d="M399.7,28c86.4,58.2,164.8,136.6,173.4,147.6c3,3.8,14.2,16.9,14.2,36.6c0,6.5-5.2,21-20.8,25
	c-5.9,1.5-67.2,4.1-97.3,4.1c-15.6,0-21.5,4-25.5,7.4c-2.8,2.4-4.7,4-5.7,7.4c-0.5,1.8-1,4.8,0.9,12.9c1.9,8.1,4,11.4,6.1,17.6
	c1.8,5.2,2.6,9.6,4.3,18.3c3.3,17.6,5.1,36.5,7.6,65c2.3,27.3,2.2,34.1,0.9,44c-4.3,33.2-25,31-28.3,32.5c-3.5,1.6-5.2,6.7-5.7,8.1
	c-2.1,6.2,1,35,3.3,48.1c2.5,13.8,4,17.9,9,38.6c6,25.1,8.1,37.2,9.4,46.7c0.6,4.4,2.1,15.5,1.4,29.8c-0.6,12.6-2.5,18-4.7,21.7
	c-2.4,4-4.4,4.5-7.6,7.4c-2.1,2-6.6,6.8-12.8,23.7c-6.2,17.1-18.5,84.6-21.3,101.5"/>
<linearGradient id="SVGID_29_" gradientUnits="userSpaceOnUse" x1="399.4433" y1="399.836" x2="572.192" y2="399.836">
	<stop  offset="0" style="stop-color:#ED1E79"/>
	<stop  offset="1" style="stop-color:#00FFFF"/>
</linearGradient>
<path class="st28" d="M399.7,28c79.3,58.2,151.1,136.6,159,147.6c2.7,3.8,13,16.9,13,36.6c0,6.5-4.8,21-19.1,25
	c-5.4,1.5-61.6,4.1-89.2,4.1c-14.3,0-19.7,4-23.4,7.4c-2.5,2.4-4.3,4-5.2,7.4c-0.5,1.8-0.9,4.8,0.9,12.9c1.8,8.1,3.6,11.4,5.6,17.6
	c1.7,5.2,2.4,9.6,3.9,18.3c3,17.6,4.7,36.5,6.9,65c2.1,27.3,2,34.1,0.9,44c-3.9,33.2-22.9,31-26,32.5c-3.2,1.6-4.8,6.7-5.2,8.1
	c-1.9,6.2,0.9,35,3,48.1c2.3,13.8,3.7,17.9,8.2,38.6c5.5,25.1,7.4,37.2,8.7,46.7c0.6,4.4,1.9,15.5,1.3,29.8
	c-0.6,12.6-2.3,18-4.3,21.7c-2.2,4-4,4.5-6.9,7.4c-2,2-6,6.8-11.7,23.7c-5.7,17.1-16.9,84.6-19.5,101.5"/>
<linearGradient id="SVGID_30_" gradientUnits="userSpaceOnUse" x1="399.426" y1="399.8395" x2="557.2985" y2="399.8395">
	<stop  offset="0" style="stop-color:#ED1E79"/>
	<stop  offset="1" style="stop-color:#00FFFF"/>
</linearGradient>
<path class="st29" d="M399.7,28c72.4,58.2,138,136.6,145.2,147.6c2.5,3.8,11.9,16.9,11.9,36.6c0,6.5-4.4,21-17.4,25
	c-4.9,1.5-56.3,4.1-81.5,4.1c-13.1,0-18,4-21.4,7.4c-2.3,2.4-3.9,4-4.7,7.4c-0.4,1.8-0.8,4.8,0.8,12.9c1.6,8.1,3.3,11.4,5.1,17.6
	c1.5,5.2,2.2,9.6,3.6,18.3c2.7,17.6,4.3,36.5,6.3,65c1.9,27.3,1.9,34.1,0.8,44c-3.6,33.2-20.9,31-23.7,32.5
	c-2.9,1.6-4.3,6.7-4.7,8.1c-1.7,6.2,0.8,35,2.8,48.1c2.1,13.8,3.3,17.9,7.5,38.6c5,25.1,6.8,37.2,7.9,46.7
	c0.5,4.4,1.8,15.5,1.2,29.8c-0.5,12.6-2.1,18-4,21.7c-2,4-3.7,4.5-6.3,7.4c-1.8,2-5.5,6.8-10.7,23.7c-5.2,17.1-15.5,84.6-17.8,101.5
	"/>
<linearGradient id="SVGID_31_" gradientUnits="userSpaceOnUse" x1="399.4037" y1="399.8452" x2="539.697" y2="399.8452">
	<stop  offset="0" style="stop-color:#ED1E79"/>
	<stop  offset="1" style="stop-color:#00FFFF"/>
</linearGradient>
<path class="st30" d="M399.7,28C464,86.2,522.3,164.6,528.7,175.6c2.2,3.8,10.5,16.9,10.5,36.6c0,6.5-3.9,21-15.5,25
	c-4.4,1.5-49.9,4.1-72.4,4.1c-11.6,0-16,4-19,7.4c-2.1,2.4-3.5,4-4.2,7.4c-0.4,1.8-0.7,4.8,0.7,12.9c1.4,8.1,2.9,11.4,4.6,17.6
	c1.4,5.2,2,9.6,3.2,18.3c2.4,17.6,3.8,36.5,5.6,65c1.7,27.3,1.6,34.1,0.7,44c-3.2,33.2-18.6,31-21.1,32.5c-2.6,1.6-3.9,6.7-4.2,8.1
	c-1.6,6.2,0.7,35,2.5,48.1c1.8,13.8,3,17.9,6.7,38.6c4.5,25.1,6,37.2,7,46.7c0.5,4.4,1.6,15.5,1.1,29.8c-0.5,12.6-1.9,18-3.5,21.7
	c-1.8,4-3.3,4.5-5.6,7.4c-1.6,2-4.9,6.8-9.5,23.7c-4.6,17.1-13.7,84.6-15.8,101.5"/>
<linearGradient id="SVGID_32_" gradientUnits="userSpaceOnUse" x1="399.3751" y1="399.8548" x2="519.0491" y2="399.8548">
	<stop  offset="0" style="stop-color:#ED1E79"/>
	<stop  offset="1" style="stop-color:#00FFFF"/>
</linearGradient>
<path class="st31" d="M399.7,28c54.8,58.2,104.4,136.6,109.8,147.6c1.9,3.8,9,16.9,9,36.6c0,6.5-3.3,21-13.2,25
	c-3.7,1.5-42.6,4.1-61.6,4.1c-9.9,0-13.6,4-16.2,7.4c-1.8,2.4-3,4-3.6,7.4c-0.3,1.8-0.6,4.8,0.6,12.9c1.2,8.1,2.5,11.4,3.9,17.6
	c1.2,5.2,1.7,9.6,2.7,18.3c2.1,17.6,3.3,36.5,4.8,65c1.5,27.3,1.4,34.1,0.6,44c-2.7,33.2-15.8,31-18,32.5c-2.2,1.6-3.3,6.7-3.6,8.1
	c-1.3,6.2,0.6,35,2.1,48.1c1.6,13.8,2.5,17.9,5.7,38.6c3.8,25.1,5.1,37.2,6,46.7c0.4,4.4,1.3,15.5,0.9,29.8c-0.4,12.6-1.6,18-3,21.7
	c-1.5,4-2.8,4.5-4.8,7.4c-1.3,2-4.2,6.8-8.1,23.7c-4,17.1-11.7,84.6-13.5,101.5"/>
<linearGradient id="SVGID_33_" gradientUnits="userSpaceOnUse" x1="399.3445" y1="399.8682" x2="498.4013" y2="399.8682">
	<stop  offset="0" style="stop-color:#ED1E79"/>
	<stop  offset="1" style="stop-color:#00FFFF"/>
</linearGradient>
<path class="st32" d="M399.7,28C445,86.2,486,164.6,490.5,175.6c1.6,3.8,7.4,16.9,7.4,36.6c0,6.5-2.7,21-10.9,25
	c-3.1,1.5-35.2,4.1-50.9,4.1c-8.2,0-11.2,4-13.4,7.4c-1.5,2.4-2.5,4-3,7.4c-0.3,1.8-0.5,4.8,0.5,12.9c1,8.1,2.1,11.4,3.2,17.6
	c1,5.2,1.4,9.6,2.2,18.3c1.7,17.6,2.7,36.5,4,65c1.2,27.3,1.2,34.1,0.5,44c-2.2,33.2-13.1,31-14.8,32.5c-1.8,1.6-2.7,6.7-3,8.1
	c-1.1,6.2,0.5,35,1.7,48.1c1.3,13.8,2.1,17.9,4.7,38.6c3.2,25.1,4.2,37.2,4.9,46.7c0.3,4.4,1.1,15.5,0.7,29.8
	c-0.3,12.6-1.3,18-2.5,21.7c-1.3,4-2.3,4.5-4,7.4c-1.1,2-3.4,6.8-6.7,23.7c-3.3,17.1-9.7,84.6-11.1,101.5"/>
<linearGradient id="SVGID_34_" gradientUnits="userSpaceOnUse" x1="399.313" y1="399.8864" x2="477.6693" y2="399.8864">
	<stop  offset="0" style="stop-color:#ED1E79"/>
	<stop  offset="1" style="stop-color:#00FFFF"/>
</linearGradient>
<path class="st33" d="M399.7,28c35.7,58.2,68,136.6,71.6,147.6c1.2,3.8,5.9,16.9,5.9,36.6c0,6.5-2.1,21-8.6,25
	c-2.4,1.5-27.7,4.1-40.2,4.1c-6.4,0-8.9,4-10.5,7.4c-1.1,2.4-1.9,4-2.3,7.4c-0.2,1.8-0.4,4.8,0.4,12.9c0.8,8.1,1.6,11.4,2.5,17.6
	c0.8,5.2,1.1,9.6,1.8,18.3c1.3,17.6,2.1,36.5,3.1,65c1,27.3,0.9,34.1,0.4,44c-1.8,33.2-10.3,31-11.7,32.5c-1.4,1.6-2.1,6.7-2.3,8.1
	c-0.9,6.2,0.4,35,1.4,48.1c1,13.8,1.7,17.9,3.7,38.6c2.5,25.1,3.3,37.2,3.9,46.7c0.3,4.4,0.9,15.5,0.6,29.8c-0.3,12.6-1,18-2,21.7
	c-1,4-1.8,4.5-3.1,7.4c-0.9,2-2.7,6.8-5.3,23.7c-2.6,17.1-7.6,84.6-8.8,101.5"/>
<linearGradient id="SVGID_35_" gradientUnits="userSpaceOnUse" x1="399.2796" y1="399.9135" x2="454.3024" y2="399.9135">
	<stop  offset="0" style="stop-color:#ED1E79"/>
	<stop  offset="1" style="stop-color:#00FFFF"/>
</linearGradient>
<path class="st34" d="M399.7,28c24.9,58.2,47.5,136.6,50,147.6c0.9,3.8,4.1,16.9,4.1,36.6c0,6.5-1.5,21-6,25
	c-1.7,1.5-19.4,4.1-28.1,4.1c-4.5,0-6.2,4-7.4,7.4c-0.8,2.4-1.4,4-1.6,7.4c-0.1,1.8-0.3,4.8,0.3,12.9c0.6,8.1,1.1,11.4,1.8,17.6
	c0.5,5.2,0.8,9.6,1.2,18.3c0.9,17.6,1.5,36.5,2.2,65c0.7,27.3,0.6,34.1,0.3,44c-1.2,33.2-7.2,31-8.2,32.5c-1,1.6-1.5,6.7-1.6,8.1
	c-0.6,6.2,0.3,35,1,48.1c0.7,13.8,1.2,17.9,2.6,38.6c1.7,25.1,2.3,37.2,2.7,46.7c0.2,4.4,0.6,15.5,0.4,29.8
	c-0.2,12.6-0.7,18-1.4,21.7c-0.7,4-1.3,4.5-2.2,7.4c-0.6,2-1.9,6.8-3.7,23.7c-1.8,17.1-5.3,84.6-6.1,101.5"/>
<linearGradient id="SVGID_36_" gradientUnits="userSpaceOnUse" x1="399.2504" y1="399.9536" x2="427.2709" y2="399.9536">
	<stop  offset="0" style="stop-color:#ED1E79"/>
	<stop  offset="1" style="stop-color:#00FFFF"/>
</linearGradient>
<path class="st35" d="M399.7,28c12.5,58.2,23.8,136.6,25,147.6c0.4,3.8,2,16.9,2,36.6c0,6.5-0.7,21-3,25c-0.8,1.5-9.7,4.1-14,4.1
	c-2.2,0-3.1,4-3.7,7.4c-0.4,2.4-0.7,4-0.8,7.4c-0.1,1.8-0.1,4.8,0.1,12.9c0.3,8.1,0.6,11.4,0.9,17.6c0.3,5.2,0.4,9.6,0.6,18.3
	c0.5,17.6,0.7,36.5,1.1,65c0.3,27.3,0.3,34.1,0.1,44c-0.6,33.2-3.6,31-4.1,32.5c-0.5,1.6-0.7,6.7-0.8,8.1c-0.3,6.2,0.1,35,0.5,48.1
	c0.4,13.8,0.6,17.9,1.3,38.6c0.9,25.1,1.2,37.2,1.4,46.7c0.1,4.4,0.3,15.5,0.2,29.8c-0.1,12.6-0.4,18-0.7,21.7
	c-0.3,4-0.6,4.5-1.1,7.4c-0.3,2-0.9,6.8-1.8,23.7c-0.9,17.1-2.7,84.6-3.1,101.5"/>
<linearGradient id="SVGID_37_" gradientUnits="userSpaceOnUse" x1="399.25" y1="27.998" x2="399.25" y2="772.0002">
	<stop  offset="0" style="stop-color:#00FFFF"/>
	<stop  offset="1.482606e-03" style="stop-color:#01FEFF"/>
	<stop  offset="0.1157" style="stop-color:#38CAE0"/>
	<stop  offset="0.2316" style="stop-color:#679DC5"/>
	<stop  offset="0.351" style="stop-color:#9076AD"/>
	<stop  offset="0.4722" style="stop-color:#B2569A"/>
	<stop  offset="0.5957" style="stop-color:#CC3D8C"/>
	<stop  offset="0.7224" style="stop-color:#DE2C81"/>
	<stop  offset="0.8544" style="stop-color:#E9217B"/>
	<stop  offset="1" style="stop-color:#ED1E79"/>
</linearGradient>
<path class="st36" d="M399.5,28c-0.2,58.2-0.4,136.6-0.5,147.6c0,3.8,0,16.9,0,36.6c0,6.5,0,21,0.1,25c0,1.5,0.2,4.1,0.3,4.1
	c0,0,0.1,4,0.1,7.4c0,2.4,0,4,0,7.4c0,1.8,0,4.8,0,12.9c0,8.1,0,11.4,0,17.6c0,5.2,0,9.6,0,18.3c0,17.6,0,36.5,0,65
	c0,27.3,0,34.1,0,44c0,33.2,0.1,31,0.1,32.5c0,1.6,0,6.7,0,8.1c0,6.2,0,35,0,48.1c0,13.8,0,17.9,0,38.6c0,25.1,0,37.2,0,46.7
	c0,4.4,0,15.5,0,29.8c0,12.6,0,18,0,21.7c0,4,0,4.5,0,7.4c0,2,0,6.8,0,23.7c0,17.1,0,84.6,0.1,101.5"/>
</svg>
