<?xml version="1.0" encoding="utf-8"?>
<!-- Generator: Adobe Illustrator 21.0.0, SVG Export Plug-In . SVG Version: 6.00 Build 0)  -->
<svg version="1.1" xmlns="http://www.w3.org/2000/svg" xmlns:xlink="http://www.w3.org/1999/xlink" x="0px" y="0px"
	 viewBox="0 0 595.3 841.9" style="enable-background:new 0 0 595.3 841.9;" xml:space="preserve">
<style type="text/css">
	.st0{fill:#FFFFFF;}
	.st1{clip-path:url(#SVGID_2_);}
	.st2{clip-path:url(#SVGID_4_);fill:#85D4F2;}
	.st3{fill:#C3E7EF;}
	.st4{fill:#5CC6E1;}
	.st5{fill:#91D7EB;}
	.st6{opacity:0.66;clip-path:url(#SVGID_6_);fill:#85D4F2;}
	.st7{fill:#AADFF2;}
	.st8{opacity:0.47;clip-path:url(#SVGID_8_);fill:#85D4F2;}
	.st9{opacity:0.5;}
	.st10{clip-path:url(#SVGID_10_);fill:#85D4F2;}
	.st11{clip-path:url(#SVGID_12_);fill:#85D4F2;}
	.st12{clip-path:url(#SVGID_14_);fill:#85D4F2;}
	.st13{opacity:0.4;fill:#AADFF2;}
	.st14{fill:#C7E9F4;}
	.st15{fill:#D6EFF8;}
	.st16{opacity:0.48;fill:#91D7EB;}
	.st17{opacity:0.55;fill:#85D4F2;}
	.st18{opacity:0.25;fill:#85D4F2;}
	.st19{fill:#85D4F2;}
	.st20{opacity:0.4;fill:#FFFFFF;}
	.st21{opacity:0.3;fill:#FFFFFF;}
	.st22{opacity:0.2;fill:#FFFFFF;}
	.st23{opacity:7.000000e-02;fill:#010101;}
	.st24{fill:none;stroke:#444750;stroke-miterlimit:10;}
	.st25{fill:#E0F3FA;}
	.st26{fill:#B7E4F3;}
	.st27{clip-path:url(#SVGID_18_);}
	.st28{clip-path:url(#SVGID_20_);fill:#85D4F2;}
	.st29{opacity:0.66;clip-path:url(#SVGID_22_);fill:#85D4F2;}
	.st30{clip-path:url(#SVGID_26_);fill:#85D4F2;}
	.st31{clip-path:url(#SVGID_28_);fill:#85D4F2;}
	.st32{clip-path:url(#SVGID_30_);fill:#85D4F2;}
	.st33{clip-path:url(#SVGID_32_);fill:#85D4F2;}
</style>
<g id="Artboard_2">
	<g>
		<rect x="623.8" y="-8.5" class="st0" width="612.3" height="858.9"/>
		<rect x="910.2" y="266.7" style="fill:none;" width="269.3" height="62.1"/>
		<text transform="matrix(1 0 0 1 910.2441 277.1465)"><tspan x="0" y="0" style="fill:#A5A5A5; font-family:'RobotoSlab-Light'; font-size:14.6741px;">Claritas</tspan><tspan x="43.8" y="0" style="fill:#A5A5A5; font-family:'RobotoSlab-Light'; font-size:14.6741px; letter-spacing:2;"> </tspan><tspan x="49.2" y="0" style="fill:#A5A5A5; font-family:'RobotoSlab-Light'; font-size:14.6741px;">est</tspan><tspan x="66.8" y="0" style="fill:#A5A5A5; font-family:'RobotoSlab-Light'; font-size:14.6741px; letter-spacing:2;"> </tspan><tspan x="72.1" y="0" style="fill:#A5A5A5; font-family:'RobotoSlab-Light'; font-size:14.6741px;">etiam</tspan><tspan x="106.4" y="0" style="fill:#A5A5A5; font-family:'RobotoSlab-Light'; font-size:14.6741px; letter-spacing:2;"> </tspan><tspan x="111.7" y="0" style="fill:#A5A5A5; font-family:'RobotoSlab-Light'; font-size:14.6741px;">processus</tspan><tspan x="171" y="0" style="fill:#A5A5A5; font-family:'RobotoSlab-Light'; font-size:14.6741px; letter-spacing:2;"> </tspan><tspan x="176.4" y="0" style="fill:#A5A5A5; font-family:'RobotoSlab-Light'; font-size:14.6741px;">dynamicus,</tspan><tspan x="244.5" y="0" style="fill:#A5A5A5; font-family:'RobotoSlab-Light'; font-size:14.6741px; letter-spacing:2;"> </tspan><tspan x="249.9" y="0" style="fill:#A5A5A5; font-family:'RobotoSlab-Light'; font-size:14.6741px;">qui </tspan><tspan x="0" y="22.8" style="fill:#A5A5A5; font-family:'RobotoSlab-Light'; font-size:14.6741px;">sequitur</tspan><tspan x="49.5" y="22.8" style="fill:#A5A5A5; font-family:'RobotoSlab-Light'; font-size:14.6741px; letter-spacing:4;"> </tspan><tspan x="57.4" y="22.8" style="fill:#A5A5A5; font-family:'RobotoSlab-Light'; font-size:14.6741px;">mutationem</tspan><tspan x="132.3" y="22.8" style="fill:#A5A5A5; font-family:'RobotoSlab-Light'; font-size:14.6741px; letter-spacing:4;"> </tspan><tspan x="140.1" y="22.8" style="fill:#A5A5A5; font-family:'RobotoSlab-Light'; font-size:14.6741px;">consuetudium</tspan><tspan x="227.4" y="22.8" style="fill:#A5A5A5; font-family:'RobotoSlab-Light'; font-size:14.6741px; letter-spacing:4;"> </tspan><tspan x="235.3" y="22.8" style="fill:#A5A5A5; font-family:'RobotoSlab-Light'; font-size:14.6741px;">lecto</tspan><tspan x="264.8" y="22.8" style="fill:#A5A5A5; font-family:'RobotoSlab-Light'; font-size:14.6741px;">-</tspan><tspan x="0" y="45.7" style="fill:#A5A5A5; font-family:'RobotoSlab-Light'; font-size:14.6741px;">rum. Mirum est notare quam littera</tspan></text>
		<g>
			<text transform="matrix(1 0 0 1 975.1241 249.7014)"><tspan x="0" y="0" style="fill:#484848; font-family:'OpenSans-Light'; font-size:12.582px;">DIGITAL</tspan><tspan x="44.9" y="0" style="fill:#484848; font-family:'OpenSans-Bold'; font-size:12.582px;"> MARKETING &amp; SOLUTION</tspan></text>
		</g>
		<g>
			<defs>
				<rect id="SVGID_1_" x="660" y="27.7" width="539.9" height="786.5"/>
			</defs>
			<clipPath id="SVGID_2_">
				<use xlink:href="#SVGID_1_"  style="overflow:visible;"/>
			</clipPath>
			<g class="st1">
				<g>
					<g>
						<g>
							<g>
								<defs>
									<path id="SVGID_3_" d="M932.1,975.9V815.2l-135-80.3l-135,80.3v160.6l135,80.3L932.1,975.9z M851.5,928L797,960.4
										L742.5,928v-64.8l54.5-32.4l54.5,32.4V928z"/>
								</defs>
								<clipPath id="SVGID_4_">
									<use xlink:href="#SVGID_3_"  style="overflow:visible;"/>
								</clipPath>
								<path class="st2" d="M932.1,975.9V815.2l-135-80.3l-135,80.3v160.6l135,80.3L932.1,975.9z M851.5,928L797,960.4L742.5,928
									v-64.8l54.5-32.4l54.5,32.4V928z"/>
							</g>
							<polygon class="st3" points="797,1056.2 797,960.4 851.5,928 851.5,863.2 932.1,815.2 932.1,975.9 							"/>
							<polygon class="st4" points="797,830.8 797,734.9 932.1,815.2 851.5,863.2 							"/>
							<polygon class="st5" points="797,1056.2 932.1,975.9 851.5,928 797,960.4 							"/>
						</g>
						<g>
							<g>
								<g>
									<defs>
										<path id="SVGID_5_" d="M1067.1,1056.2l135-80.3V815.2l-135-80.3l-135,80.3v160.6L1067.1,1056.2z M1012.6,863.2l54.5-32.4
											l54.5,32.4V928l-54.5,32.4l-54.5-32.4V863.2z"/>
									</defs>
									<clipPath id="SVGID_6_">
										<use xlink:href="#SVGID_5_"  style="overflow:visible;"/>
									</clipPath>
									<path class="st6" d="M1067.1,1056.2l135-80.3V815.2l-135-80.3l-135,80.3v160.6L1067.1,1056.2z M1012.6,863.2l54.5-32.4
										l54.5,32.4V928l-54.5,32.4l-54.5-32.4V863.2z"/>
								</g>
								<polygon class="st7" points="1067.1,1056.2 1067.1,960.4 1012.6,928 1012.6,863.2 932.1,815.2 932.1,975.9 								"/>
								<polygon class="st4" points="1067.1,830.8 1067.1,734.9 932.1,815.2 1012.6,863.2 								"/>
								<polygon class="st5" points="1067.1,1056.2 932.1,975.9 1012.6,928 1067.1,960.4 								"/>
							</g>
							<g>
								<g>
									<defs>
										<path id="SVGID_7_" d="M1337.2,734.9V574.3l-135-80.3l-135,80.3v160.6l135,80.3L1337.2,734.9z M1256.7,687l-54.5,32.4
											l-54.5-32.4v-64.8l54.5-32.4l54.5,32.4V687z"/>
									</defs>
									<clipPath id="SVGID_8_">
										<use xlink:href="#SVGID_7_"  style="overflow:visible;"/>
									</clipPath>
									<path class="st8" d="M1337.2,734.9V574.3l-135-80.3l-135,80.3v160.6l135,80.3L1337.2,734.9z M1256.7,687l-54.5,32.4
										l-54.5-32.4v-64.8l54.5-32.4l54.5,32.4V687z"/>
								</g>
								<polygon class="st7" points="1202.2,815.2 1202.2,719.4 1256.7,687 1256.7,622.2 1337.2,574.3 1337.2,734.9 								"/>
								<polygon class="st4" points="1202.2,589.8 1202.2,494 1337.2,574.3 1256.7,622.2 								"/>
								<polygon class="st5" points="1202.2,815.2 1337.2,734.9 1256.7,687 1202.2,719.4 								"/>
							</g>
							<g class="st9">
								<g>
									<defs>
										<path id="SVGID_9_" d="M932.1,1297.3l135-80.3v-160.6l-135-80.3l-135,80.3V1217L932.1,1297.3z M877.6,1104.2l54.5-32.4
											l54.5,32.4v64.8l-54.5,32.4l-54.5-32.4V1104.2z"/>
									</defs>
									<clipPath id="SVGID_10_">
										<use xlink:href="#SVGID_9_"  style="overflow:visible;"/>
									</clipPath>
									<path class="st10" d="M932.1,1297.3l135-80.3v-160.6l-135-80.3l-135,80.3V1217L932.1,1297.3z M877.6,1104.2l54.5-32.4
										l54.5,32.4v64.8l-54.5,32.4l-54.5-32.4V1104.2z"/>
								</g>
								<polygon class="st7" points="932.1,1297.3 932.1,1201.5 877.6,1169.1 877.6,1104.2 797,1056.3 797,1217 								"/>
								<polygon class="st4" points="932.1,1071.8 932.1,976 797,1056.3 877.6,1104.2 								"/>
								<polygon class="st5" points="932.1,1297.3 797,1217 877.6,1169.1 932.1,1201.5 								"/>
							</g>
							<g class="st9">
								<g>
									<defs>
										<path id="SVGID_11_" d="M1067.1,1056.3V1217l135,80.3l135-80.3v-160.6l-135-80.3L1067.1,1056.3z M1147.7,1104.2l54.5-32.4
											l54.5,32.4v64.8l-54.5,32.4l-54.5-32.4V1104.2z"/>
									</defs>
									<clipPath id="SVGID_12_">
										<use xlink:href="#SVGID_11_"  style="overflow:visible;"/>
									</clipPath>
									<path class="st11" d="M1067.1,1056.3V1217l135,80.3l135-80.3v-160.6l-135-80.3L1067.1,1056.3z M1147.7,1104.2l54.5-32.4
										l54.5,32.4v64.8l-54.5,32.4l-54.5-32.4V1104.2z"/>
								</g>
								<polygon class="st7" points="1202.2,976 1202.2,1071.8 1147.7,1104.2 1147.7,1169.1 1067.1,1217 1067.1,1056.3 								"/>
								<polygon class="st4" points="1202.2,1201.5 1202.2,1297.3 1067.1,1217 1147.7,1169.1 								"/>
								<polygon class="st5" points="1202.2,976 1067.1,1056.3 1147.7,1104.2 1202.2,1071.8 								"/>
							</g>
							<g class="st9">
								<g>
									<defs>
										<path id="SVGID_13_" d="M662,976l-135,80.3V1217l135,80.3l135-80.3v-160.6L662,976z M716.5,1169.1l-54.5,32.4l-54.5-32.4
											v-64.8l54.5-32.4l54.5,32.4V1169.1z"/>
									</defs>
									<clipPath id="SVGID_14_">
										<use xlink:href="#SVGID_13_"  style="overflow:visible;"/>
									</clipPath>
									<path class="st12" d="M662,976l-135,80.3V1217l135,80.3l135-80.3v-160.6L662,976z M716.5,1169.1l-54.5,32.4l-54.5-32.4
										v-64.8l54.5-32.4l54.5,32.4V1169.1z"/>
								</g>
								<polygon class="st7" points="662,976 662,1071.8 716.5,1104.2 716.5,1169.1 797,1217 797,1056.3 								"/>
								<polygon class="st4" points="662,1201.5 662,1297.3 797,1217 716.5,1169.1 								"/>
								<polygon class="st5" points="662,976 797,1056.3 716.5,1104.2 662,1071.8 								"/>
							</g>
							<g class="st9">
								<g>
									<defs>
										<path id="SVGID_15_" d="M932.1,815.2l135-80.3V574.3l-135-80.3l-135,80.3v160.6L932.1,815.2z M877.6,622.2l54.5-32.4
											l54.5,32.4V687l-54.5,32.4L877.6,687V622.2z"/>
									</defs>
									<clipPath id="SVGID_16_">
										<use xlink:href="#SVGID_15_"  style="overflow:visible;"/>
									</clipPath>
								</g>
								<polygon class="st7" points="932.1,815.2 932.1,719.4 877.6,687 877.6,622.2 797,574.3 797,734.9 								"/>
								<polygon class="st5" points="932.1,815.2 797,734.9 877.6,687 932.1,719.4 								"/>
							</g>
						</g>
					</g>
					<polygon class="st13" points="1202.2,719.4 1147.7,687 1147.7,622.2 1202.2,589.8 1256.7,622.2 1256.7,687 					"/>
					<polygon class="st14" points="1067.1,960.4 1012.6,928 1012.6,863.2 1067.1,830.8 1121.6,863.2 1121.6,928 					"/>
					<polygon class="st15" points="797,960.4 742.5,928 742.5,863.2 797,830.8 851.5,863.2 851.5,928 					"/>
					<polygon class="st16" points="662,1201.5 607.5,1169.1 607.5,1104.2 662,1071.8 716.5,1104.2 716.5,1169.1 					"/>
					<polygon class="st7" points="931.9,1201.5 877.4,1169.1 877.4,1104.2 931.9,1071.8 986.4,1104.2 986.4,1169.1 					"/>
					<polygon class="st17" points="1202.2,1201.5 1147.7,1169.1 1147.7,1104.2 1202.2,1071.8 1256.7,1104.2 1256.7,1169.1 					"/>
				</g>
				<polygon class="st18" points="1202.2,494 662,815.2 742.5,863.2 1202.2,589.8 				"/>
				<polygon class="st19" points="932.1,815.2 986.6,782.8 932.1,750.4 877.6,782.8 				"/>
				<polygon class="st19" points="1067.1,895.6 1121.6,863.2 1067.1,830.8 1012.6,863.2 				"/>
				<polygon class="st19" points="797,895.6 851.5,863.2 797,830.8 742.5,863.2 				"/>
				<polygon class="st19" points="1201.8,719.4 1256.3,687 1201.8,654.6 1147.3,687 				"/>
				<polygon class="st19" points="932.1,1136.7 986.6,1104.2 932.1,1071.8 877.6,1104.2 				"/>
				<polygon class="st19" points="932.1,976 986.6,943.6 932.1,911.2 877.6,943.6 				"/>
				<g>
					<polygon class="st20" points="742.5,863.2 742.5,1104.2 662,1104.2 662,815.2 					"/>
					<polygon class="st21" points="877.6,622.2 797,574.3 797,830.8 877.6,782.8 					"/>
					<rect x="1121.6" y="863.2" class="st22" width="80.6" height="64.8"/>
					<polygon class="st23" points="1067.1,1056.3 932.1,976 1012.6,928 1067.1,960.4 					"/>
				</g>
			</g>
		</g>
		<g>
			<rect x="674.5" y="386.4" style="fill:none;" width="505.1" height="87.5"/>
			<text transform="matrix(1 0 0 1 674.5237 396.9587)"><tspan x="0" y="0" style="fill:#A5A5A5; font-family:'RobotoSlab-Light'; font-size:14.8214px;">Sed</tspan><tspan x="22.6" y="0" style="fill:#A5A5A5; font-family:'RobotoSlab-Light'; font-size:14.8214px; letter-spacing:1;"> </tspan><tspan x="27" y="0" style="fill:#A5A5A5; font-family:'RobotoSlab-Light'; font-size:14.8214px;">ut</tspan><tspan x="39.8" y="0" style="fill:#A5A5A5; font-family:'RobotoSlab-Light'; font-size:14.8214px; letter-spacing:1;"> </tspan><tspan x="44.2" y="0" style="fill:#A5A5A5; font-family:'RobotoSlab-Light'; font-size:14.8214px;">perspiciatis</tspan><tspan x="112.4" y="0" style="fill:#A5A5A5; font-family:'RobotoSlab-Light'; font-size:14.8214px; letter-spacing:1;"> </tspan><tspan x="116.7" y="0" style="fill:#A5A5A5; font-family:'RobotoSlab-Light'; font-size:14.8214px;">unde</tspan><tspan x="148.3" y="0" style="fill:#A5A5A5; font-family:'RobotoSlab-Light'; font-size:14.8214px; letter-spacing:1;"> </tspan><tspan x="152.7" y="0" style="fill:#A5A5A5; font-family:'RobotoSlab-Light'; font-size:14.8214px;">omnis</tspan><tspan x="190" y="0" style="fill:#A5A5A5; font-family:'RobotoSlab-Light'; font-size:14.8214px; letter-spacing:1;"> </tspan><tspan x="194.4" y="0" style="fill:#A5A5A5; font-family:'RobotoSlab-Light'; font-size:14.8214px;">iste</tspan><tspan x="215.5" y="0" style="fill:#A5A5A5; font-family:'RobotoSlab-Light'; font-size:14.8214px; letter-spacing:1;"> </tspan><tspan x="219.8" y="0" style="fill:#A5A5A5; font-family:'RobotoSlab-Light'; font-size:14.8214px;">natus</tspan><tspan x="253.4" y="0" style="fill:#A5A5A5; font-family:'RobotoSlab-Light'; font-size:14.8214px; letter-spacing:1;"> </tspan><tspan x="257.8" y="0" style="fill:#A5A5A5; font-family:'RobotoSlab-Light'; font-size:14.8214px;">error</tspan><tspan x="287.1" y="0" style="fill:#A5A5A5; font-family:'RobotoSlab-Light'; font-size:14.8214px; letter-spacing:1;"> </tspan><tspan x="291.5" y="0" style="fill:#A5A5A5; font-family:'RobotoSlab-Light'; font-size:14.8214px;">sit</tspan><tspan x="305.3" y="0" style="fill:#A5A5A5; font-family:'RobotoSlab-Light'; font-size:14.8214px; letter-spacing:1;"> </tspan><tspan x="309.7" y="0" style="fill:#A5A5A5; font-family:'RobotoSlab-Light'; font-size:14.8214px;">voluptatem</tspan><tspan x="380.3" y="0" style="fill:#A5A5A5; font-family:'RobotoSlab-Light'; font-size:14.8214px; letter-spacing:1;"> </tspan><tspan x="384.7" y="0" style="fill:#A5A5A5; font-family:'RobotoSlab-Light'; font-size:14.8214px;">accusantiumy</tspan><tspan x="468.6" y="0" style="fill:#A5A5A5; font-family:'RobotoSlab-Light'; font-size:14.8214px; letter-spacing:1;"> </tspan><tspan x="473" y="0" style="fill:#A5A5A5; font-family:'RobotoSlab-Light'; font-size:14.8214px;">dolo</tspan><tspan x="500.5" y="0" style="fill:#A5A5A5; font-family:'RobotoSlab-Light'; font-size:14.8214px;">-</tspan><tspan x="0" y="23.1" style="fill:#A5A5A5; font-family:'RobotoSlab-Light'; font-size:14.8214px;">remque</tspan><tspan x="47.7" y="23.1" style="fill:#A5A5A5; font-family:'RobotoSlab-Light'; font-size:14.8214px;"> </tspan><tspan x="51.7" y="23.1" style="fill:#A5A5A5; font-family:'RobotoSlab-Light'; font-size:14.8214px;">laudantium,</tspan><tspan x="124.6" y="23.1" style="fill:#A5A5A5; font-family:'RobotoSlab-Light'; font-size:14.8214px;"> </tspan><tspan x="128.7" y="23.1" style="fill:#A5A5A5; font-family:'RobotoSlab-Light'; font-size:14.8214px;">totam</tspan><tspan x="165.4" y="23.1" style="fill:#A5A5A5; font-family:'RobotoSlab-Light'; font-size:14.8214px;"> </tspan><tspan x="169.4" y="23.1" style="fill:#A5A5A5; font-family:'RobotoSlab-Light'; font-size:14.8214px;">rem</tspan><tspan x="193.6" y="23.1" style="fill:#A5A5A5; font-family:'RobotoSlab-Light'; font-size:14.8214px;"> </tspan><tspan x="197.7" y="23.1" style="fill:#A5A5A5; font-family:'RobotoSlab-Light'; font-size:14.8214px;">aperiam,</tspan><tspan x="250.4" y="23.1" style="fill:#A5A5A5; font-family:'RobotoSlab-Light'; font-size:14.8214px;"> </tspan><tspan x="254.4" y="23.1" style="fill:#A5A5A5; font-family:'RobotoSlab-Light'; font-size:14.8214px;">eaque</tspan><tspan x="292.2" y="23.1" style="fill:#A5A5A5; font-family:'RobotoSlab-Light'; font-size:14.8214px;"> </tspan><tspan x="296.2" y="23.1" style="fill:#A5A5A5; font-family:'RobotoSlab-Light'; font-size:14.8214px;">ipsa</tspan><tspan x="320.6" y="23.1" style="fill:#A5A5A5; font-family:'RobotoSlab-Light'; font-size:14.8214px;"> </tspan><tspan x="324.6" y="23.1" style="fill:#A5A5A5; font-family:'RobotoSlab-Light'; font-size:14.8214px;">quae</tspan><tspan x="355.1" y="23.1" style="fill:#A5A5A5; font-family:'RobotoSlab-Light'; font-size:14.8214px;"> </tspan><tspan x="359.2" y="23.1" style="fill:#A5A5A5; font-family:'RobotoSlab-Light'; font-size:14.8214px;">ab</tspan><tspan x="374.4" y="23.1" style="fill:#A5A5A5; font-family:'RobotoSlab-Light'; font-size:14.8214px;"> </tspan><tspan x="378.5" y="23.1" style="fill:#A5A5A5; font-family:'RobotoSlab-Light'; font-size:14.8214px;">inventore</tspan><tspan x="436.9" y="23.1" style="fill:#A5A5A5; font-family:'RobotoSlab-Light'; font-size:14.8214px;"> </tspan><tspan x="441" y="23.1" style="fill:#A5A5A5; font-family:'RobotoSlab-Light'; font-size:14.8214px;">veritatis</tspan><tspan x="488.8" y="23.1" style="fill:#A5A5A5; font-family:'RobotoSlab-Light'; font-size:14.8214px;"> </tspan><tspan x="492.9" y="23.1" style="fill:#A5A5A5; font-family:'RobotoSlab-Light'; font-size:14.8214px;">et </tspan><tspan x="0" y="46.1" style="fill:#A5A5A5; font-family:'RobotoSlab-Light'; font-size:14.8214px;">quasi</tspan><tspan x="32.3" y="46.1" style="fill:#A5A5A5; font-family:'RobotoSlab-Light'; font-size:14.8214px;"> </tspan><tspan x="36.4" y="46.1" style="fill:#A5A5A5; font-family:'RobotoSlab-Light'; font-size:14.8214px;">architecto</tspan><tspan x="97.2" y="46.1" style="fill:#A5A5A5; font-family:'RobotoSlab-Light'; font-size:14.8214px;"> </tspan><tspan x="101.3" y="46.1" style="fill:#A5A5A5; font-family:'RobotoSlab-Light'; font-size:14.8214px;">beatae</tspan><tspan x="142.9" y="46.1" style="fill:#A5A5A5; font-family:'RobotoSlab-Light'; font-size:14.8214px;"> </tspan><tspan x="147" y="46.1" style="fill:#A5A5A5; font-family:'RobotoSlab-Light'; font-size:14.8214px;">vitae</tspan><tspan x="176.4" y="46.1" style="fill:#A5A5A5; font-family:'RobotoSlab-Light'; font-size:14.8214px;"> </tspan><tspan x="180.5" y="46.1" style="fill:#A5A5A5; font-family:'RobotoSlab-Light'; font-size:14.8214px;">dicta</tspan><tspan x="210.3" y="46.1" style="fill:#A5A5A5; font-family:'RobotoSlab-Light'; font-size:14.8214px;"> </tspan><tspan x="214.4" y="46.1" style="fill:#A5A5A5; font-family:'RobotoSlab-Light'; font-size:14.8214px;">sunt</tspan><tspan x="240.9" y="46.1" style="fill:#A5A5A5; font-family:'RobotoSlab-Light'; font-size:14.8214px;"> </tspan><tspan x="245.1" y="46.1" style="fill:#A5A5A5; font-family:'RobotoSlab-Light'; font-size:14.8214px;">explicabo</tspan><tspan x="303.8" y="46.1" style="fill:#A5A5A5; font-family:'RobotoSlab-Light'; font-size:14.8214px;"> </tspan><tspan x="307.9" y="46.1" style="fill:#A5A5A5; font-family:'RobotoSlab-Light'; font-size:14.8214px;">mo</tspan><tspan x="328.1" y="46.1" style="fill:#A5A5A5; font-family:'RobotoSlab-Light'; font-size:14.8214px;"> </tspan><tspan x="332.2" y="46.1" style="fill:#A5A5A5; font-family:'RobotoSlab-Light'; font-size:14.8214px;">enim</tspan><tspan x="363.1" y="46.1" style="fill:#A5A5A5; font-family:'RobotoSlab-Light'; font-size:14.8214px;"> </tspan><tspan x="367.2" y="46.1" style="fill:#A5A5A5; font-family:'RobotoSlab-Light'; font-size:14.8214px;">ipsau</tspan><tspan x="399.5" y="46.1" style="fill:#A5A5A5; font-family:'RobotoSlab-Light'; font-size:14.8214px;"> </tspan><tspan x="403.6" y="46.1" style="fill:#A5A5A5; font-family:'RobotoSlab-Light'; font-size:14.8214px;">voluptatem</tspan><tspan x="474.3" y="46.1" style="fill:#A5A5A5; font-family:'RobotoSlab-Light'; font-size:14.8214px;"> </tspan><tspan x="478.4" y="46.1" style="fill:#A5A5A5; font-family:'RobotoSlab-Light'; font-size:14.8214px;">quia </tspan><tspan x="0" y="69.2" style="fill:#A5A5A5; font-family:'RobotoSlab-Light'; font-size:14.8214px;">voluptas sit aspernatur voluptatem cornisi uti.</tspan></text>
		</g>
		<g>
			<text transform="matrix(1 0 0 1 672.1143 63.3359)"><tspan x="0" y="0" style="fill:#444750; font-family:'OpenSans-Light'; font-size:21.9177px;">WE ARE </tspan><tspan x="81.3" y="0" style="fill:#444750; font-family:'OpenSans-BoldItalic'; font-size:21.9177px;">COMPANY</tspan></text>
			<line class="st24" x1="865.3" y1="55.2" x2="1199.9" y2="55.2"/>
		</g>
		<g>
			<g>
				<circle class="st25" cx="777.9" cy="182.6" r="51.7"/>
				<circle class="st4" cx="726.2" cy="234.2" r="51.7"/>
				<circle class="st19" cx="777.9" cy="285.9" r="51.7"/>
				<circle class="st26" cx="829.5" cy="234.2" r="51.7"/>
			</g>
			<g>
				
					<text transform="matrix(1 0 0 1 766.4766 185.9366)" style="fill:#444750; font-family:'OpenSans-Light'; font-size:11.4993px;">25%</text>
			</g>
			<g>
				
					<text transform="matrix(1 0 0 1 714.8028 237.6105)" style="fill:#444750; font-family:'OpenSans-Light'; font-size:11.4993px;">25%</text>
			</g>
			<g>
				
					<text transform="matrix(1 0 0 1 766.4766 289.2853)" style="fill:#444750; font-family:'OpenSans-Light'; font-size:11.4993px;">25%</text>
			</g>
			<g>
				
					<text transform="matrix(1 0 0 1 818.1505 237.6095)" style="fill:#444750; font-family:'OpenSans-Light'; font-size:11.4993px;">25%</text>
			</g>
		</g>
		<g>
			<rect x="975.1" y="158.5" class="st25" width="28.1" height="42.1"/>
			<rect x="1019.2" y="147.3" class="st26" width="28.1" height="53.3"/>
			<rect x="1063.3" y="166.4" class="st19" width="28.1" height="34.2"/>
			<rect x="1107.4" y="135.7" class="st4" width="28.1" height="65"/>
			<rect x="1151.5" y="130.9" class="st19" width="28.1" height="69.8"/>
		</g>
	</g>
</g>
<g id="Artboard_1">
	<g>
		<defs>
			
				<rect id="SVGID_17_" x="27.7" y="27.7" transform="matrix(-1 -4.489532e-11 4.489532e-11 -1 628.1069 889.7128)" width="572.7" height="834.3"/>
		</defs>
		<clipPath id="SVGID_18_">
			<use xlink:href="#SVGID_17_"  style="overflow:visible;"/>
		</clipPath>
		<g class="st27">
			<g>
				<g>
					<g>
						<g>
							<defs>
								<path id="SVGID_19_" d="M314.2,725.8V555.4L171,470.2L27.7,555.4v170.4L171,811L314.2,725.8z M228.8,675L171,709.4
									L113.2,675v-68.8l57.8-34.4l57.8,34.4V675z"/>
							</defs>
							<clipPath id="SVGID_20_">
								<use xlink:href="#SVGID_19_"  style="overflow:visible;"/>
							</clipPath>
							<path class="st28" d="M314.2,725.8V555.4L171,470.2L27.7,555.4v170.4L171,811L314.2,725.8z M228.8,675L171,709.4L113.2,675
								v-68.8l57.8-34.4l57.8,34.4V675z"/>
						</g>
						<polygon class="st3" points="171,811 171,709.4 228.8,675 228.8,606.3 314.2,555.4 314.2,725.8 						"/>
						<polygon class="st4" points="171,571.9 171,470.2 314.2,555.4 228.8,606.3 						"/>
						<polygon class="st5" points="171,811 314.2,725.8 228.8,675 171,709.4 						"/>
					</g>
					<g>
						<g>
							<g>
								<defs>
									<path id="SVGID_21_" d="M457.5,811l143.3-85.2V555.4l-143.3-85.2l-143.3,85.2v170.4L457.5,811z M399.7,606.3l57.8-34.4
										l57.8,34.4V675l-57.8,34.4L399.7,675V606.3z"/>
								</defs>
								<clipPath id="SVGID_22_">
									<use xlink:href="#SVGID_21_"  style="overflow:visible;"/>
								</clipPath>
								<path class="st29" d="M457.5,811l143.3-85.2V555.4l-143.3-85.2l-143.3,85.2v170.4L457.5,811z M399.7,606.3l57.8-34.4
									l57.8,34.4V675l-57.8,34.4L399.7,675V606.3z"/>
							</g>
							<polygon class="st7" points="457.5,811 457.5,709.4 399.7,675 399.7,606.3 314.2,555.4 314.2,725.8 							"/>
							<polygon class="st4" points="457.5,571.9 457.5,470.2 314.2,555.4 399.7,606.3 							"/>
							<polygon class="st5" points="457.5,811 314.2,725.8 399.7,675 457.5,709.4 							"/>
						</g>
						<g>
							<g>
								<defs>
									<path id="SVGID_23_" d="M744,470.2V299.8l-143.3-85.2l-143.3,85.2v170.4l143.3,85.2L744,470.2z M658.6,419.4l-57.8,34.4
										L543,419.4v-68.8l57.8-34.4l57.8,34.4V419.4z"/>
								</defs>
								<clipPath id="SVGID_24_">
									<use xlink:href="#SVGID_23_"  style="overflow:visible;"/>
								</clipPath>
							</g>
							<polygon class="st7" points="600.8,555.4 600.8,453.8 658.6,419.4 658.6,350.7 744,299.8 744,470.2 							"/>
							<polygon class="st4" points="600.8,316.3 600.8,214.6 744,299.8 658.6,350.7 							"/>
							<polygon class="st5" points="600.8,555.4 744,470.2 658.6,419.4 600.8,453.8 							"/>
						</g>
						<g class="st9">
							<g>
								<defs>
									<path id="SVGID_25_" d="M314.2,1066.8l143.3-85.2V811.2L314.2,726L171,811.2v170.4L314.2,1066.8z M256.4,862l57.8-34.4
										L372,862v68.8l-57.8,34.4l-57.8-34.4V862z"/>
								</defs>
								<clipPath id="SVGID_26_">
									<use xlink:href="#SVGID_25_"  style="overflow:visible;"/>
								</clipPath>
								<path class="st30" d="M314.2,1066.8l143.3-85.2V811.2L314.2,726L171,811.2v170.4L314.2,1066.8z M256.4,862l57.8-34.4
									L372,862v68.8l-57.8,34.4l-57.8-34.4V862z"/>
							</g>
							<polygon class="st7" points="314.2,1066.8 314.2,965.1 256.4,930.8 256.4,862 171,811.2 171,981.6 							"/>
							<polygon class="st4" points="314.2,827.6 314.2,726 171,811.2 256.4,862 							"/>
							<polygon class="st5" points="314.2,1066.8 171,981.6 256.4,930.8 314.2,965.1 							"/>
						</g>
						<g class="st9">
							<g>
								<defs>
									<path id="SVGID_27_" d="M457.5,811.2v170.4l143.3,85.2L744,981.6V811.2L600.8,726L457.5,811.2z M543,862l57.8-34.4
										l57.8,34.4v68.8l-57.8,34.4L543,930.8V862z"/>
								</defs>
								<clipPath id="SVGID_28_">
									<use xlink:href="#SVGID_27_"  style="overflow:visible;"/>
								</clipPath>
								<path class="st31" d="M457.5,811.2v170.4l143.3,85.2L744,981.6V811.2L600.8,726L457.5,811.2z M543,862l57.8-34.4l57.8,34.4
									v68.8l-57.8,34.4L543,930.8V862z"/>
							</g>
							<polygon class="st7" points="600.8,726 600.8,827.6 543,862 543,930.8 457.5,981.6 457.5,811.2 							"/>
							<polygon class="st4" points="600.8,965.1 600.8,1066.8 457.5,981.6 543,930.8 							"/>
							<polygon class="st5" points="600.8,726 457.5,811.2 543,862 600.8,827.6 							"/>
						</g>
						<g class="st9">
							<g>
								<defs>
									<path id="SVGID_29_" d="M27.7,726l-143.3,85.2v170.4l143.3,85.2L171,981.6V811.2L27.7,726z M85.5,930.8l-57.8,34.4
										l-57.8-34.4V862l57.8-34.4L85.5,862V930.8z"/>
								</defs>
								<clipPath id="SVGID_30_">
									<use xlink:href="#SVGID_29_"  style="overflow:visible;"/>
								</clipPath>
								<path class="st32" d="M27.7,726l-143.3,85.2v170.4l143.3,85.2L171,981.6V811.2L27.7,726z M85.5,930.8l-57.8,34.4l-57.8-34.4
									V862l57.8-34.4L85.5,862V930.8z"/>
							</g>
							<polygon class="st7" points="27.7,726 27.7,827.6 85.5,862 85.5,930.8 171,981.6 171,811.2 							"/>
							<polygon class="st4" points="27.7,965.1 27.7,1066.8 171,981.6 85.5,930.8 							"/>
							<polygon class="st5" points="27.7,726 171,811.2 85.5,862 27.7,827.6 							"/>
						</g>
						<g class="st9">
							<g>
								<defs>
									<path id="SVGID_31_" d="M314.2,555.4l143.3-85.2V299.8l-143.3-85.2L171,299.8v170.4L314.2,555.4z M256.4,350.7l57.8-34.4
										l57.8,34.4v68.8l-57.8,34.4l-57.8-34.4V350.7z"/>
								</defs>
								<clipPath id="SVGID_32_">
									<use xlink:href="#SVGID_31_"  style="overflow:visible;"/>
								</clipPath>
								<path class="st33" d="M314.2,555.4l143.3-85.2V299.8l-143.3-85.2L171,299.8v170.4L314.2,555.4z M256.4,350.7l57.8-34.4
									l57.8,34.4v68.8l-57.8,34.4l-57.8-34.4V350.7z"/>
							</g>
							<polygon class="st7" points="314.2,555.4 314.2,453.8 256.4,419.4 256.4,350.7 171,299.8 171,470.2 							"/>
							<polygon class="st4" points="314.2,316.3 314.2,214.6 171,299.8 256.4,350.7 							"/>
							<polygon class="st5" points="314.2,555.4 171,470.2 256.4,419.4 314.2,453.8 							"/>
						</g>
					</g>
				</g>
				<polygon class="st4" points="314.2,453.8 256.4,419.4 256.4,350.7 314.2,316.3 372,350.7 372,419.4 				"/>
				<polygon class="st13" points="600.8,453.8 543,419.4 543,350.7 600.8,316.3 658.6,350.7 658.6,419.4 				"/>
				<polygon class="st14" points="457.5,709.4 399.7,675 399.7,606.3 457.5,571.9 515.3,606.3 515.3,675 				"/>
				<polygon class="st16" points="27.7,965.1 -30.1,930.8 -30.1,862 27.7,827.6 85.5,862 85.5,930.8 				"/>
				<polygon class="st7" points="314.1,965.1 256.3,930.8 256.3,862 314.1,827.6 371.9,862 371.9,930.8 				"/>
				<polygon class="st17" points="600.8,965.1 543,930.8 543,862 600.8,827.6 658.6,862 658.6,930.8 				"/>
			</g>
			<polygon class="st18" points="600.8,214.6 27.7,555.4 113.2,606.3 600.8,316.3 			"/>
			<polygon class="st19" points="314.2,453.8 372,419.4 314.2,385 256.4,419.4 			"/>
			<polygon class="st19" points="314.2,555.4 372,521.1 314.2,486.7 256.4,521.1 			"/>
			<polygon class="st19" points="457.5,640.6 515.3,606.3 457.5,571.9 399.7,606.3 			"/>
			<polygon class="st19" points="171,640.6 228.8,606.3 171,571.9 113.2,606.3 			"/>
			<polygon class="st19" points="600.4,453.8 658.2,419.4 600.4,385 542.6,419.4 			"/>
			<polygon class="st19" points="314.2,896.4 372,862 314.2,827.6 256.4,862 			"/>
			<polygon class="st19" points="314.2,726 372,691.6 314.2,657.2 256.4,691.6 			"/>
			<g>
				<polygon class="st20" points="113.2,606.3 113.2,862 27.7,862 27.7,555.4 				"/>
				<polygon class="st21" points="256.4,350.7 171,299.8 171,571.9 256.4,521.1 				"/>
				<rect x="515.3" y="606.3" class="st22" width="85.5" height="68.8"/>
				<polygon class="st23" points="457.5,811.2 314.2,726 399.7,675 457.5,709.4 				"/>
			</g>
		</g>
	</g>
</g>
</svg>
